G04 #@! TF.FileFunction,Copper,L1,Top,Signal*
%FSLAX46Y46*%
G04 Gerber Fmt 4.6, Leading zero omitted, Abs format (unit mm)*
G04 Created by KiCad (PCBNEW 4.0.6) date 05/07/17 15:41:17*
%MOMM*%
%LPD*%
G01*
G04 APERTURE LIST*
%ADD10C,0.100000*%
%ADD11R,1.250000X1.500000*%
%ADD12R,1.500000X1.250000*%
%ADD13R,1.500000X0.550000*%
%ADD14R,0.550000X1.500000*%
%ADD15R,1.700000X1.700000*%
%ADD16O,1.700000X1.700000*%
%ADD17R,1.727200X1.727200*%
%ADD18O,1.727200X1.727200*%
%ADD19C,3.000000*%
%ADD20R,2.880000X1.120000*%
%ADD21R,1.500000X1.300000*%
%ADD22R,1.500000X1.500000*%
%ADD23R,3.500000X2.400000*%
%ADD24R,1.300000X1.500000*%
%ADD25C,0.600000*%
%ADD26C,0.250000*%
%ADD27C,0.200000*%
G04 APERTURE END LIST*
D10*
D11*
X132334000Y-110724000D03*
X132334000Y-108224000D03*
X135128000Y-110724000D03*
X135128000Y-108224000D03*
D12*
X142728000Y-89662000D03*
X140228000Y-89662000D03*
D11*
X135128000Y-101326000D03*
X135128000Y-98826000D03*
D12*
X137902000Y-89662000D03*
X135402000Y-89662000D03*
X142474000Y-110998000D03*
X139974000Y-110998000D03*
X148102000Y-89408000D03*
X150602000Y-89408000D03*
X150642000Y-115062000D03*
X153142000Y-115062000D03*
X165080000Y-119888000D03*
X162580000Y-119888000D03*
X160040000Y-83058000D03*
X162540000Y-83058000D03*
D13*
X137588000Y-94076000D03*
X137588000Y-94876000D03*
X137588000Y-95676000D03*
X137588000Y-96476000D03*
X137588000Y-97276000D03*
X137588000Y-98076000D03*
X137588000Y-98876000D03*
X137588000Y-99676000D03*
X137588000Y-100476000D03*
X137588000Y-101276000D03*
X137588000Y-102076000D03*
X137588000Y-102876000D03*
X137588000Y-103676000D03*
X137588000Y-104476000D03*
X137588000Y-105276000D03*
X137588000Y-106076000D03*
D14*
X139288000Y-107776000D03*
X140088000Y-107776000D03*
X140888000Y-107776000D03*
X141688000Y-107776000D03*
X142488000Y-107776000D03*
X143288000Y-107776000D03*
X144088000Y-107776000D03*
X144888000Y-107776000D03*
X145688000Y-107776000D03*
X146488000Y-107776000D03*
X147288000Y-107776000D03*
X148088000Y-107776000D03*
X148888000Y-107776000D03*
X149688000Y-107776000D03*
X150488000Y-107776000D03*
X151288000Y-107776000D03*
D13*
X152988000Y-106076000D03*
X152988000Y-105276000D03*
X152988000Y-104476000D03*
X152988000Y-103676000D03*
X152988000Y-102876000D03*
X152988000Y-102076000D03*
X152988000Y-101276000D03*
X152988000Y-100476000D03*
X152988000Y-99676000D03*
X152988000Y-98876000D03*
X152988000Y-98076000D03*
X152988000Y-97276000D03*
X152988000Y-96476000D03*
X152988000Y-95676000D03*
X152988000Y-94876000D03*
X152988000Y-94076000D03*
D14*
X151288000Y-92376000D03*
X150488000Y-92376000D03*
X149688000Y-92376000D03*
X148888000Y-92376000D03*
X148088000Y-92376000D03*
X147288000Y-92376000D03*
X146488000Y-92376000D03*
X145688000Y-92376000D03*
X144888000Y-92376000D03*
X144088000Y-92376000D03*
X143288000Y-92376000D03*
X142488000Y-92376000D03*
X141688000Y-92376000D03*
X140888000Y-92376000D03*
X140088000Y-92376000D03*
X139288000Y-92376000D03*
D15*
X130302000Y-118872000D03*
D16*
X132842000Y-118872000D03*
X135382000Y-118872000D03*
X137922000Y-118872000D03*
X140462000Y-118872000D03*
X143002000Y-118872000D03*
X145542000Y-118872000D03*
X148082000Y-118872000D03*
X150622000Y-118872000D03*
X153162000Y-118872000D03*
D15*
X153162000Y-86614000D03*
D16*
X153162000Y-84074000D03*
D17*
X162306000Y-113030000D03*
D18*
X159766000Y-113030000D03*
X162306000Y-110490000D03*
X159766000Y-110490000D03*
X162306000Y-107950000D03*
X159766000Y-107950000D03*
X162306000Y-105410000D03*
X159766000Y-105410000D03*
X162306000Y-102870000D03*
X159766000Y-102870000D03*
X162306000Y-100330000D03*
X159766000Y-100330000D03*
X162306000Y-97790000D03*
X159766000Y-97790000D03*
X162306000Y-95250000D03*
X159766000Y-95250000D03*
X162306000Y-92710000D03*
X159766000Y-92710000D03*
X162306000Y-90170000D03*
X159766000Y-90170000D03*
D15*
X168656000Y-113030000D03*
D16*
X168656000Y-110490000D03*
X168656000Y-107950000D03*
X168656000Y-105410000D03*
X168656000Y-102870000D03*
X168656000Y-100330000D03*
X168656000Y-97790000D03*
X168656000Y-95250000D03*
X168656000Y-92710000D03*
X168656000Y-90170000D03*
D19*
X124352000Y-107916000D03*
D20*
X127992000Y-104846000D03*
X127992000Y-102346000D03*
X127992000Y-100346000D03*
X127992000Y-97846000D03*
D19*
X124352000Y-94776000D03*
D21*
X134700000Y-96774000D03*
X132000000Y-96774000D03*
X134700000Y-94742000D03*
X132000000Y-94742000D03*
D22*
X132080000Y-83820000D03*
X137668000Y-83820000D03*
X143256000Y-83820000D03*
X146050000Y-83820000D03*
X134874000Y-83820000D03*
X140462000Y-83820000D03*
X148844000Y-83820000D03*
D23*
X137474000Y-114046000D03*
X132274000Y-114046000D03*
D15*
X131826000Y-104648000D03*
D16*
X134366000Y-104648000D03*
D15*
X129413000Y-90170000D03*
D16*
X129413000Y-87630000D03*
D24*
X153924000Y-109902000D03*
X153924000Y-112602000D03*
X126365000Y-88058000D03*
X126365000Y-90758000D03*
D25*
X150622000Y-113538000D03*
X140208000Y-109474000D03*
X142494000Y-112522000D03*
X140208000Y-87630000D03*
X159766000Y-121158000D03*
X135382000Y-91440000D03*
X139954000Y-99568000D03*
X142494000Y-114046000D03*
X135382000Y-87122000D03*
X150622000Y-83820000D03*
X164846000Y-83058000D03*
X132080000Y-87122000D03*
X141732000Y-101981000D03*
X145796000Y-103632000D03*
X146558000Y-104394000D03*
X147320000Y-105156000D03*
X148082000Y-105918000D03*
X152273000Y-109855000D03*
X151003000Y-98044000D03*
X146050000Y-85598000D03*
X147320000Y-94488000D03*
D26*
X132334000Y-110724000D02*
X132334000Y-113986000D01*
X132334000Y-113986000D02*
X132274000Y-114046000D01*
X132274000Y-114046000D02*
X132274000Y-115256000D01*
X144888000Y-114954000D02*
X144888000Y-107776000D01*
X144018000Y-115824000D02*
X144888000Y-114954000D01*
X143002000Y-115824000D02*
X144018000Y-115824000D01*
X132842000Y-115824000D02*
X143002000Y-115824000D01*
X132274000Y-115256000D02*
X132842000Y-115824000D01*
X131826000Y-104648000D02*
X131826000Y-102128000D01*
X131826000Y-102128000D02*
X135128000Y-98826000D01*
X131826000Y-104648000D02*
X132334000Y-105156000D01*
X132334000Y-105156000D02*
X132334000Y-108224000D01*
X150642000Y-115062000D02*
X150642000Y-113558000D01*
X150642000Y-113558000D02*
X150622000Y-113538000D01*
X150622000Y-118872000D02*
X150622000Y-115082000D01*
X150622000Y-115082000D02*
X150642000Y-115062000D01*
X132588000Y-107970000D02*
X132334000Y-108224000D01*
X168656000Y-92710000D02*
X168656000Y-95250000D01*
X137588000Y-98076000D02*
X135878000Y-98076000D01*
X135878000Y-98076000D02*
X135128000Y-98826000D01*
X124352000Y-107916000D02*
X124352000Y-94776000D01*
X124352000Y-107916000D02*
X124922000Y-107916000D01*
X124922000Y-107916000D02*
X127992000Y-104846000D01*
X127992000Y-104846000D02*
X128956000Y-104846000D01*
X128956000Y-104846000D02*
X132334000Y-108224000D01*
X135128000Y-108224000D02*
X136378000Y-109474000D01*
X136378000Y-109474000D02*
X140208000Y-109474000D01*
X142474000Y-110998000D02*
X142474000Y-112502000D01*
X142474000Y-112502000D02*
X142494000Y-112522000D01*
X132334000Y-108224000D02*
X135128000Y-108224000D01*
X143288000Y-107776000D02*
X143288000Y-110184000D01*
X143288000Y-110184000D02*
X142474000Y-110998000D01*
X140228000Y-89662000D02*
X140228000Y-87650000D01*
X140228000Y-87650000D02*
X140208000Y-87630000D01*
X140088000Y-92376000D02*
X140088000Y-89802000D01*
X140088000Y-89802000D02*
X140228000Y-89662000D01*
X137902000Y-89662000D02*
X140228000Y-89662000D01*
X146050000Y-83820000D02*
X146050000Y-82296000D01*
X146050000Y-82296000D02*
X151384000Y-82296000D01*
X151384000Y-82296000D02*
X153162000Y-84074000D01*
X160040000Y-83058000D02*
X154178000Y-83058000D01*
X154178000Y-83058000D02*
X153162000Y-84074000D01*
X168656000Y-92710000D02*
X166116000Y-90170000D01*
X166116000Y-90170000D02*
X162306000Y-90170000D01*
X162306000Y-90170000D02*
X160040000Y-87904000D01*
X160040000Y-87904000D02*
X160040000Y-83058000D01*
X146050000Y-83820000D02*
X148102000Y-85872000D01*
X148102000Y-85872000D02*
X148102000Y-89408000D01*
X148102000Y-89408000D02*
X148102000Y-92362000D01*
X148102000Y-92362000D02*
X148088000Y-92376000D01*
X165080000Y-119888000D02*
X165080000Y-120670000D01*
X165080000Y-120670000D02*
X164592000Y-121158000D01*
X164592000Y-121158000D02*
X159766000Y-121158000D01*
X150642000Y-118852000D02*
X150622000Y-118872000D01*
X162306000Y-107950000D02*
X164846000Y-107950000D01*
X165080000Y-108184000D02*
X165080000Y-119888000D01*
X164846000Y-107950000D02*
X165080000Y-108184000D01*
X144088000Y-107776000D02*
X144088000Y-114484000D01*
X143510000Y-115062000D02*
X138490000Y-115062000D01*
X144088000Y-114484000D02*
X143510000Y-115062000D01*
X138490000Y-115062000D02*
X137474000Y-114046000D01*
X135128000Y-110724000D02*
X135128000Y-111700000D01*
X135128000Y-111700000D02*
X137474000Y-114046000D01*
X140888000Y-92376000D02*
X140888000Y-91502000D01*
X140888000Y-91502000D02*
X142728000Y-89662000D01*
X137588000Y-98876000D02*
X136328000Y-98876000D01*
X136144000Y-100310000D02*
X135128000Y-101326000D01*
X136144000Y-99060000D02*
X136144000Y-100310000D01*
X136328000Y-98876000D02*
X136144000Y-99060000D01*
X153924000Y-112602000D02*
X153924000Y-114280000D01*
X153924000Y-114280000D02*
X153142000Y-115062000D01*
X126365000Y-90758000D02*
X127992000Y-92385000D01*
X127992000Y-92385000D02*
X127992000Y-97846000D01*
X127992000Y-97846000D02*
X127992000Y-97814000D01*
X127992000Y-97814000D02*
X129540000Y-96266000D01*
X129540000Y-96266000D02*
X129540000Y-94234000D01*
X129540000Y-94234000D02*
X134112000Y-89662000D01*
X134112000Y-89662000D02*
X135402000Y-89662000D01*
X137588000Y-99676000D02*
X139846000Y-99676000D01*
X135402000Y-91420000D02*
X135402000Y-89662000D01*
X135382000Y-91440000D02*
X135402000Y-91420000D01*
X139846000Y-99676000D02*
X139954000Y-99568000D01*
X139974000Y-110998000D02*
X139974000Y-111526000D01*
X139974000Y-111526000D02*
X142494000Y-114046000D01*
X142488000Y-107776000D02*
X142488000Y-108972000D01*
X141244000Y-109728000D02*
X139974000Y-110998000D01*
X141732000Y-109728000D02*
X141244000Y-109728000D01*
X142488000Y-108972000D02*
X141732000Y-109728000D01*
X137588000Y-95676000D02*
X138766000Y-95676000D01*
X139288000Y-95154000D02*
X139288000Y-92376000D01*
X138766000Y-95676000D02*
X139288000Y-95154000D01*
X139288000Y-92376000D02*
X138116000Y-92376000D01*
X138116000Y-92376000D02*
X135402000Y-89662000D01*
X135402000Y-89662000D02*
X135402000Y-87142000D01*
X135402000Y-87142000D02*
X135382000Y-87122000D01*
X162540000Y-83058000D02*
X164846000Y-83058000D01*
X150622000Y-83820000D02*
X148844000Y-83820000D01*
X162306000Y-110490000D02*
X162306000Y-113030000D01*
X168656000Y-90170000D02*
X162540000Y-84054000D01*
X162540000Y-84054000D02*
X162540000Y-83058000D01*
X148844000Y-83820000D02*
X150602000Y-85578000D01*
X150602000Y-85578000D02*
X150602000Y-89408000D01*
X150602000Y-89408000D02*
X148888000Y-91122000D01*
X148888000Y-91122000D02*
X148888000Y-92376000D01*
X153142000Y-115062000D02*
X153142000Y-118852000D01*
X153142000Y-118852000D02*
X153162000Y-118872000D01*
X162580000Y-119888000D02*
X157968000Y-119888000D01*
X157968000Y-119888000D02*
X153142000Y-115062000D01*
X162306000Y-113030000D02*
X162306000Y-119614000D01*
X162306000Y-119614000D02*
X162580000Y-119888000D01*
X137588000Y-96476000D02*
X136434000Y-96476000D01*
X136434000Y-96476000D02*
X134700000Y-94742000D01*
X137588000Y-97276000D02*
X135202000Y-97276000D01*
X135202000Y-97276000D02*
X134700000Y-96774000D01*
X141688000Y-107776000D02*
X141688000Y-102025000D01*
X141688000Y-102025000D02*
X141732000Y-101981000D01*
X132080000Y-87122000D02*
X131953000Y-87122000D01*
X131953000Y-87122000D02*
X131953000Y-87249000D01*
X126365000Y-88058000D02*
X128985000Y-88058000D01*
X128985000Y-88058000D02*
X129413000Y-87630000D01*
X129413000Y-87630000D02*
X131572000Y-87630000D01*
X131572000Y-87630000D02*
X131953000Y-87249000D01*
X131953000Y-87249000D02*
X132080000Y-87122000D01*
X132080000Y-87122000D02*
X132080000Y-83820000D01*
X145688000Y-107776000D02*
X145688000Y-103740000D01*
X145688000Y-103740000D02*
X145796000Y-103632000D01*
X146488000Y-107776000D02*
X146488000Y-104464000D01*
X146488000Y-104464000D02*
X146558000Y-104394000D01*
X147288000Y-107776000D02*
X147288000Y-105188000D01*
X147288000Y-105188000D02*
X147320000Y-105156000D01*
X148088000Y-107776000D02*
X148088000Y-105924000D01*
X148088000Y-105924000D02*
X148082000Y-105918000D01*
X148888000Y-107776000D02*
X148888000Y-111970000D01*
X142240000Y-117094000D02*
X140462000Y-118872000D01*
X143764000Y-117094000D02*
X142240000Y-117094000D01*
X148888000Y-111970000D02*
X143764000Y-117094000D01*
X149688000Y-107776000D02*
X149688000Y-111932000D01*
X149688000Y-111932000D02*
X143002000Y-118618000D01*
X143002000Y-118618000D02*
X143002000Y-118872000D01*
X150488000Y-107776000D02*
X150488000Y-111894000D01*
X145542000Y-116840000D02*
X145542000Y-118872000D01*
X150488000Y-111894000D02*
X145542000Y-116840000D01*
X151288000Y-107776000D02*
X151288000Y-111856000D01*
X148082000Y-115062000D02*
X148082000Y-118872000D01*
X151288000Y-111856000D02*
X148082000Y-115062000D01*
X152988000Y-104476000D02*
X156292000Y-104476000D01*
X157226000Y-110490000D02*
X159766000Y-113030000D01*
X157226000Y-105410000D02*
X157226000Y-110490000D01*
X156292000Y-104476000D02*
X157226000Y-105410000D01*
X152988000Y-103676000D02*
X157016000Y-103676000D01*
X157734000Y-108458000D02*
X159766000Y-110490000D01*
X157734000Y-104394000D02*
X157734000Y-108458000D01*
X157016000Y-103676000D02*
X157734000Y-104394000D01*
X159766000Y-107950000D02*
X161036000Y-106680000D01*
X167386000Y-106680000D02*
X168656000Y-107950000D01*
X161036000Y-106680000D02*
X167386000Y-106680000D01*
X152988000Y-102876000D02*
X157232000Y-102876000D01*
X158242000Y-106426000D02*
X159766000Y-107950000D01*
X158242000Y-103886000D02*
X158242000Y-106426000D01*
X157232000Y-102876000D02*
X158242000Y-103886000D01*
X159766000Y-102870000D02*
X161036000Y-104140000D01*
X167386000Y-104140000D02*
X168656000Y-105410000D01*
X161036000Y-104140000D02*
X167386000Y-104140000D01*
X152988000Y-102076000D02*
X158972000Y-102076000D01*
X158972000Y-102076000D02*
X159766000Y-102870000D01*
X159766000Y-95250000D02*
X160020000Y-95250000D01*
X160020000Y-95250000D02*
X161290000Y-96520000D01*
X165354000Y-99568000D02*
X168656000Y-102870000D01*
X165354000Y-97282000D02*
X165354000Y-99568000D01*
X164592000Y-96520000D02*
X165354000Y-97282000D01*
X161290000Y-96520000D02*
X164592000Y-96520000D01*
X152988000Y-101276000D02*
X157296000Y-101276000D01*
X158496000Y-96520000D02*
X159766000Y-95250000D01*
X158496000Y-100076000D02*
X158496000Y-96520000D01*
X157296000Y-101276000D02*
X158496000Y-100076000D01*
X159766000Y-92710000D02*
X161036000Y-93980000D01*
X166116000Y-97790000D02*
X168656000Y-100330000D01*
X166116000Y-94488000D02*
X166116000Y-97790000D01*
X165608000Y-93980000D02*
X166116000Y-94488000D01*
X161036000Y-93980000D02*
X165608000Y-93980000D01*
X152988000Y-100476000D02*
X157080000Y-100476000D01*
X157988000Y-94488000D02*
X159766000Y-92710000D01*
X157988000Y-99568000D02*
X157988000Y-94488000D01*
X157080000Y-100476000D02*
X157988000Y-99568000D01*
X159766000Y-90170000D02*
X161036000Y-91440000D01*
X166878000Y-96012000D02*
X168656000Y-97790000D01*
X166878000Y-92202000D02*
X166878000Y-96012000D01*
X166116000Y-91440000D02*
X166878000Y-92202000D01*
X161036000Y-91440000D02*
X166116000Y-91440000D01*
X152988000Y-99676000D02*
X156864000Y-99676000D01*
X157480000Y-92456000D02*
X159766000Y-90170000D01*
X157480000Y-99060000D02*
X157480000Y-92456000D01*
X156864000Y-99676000D02*
X157480000Y-99060000D01*
X153924000Y-109902000D02*
X152320000Y-109902000D01*
X152320000Y-109902000D02*
X152273000Y-109855000D01*
X152988000Y-98076000D02*
X151035000Y-98076000D01*
X151035000Y-98076000D02*
X151003000Y-98044000D01*
X152988000Y-94876000D02*
X154044000Y-94876000D01*
X154940000Y-88392000D02*
X153162000Y-86614000D01*
X154940000Y-93980000D02*
X154940000Y-88392000D01*
X154044000Y-94876000D02*
X154940000Y-93980000D01*
X147288000Y-92376000D02*
X147288000Y-94456000D01*
X145034000Y-85598000D02*
X143256000Y-83820000D01*
X146050000Y-85598000D02*
X145034000Y-85598000D01*
X147288000Y-94456000D02*
X147320000Y-94488000D01*
X146488000Y-92376000D02*
X146488000Y-88068000D01*
X142240000Y-85598000D02*
X140462000Y-83820000D01*
X144018000Y-85598000D02*
X142240000Y-85598000D01*
X146488000Y-88068000D02*
X144018000Y-85598000D01*
X145688000Y-92376000D02*
X145688000Y-88030000D01*
X139954000Y-86106000D02*
X137668000Y-83820000D01*
X143764000Y-86106000D02*
X139954000Y-86106000D01*
X145688000Y-88030000D02*
X143764000Y-86106000D01*
X144888000Y-92376000D02*
X144888000Y-87992000D01*
X137668000Y-86614000D02*
X134874000Y-83820000D01*
X143510000Y-86614000D02*
X137668000Y-86614000D01*
X144888000Y-87992000D02*
X143510000Y-86614000D01*
X132000000Y-96774000D02*
X132000000Y-99902000D01*
X129556000Y-102346000D02*
X127992000Y-102346000D01*
X132000000Y-99902000D02*
X129556000Y-102346000D01*
X132000000Y-94742000D02*
X130556000Y-94742000D01*
X129524000Y-100346000D02*
X127992000Y-100346000D01*
X130302000Y-99568000D02*
X129524000Y-100346000D01*
X130302000Y-94996000D02*
X130302000Y-99568000D01*
X130556000Y-94742000D02*
X130302000Y-94996000D01*
D27*
G36*
X172678000Y-121878000D02*
X121454000Y-121878000D01*
X121454000Y-119033883D01*
X122359637Y-119033883D01*
X122678669Y-119806000D01*
X123268893Y-120397255D01*
X124040452Y-120717634D01*
X124875883Y-120718363D01*
X125648000Y-120399331D01*
X126239255Y-119809107D01*
X126559634Y-119037548D01*
X126560363Y-118202117D01*
X126241331Y-117430000D01*
X125651107Y-116838745D01*
X124879548Y-116518366D01*
X124044117Y-116517637D01*
X123272000Y-116836669D01*
X122680745Y-117426893D01*
X122360366Y-118198452D01*
X122359637Y-119033883D01*
X121454000Y-119033883D01*
X121454000Y-109338393D01*
X123071028Y-109338393D01*
X123235742Y-109622527D01*
X123973772Y-109919798D01*
X124769384Y-109912010D01*
X125468258Y-109622527D01*
X125632972Y-109338393D01*
X124352000Y-108057421D01*
X123071028Y-109338393D01*
X121454000Y-109338393D01*
X121454000Y-107537772D01*
X122348202Y-107537772D01*
X122355990Y-108333384D01*
X122645473Y-109032258D01*
X122929607Y-109196972D01*
X124210579Y-107916000D01*
X124493421Y-107916000D01*
X125774393Y-109196972D01*
X126058527Y-109032258D01*
X126355798Y-108294228D01*
X126348010Y-107498616D01*
X126296618Y-107374544D01*
X131209000Y-107374544D01*
X131209000Y-107999000D01*
X131334000Y-108124000D01*
X132234000Y-108124000D01*
X132234000Y-107099000D01*
X132434000Y-107099000D01*
X132434000Y-108124000D01*
X133334000Y-108124000D01*
X133459000Y-107999000D01*
X133459000Y-107374544D01*
X134003000Y-107374544D01*
X134003000Y-107999000D01*
X134128000Y-108124000D01*
X135028000Y-108124000D01*
X135028000Y-107099000D01*
X135228000Y-107099000D01*
X135228000Y-108124000D01*
X136128000Y-108124000D01*
X136253000Y-107999000D01*
X136253000Y-107374544D01*
X136176880Y-107190773D01*
X136036227Y-107050121D01*
X135852456Y-106974000D01*
X135353000Y-106974000D01*
X135228000Y-107099000D01*
X135028000Y-107099000D01*
X134903000Y-106974000D01*
X134403544Y-106974000D01*
X134219773Y-107050121D01*
X134079120Y-107190773D01*
X134003000Y-107374544D01*
X133459000Y-107374544D01*
X133382880Y-107190773D01*
X133242227Y-107050121D01*
X133058456Y-106974000D01*
X132559000Y-106974000D01*
X132434000Y-107099000D01*
X132234000Y-107099000D01*
X132109000Y-106974000D01*
X131609544Y-106974000D01*
X131425773Y-107050121D01*
X131285120Y-107190773D01*
X131209000Y-107374544D01*
X126296618Y-107374544D01*
X126058527Y-106799742D01*
X125774393Y-106635028D01*
X124493421Y-107916000D01*
X124210579Y-107916000D01*
X122929607Y-106635028D01*
X122645473Y-106799742D01*
X122348202Y-107537772D01*
X121454000Y-107537772D01*
X121454000Y-106493607D01*
X123071028Y-106493607D01*
X124352000Y-107774579D01*
X125632972Y-106493607D01*
X125468258Y-106209473D01*
X124730228Y-105912202D01*
X123934616Y-105919990D01*
X123235742Y-106209473D01*
X123071028Y-106493607D01*
X121454000Y-106493607D01*
X121454000Y-105071000D01*
X126052000Y-105071000D01*
X126052000Y-105505456D01*
X126128120Y-105689227D01*
X126268773Y-105829879D01*
X126452544Y-105906000D01*
X127767000Y-105906000D01*
X127892000Y-105781000D01*
X127892000Y-104946000D01*
X128092000Y-104946000D01*
X128092000Y-105781000D01*
X128217000Y-105906000D01*
X129531456Y-105906000D01*
X129715227Y-105829879D01*
X129855880Y-105689227D01*
X129932000Y-105505456D01*
X129932000Y-105071000D01*
X129807000Y-104946000D01*
X128092000Y-104946000D01*
X127892000Y-104946000D01*
X126177000Y-104946000D01*
X126052000Y-105071000D01*
X121454000Y-105071000D01*
X121454000Y-104873000D01*
X130476000Y-104873000D01*
X130476000Y-105597456D01*
X130552120Y-105781227D01*
X130692773Y-105921879D01*
X130876544Y-105998000D01*
X131601000Y-105998000D01*
X131726000Y-105873000D01*
X131726000Y-104748000D01*
X130601000Y-104748000D01*
X130476000Y-104873000D01*
X121454000Y-104873000D01*
X121454000Y-104186544D01*
X126052000Y-104186544D01*
X126052000Y-104621000D01*
X126177000Y-104746000D01*
X127892000Y-104746000D01*
X127892000Y-103911000D01*
X128092000Y-103911000D01*
X128092000Y-104746000D01*
X129807000Y-104746000D01*
X129932000Y-104621000D01*
X129932000Y-104186544D01*
X129855880Y-104002773D01*
X129715227Y-103862121D01*
X129531456Y-103786000D01*
X128217000Y-103786000D01*
X128092000Y-103911000D01*
X127892000Y-103911000D01*
X127767000Y-103786000D01*
X126452544Y-103786000D01*
X126268773Y-103862121D01*
X126128120Y-104002773D01*
X126052000Y-104186544D01*
X121454000Y-104186544D01*
X121454000Y-103698544D01*
X130476000Y-103698544D01*
X130476000Y-104423000D01*
X130601000Y-104548000D01*
X131726000Y-104548000D01*
X131726000Y-103423000D01*
X131926000Y-103423000D01*
X131926000Y-104548000D01*
X131946000Y-104548000D01*
X131946000Y-104748000D01*
X131926000Y-104748000D01*
X131926000Y-105873000D01*
X132051000Y-105998000D01*
X132775456Y-105998000D01*
X132959227Y-105921879D01*
X133099880Y-105781227D01*
X133176000Y-105597456D01*
X133176000Y-105276732D01*
X133411406Y-105629042D01*
X133849377Y-105921685D01*
X134366000Y-106024448D01*
X134882623Y-105921685D01*
X135320594Y-105629042D01*
X135613237Y-105191071D01*
X135716000Y-104674448D01*
X135716000Y-104621552D01*
X135613237Y-104104929D01*
X135320594Y-103666958D01*
X134882623Y-103374315D01*
X134366000Y-103271552D01*
X133849377Y-103374315D01*
X133411406Y-103666958D01*
X133176000Y-104019268D01*
X133176000Y-103698544D01*
X133099880Y-103514773D01*
X132959227Y-103374121D01*
X132775456Y-103298000D01*
X132051000Y-103298000D01*
X131926000Y-103423000D01*
X131726000Y-103423000D01*
X131601000Y-103298000D01*
X130876544Y-103298000D01*
X130692773Y-103374121D01*
X130552120Y-103514773D01*
X130476000Y-103698544D01*
X121454000Y-103698544D01*
X121454000Y-96198393D01*
X123071028Y-96198393D01*
X123235742Y-96482527D01*
X123973772Y-96779798D01*
X124769384Y-96772010D01*
X125468258Y-96482527D01*
X125632972Y-96198393D01*
X124352000Y-94917421D01*
X123071028Y-96198393D01*
X121454000Y-96198393D01*
X121454000Y-94397772D01*
X122348202Y-94397772D01*
X122355990Y-95193384D01*
X122645473Y-95892258D01*
X122929607Y-96056972D01*
X124210579Y-94776000D01*
X124493421Y-94776000D01*
X125774393Y-96056972D01*
X126058527Y-95892258D01*
X126355798Y-95154228D01*
X126348010Y-94358616D01*
X126058527Y-93659742D01*
X125774393Y-93495028D01*
X124493421Y-94776000D01*
X124210579Y-94776000D01*
X122929607Y-93495028D01*
X122645473Y-93659742D01*
X122348202Y-94397772D01*
X121454000Y-94397772D01*
X121454000Y-93353607D01*
X123071028Y-93353607D01*
X124352000Y-94634579D01*
X125632972Y-93353607D01*
X125468258Y-93069473D01*
X124730228Y-92772202D01*
X123934616Y-92779990D01*
X123235742Y-93069473D01*
X123071028Y-93353607D01*
X121454000Y-93353607D01*
X121454000Y-90008000D01*
X125205205Y-90008000D01*
X125205205Y-91508000D01*
X125240069Y-91693289D01*
X125349575Y-91863465D01*
X125516661Y-91977630D01*
X125715000Y-92017795D01*
X126740912Y-92017795D01*
X127367000Y-92643883D01*
X127367000Y-96776205D01*
X126552000Y-96776205D01*
X126366711Y-96811069D01*
X126196535Y-96920575D01*
X126082370Y-97087661D01*
X126042205Y-97286000D01*
X126042205Y-98406000D01*
X126077069Y-98591289D01*
X126186575Y-98761465D01*
X126353661Y-98875630D01*
X126552000Y-98915795D01*
X129432000Y-98915795D01*
X129617289Y-98880931D01*
X129677000Y-98842508D01*
X129677000Y-99309116D01*
X129653750Y-99332366D01*
X129630339Y-99316370D01*
X129432000Y-99276205D01*
X126552000Y-99276205D01*
X126366711Y-99311069D01*
X126196535Y-99420575D01*
X126082370Y-99587661D01*
X126042205Y-99786000D01*
X126042205Y-100906000D01*
X126077069Y-101091289D01*
X126186575Y-101261465D01*
X126311330Y-101346706D01*
X126196535Y-101420575D01*
X126082370Y-101587661D01*
X126042205Y-101786000D01*
X126042205Y-102906000D01*
X126077069Y-103091289D01*
X126186575Y-103261465D01*
X126353661Y-103375630D01*
X126552000Y-103415795D01*
X129432000Y-103415795D01*
X129617289Y-103380931D01*
X129787465Y-103271425D01*
X129901630Y-103104339D01*
X129941795Y-102906000D01*
X129941795Y-102825458D01*
X129997942Y-102787942D01*
X132441942Y-100343942D01*
X132577425Y-100141177D01*
X132625000Y-99902000D01*
X132625000Y-97933795D01*
X132750000Y-97933795D01*
X132935289Y-97898931D01*
X133105465Y-97789425D01*
X133219630Y-97622339D01*
X133259795Y-97424000D01*
X133259795Y-96124000D01*
X133224931Y-95938711D01*
X133115425Y-95768535D01*
X133102221Y-95759513D01*
X133105465Y-95757425D01*
X133219630Y-95590339D01*
X133259795Y-95392000D01*
X133259795Y-94092000D01*
X133224931Y-93906711D01*
X133115425Y-93736535D01*
X132948339Y-93622370D01*
X132750000Y-93582205D01*
X131250000Y-93582205D01*
X131064711Y-93617069D01*
X130997683Y-93660200D01*
X134180407Y-90477476D01*
X134286575Y-90642465D01*
X134453661Y-90756630D01*
X134652000Y-90796795D01*
X134777000Y-90796795D01*
X134777000Y-90913560D01*
X134704188Y-90986245D01*
X134582139Y-91280172D01*
X134581861Y-91598432D01*
X134703397Y-91892572D01*
X134928245Y-92117812D01*
X135222172Y-92239861D01*
X135540432Y-92240139D01*
X135834572Y-92118603D01*
X136059812Y-91893755D01*
X136181861Y-91599828D01*
X136182100Y-91325984D01*
X137674056Y-92817939D01*
X137674058Y-92817942D01*
X137793787Y-92897942D01*
X137876823Y-92953425D01*
X138116000Y-93001001D01*
X138116005Y-93001000D01*
X138503205Y-93001000D01*
X138503205Y-93126000D01*
X138538069Y-93311289D01*
X138562488Y-93349237D01*
X138536339Y-93331370D01*
X138338000Y-93291205D01*
X136838000Y-93291205D01*
X136652711Y-93326069D01*
X136482535Y-93435575D01*
X136368370Y-93602661D01*
X136328205Y-93801000D01*
X136328205Y-94351000D01*
X136352589Y-94480590D01*
X136328205Y-94601000D01*
X136328205Y-95151000D01*
X136352589Y-95280590D01*
X136328205Y-95401000D01*
X136328205Y-95486321D01*
X135959795Y-95117911D01*
X135959795Y-94092000D01*
X135924931Y-93906711D01*
X135815425Y-93736535D01*
X135648339Y-93622370D01*
X135450000Y-93582205D01*
X133950000Y-93582205D01*
X133764711Y-93617069D01*
X133594535Y-93726575D01*
X133480370Y-93893661D01*
X133440205Y-94092000D01*
X133440205Y-95392000D01*
X133475069Y-95577289D01*
X133584575Y-95747465D01*
X133597779Y-95756487D01*
X133594535Y-95758575D01*
X133480370Y-95925661D01*
X133440205Y-96124000D01*
X133440205Y-97424000D01*
X133475069Y-97609289D01*
X133584575Y-97779465D01*
X133751661Y-97893630D01*
X133950000Y-97933795D01*
X134020707Y-97933795D01*
X134003000Y-97976544D01*
X134003000Y-98601000D01*
X134128000Y-98726000D01*
X135028000Y-98726000D01*
X135028000Y-98706000D01*
X135228000Y-98706000D01*
X135228000Y-98726000D01*
X135248000Y-98726000D01*
X135248000Y-98926000D01*
X135228000Y-98926000D01*
X135228000Y-98946000D01*
X135028000Y-98946000D01*
X135028000Y-98926000D01*
X134128000Y-98926000D01*
X134003000Y-99051000D01*
X134003000Y-99675456D01*
X134079120Y-99859227D01*
X134219773Y-99999879D01*
X134403544Y-100076000D01*
X134450943Y-100076000D01*
X134317711Y-100101069D01*
X134147535Y-100210575D01*
X134033370Y-100377661D01*
X133993205Y-100576000D01*
X133993205Y-102076000D01*
X134028069Y-102261289D01*
X134137575Y-102431465D01*
X134304661Y-102545630D01*
X134503000Y-102585795D01*
X135753000Y-102585795D01*
X135938289Y-102550931D01*
X136108465Y-102441425D01*
X136222630Y-102274339D01*
X136262795Y-102076000D01*
X136262795Y-101075089D01*
X136328205Y-101009679D01*
X136328205Y-101551000D01*
X136352589Y-101680590D01*
X136328205Y-101801000D01*
X136328205Y-102351000D01*
X136352589Y-102480590D01*
X136328205Y-102601000D01*
X136328205Y-103151000D01*
X136352589Y-103280590D01*
X136328205Y-103401000D01*
X136328205Y-103951000D01*
X136352589Y-104080590D01*
X136328205Y-104201000D01*
X136328205Y-104751000D01*
X136352589Y-104880590D01*
X136328205Y-105001000D01*
X136328205Y-105551000D01*
X136352589Y-105680590D01*
X136328205Y-105801000D01*
X136328205Y-106351000D01*
X136363069Y-106536289D01*
X136472575Y-106706465D01*
X136639661Y-106820630D01*
X136838000Y-106860795D01*
X138338000Y-106860795D01*
X138523289Y-106825931D01*
X138561237Y-106801512D01*
X138543370Y-106827661D01*
X138503205Y-107026000D01*
X138503205Y-108526000D01*
X138538069Y-108711289D01*
X138647575Y-108881465D01*
X138814661Y-108995630D01*
X139013000Y-109035795D01*
X139563000Y-109035795D01*
X139692590Y-109011411D01*
X139813000Y-109035795D01*
X140363000Y-109035795D01*
X140492590Y-109011411D01*
X140613000Y-109035795D01*
X141163000Y-109035795D01*
X141292590Y-109011411D01*
X141413000Y-109035795D01*
X141540321Y-109035795D01*
X141473116Y-109103000D01*
X141244000Y-109103000D01*
X141004822Y-109150575D01*
X140802058Y-109286058D01*
X140224911Y-109863205D01*
X139224000Y-109863205D01*
X139038711Y-109898069D01*
X138868535Y-110007575D01*
X138754370Y-110174661D01*
X138714205Y-110373000D01*
X138714205Y-111623000D01*
X138749069Y-111808289D01*
X138858575Y-111978465D01*
X139025661Y-112092630D01*
X139224000Y-112132795D01*
X139696911Y-112132795D01*
X141693926Y-114129810D01*
X141693861Y-114204432D01*
X141789956Y-114437000D01*
X139733795Y-114437000D01*
X139733795Y-112846000D01*
X139698931Y-112660711D01*
X139589425Y-112490535D01*
X139422339Y-112376370D01*
X139224000Y-112336205D01*
X136648089Y-112336205D01*
X136125856Y-111813972D01*
X136222630Y-111672339D01*
X136262795Y-111474000D01*
X136262795Y-109974000D01*
X136227931Y-109788711D01*
X136118425Y-109618535D01*
X135951339Y-109504370D01*
X135801369Y-109474000D01*
X135852456Y-109474000D01*
X136036227Y-109397879D01*
X136176880Y-109257227D01*
X136253000Y-109073456D01*
X136253000Y-108449000D01*
X136128000Y-108324000D01*
X135228000Y-108324000D01*
X135228000Y-108344000D01*
X135028000Y-108344000D01*
X135028000Y-108324000D01*
X134128000Y-108324000D01*
X134003000Y-108449000D01*
X134003000Y-109073456D01*
X134079120Y-109257227D01*
X134219773Y-109397879D01*
X134403544Y-109474000D01*
X134450943Y-109474000D01*
X134317711Y-109499069D01*
X134147535Y-109608575D01*
X134033370Y-109775661D01*
X133993205Y-109974000D01*
X133993205Y-111474000D01*
X134028069Y-111659289D01*
X134137575Y-111829465D01*
X134304661Y-111943630D01*
X134503000Y-111983795D01*
X134580388Y-111983795D01*
X134686058Y-112141942D01*
X135243829Y-112699713D01*
X135214205Y-112846000D01*
X135214205Y-115199000D01*
X134533795Y-115199000D01*
X134533795Y-112846000D01*
X134498931Y-112660711D01*
X134389425Y-112490535D01*
X134222339Y-112376370D01*
X134024000Y-112336205D01*
X132959000Y-112336205D01*
X132959000Y-111983795D01*
X133144289Y-111948931D01*
X133314465Y-111839425D01*
X133428630Y-111672339D01*
X133468795Y-111474000D01*
X133468795Y-109974000D01*
X133433931Y-109788711D01*
X133324425Y-109618535D01*
X133157339Y-109504370D01*
X133007369Y-109474000D01*
X133058456Y-109474000D01*
X133242227Y-109397879D01*
X133382880Y-109257227D01*
X133459000Y-109073456D01*
X133459000Y-108449000D01*
X133334000Y-108324000D01*
X132434000Y-108324000D01*
X132434000Y-108344000D01*
X132234000Y-108344000D01*
X132234000Y-108324000D01*
X131334000Y-108324000D01*
X131209000Y-108449000D01*
X131209000Y-109073456D01*
X131285120Y-109257227D01*
X131425773Y-109397879D01*
X131609544Y-109474000D01*
X131656943Y-109474000D01*
X131523711Y-109499069D01*
X131353535Y-109608575D01*
X131239370Y-109775661D01*
X131199205Y-109974000D01*
X131199205Y-111474000D01*
X131234069Y-111659289D01*
X131343575Y-111829465D01*
X131510661Y-111943630D01*
X131709000Y-111983795D01*
X131709000Y-112336205D01*
X130524000Y-112336205D01*
X130338711Y-112371069D01*
X130168535Y-112480575D01*
X130054370Y-112647661D01*
X130014205Y-112846000D01*
X130014205Y-115246000D01*
X130049069Y-115431289D01*
X130158575Y-115601465D01*
X130325661Y-115715630D01*
X130524000Y-115755795D01*
X131889911Y-115755795D01*
X132400058Y-116265942D01*
X132602822Y-116401425D01*
X132842000Y-116449000D01*
X143525116Y-116449000D01*
X143505116Y-116469000D01*
X142240005Y-116469000D01*
X142240000Y-116468999D01*
X142000823Y-116516575D01*
X141798058Y-116652058D01*
X140872842Y-117577274D01*
X140462000Y-117495552D01*
X139945377Y-117598315D01*
X139507406Y-117890958D01*
X139214763Y-118328929D01*
X139192000Y-118443366D01*
X139169237Y-118328929D01*
X138876594Y-117890958D01*
X138438623Y-117598315D01*
X137922000Y-117495552D01*
X137405377Y-117598315D01*
X136967406Y-117890958D01*
X136674763Y-118328929D01*
X136652000Y-118443366D01*
X136629237Y-118328929D01*
X136336594Y-117890958D01*
X135898623Y-117598315D01*
X135382000Y-117495552D01*
X134865377Y-117598315D01*
X134427406Y-117890958D01*
X134134763Y-118328929D01*
X134112000Y-118443366D01*
X134089237Y-118328929D01*
X133796594Y-117890958D01*
X133358623Y-117598315D01*
X132842000Y-117495552D01*
X132325377Y-117598315D01*
X131887406Y-117890958D01*
X131661795Y-118228609D01*
X131661795Y-118022000D01*
X131626931Y-117836711D01*
X131517425Y-117666535D01*
X131350339Y-117552370D01*
X131152000Y-117512205D01*
X129452000Y-117512205D01*
X129266711Y-117547069D01*
X129096535Y-117656575D01*
X128982370Y-117823661D01*
X128942205Y-118022000D01*
X128942205Y-119722000D01*
X128977069Y-119907289D01*
X129086575Y-120077465D01*
X129253661Y-120191630D01*
X129452000Y-120231795D01*
X131152000Y-120231795D01*
X131337289Y-120196931D01*
X131507465Y-120087425D01*
X131621630Y-119920339D01*
X131661795Y-119722000D01*
X131661795Y-119515391D01*
X131887406Y-119853042D01*
X132325377Y-120145685D01*
X132842000Y-120248448D01*
X133358623Y-120145685D01*
X133796594Y-119853042D01*
X134089237Y-119415071D01*
X134112000Y-119300634D01*
X134134763Y-119415071D01*
X134427406Y-119853042D01*
X134865377Y-120145685D01*
X135382000Y-120248448D01*
X135898623Y-120145685D01*
X136336594Y-119853042D01*
X136629237Y-119415071D01*
X136652000Y-119300634D01*
X136674763Y-119415071D01*
X136967406Y-119853042D01*
X137405377Y-120145685D01*
X137922000Y-120248448D01*
X138438623Y-120145685D01*
X138876594Y-119853042D01*
X139169237Y-119415071D01*
X139192000Y-119300634D01*
X139214763Y-119415071D01*
X139507406Y-119853042D01*
X139945377Y-120145685D01*
X140462000Y-120248448D01*
X140978623Y-120145685D01*
X141416594Y-119853042D01*
X141709237Y-119415071D01*
X141732000Y-119300634D01*
X141754763Y-119415071D01*
X142047406Y-119853042D01*
X142485377Y-120145685D01*
X143002000Y-120248448D01*
X143518623Y-120145685D01*
X143956594Y-119853042D01*
X144249237Y-119415071D01*
X144272000Y-119300634D01*
X144294763Y-119415071D01*
X144587406Y-119853042D01*
X145025377Y-120145685D01*
X145542000Y-120248448D01*
X146058623Y-120145685D01*
X146496594Y-119853042D01*
X146789237Y-119415071D01*
X146812000Y-119300634D01*
X146834763Y-119415071D01*
X147127406Y-119853042D01*
X147565377Y-120145685D01*
X148082000Y-120248448D01*
X148598623Y-120145685D01*
X149036594Y-119853042D01*
X149329237Y-119415071D01*
X149355119Y-119284956D01*
X149526341Y-119660704D01*
X149911567Y-120019958D01*
X150312625Y-120186072D01*
X150522000Y-120092912D01*
X150522000Y-118972000D01*
X150502000Y-118972000D01*
X150502000Y-118772000D01*
X150522000Y-118772000D01*
X150522000Y-117651088D01*
X150312625Y-117557928D01*
X149911567Y-117724042D01*
X149526341Y-118083296D01*
X149355119Y-118459044D01*
X149329237Y-118328929D01*
X149036594Y-117890958D01*
X148707000Y-117670730D01*
X148707000Y-115320884D01*
X148740884Y-115287000D01*
X149392000Y-115287000D01*
X149392000Y-115786456D01*
X149468121Y-115970227D01*
X149608773Y-116110880D01*
X149792544Y-116187000D01*
X150417000Y-116187000D01*
X150542000Y-116062000D01*
X150542000Y-115162000D01*
X149517000Y-115162000D01*
X149392000Y-115287000D01*
X148740884Y-115287000D01*
X149392000Y-114635884D01*
X149392000Y-114837000D01*
X149517000Y-114962000D01*
X150542000Y-114962000D01*
X150542000Y-114062000D01*
X150417000Y-113937000D01*
X150090884Y-113937000D01*
X151729942Y-112297942D01*
X151865425Y-112095177D01*
X151913001Y-111856000D01*
X151913000Y-111855995D01*
X151913000Y-110571742D01*
X152113172Y-110654861D01*
X152431432Y-110655139D01*
X152725572Y-110533603D01*
X152732187Y-110527000D01*
X152764205Y-110527000D01*
X152764205Y-110652000D01*
X152799069Y-110837289D01*
X152908575Y-111007465D01*
X153075661Y-111121630D01*
X153274000Y-111161795D01*
X154574000Y-111161795D01*
X154759289Y-111126931D01*
X154929465Y-111017425D01*
X155043630Y-110850339D01*
X155083795Y-110652000D01*
X155083795Y-109152000D01*
X155048931Y-108966711D01*
X154939425Y-108796535D01*
X154772339Y-108682370D01*
X154574000Y-108642205D01*
X153274000Y-108642205D01*
X153088711Y-108677069D01*
X152918535Y-108786575D01*
X152804370Y-108953661D01*
X152764205Y-109152000D01*
X152764205Y-109214703D01*
X152726755Y-109177188D01*
X152432828Y-109055139D01*
X152114568Y-109054861D01*
X151913000Y-109138147D01*
X151913000Y-108894942D01*
X151918465Y-108891425D01*
X152032630Y-108724339D01*
X152072795Y-108526000D01*
X152072795Y-107026000D01*
X152037931Y-106840711D01*
X152013512Y-106802763D01*
X152039661Y-106820630D01*
X152238000Y-106860795D01*
X153738000Y-106860795D01*
X153923289Y-106825931D01*
X154093465Y-106716425D01*
X154207630Y-106549339D01*
X154247795Y-106351000D01*
X154247795Y-105801000D01*
X154223411Y-105671410D01*
X154247795Y-105551000D01*
X154247795Y-105101000D01*
X156033116Y-105101000D01*
X156601000Y-105668883D01*
X156601000Y-110490000D01*
X156648575Y-110729177D01*
X156784058Y-110931942D01*
X158477558Y-112625441D01*
X158402400Y-113003285D01*
X158402400Y-113056715D01*
X158506198Y-113578542D01*
X158801789Y-114020926D01*
X159244173Y-114316517D01*
X159766000Y-114420315D01*
X160287827Y-114316517D01*
X160730211Y-114020926D01*
X160932605Y-113718021D01*
X160932605Y-113893600D01*
X160967469Y-114078889D01*
X161076975Y-114249065D01*
X161244061Y-114363230D01*
X161442400Y-114403395D01*
X161681000Y-114403395D01*
X161681000Y-118781241D01*
X161644711Y-118788069D01*
X161474535Y-118897575D01*
X161360370Y-119064661D01*
X161320205Y-119263000D01*
X158226883Y-119263000D01*
X154401795Y-115437911D01*
X154401795Y-114668284D01*
X154501425Y-114519177D01*
X154549000Y-114280000D01*
X154549000Y-113861795D01*
X154574000Y-113861795D01*
X154759289Y-113826931D01*
X154929465Y-113717425D01*
X155043630Y-113550339D01*
X155083795Y-113352000D01*
X155083795Y-111852000D01*
X155048931Y-111666711D01*
X154939425Y-111496535D01*
X154772339Y-111382370D01*
X154574000Y-111342205D01*
X153274000Y-111342205D01*
X153088711Y-111377069D01*
X152918535Y-111486575D01*
X152804370Y-111653661D01*
X152764205Y-111852000D01*
X152764205Y-113352000D01*
X152799069Y-113537289D01*
X152908575Y-113707465D01*
X153075661Y-113821630D01*
X153274000Y-113861795D01*
X153299000Y-113861795D01*
X153299000Y-113927205D01*
X152392000Y-113927205D01*
X152206711Y-113962069D01*
X152036535Y-114071575D01*
X151922370Y-114238661D01*
X151892000Y-114388631D01*
X151892000Y-114337544D01*
X151815879Y-114153773D01*
X151675227Y-114013120D01*
X151491456Y-113937000D01*
X150867000Y-113937000D01*
X150742000Y-114062000D01*
X150742000Y-114962000D01*
X150762000Y-114962000D01*
X150762000Y-115162000D01*
X150742000Y-115162000D01*
X150742000Y-116062000D01*
X150867000Y-116187000D01*
X151491456Y-116187000D01*
X151675227Y-116110880D01*
X151815879Y-115970227D01*
X151892000Y-115786456D01*
X151892000Y-115739057D01*
X151917069Y-115872289D01*
X152026575Y-116042465D01*
X152193661Y-116156630D01*
X152392000Y-116196795D01*
X152517000Y-116196795D01*
X152517000Y-117684094D01*
X152207406Y-117890958D01*
X151914763Y-118328929D01*
X151888881Y-118459044D01*
X151717659Y-118083296D01*
X151332433Y-117724042D01*
X150931375Y-117557928D01*
X150722000Y-117651088D01*
X150722000Y-118772000D01*
X150742000Y-118772000D01*
X150742000Y-118972000D01*
X150722000Y-118972000D01*
X150722000Y-120092912D01*
X150931375Y-120186072D01*
X151332433Y-120019958D01*
X151717659Y-119660704D01*
X151888881Y-119284956D01*
X151914763Y-119415071D01*
X152207406Y-119853042D01*
X152645377Y-120145685D01*
X153162000Y-120248448D01*
X153678623Y-120145685D01*
X154116594Y-119853042D01*
X154409237Y-119415071D01*
X154512000Y-118898448D01*
X154512000Y-118845552D01*
X154409237Y-118328929D01*
X154116594Y-117890958D01*
X153767000Y-117657367D01*
X153767000Y-116570884D01*
X157526056Y-120329939D01*
X157526058Y-120329942D01*
X157728823Y-120465425D01*
X157968000Y-120513001D01*
X157968005Y-120513000D01*
X161320205Y-120513000D01*
X161355069Y-120698289D01*
X161464575Y-120868465D01*
X161631661Y-120982630D01*
X161830000Y-121022795D01*
X163330000Y-121022795D01*
X163515289Y-120987931D01*
X163685465Y-120878425D01*
X163799630Y-120711339D01*
X163830000Y-120561369D01*
X163830000Y-120612456D01*
X163906121Y-120796227D01*
X164046773Y-120936880D01*
X164230544Y-121013000D01*
X164855000Y-121013000D01*
X164980000Y-120888000D01*
X164980000Y-119988000D01*
X165180000Y-119988000D01*
X165180000Y-120888000D01*
X165305000Y-121013000D01*
X165929456Y-121013000D01*
X166113227Y-120936880D01*
X166253879Y-120796227D01*
X166330000Y-120612456D01*
X166330000Y-120113000D01*
X166205000Y-119988000D01*
X165180000Y-119988000D01*
X164980000Y-119988000D01*
X164960000Y-119988000D01*
X164960000Y-119788000D01*
X164980000Y-119788000D01*
X164980000Y-118888000D01*
X165180000Y-118888000D01*
X165180000Y-119788000D01*
X166205000Y-119788000D01*
X166330000Y-119663000D01*
X166330000Y-119163544D01*
X166276293Y-119033883D01*
X167571637Y-119033883D01*
X167890669Y-119806000D01*
X168480893Y-120397255D01*
X169252452Y-120717634D01*
X170087883Y-120718363D01*
X170860000Y-120399331D01*
X171451255Y-119809107D01*
X171771634Y-119037548D01*
X171772363Y-118202117D01*
X171453331Y-117430000D01*
X170863107Y-116838745D01*
X170091548Y-116518366D01*
X169256117Y-116517637D01*
X168484000Y-116836669D01*
X167892745Y-117426893D01*
X167572366Y-118198452D01*
X167571637Y-119033883D01*
X166276293Y-119033883D01*
X166253879Y-118979773D01*
X166113227Y-118839120D01*
X165929456Y-118763000D01*
X165305000Y-118763000D01*
X165180000Y-118888000D01*
X164980000Y-118888000D01*
X164855000Y-118763000D01*
X164230544Y-118763000D01*
X164046773Y-118839120D01*
X163906121Y-118979773D01*
X163830000Y-119163544D01*
X163830000Y-119210943D01*
X163804931Y-119077711D01*
X163695425Y-118907535D01*
X163528339Y-118793370D01*
X163330000Y-118753205D01*
X162931000Y-118753205D01*
X162931000Y-114403395D01*
X163169600Y-114403395D01*
X163354889Y-114368531D01*
X163525065Y-114259025D01*
X163639230Y-114091939D01*
X163679395Y-113893600D01*
X163679395Y-112166400D01*
X163644531Y-111981111D01*
X163535025Y-111810935D01*
X163367939Y-111696770D01*
X163169600Y-111656605D01*
X163007288Y-111656605D01*
X163270211Y-111480926D01*
X163565802Y-111038542D01*
X163669600Y-110516715D01*
X163669600Y-110463285D01*
X163565802Y-109941458D01*
X163270211Y-109499074D01*
X162827827Y-109203483D01*
X162806537Y-109199248D01*
X163024449Y-109108991D01*
X163413287Y-108745829D01*
X163633550Y-108261510D01*
X163540937Y-108050000D01*
X162406000Y-108050000D01*
X162406000Y-108070000D01*
X162206000Y-108070000D01*
X162206000Y-108050000D01*
X162186000Y-108050000D01*
X162186000Y-107850000D01*
X162206000Y-107850000D01*
X162206000Y-107830000D01*
X162406000Y-107830000D01*
X162406000Y-107850000D01*
X163540937Y-107850000D01*
X163633550Y-107638490D01*
X163481882Y-107305000D01*
X167127116Y-107305000D01*
X167361274Y-107539158D01*
X167279552Y-107950000D01*
X167382315Y-108466623D01*
X167674958Y-108904594D01*
X168112929Y-109197237D01*
X168227366Y-109220000D01*
X168112929Y-109242763D01*
X167674958Y-109535406D01*
X167382315Y-109973377D01*
X167279552Y-110490000D01*
X167382315Y-111006623D01*
X167674958Y-111444594D01*
X168012609Y-111670205D01*
X167806000Y-111670205D01*
X167620711Y-111705069D01*
X167450535Y-111814575D01*
X167336370Y-111981661D01*
X167296205Y-112180000D01*
X167296205Y-113880000D01*
X167331069Y-114065289D01*
X167440575Y-114235465D01*
X167607661Y-114349630D01*
X167806000Y-114389795D01*
X169506000Y-114389795D01*
X169691289Y-114354931D01*
X169861465Y-114245425D01*
X169975630Y-114078339D01*
X170015795Y-113880000D01*
X170015795Y-112180000D01*
X169980931Y-111994711D01*
X169871425Y-111824535D01*
X169704339Y-111710370D01*
X169506000Y-111670205D01*
X169299391Y-111670205D01*
X169637042Y-111444594D01*
X169929685Y-111006623D01*
X170032448Y-110490000D01*
X169929685Y-109973377D01*
X169637042Y-109535406D01*
X169199071Y-109242763D01*
X169084634Y-109220000D01*
X169199071Y-109197237D01*
X169637042Y-108904594D01*
X169929685Y-108466623D01*
X170032448Y-107950000D01*
X169929685Y-107433377D01*
X169637042Y-106995406D01*
X169199071Y-106702763D01*
X169084634Y-106680000D01*
X169199071Y-106657237D01*
X169637042Y-106364594D01*
X169929685Y-105926623D01*
X170032448Y-105410000D01*
X169929685Y-104893377D01*
X169637042Y-104455406D01*
X169199071Y-104162763D01*
X169084634Y-104140000D01*
X169199071Y-104117237D01*
X169637042Y-103824594D01*
X169929685Y-103386623D01*
X170032448Y-102870000D01*
X169929685Y-102353377D01*
X169637042Y-101915406D01*
X169199071Y-101622763D01*
X169084634Y-101600000D01*
X169199071Y-101577237D01*
X169637042Y-101284594D01*
X169929685Y-100846623D01*
X170032448Y-100330000D01*
X169929685Y-99813377D01*
X169637042Y-99375406D01*
X169199071Y-99082763D01*
X169084634Y-99060000D01*
X169199071Y-99037237D01*
X169637042Y-98744594D01*
X169929685Y-98306623D01*
X170032448Y-97790000D01*
X169929685Y-97273377D01*
X169637042Y-96835406D01*
X169199071Y-96542763D01*
X169068956Y-96516881D01*
X169444704Y-96345659D01*
X169803958Y-95960433D01*
X169970072Y-95559375D01*
X169876912Y-95350000D01*
X168756000Y-95350000D01*
X168756000Y-95370000D01*
X168556000Y-95370000D01*
X168556000Y-95350000D01*
X168536000Y-95350000D01*
X168536000Y-95150000D01*
X168556000Y-95150000D01*
X168556000Y-94028700D01*
X168446100Y-93980000D01*
X168556000Y-93931300D01*
X168556000Y-92810000D01*
X168756000Y-92810000D01*
X168756000Y-93931300D01*
X168865900Y-93980000D01*
X168756000Y-94028700D01*
X168756000Y-95150000D01*
X169876912Y-95150000D01*
X169970072Y-94940625D01*
X169803958Y-94539567D01*
X169444704Y-94154341D01*
X169062113Y-93980000D01*
X169444704Y-93805659D01*
X169803958Y-93420433D01*
X169970072Y-93019375D01*
X169876912Y-92810000D01*
X168756000Y-92810000D01*
X168556000Y-92810000D01*
X168536000Y-92810000D01*
X168536000Y-92610000D01*
X168556000Y-92610000D01*
X168556000Y-92590000D01*
X168756000Y-92590000D01*
X168756000Y-92610000D01*
X169876912Y-92610000D01*
X169970072Y-92400625D01*
X169803958Y-91999567D01*
X169444704Y-91614341D01*
X169068956Y-91443119D01*
X169199071Y-91417237D01*
X169637042Y-91124594D01*
X169929685Y-90686623D01*
X170032448Y-90170000D01*
X169929685Y-89653377D01*
X169637042Y-89215406D01*
X169199071Y-88922763D01*
X168682448Y-88820000D01*
X168629552Y-88820000D01*
X168262830Y-88892946D01*
X163605767Y-84235883D01*
X167571637Y-84235883D01*
X167890669Y-85008000D01*
X168480893Y-85599255D01*
X169252452Y-85919634D01*
X170087883Y-85920363D01*
X170860000Y-85601331D01*
X171451255Y-85011107D01*
X171771634Y-84239548D01*
X171772363Y-83404117D01*
X171453331Y-82632000D01*
X170863107Y-82040745D01*
X170091548Y-81720366D01*
X169256117Y-81719637D01*
X168484000Y-82038669D01*
X167892745Y-82628893D01*
X167572366Y-83400452D01*
X167571637Y-84235883D01*
X163605767Y-84235883D01*
X163507249Y-84137365D01*
X163645465Y-84048425D01*
X163759630Y-83881339D01*
X163799795Y-83683000D01*
X164339525Y-83683000D01*
X164392245Y-83735812D01*
X164686172Y-83857861D01*
X165004432Y-83858139D01*
X165298572Y-83736603D01*
X165523812Y-83511755D01*
X165645861Y-83217828D01*
X165646139Y-82899568D01*
X165524603Y-82605428D01*
X165299755Y-82380188D01*
X165005828Y-82258139D01*
X164687568Y-82257861D01*
X164393428Y-82379397D01*
X164339732Y-82433000D01*
X163799795Y-82433000D01*
X163764931Y-82247711D01*
X163655425Y-82077535D01*
X163488339Y-81963370D01*
X163290000Y-81923205D01*
X161790000Y-81923205D01*
X161604711Y-81958069D01*
X161434535Y-82067575D01*
X161320370Y-82234661D01*
X161290000Y-82384631D01*
X161290000Y-82333544D01*
X161213879Y-82149773D01*
X161073227Y-82009120D01*
X160889456Y-81933000D01*
X160265000Y-81933000D01*
X160140000Y-82058000D01*
X160140000Y-82958000D01*
X160160000Y-82958000D01*
X160160000Y-83158000D01*
X160140000Y-83158000D01*
X160140000Y-84058000D01*
X160265000Y-84183000D01*
X160889456Y-84183000D01*
X161073227Y-84106880D01*
X161213879Y-83966227D01*
X161290000Y-83782456D01*
X161290000Y-83735057D01*
X161315069Y-83868289D01*
X161424575Y-84038465D01*
X161591661Y-84152630D01*
X161790000Y-84192795D01*
X161942608Y-84192795D01*
X161962575Y-84293177D01*
X162098058Y-84495942D01*
X167361274Y-89759158D01*
X167279552Y-90170000D01*
X167382315Y-90686623D01*
X167674958Y-91124594D01*
X168112929Y-91417237D01*
X168243044Y-91443119D01*
X167867296Y-91614341D01*
X167508042Y-91999567D01*
X167477434Y-92073466D01*
X167455425Y-91962823D01*
X167319942Y-91760058D01*
X166557942Y-90998058D01*
X166355177Y-90862575D01*
X166116000Y-90815000D01*
X163481882Y-90815000D01*
X163633550Y-90481510D01*
X163540937Y-90270000D01*
X162406000Y-90270000D01*
X162406000Y-90290000D01*
X162206000Y-90290000D01*
X162206000Y-90270000D01*
X162186000Y-90270000D01*
X162186000Y-90070000D01*
X162206000Y-90070000D01*
X162206000Y-88935443D01*
X162406000Y-88935443D01*
X162406000Y-90070000D01*
X163540937Y-90070000D01*
X163633550Y-89858490D01*
X163413287Y-89374171D01*
X163024449Y-89011009D01*
X162617508Y-88842458D01*
X162406000Y-88935443D01*
X162206000Y-88935443D01*
X161994492Y-88842458D01*
X161587551Y-89011009D01*
X161198713Y-89374171D01*
X161044195Y-89713928D01*
X161025802Y-89621458D01*
X160730211Y-89179074D01*
X160287827Y-88883483D01*
X159766000Y-88779685D01*
X159244173Y-88883483D01*
X158801789Y-89179074D01*
X158506198Y-89621458D01*
X158402400Y-90143285D01*
X158402400Y-90196715D01*
X158477558Y-90574558D01*
X157038058Y-92014058D01*
X156902575Y-92216823D01*
X156855000Y-92456000D01*
X156855000Y-98801117D01*
X156605116Y-99051000D01*
X154247795Y-99051000D01*
X154247795Y-98601000D01*
X154223411Y-98471410D01*
X154247795Y-98351000D01*
X154247795Y-97801000D01*
X154223411Y-97671410D01*
X154247795Y-97551000D01*
X154247795Y-97001000D01*
X154223411Y-96871410D01*
X154247795Y-96751000D01*
X154247795Y-96201000D01*
X154223411Y-96071410D01*
X154247795Y-95951000D01*
X154247795Y-95460463D01*
X154283177Y-95453425D01*
X154485942Y-95317942D01*
X155381939Y-94421944D01*
X155381942Y-94421942D01*
X155496162Y-94251000D01*
X155517425Y-94219178D01*
X155565000Y-93980000D01*
X155565000Y-88392005D01*
X155565001Y-88392000D01*
X155517425Y-88152823D01*
X155381942Y-87950058D01*
X154521795Y-87089911D01*
X154521795Y-85764000D01*
X154486931Y-85578711D01*
X154377425Y-85408535D01*
X154210339Y-85294370D01*
X154012000Y-85254205D01*
X153765168Y-85254205D01*
X153950704Y-85169659D01*
X154309958Y-84784433D01*
X154476072Y-84383375D01*
X154382912Y-84174000D01*
X153262000Y-84174000D01*
X153262000Y-84194000D01*
X153062000Y-84194000D01*
X153062000Y-84174000D01*
X151941088Y-84174000D01*
X151847928Y-84383375D01*
X152014042Y-84784433D01*
X152373296Y-85169659D01*
X152558832Y-85254205D01*
X152312000Y-85254205D01*
X152126711Y-85289069D01*
X151956535Y-85398575D01*
X151842370Y-85565661D01*
X151802205Y-85764000D01*
X151802205Y-87464000D01*
X151837069Y-87649289D01*
X151946575Y-87819465D01*
X152113661Y-87933630D01*
X152312000Y-87973795D01*
X153637911Y-87973795D01*
X154315000Y-88650884D01*
X154315000Y-93721117D01*
X154245787Y-93790329D01*
X154212931Y-93615711D01*
X154103425Y-93445535D01*
X153936339Y-93331370D01*
X153738000Y-93291205D01*
X152238000Y-93291205D01*
X152052711Y-93326069D01*
X152014763Y-93350488D01*
X152032630Y-93324339D01*
X152072795Y-93126000D01*
X152072795Y-91626000D01*
X152037931Y-91440711D01*
X151928425Y-91270535D01*
X151761339Y-91156370D01*
X151563000Y-91116205D01*
X151013000Y-91116205D01*
X150883410Y-91140589D01*
X150763000Y-91116205D01*
X150213000Y-91116205D01*
X150083410Y-91140589D01*
X149963000Y-91116205D01*
X149777679Y-91116205D01*
X150351089Y-90542795D01*
X151352000Y-90542795D01*
X151537289Y-90507931D01*
X151707465Y-90398425D01*
X151821630Y-90231339D01*
X151861795Y-90033000D01*
X151861795Y-88783000D01*
X151826931Y-88597711D01*
X151717425Y-88427535D01*
X151550339Y-88313370D01*
X151352000Y-88273205D01*
X151227000Y-88273205D01*
X151227000Y-85578000D01*
X151179425Y-85338823D01*
X151043942Y-85136058D01*
X151043939Y-85136056D01*
X150527802Y-84619918D01*
X150780432Y-84620139D01*
X151074572Y-84498603D01*
X151299812Y-84273755D01*
X151421861Y-83979828D01*
X151422048Y-83764625D01*
X151847928Y-83764625D01*
X151941088Y-83974000D01*
X153062000Y-83974000D01*
X153062000Y-82852700D01*
X153262000Y-82852700D01*
X153262000Y-83974000D01*
X154382912Y-83974000D01*
X154476072Y-83764625D01*
X154309958Y-83363567D01*
X154234823Y-83283000D01*
X158790000Y-83283000D01*
X158790000Y-83782456D01*
X158866121Y-83966227D01*
X159006773Y-84106880D01*
X159190544Y-84183000D01*
X159815000Y-84183000D01*
X159940000Y-84058000D01*
X159940000Y-83158000D01*
X158915000Y-83158000D01*
X158790000Y-83283000D01*
X154234823Y-83283000D01*
X153950704Y-82978341D01*
X153471377Y-82759919D01*
X153262000Y-82852700D01*
X153062000Y-82852700D01*
X152852623Y-82759919D01*
X152373296Y-82978341D01*
X152014042Y-83363567D01*
X151847928Y-83764625D01*
X151422048Y-83764625D01*
X151422139Y-83661568D01*
X151300603Y-83367428D01*
X151075755Y-83142188D01*
X150781828Y-83020139D01*
X150463568Y-83019861D01*
X150169428Y-83141397D01*
X150115732Y-83195000D01*
X150103795Y-83195000D01*
X150103795Y-83070000D01*
X150068931Y-82884711D01*
X149959425Y-82714535D01*
X149792339Y-82600370D01*
X149594000Y-82560205D01*
X148094000Y-82560205D01*
X147908711Y-82595069D01*
X147738535Y-82704575D01*
X147624370Y-82871661D01*
X147584205Y-83070000D01*
X147584205Y-84570000D01*
X147619069Y-84755289D01*
X147728575Y-84925465D01*
X147895661Y-85039630D01*
X148094000Y-85079795D01*
X149219911Y-85079795D01*
X149977000Y-85836883D01*
X149977000Y-88273205D01*
X149852000Y-88273205D01*
X149666711Y-88308069D01*
X149496535Y-88417575D01*
X149382370Y-88584661D01*
X149352000Y-88734631D01*
X149352000Y-88683544D01*
X149275879Y-88499773D01*
X149135227Y-88359120D01*
X148951456Y-88283000D01*
X148327000Y-88283000D01*
X148202000Y-88408000D01*
X148202000Y-89308000D01*
X148222000Y-89308000D01*
X148222000Y-89508000D01*
X148202000Y-89508000D01*
X148202000Y-90408000D01*
X148327000Y-90533000D01*
X148593116Y-90533000D01*
X148446058Y-90680058D01*
X148310575Y-90882823D01*
X148263000Y-91122000D01*
X148263000Y-91176000D01*
X148188000Y-91251000D01*
X148188000Y-91362343D01*
X148143370Y-91427661D01*
X148103205Y-91626000D01*
X148103205Y-93126000D01*
X148138069Y-93311289D01*
X148188000Y-93388883D01*
X148188000Y-93501000D01*
X148313000Y-93626000D01*
X148462456Y-93626000D01*
X148496006Y-93612103D01*
X148613000Y-93635795D01*
X149163000Y-93635795D01*
X149292590Y-93611411D01*
X149413000Y-93635795D01*
X149963000Y-93635795D01*
X150092590Y-93611411D01*
X150213000Y-93635795D01*
X150763000Y-93635795D01*
X150892590Y-93611411D01*
X151013000Y-93635795D01*
X151563000Y-93635795D01*
X151748289Y-93600931D01*
X151786237Y-93576512D01*
X151768370Y-93602661D01*
X151728205Y-93801000D01*
X151728205Y-94351000D01*
X151752589Y-94480590D01*
X151728205Y-94601000D01*
X151728205Y-95151000D01*
X151752589Y-95280590D01*
X151728205Y-95401000D01*
X151728205Y-95951000D01*
X151752589Y-96080590D01*
X151728205Y-96201000D01*
X151728205Y-96751000D01*
X151752589Y-96880590D01*
X151728205Y-97001000D01*
X151728205Y-97451000D01*
X151541419Y-97451000D01*
X151456755Y-97366188D01*
X151162828Y-97244139D01*
X150844568Y-97243861D01*
X150550428Y-97365397D01*
X150325188Y-97590245D01*
X150203139Y-97884172D01*
X150202861Y-98202432D01*
X150324397Y-98496572D01*
X150549245Y-98721812D01*
X150843172Y-98843861D01*
X151161432Y-98844139D01*
X151455572Y-98722603D01*
X151477213Y-98701000D01*
X151728205Y-98701000D01*
X151728205Y-99151000D01*
X151752589Y-99280590D01*
X151728205Y-99401000D01*
X151728205Y-99951000D01*
X151752589Y-100080590D01*
X151728205Y-100201000D01*
X151728205Y-100751000D01*
X151752589Y-100880590D01*
X151728205Y-101001000D01*
X151728205Y-101551000D01*
X151752589Y-101680590D01*
X151728205Y-101801000D01*
X151728205Y-102351000D01*
X151752589Y-102480590D01*
X151728205Y-102601000D01*
X151728205Y-103151000D01*
X151752589Y-103280590D01*
X151728205Y-103401000D01*
X151728205Y-103951000D01*
X151752589Y-104080590D01*
X151728205Y-104201000D01*
X151728205Y-104751000D01*
X151752589Y-104880590D01*
X151728205Y-105001000D01*
X151728205Y-105551000D01*
X151752589Y-105680590D01*
X151728205Y-105801000D01*
X151728205Y-106351000D01*
X151763069Y-106536289D01*
X151787488Y-106574237D01*
X151761339Y-106556370D01*
X151563000Y-106516205D01*
X151013000Y-106516205D01*
X150883410Y-106540589D01*
X150763000Y-106516205D01*
X150213000Y-106516205D01*
X150083410Y-106540589D01*
X149963000Y-106516205D01*
X149413000Y-106516205D01*
X149283410Y-106540589D01*
X149163000Y-106516205D01*
X148713000Y-106516205D01*
X148713000Y-106418486D01*
X148759812Y-106371755D01*
X148881861Y-106077828D01*
X148882139Y-105759568D01*
X148760603Y-105465428D01*
X148535755Y-105240188D01*
X148241828Y-105118139D01*
X148120034Y-105118033D01*
X148120139Y-104997568D01*
X147998603Y-104703428D01*
X147773755Y-104478188D01*
X147479828Y-104356139D01*
X147358034Y-104356033D01*
X147358139Y-104235568D01*
X147236603Y-103941428D01*
X147011755Y-103716188D01*
X146717828Y-103594139D01*
X146596034Y-103594033D01*
X146596139Y-103473568D01*
X146474603Y-103179428D01*
X146249755Y-102954188D01*
X145955828Y-102832139D01*
X145637568Y-102831861D01*
X145343428Y-102953397D01*
X145118188Y-103178245D01*
X144996139Y-103472172D01*
X144995861Y-103790432D01*
X145063000Y-103952921D01*
X145063000Y-106516205D01*
X144613000Y-106516205D01*
X144483410Y-106540589D01*
X144363000Y-106516205D01*
X143813000Y-106516205D01*
X143693220Y-106538743D01*
X143662456Y-106526000D01*
X143513000Y-106526000D01*
X143388000Y-106651000D01*
X143388000Y-106762343D01*
X143343370Y-106827661D01*
X143303205Y-107026000D01*
X143303205Y-108526000D01*
X143338069Y-108711289D01*
X143388000Y-108788883D01*
X143388000Y-108901000D01*
X143463000Y-108976000D01*
X143463000Y-109930801D01*
X143323456Y-109873000D01*
X142699000Y-109873000D01*
X142574000Y-109998000D01*
X142574000Y-110898000D01*
X142594000Y-110898000D01*
X142594000Y-111098000D01*
X142574000Y-111098000D01*
X142574000Y-111998000D01*
X142699000Y-112123000D01*
X143323456Y-112123000D01*
X143463000Y-112065199D01*
X143463000Y-114225117D01*
X143251116Y-114437000D01*
X143197870Y-114437000D01*
X143293861Y-114205828D01*
X143294139Y-113887568D01*
X143172603Y-113593428D01*
X142947755Y-113368188D01*
X142653828Y-113246139D01*
X142577957Y-113246073D01*
X141177228Y-111845344D01*
X141193630Y-111821339D01*
X141224000Y-111671369D01*
X141224000Y-111722456D01*
X141300121Y-111906227D01*
X141440773Y-112046880D01*
X141624544Y-112123000D01*
X142249000Y-112123000D01*
X142374000Y-111998000D01*
X142374000Y-111098000D01*
X142354000Y-111098000D01*
X142354000Y-110898000D01*
X142374000Y-110898000D01*
X142374000Y-109998000D01*
X142359942Y-109983942D01*
X142929939Y-109413944D01*
X142929942Y-109413942D01*
X143065425Y-109211177D01*
X143112007Y-108976993D01*
X143188000Y-108901000D01*
X143188000Y-108789657D01*
X143232630Y-108724339D01*
X143272795Y-108526000D01*
X143272795Y-107026000D01*
X143237931Y-106840711D01*
X143188000Y-106763117D01*
X143188000Y-106651000D01*
X143063000Y-106526000D01*
X142913544Y-106526000D01*
X142879994Y-106539897D01*
X142763000Y-106516205D01*
X142313000Y-106516205D01*
X142313000Y-102531399D01*
X142409812Y-102434755D01*
X142531861Y-102140828D01*
X142532139Y-101822568D01*
X142410603Y-101528428D01*
X142185755Y-101303188D01*
X141891828Y-101181139D01*
X141573568Y-101180861D01*
X141279428Y-101302397D01*
X141054188Y-101527245D01*
X140932139Y-101821172D01*
X140931861Y-102139432D01*
X141053397Y-102433572D01*
X141063000Y-102443192D01*
X141063000Y-106516205D01*
X140613000Y-106516205D01*
X140483410Y-106540589D01*
X140363000Y-106516205D01*
X139813000Y-106516205D01*
X139683410Y-106540589D01*
X139563000Y-106516205D01*
X139013000Y-106516205D01*
X138827711Y-106551069D01*
X138789763Y-106575488D01*
X138807630Y-106549339D01*
X138847795Y-106351000D01*
X138847795Y-105801000D01*
X138823411Y-105671410D01*
X138847795Y-105551000D01*
X138847795Y-105001000D01*
X138823411Y-104871410D01*
X138847795Y-104751000D01*
X138847795Y-104201000D01*
X138823411Y-104071410D01*
X138847795Y-103951000D01*
X138847795Y-103401000D01*
X138823411Y-103271410D01*
X138847795Y-103151000D01*
X138847795Y-102601000D01*
X138823411Y-102471410D01*
X138847795Y-102351000D01*
X138847795Y-101801000D01*
X138823411Y-101671410D01*
X138847795Y-101551000D01*
X138847795Y-101001000D01*
X138823411Y-100871410D01*
X138847795Y-100751000D01*
X138847795Y-100301000D01*
X139633153Y-100301000D01*
X139794172Y-100367861D01*
X140112432Y-100368139D01*
X140406572Y-100246603D01*
X140631812Y-100021755D01*
X140753861Y-99727828D01*
X140754139Y-99409568D01*
X140632603Y-99115428D01*
X140407755Y-98890188D01*
X140113828Y-98768139D01*
X139795568Y-98767861D01*
X139501428Y-98889397D01*
X139339543Y-99051000D01*
X138847795Y-99051000D01*
X138847795Y-98601000D01*
X138825257Y-98481220D01*
X138838000Y-98450456D01*
X138838000Y-98301000D01*
X138713000Y-98176000D01*
X138601657Y-98176000D01*
X138536339Y-98131370D01*
X138338000Y-98091205D01*
X136838000Y-98091205D01*
X136652711Y-98126069D01*
X136575117Y-98176000D01*
X136463000Y-98176000D01*
X136388000Y-98251000D01*
X136328000Y-98251000D01*
X136253000Y-98265918D01*
X136253000Y-97976544D01*
X136221709Y-97901000D01*
X136388000Y-97901000D01*
X136463000Y-97976000D01*
X136574343Y-97976000D01*
X136639661Y-98020630D01*
X136838000Y-98060795D01*
X138338000Y-98060795D01*
X138523289Y-98025931D01*
X138600883Y-97976000D01*
X138713000Y-97976000D01*
X138838000Y-97851000D01*
X138838000Y-97701544D01*
X138824103Y-97667994D01*
X138847795Y-97551000D01*
X138847795Y-97001000D01*
X138823411Y-96871410D01*
X138847795Y-96751000D01*
X138847795Y-96284730D01*
X139005177Y-96253425D01*
X139207942Y-96117942D01*
X139729939Y-95595944D01*
X139729942Y-95595942D01*
X139865425Y-95393177D01*
X139913000Y-95154000D01*
X139913000Y-93576000D01*
X139988000Y-93501000D01*
X139988000Y-93389657D01*
X140032630Y-93324339D01*
X140072795Y-93126000D01*
X140072795Y-91626000D01*
X140037931Y-91440711D01*
X139988000Y-91363117D01*
X139988000Y-91251000D01*
X139863000Y-91126000D01*
X139713544Y-91126000D01*
X139679994Y-91139897D01*
X139563000Y-91116205D01*
X139013000Y-91116205D01*
X138827711Y-91151069D01*
X138657535Y-91260575D01*
X138543370Y-91427661D01*
X138503205Y-91626000D01*
X138503205Y-91751000D01*
X138374883Y-91751000D01*
X137410883Y-90787000D01*
X137677000Y-90787000D01*
X137802000Y-90662000D01*
X137802000Y-89762000D01*
X138002000Y-89762000D01*
X138002000Y-90662000D01*
X138127000Y-90787000D01*
X138751456Y-90787000D01*
X138935227Y-90710880D01*
X139065000Y-90581106D01*
X139194773Y-90710880D01*
X139378544Y-90787000D01*
X140003000Y-90787000D01*
X140128000Y-90662000D01*
X140128000Y-89762000D01*
X139103000Y-89762000D01*
X139065000Y-89800000D01*
X139027000Y-89762000D01*
X138002000Y-89762000D01*
X137802000Y-89762000D01*
X137782000Y-89762000D01*
X137782000Y-89562000D01*
X137802000Y-89562000D01*
X137802000Y-88662000D01*
X138002000Y-88662000D01*
X138002000Y-89562000D01*
X139027000Y-89562000D01*
X139065000Y-89524000D01*
X139103000Y-89562000D01*
X140128000Y-89562000D01*
X140128000Y-88662000D01*
X140003000Y-88537000D01*
X139378544Y-88537000D01*
X139194773Y-88613120D01*
X139065000Y-88742894D01*
X138935227Y-88613120D01*
X138751456Y-88537000D01*
X138127000Y-88537000D01*
X138002000Y-88662000D01*
X137802000Y-88662000D01*
X137677000Y-88537000D01*
X137052544Y-88537000D01*
X136868773Y-88613120D01*
X136728121Y-88753773D01*
X136652000Y-88937544D01*
X136652000Y-88984943D01*
X136626931Y-88851711D01*
X136517425Y-88681535D01*
X136350339Y-88567370D01*
X136152000Y-88527205D01*
X136027000Y-88527205D01*
X136027000Y-87608510D01*
X136059812Y-87575755D01*
X136181861Y-87281828D01*
X136182139Y-86963568D01*
X136060603Y-86669428D01*
X135835755Y-86444188D01*
X135541828Y-86322139D01*
X135223568Y-86321861D01*
X134929428Y-86443397D01*
X134704188Y-86668245D01*
X134582139Y-86962172D01*
X134581861Y-87280432D01*
X134703397Y-87574572D01*
X134777000Y-87648303D01*
X134777000Y-88527205D01*
X134652000Y-88527205D01*
X134466711Y-88562069D01*
X134296535Y-88671575D01*
X134182370Y-88838661D01*
X134142205Y-89037000D01*
X134112000Y-89037000D01*
X133872822Y-89084575D01*
X133791606Y-89138842D01*
X133670058Y-89220058D01*
X133670056Y-89220061D01*
X129098058Y-93792058D01*
X128962575Y-93994823D01*
X128915000Y-94234000D01*
X128915000Y-96007117D01*
X128617000Y-96305117D01*
X128617000Y-92385000D01*
X128569425Y-92145823D01*
X128433942Y-91943058D01*
X128433939Y-91943056D01*
X127524795Y-91033911D01*
X127524795Y-90395000D01*
X128063000Y-90395000D01*
X128063000Y-91119456D01*
X128139121Y-91303227D01*
X128279773Y-91443880D01*
X128463544Y-91520000D01*
X129188000Y-91520000D01*
X129313000Y-91395000D01*
X129313000Y-90270000D01*
X129513000Y-90270000D01*
X129513000Y-91395000D01*
X129638000Y-91520000D01*
X130362456Y-91520000D01*
X130546227Y-91443880D01*
X130686879Y-91303227D01*
X130763000Y-91119456D01*
X130763000Y-90395000D01*
X130638000Y-90270000D01*
X129513000Y-90270000D01*
X129313000Y-90270000D01*
X128188000Y-90270000D01*
X128063000Y-90395000D01*
X127524795Y-90395000D01*
X127524795Y-90008000D01*
X127489931Y-89822711D01*
X127380425Y-89652535D01*
X127213339Y-89538370D01*
X127015000Y-89498205D01*
X125715000Y-89498205D01*
X125529711Y-89533069D01*
X125359535Y-89642575D01*
X125245370Y-89809661D01*
X125205205Y-90008000D01*
X121454000Y-90008000D01*
X121454000Y-87308000D01*
X125205205Y-87308000D01*
X125205205Y-88808000D01*
X125240069Y-88993289D01*
X125349575Y-89163465D01*
X125516661Y-89277630D01*
X125715000Y-89317795D01*
X127015000Y-89317795D01*
X127200289Y-89282931D01*
X127370465Y-89173425D01*
X127484630Y-89006339D01*
X127524795Y-88808000D01*
X127524795Y-88683000D01*
X128579233Y-88683000D01*
X128784268Y-88820000D01*
X128463544Y-88820000D01*
X128279773Y-88896120D01*
X128139121Y-89036773D01*
X128063000Y-89220544D01*
X128063000Y-89945000D01*
X128188000Y-90070000D01*
X129313000Y-90070000D01*
X129313000Y-90050000D01*
X129513000Y-90050000D01*
X129513000Y-90070000D01*
X130638000Y-90070000D01*
X130763000Y-89945000D01*
X130763000Y-89220544D01*
X130686879Y-89036773D01*
X130546227Y-88896120D01*
X130362456Y-88820000D01*
X130041732Y-88820000D01*
X130394042Y-88584594D01*
X130614270Y-88255000D01*
X131572000Y-88255000D01*
X131811177Y-88207425D01*
X132013942Y-88071942D01*
X132163810Y-87922074D01*
X132238432Y-87922139D01*
X132532572Y-87800603D01*
X132757812Y-87575755D01*
X132879861Y-87281828D01*
X132880139Y-86963568D01*
X132758603Y-86669428D01*
X132705000Y-86615732D01*
X132705000Y-85079795D01*
X132830000Y-85079795D01*
X133015289Y-85044931D01*
X133185465Y-84935425D01*
X133299630Y-84768339D01*
X133339795Y-84570000D01*
X133339795Y-83070000D01*
X133614205Y-83070000D01*
X133614205Y-84570000D01*
X133649069Y-84755289D01*
X133758575Y-84925465D01*
X133925661Y-85039630D01*
X134124000Y-85079795D01*
X135249911Y-85079795D01*
X137226058Y-87055942D01*
X137428823Y-87191425D01*
X137668000Y-87239001D01*
X137668005Y-87239000D01*
X143251116Y-87239000D01*
X144263000Y-88250884D01*
X144263000Y-91116205D01*
X143813000Y-91116205D01*
X143683410Y-91140589D01*
X143563000Y-91116205D01*
X143013000Y-91116205D01*
X142883410Y-91140589D01*
X142763000Y-91116205D01*
X142213000Y-91116205D01*
X142144857Y-91129027D01*
X142477089Y-90796795D01*
X143478000Y-90796795D01*
X143663289Y-90761931D01*
X143833465Y-90652425D01*
X143947630Y-90485339D01*
X143987795Y-90287000D01*
X143987795Y-89037000D01*
X143952931Y-88851711D01*
X143843425Y-88681535D01*
X143676339Y-88567370D01*
X143478000Y-88527205D01*
X141978000Y-88527205D01*
X141792711Y-88562069D01*
X141622535Y-88671575D01*
X141508370Y-88838661D01*
X141478000Y-88988631D01*
X141478000Y-88937544D01*
X141401879Y-88753773D01*
X141261227Y-88613120D01*
X141077456Y-88537000D01*
X140453000Y-88537000D01*
X140328000Y-88662000D01*
X140328000Y-89562000D01*
X140348000Y-89562000D01*
X140348000Y-89762000D01*
X140328000Y-89762000D01*
X140328000Y-90662000D01*
X140453000Y-90787000D01*
X140719116Y-90787000D01*
X140446058Y-91060058D01*
X140401997Y-91126000D01*
X140313000Y-91126000D01*
X140188000Y-91251000D01*
X140188000Y-91362343D01*
X140143370Y-91427661D01*
X140103205Y-91626000D01*
X140103205Y-93126000D01*
X140138069Y-93311289D01*
X140188000Y-93388883D01*
X140188000Y-93501000D01*
X140313000Y-93626000D01*
X140462456Y-93626000D01*
X140496006Y-93612103D01*
X140613000Y-93635795D01*
X141163000Y-93635795D01*
X141292590Y-93611411D01*
X141413000Y-93635795D01*
X141963000Y-93635795D01*
X142092590Y-93611411D01*
X142213000Y-93635795D01*
X142763000Y-93635795D01*
X142892590Y-93611411D01*
X143013000Y-93635795D01*
X143563000Y-93635795D01*
X143692590Y-93611411D01*
X143813000Y-93635795D01*
X144363000Y-93635795D01*
X144492590Y-93611411D01*
X144613000Y-93635795D01*
X145163000Y-93635795D01*
X145292590Y-93611411D01*
X145413000Y-93635795D01*
X145963000Y-93635795D01*
X146092590Y-93611411D01*
X146213000Y-93635795D01*
X146663000Y-93635795D01*
X146663000Y-94013469D01*
X146642188Y-94034245D01*
X146520139Y-94328172D01*
X146519861Y-94646432D01*
X146641397Y-94940572D01*
X146866245Y-95165812D01*
X147160172Y-95287861D01*
X147478432Y-95288139D01*
X147772572Y-95166603D01*
X147997812Y-94941755D01*
X148119861Y-94647828D01*
X148120139Y-94329568D01*
X147998603Y-94035428D01*
X147913000Y-93949676D01*
X147913000Y-93576000D01*
X147988000Y-93501000D01*
X147988000Y-93389657D01*
X148032630Y-93324339D01*
X148072795Y-93126000D01*
X148072795Y-91626000D01*
X148037931Y-91440711D01*
X147988000Y-91363117D01*
X147988000Y-91251000D01*
X147863000Y-91126000D01*
X147713544Y-91126000D01*
X147679994Y-91139897D01*
X147563000Y-91116205D01*
X147113000Y-91116205D01*
X147113000Y-90475199D01*
X147252544Y-90533000D01*
X147877000Y-90533000D01*
X148002000Y-90408000D01*
X148002000Y-89508000D01*
X147982000Y-89508000D01*
X147982000Y-89308000D01*
X148002000Y-89308000D01*
X148002000Y-88408000D01*
X147877000Y-88283000D01*
X147252544Y-88283000D01*
X147113000Y-88340801D01*
X147113000Y-88068000D01*
X147065425Y-87828823D01*
X146929942Y-87626058D01*
X146929939Y-87626056D01*
X145526884Y-86223000D01*
X145543525Y-86223000D01*
X145596245Y-86275812D01*
X145890172Y-86397861D01*
X146208432Y-86398139D01*
X146502572Y-86276603D01*
X146727812Y-86051755D01*
X146849861Y-85757828D01*
X146850139Y-85439568D01*
X146728603Y-85145428D01*
X146653306Y-85070000D01*
X146899456Y-85070000D01*
X147083227Y-84993880D01*
X147223879Y-84853227D01*
X147300000Y-84669456D01*
X147300000Y-84045000D01*
X147175000Y-83920000D01*
X146150000Y-83920000D01*
X146150000Y-83940000D01*
X145950000Y-83940000D01*
X145950000Y-83920000D01*
X144925000Y-83920000D01*
X144800000Y-84045000D01*
X144800000Y-84480116D01*
X144515795Y-84195911D01*
X144515795Y-83070000D01*
X144497082Y-82970544D01*
X144800000Y-82970544D01*
X144800000Y-83595000D01*
X144925000Y-83720000D01*
X145950000Y-83720000D01*
X145950000Y-82695000D01*
X146150000Y-82695000D01*
X146150000Y-83720000D01*
X147175000Y-83720000D01*
X147300000Y-83595000D01*
X147300000Y-82970544D01*
X147223879Y-82786773D01*
X147083227Y-82646120D01*
X146899456Y-82570000D01*
X146275000Y-82570000D01*
X146150000Y-82695000D01*
X145950000Y-82695000D01*
X145825000Y-82570000D01*
X145200544Y-82570000D01*
X145016773Y-82646120D01*
X144876121Y-82786773D01*
X144800000Y-82970544D01*
X144497082Y-82970544D01*
X144480931Y-82884711D01*
X144371425Y-82714535D01*
X144204339Y-82600370D01*
X144006000Y-82560205D01*
X142506000Y-82560205D01*
X142320711Y-82595069D01*
X142150535Y-82704575D01*
X142036370Y-82871661D01*
X141996205Y-83070000D01*
X141996205Y-84470321D01*
X141721795Y-84195911D01*
X141721795Y-83070000D01*
X141686931Y-82884711D01*
X141577425Y-82714535D01*
X141410339Y-82600370D01*
X141212000Y-82560205D01*
X139712000Y-82560205D01*
X139526711Y-82595069D01*
X139356535Y-82704575D01*
X139242370Y-82871661D01*
X139202205Y-83070000D01*
X139202205Y-84470321D01*
X138927795Y-84195911D01*
X138927795Y-83070000D01*
X138892931Y-82884711D01*
X138783425Y-82714535D01*
X138616339Y-82600370D01*
X138418000Y-82560205D01*
X136918000Y-82560205D01*
X136732711Y-82595069D01*
X136562535Y-82704575D01*
X136448370Y-82871661D01*
X136408205Y-83070000D01*
X136408205Y-84470321D01*
X136133795Y-84195911D01*
X136133795Y-83070000D01*
X136098931Y-82884711D01*
X135989425Y-82714535D01*
X135822339Y-82600370D01*
X135624000Y-82560205D01*
X134124000Y-82560205D01*
X133938711Y-82595069D01*
X133768535Y-82704575D01*
X133654370Y-82871661D01*
X133614205Y-83070000D01*
X133339795Y-83070000D01*
X133304931Y-82884711D01*
X133195425Y-82714535D01*
X133028339Y-82600370D01*
X132830000Y-82560205D01*
X131330000Y-82560205D01*
X131144711Y-82595069D01*
X130974535Y-82704575D01*
X130860370Y-82871661D01*
X130820205Y-83070000D01*
X130820205Y-84570000D01*
X130855069Y-84755289D01*
X130964575Y-84925465D01*
X131131661Y-85039630D01*
X131330000Y-85079795D01*
X131455000Y-85079795D01*
X131455000Y-86615525D01*
X131402188Y-86668245D01*
X131280139Y-86962172D01*
X131280102Y-87005000D01*
X130614270Y-87005000D01*
X130394042Y-86675406D01*
X129956071Y-86382763D01*
X129439448Y-86280000D01*
X129386552Y-86280000D01*
X128869929Y-86382763D01*
X128431958Y-86675406D01*
X128139315Y-87113377D01*
X128075738Y-87433000D01*
X127524795Y-87433000D01*
X127524795Y-87308000D01*
X127489931Y-87122711D01*
X127380425Y-86952535D01*
X127213339Y-86838370D01*
X127015000Y-86798205D01*
X125715000Y-86798205D01*
X125529711Y-86833069D01*
X125359535Y-86942575D01*
X125245370Y-87109661D01*
X125205205Y-87308000D01*
X121454000Y-87308000D01*
X121454000Y-84235883D01*
X122359637Y-84235883D01*
X122678669Y-85008000D01*
X123268893Y-85599255D01*
X124040452Y-85919634D01*
X124875883Y-85920363D01*
X125648000Y-85601331D01*
X126239255Y-85011107D01*
X126559634Y-84239548D01*
X126560363Y-83404117D01*
X126241331Y-82632000D01*
X125943396Y-82333544D01*
X158790000Y-82333544D01*
X158790000Y-82833000D01*
X158915000Y-82958000D01*
X159940000Y-82958000D01*
X159940000Y-82058000D01*
X159815000Y-81933000D01*
X159190544Y-81933000D01*
X159006773Y-82009120D01*
X158866121Y-82149773D01*
X158790000Y-82333544D01*
X125943396Y-82333544D01*
X125651107Y-82040745D01*
X124879548Y-81720366D01*
X124044117Y-81719637D01*
X123272000Y-82038669D01*
X122680745Y-82628893D01*
X122360366Y-83400452D01*
X122359637Y-84235883D01*
X121454000Y-84235883D01*
X121454000Y-80814000D01*
X172678000Y-80814000D01*
X172678000Y-121878000D01*
X172678000Y-121878000D01*
G37*
X172678000Y-121878000D02*
X121454000Y-121878000D01*
X121454000Y-119033883D01*
X122359637Y-119033883D01*
X122678669Y-119806000D01*
X123268893Y-120397255D01*
X124040452Y-120717634D01*
X124875883Y-120718363D01*
X125648000Y-120399331D01*
X126239255Y-119809107D01*
X126559634Y-119037548D01*
X126560363Y-118202117D01*
X126241331Y-117430000D01*
X125651107Y-116838745D01*
X124879548Y-116518366D01*
X124044117Y-116517637D01*
X123272000Y-116836669D01*
X122680745Y-117426893D01*
X122360366Y-118198452D01*
X122359637Y-119033883D01*
X121454000Y-119033883D01*
X121454000Y-109338393D01*
X123071028Y-109338393D01*
X123235742Y-109622527D01*
X123973772Y-109919798D01*
X124769384Y-109912010D01*
X125468258Y-109622527D01*
X125632972Y-109338393D01*
X124352000Y-108057421D01*
X123071028Y-109338393D01*
X121454000Y-109338393D01*
X121454000Y-107537772D01*
X122348202Y-107537772D01*
X122355990Y-108333384D01*
X122645473Y-109032258D01*
X122929607Y-109196972D01*
X124210579Y-107916000D01*
X124493421Y-107916000D01*
X125774393Y-109196972D01*
X126058527Y-109032258D01*
X126355798Y-108294228D01*
X126348010Y-107498616D01*
X126296618Y-107374544D01*
X131209000Y-107374544D01*
X131209000Y-107999000D01*
X131334000Y-108124000D01*
X132234000Y-108124000D01*
X132234000Y-107099000D01*
X132434000Y-107099000D01*
X132434000Y-108124000D01*
X133334000Y-108124000D01*
X133459000Y-107999000D01*
X133459000Y-107374544D01*
X134003000Y-107374544D01*
X134003000Y-107999000D01*
X134128000Y-108124000D01*
X135028000Y-108124000D01*
X135028000Y-107099000D01*
X135228000Y-107099000D01*
X135228000Y-108124000D01*
X136128000Y-108124000D01*
X136253000Y-107999000D01*
X136253000Y-107374544D01*
X136176880Y-107190773D01*
X136036227Y-107050121D01*
X135852456Y-106974000D01*
X135353000Y-106974000D01*
X135228000Y-107099000D01*
X135028000Y-107099000D01*
X134903000Y-106974000D01*
X134403544Y-106974000D01*
X134219773Y-107050121D01*
X134079120Y-107190773D01*
X134003000Y-107374544D01*
X133459000Y-107374544D01*
X133382880Y-107190773D01*
X133242227Y-107050121D01*
X133058456Y-106974000D01*
X132559000Y-106974000D01*
X132434000Y-107099000D01*
X132234000Y-107099000D01*
X132109000Y-106974000D01*
X131609544Y-106974000D01*
X131425773Y-107050121D01*
X131285120Y-107190773D01*
X131209000Y-107374544D01*
X126296618Y-107374544D01*
X126058527Y-106799742D01*
X125774393Y-106635028D01*
X124493421Y-107916000D01*
X124210579Y-107916000D01*
X122929607Y-106635028D01*
X122645473Y-106799742D01*
X122348202Y-107537772D01*
X121454000Y-107537772D01*
X121454000Y-106493607D01*
X123071028Y-106493607D01*
X124352000Y-107774579D01*
X125632972Y-106493607D01*
X125468258Y-106209473D01*
X124730228Y-105912202D01*
X123934616Y-105919990D01*
X123235742Y-106209473D01*
X123071028Y-106493607D01*
X121454000Y-106493607D01*
X121454000Y-105071000D01*
X126052000Y-105071000D01*
X126052000Y-105505456D01*
X126128120Y-105689227D01*
X126268773Y-105829879D01*
X126452544Y-105906000D01*
X127767000Y-105906000D01*
X127892000Y-105781000D01*
X127892000Y-104946000D01*
X128092000Y-104946000D01*
X128092000Y-105781000D01*
X128217000Y-105906000D01*
X129531456Y-105906000D01*
X129715227Y-105829879D01*
X129855880Y-105689227D01*
X129932000Y-105505456D01*
X129932000Y-105071000D01*
X129807000Y-104946000D01*
X128092000Y-104946000D01*
X127892000Y-104946000D01*
X126177000Y-104946000D01*
X126052000Y-105071000D01*
X121454000Y-105071000D01*
X121454000Y-104873000D01*
X130476000Y-104873000D01*
X130476000Y-105597456D01*
X130552120Y-105781227D01*
X130692773Y-105921879D01*
X130876544Y-105998000D01*
X131601000Y-105998000D01*
X131726000Y-105873000D01*
X131726000Y-104748000D01*
X130601000Y-104748000D01*
X130476000Y-104873000D01*
X121454000Y-104873000D01*
X121454000Y-104186544D01*
X126052000Y-104186544D01*
X126052000Y-104621000D01*
X126177000Y-104746000D01*
X127892000Y-104746000D01*
X127892000Y-103911000D01*
X128092000Y-103911000D01*
X128092000Y-104746000D01*
X129807000Y-104746000D01*
X129932000Y-104621000D01*
X129932000Y-104186544D01*
X129855880Y-104002773D01*
X129715227Y-103862121D01*
X129531456Y-103786000D01*
X128217000Y-103786000D01*
X128092000Y-103911000D01*
X127892000Y-103911000D01*
X127767000Y-103786000D01*
X126452544Y-103786000D01*
X126268773Y-103862121D01*
X126128120Y-104002773D01*
X126052000Y-104186544D01*
X121454000Y-104186544D01*
X121454000Y-103698544D01*
X130476000Y-103698544D01*
X130476000Y-104423000D01*
X130601000Y-104548000D01*
X131726000Y-104548000D01*
X131726000Y-103423000D01*
X131926000Y-103423000D01*
X131926000Y-104548000D01*
X131946000Y-104548000D01*
X131946000Y-104748000D01*
X131926000Y-104748000D01*
X131926000Y-105873000D01*
X132051000Y-105998000D01*
X132775456Y-105998000D01*
X132959227Y-105921879D01*
X133099880Y-105781227D01*
X133176000Y-105597456D01*
X133176000Y-105276732D01*
X133411406Y-105629042D01*
X133849377Y-105921685D01*
X134366000Y-106024448D01*
X134882623Y-105921685D01*
X135320594Y-105629042D01*
X135613237Y-105191071D01*
X135716000Y-104674448D01*
X135716000Y-104621552D01*
X135613237Y-104104929D01*
X135320594Y-103666958D01*
X134882623Y-103374315D01*
X134366000Y-103271552D01*
X133849377Y-103374315D01*
X133411406Y-103666958D01*
X133176000Y-104019268D01*
X133176000Y-103698544D01*
X133099880Y-103514773D01*
X132959227Y-103374121D01*
X132775456Y-103298000D01*
X132051000Y-103298000D01*
X131926000Y-103423000D01*
X131726000Y-103423000D01*
X131601000Y-103298000D01*
X130876544Y-103298000D01*
X130692773Y-103374121D01*
X130552120Y-103514773D01*
X130476000Y-103698544D01*
X121454000Y-103698544D01*
X121454000Y-96198393D01*
X123071028Y-96198393D01*
X123235742Y-96482527D01*
X123973772Y-96779798D01*
X124769384Y-96772010D01*
X125468258Y-96482527D01*
X125632972Y-96198393D01*
X124352000Y-94917421D01*
X123071028Y-96198393D01*
X121454000Y-96198393D01*
X121454000Y-94397772D01*
X122348202Y-94397772D01*
X122355990Y-95193384D01*
X122645473Y-95892258D01*
X122929607Y-96056972D01*
X124210579Y-94776000D01*
X124493421Y-94776000D01*
X125774393Y-96056972D01*
X126058527Y-95892258D01*
X126355798Y-95154228D01*
X126348010Y-94358616D01*
X126058527Y-93659742D01*
X125774393Y-93495028D01*
X124493421Y-94776000D01*
X124210579Y-94776000D01*
X122929607Y-93495028D01*
X122645473Y-93659742D01*
X122348202Y-94397772D01*
X121454000Y-94397772D01*
X121454000Y-93353607D01*
X123071028Y-93353607D01*
X124352000Y-94634579D01*
X125632972Y-93353607D01*
X125468258Y-93069473D01*
X124730228Y-92772202D01*
X123934616Y-92779990D01*
X123235742Y-93069473D01*
X123071028Y-93353607D01*
X121454000Y-93353607D01*
X121454000Y-90008000D01*
X125205205Y-90008000D01*
X125205205Y-91508000D01*
X125240069Y-91693289D01*
X125349575Y-91863465D01*
X125516661Y-91977630D01*
X125715000Y-92017795D01*
X126740912Y-92017795D01*
X127367000Y-92643883D01*
X127367000Y-96776205D01*
X126552000Y-96776205D01*
X126366711Y-96811069D01*
X126196535Y-96920575D01*
X126082370Y-97087661D01*
X126042205Y-97286000D01*
X126042205Y-98406000D01*
X126077069Y-98591289D01*
X126186575Y-98761465D01*
X126353661Y-98875630D01*
X126552000Y-98915795D01*
X129432000Y-98915795D01*
X129617289Y-98880931D01*
X129677000Y-98842508D01*
X129677000Y-99309116D01*
X129653750Y-99332366D01*
X129630339Y-99316370D01*
X129432000Y-99276205D01*
X126552000Y-99276205D01*
X126366711Y-99311069D01*
X126196535Y-99420575D01*
X126082370Y-99587661D01*
X126042205Y-99786000D01*
X126042205Y-100906000D01*
X126077069Y-101091289D01*
X126186575Y-101261465D01*
X126311330Y-101346706D01*
X126196535Y-101420575D01*
X126082370Y-101587661D01*
X126042205Y-101786000D01*
X126042205Y-102906000D01*
X126077069Y-103091289D01*
X126186575Y-103261465D01*
X126353661Y-103375630D01*
X126552000Y-103415795D01*
X129432000Y-103415795D01*
X129617289Y-103380931D01*
X129787465Y-103271425D01*
X129901630Y-103104339D01*
X129941795Y-102906000D01*
X129941795Y-102825458D01*
X129997942Y-102787942D01*
X132441942Y-100343942D01*
X132577425Y-100141177D01*
X132625000Y-99902000D01*
X132625000Y-97933795D01*
X132750000Y-97933795D01*
X132935289Y-97898931D01*
X133105465Y-97789425D01*
X133219630Y-97622339D01*
X133259795Y-97424000D01*
X133259795Y-96124000D01*
X133224931Y-95938711D01*
X133115425Y-95768535D01*
X133102221Y-95759513D01*
X133105465Y-95757425D01*
X133219630Y-95590339D01*
X133259795Y-95392000D01*
X133259795Y-94092000D01*
X133224931Y-93906711D01*
X133115425Y-93736535D01*
X132948339Y-93622370D01*
X132750000Y-93582205D01*
X131250000Y-93582205D01*
X131064711Y-93617069D01*
X130997683Y-93660200D01*
X134180407Y-90477476D01*
X134286575Y-90642465D01*
X134453661Y-90756630D01*
X134652000Y-90796795D01*
X134777000Y-90796795D01*
X134777000Y-90913560D01*
X134704188Y-90986245D01*
X134582139Y-91280172D01*
X134581861Y-91598432D01*
X134703397Y-91892572D01*
X134928245Y-92117812D01*
X135222172Y-92239861D01*
X135540432Y-92240139D01*
X135834572Y-92118603D01*
X136059812Y-91893755D01*
X136181861Y-91599828D01*
X136182100Y-91325984D01*
X137674056Y-92817939D01*
X137674058Y-92817942D01*
X137793787Y-92897942D01*
X137876823Y-92953425D01*
X138116000Y-93001001D01*
X138116005Y-93001000D01*
X138503205Y-93001000D01*
X138503205Y-93126000D01*
X138538069Y-93311289D01*
X138562488Y-93349237D01*
X138536339Y-93331370D01*
X138338000Y-93291205D01*
X136838000Y-93291205D01*
X136652711Y-93326069D01*
X136482535Y-93435575D01*
X136368370Y-93602661D01*
X136328205Y-93801000D01*
X136328205Y-94351000D01*
X136352589Y-94480590D01*
X136328205Y-94601000D01*
X136328205Y-95151000D01*
X136352589Y-95280590D01*
X136328205Y-95401000D01*
X136328205Y-95486321D01*
X135959795Y-95117911D01*
X135959795Y-94092000D01*
X135924931Y-93906711D01*
X135815425Y-93736535D01*
X135648339Y-93622370D01*
X135450000Y-93582205D01*
X133950000Y-93582205D01*
X133764711Y-93617069D01*
X133594535Y-93726575D01*
X133480370Y-93893661D01*
X133440205Y-94092000D01*
X133440205Y-95392000D01*
X133475069Y-95577289D01*
X133584575Y-95747465D01*
X133597779Y-95756487D01*
X133594535Y-95758575D01*
X133480370Y-95925661D01*
X133440205Y-96124000D01*
X133440205Y-97424000D01*
X133475069Y-97609289D01*
X133584575Y-97779465D01*
X133751661Y-97893630D01*
X133950000Y-97933795D01*
X134020707Y-97933795D01*
X134003000Y-97976544D01*
X134003000Y-98601000D01*
X134128000Y-98726000D01*
X135028000Y-98726000D01*
X135028000Y-98706000D01*
X135228000Y-98706000D01*
X135228000Y-98726000D01*
X135248000Y-98726000D01*
X135248000Y-98926000D01*
X135228000Y-98926000D01*
X135228000Y-98946000D01*
X135028000Y-98946000D01*
X135028000Y-98926000D01*
X134128000Y-98926000D01*
X134003000Y-99051000D01*
X134003000Y-99675456D01*
X134079120Y-99859227D01*
X134219773Y-99999879D01*
X134403544Y-100076000D01*
X134450943Y-100076000D01*
X134317711Y-100101069D01*
X134147535Y-100210575D01*
X134033370Y-100377661D01*
X133993205Y-100576000D01*
X133993205Y-102076000D01*
X134028069Y-102261289D01*
X134137575Y-102431465D01*
X134304661Y-102545630D01*
X134503000Y-102585795D01*
X135753000Y-102585795D01*
X135938289Y-102550931D01*
X136108465Y-102441425D01*
X136222630Y-102274339D01*
X136262795Y-102076000D01*
X136262795Y-101075089D01*
X136328205Y-101009679D01*
X136328205Y-101551000D01*
X136352589Y-101680590D01*
X136328205Y-101801000D01*
X136328205Y-102351000D01*
X136352589Y-102480590D01*
X136328205Y-102601000D01*
X136328205Y-103151000D01*
X136352589Y-103280590D01*
X136328205Y-103401000D01*
X136328205Y-103951000D01*
X136352589Y-104080590D01*
X136328205Y-104201000D01*
X136328205Y-104751000D01*
X136352589Y-104880590D01*
X136328205Y-105001000D01*
X136328205Y-105551000D01*
X136352589Y-105680590D01*
X136328205Y-105801000D01*
X136328205Y-106351000D01*
X136363069Y-106536289D01*
X136472575Y-106706465D01*
X136639661Y-106820630D01*
X136838000Y-106860795D01*
X138338000Y-106860795D01*
X138523289Y-106825931D01*
X138561237Y-106801512D01*
X138543370Y-106827661D01*
X138503205Y-107026000D01*
X138503205Y-108526000D01*
X138538069Y-108711289D01*
X138647575Y-108881465D01*
X138814661Y-108995630D01*
X139013000Y-109035795D01*
X139563000Y-109035795D01*
X139692590Y-109011411D01*
X139813000Y-109035795D01*
X140363000Y-109035795D01*
X140492590Y-109011411D01*
X140613000Y-109035795D01*
X141163000Y-109035795D01*
X141292590Y-109011411D01*
X141413000Y-109035795D01*
X141540321Y-109035795D01*
X141473116Y-109103000D01*
X141244000Y-109103000D01*
X141004822Y-109150575D01*
X140802058Y-109286058D01*
X140224911Y-109863205D01*
X139224000Y-109863205D01*
X139038711Y-109898069D01*
X138868535Y-110007575D01*
X138754370Y-110174661D01*
X138714205Y-110373000D01*
X138714205Y-111623000D01*
X138749069Y-111808289D01*
X138858575Y-111978465D01*
X139025661Y-112092630D01*
X139224000Y-112132795D01*
X139696911Y-112132795D01*
X141693926Y-114129810D01*
X141693861Y-114204432D01*
X141789956Y-114437000D01*
X139733795Y-114437000D01*
X139733795Y-112846000D01*
X139698931Y-112660711D01*
X139589425Y-112490535D01*
X139422339Y-112376370D01*
X139224000Y-112336205D01*
X136648089Y-112336205D01*
X136125856Y-111813972D01*
X136222630Y-111672339D01*
X136262795Y-111474000D01*
X136262795Y-109974000D01*
X136227931Y-109788711D01*
X136118425Y-109618535D01*
X135951339Y-109504370D01*
X135801369Y-109474000D01*
X135852456Y-109474000D01*
X136036227Y-109397879D01*
X136176880Y-109257227D01*
X136253000Y-109073456D01*
X136253000Y-108449000D01*
X136128000Y-108324000D01*
X135228000Y-108324000D01*
X135228000Y-108344000D01*
X135028000Y-108344000D01*
X135028000Y-108324000D01*
X134128000Y-108324000D01*
X134003000Y-108449000D01*
X134003000Y-109073456D01*
X134079120Y-109257227D01*
X134219773Y-109397879D01*
X134403544Y-109474000D01*
X134450943Y-109474000D01*
X134317711Y-109499069D01*
X134147535Y-109608575D01*
X134033370Y-109775661D01*
X133993205Y-109974000D01*
X133993205Y-111474000D01*
X134028069Y-111659289D01*
X134137575Y-111829465D01*
X134304661Y-111943630D01*
X134503000Y-111983795D01*
X134580388Y-111983795D01*
X134686058Y-112141942D01*
X135243829Y-112699713D01*
X135214205Y-112846000D01*
X135214205Y-115199000D01*
X134533795Y-115199000D01*
X134533795Y-112846000D01*
X134498931Y-112660711D01*
X134389425Y-112490535D01*
X134222339Y-112376370D01*
X134024000Y-112336205D01*
X132959000Y-112336205D01*
X132959000Y-111983795D01*
X133144289Y-111948931D01*
X133314465Y-111839425D01*
X133428630Y-111672339D01*
X133468795Y-111474000D01*
X133468795Y-109974000D01*
X133433931Y-109788711D01*
X133324425Y-109618535D01*
X133157339Y-109504370D01*
X133007369Y-109474000D01*
X133058456Y-109474000D01*
X133242227Y-109397879D01*
X133382880Y-109257227D01*
X133459000Y-109073456D01*
X133459000Y-108449000D01*
X133334000Y-108324000D01*
X132434000Y-108324000D01*
X132434000Y-108344000D01*
X132234000Y-108344000D01*
X132234000Y-108324000D01*
X131334000Y-108324000D01*
X131209000Y-108449000D01*
X131209000Y-109073456D01*
X131285120Y-109257227D01*
X131425773Y-109397879D01*
X131609544Y-109474000D01*
X131656943Y-109474000D01*
X131523711Y-109499069D01*
X131353535Y-109608575D01*
X131239370Y-109775661D01*
X131199205Y-109974000D01*
X131199205Y-111474000D01*
X131234069Y-111659289D01*
X131343575Y-111829465D01*
X131510661Y-111943630D01*
X131709000Y-111983795D01*
X131709000Y-112336205D01*
X130524000Y-112336205D01*
X130338711Y-112371069D01*
X130168535Y-112480575D01*
X130054370Y-112647661D01*
X130014205Y-112846000D01*
X130014205Y-115246000D01*
X130049069Y-115431289D01*
X130158575Y-115601465D01*
X130325661Y-115715630D01*
X130524000Y-115755795D01*
X131889911Y-115755795D01*
X132400058Y-116265942D01*
X132602822Y-116401425D01*
X132842000Y-116449000D01*
X143525116Y-116449000D01*
X143505116Y-116469000D01*
X142240005Y-116469000D01*
X142240000Y-116468999D01*
X142000823Y-116516575D01*
X141798058Y-116652058D01*
X140872842Y-117577274D01*
X140462000Y-117495552D01*
X139945377Y-117598315D01*
X139507406Y-117890958D01*
X139214763Y-118328929D01*
X139192000Y-118443366D01*
X139169237Y-118328929D01*
X138876594Y-117890958D01*
X138438623Y-117598315D01*
X137922000Y-117495552D01*
X137405377Y-117598315D01*
X136967406Y-117890958D01*
X136674763Y-118328929D01*
X136652000Y-118443366D01*
X136629237Y-118328929D01*
X136336594Y-117890958D01*
X135898623Y-117598315D01*
X135382000Y-117495552D01*
X134865377Y-117598315D01*
X134427406Y-117890958D01*
X134134763Y-118328929D01*
X134112000Y-118443366D01*
X134089237Y-118328929D01*
X133796594Y-117890958D01*
X133358623Y-117598315D01*
X132842000Y-117495552D01*
X132325377Y-117598315D01*
X131887406Y-117890958D01*
X131661795Y-118228609D01*
X131661795Y-118022000D01*
X131626931Y-117836711D01*
X131517425Y-117666535D01*
X131350339Y-117552370D01*
X131152000Y-117512205D01*
X129452000Y-117512205D01*
X129266711Y-117547069D01*
X129096535Y-117656575D01*
X128982370Y-117823661D01*
X128942205Y-118022000D01*
X128942205Y-119722000D01*
X128977069Y-119907289D01*
X129086575Y-120077465D01*
X129253661Y-120191630D01*
X129452000Y-120231795D01*
X131152000Y-120231795D01*
X131337289Y-120196931D01*
X131507465Y-120087425D01*
X131621630Y-119920339D01*
X131661795Y-119722000D01*
X131661795Y-119515391D01*
X131887406Y-119853042D01*
X132325377Y-120145685D01*
X132842000Y-120248448D01*
X133358623Y-120145685D01*
X133796594Y-119853042D01*
X134089237Y-119415071D01*
X134112000Y-119300634D01*
X134134763Y-119415071D01*
X134427406Y-119853042D01*
X134865377Y-120145685D01*
X135382000Y-120248448D01*
X135898623Y-120145685D01*
X136336594Y-119853042D01*
X136629237Y-119415071D01*
X136652000Y-119300634D01*
X136674763Y-119415071D01*
X136967406Y-119853042D01*
X137405377Y-120145685D01*
X137922000Y-120248448D01*
X138438623Y-120145685D01*
X138876594Y-119853042D01*
X139169237Y-119415071D01*
X139192000Y-119300634D01*
X139214763Y-119415071D01*
X139507406Y-119853042D01*
X139945377Y-120145685D01*
X140462000Y-120248448D01*
X140978623Y-120145685D01*
X141416594Y-119853042D01*
X141709237Y-119415071D01*
X141732000Y-119300634D01*
X141754763Y-119415071D01*
X142047406Y-119853042D01*
X142485377Y-120145685D01*
X143002000Y-120248448D01*
X143518623Y-120145685D01*
X143956594Y-119853042D01*
X144249237Y-119415071D01*
X144272000Y-119300634D01*
X144294763Y-119415071D01*
X144587406Y-119853042D01*
X145025377Y-120145685D01*
X145542000Y-120248448D01*
X146058623Y-120145685D01*
X146496594Y-119853042D01*
X146789237Y-119415071D01*
X146812000Y-119300634D01*
X146834763Y-119415071D01*
X147127406Y-119853042D01*
X147565377Y-120145685D01*
X148082000Y-120248448D01*
X148598623Y-120145685D01*
X149036594Y-119853042D01*
X149329237Y-119415071D01*
X149355119Y-119284956D01*
X149526341Y-119660704D01*
X149911567Y-120019958D01*
X150312625Y-120186072D01*
X150522000Y-120092912D01*
X150522000Y-118972000D01*
X150502000Y-118972000D01*
X150502000Y-118772000D01*
X150522000Y-118772000D01*
X150522000Y-117651088D01*
X150312625Y-117557928D01*
X149911567Y-117724042D01*
X149526341Y-118083296D01*
X149355119Y-118459044D01*
X149329237Y-118328929D01*
X149036594Y-117890958D01*
X148707000Y-117670730D01*
X148707000Y-115320884D01*
X148740884Y-115287000D01*
X149392000Y-115287000D01*
X149392000Y-115786456D01*
X149468121Y-115970227D01*
X149608773Y-116110880D01*
X149792544Y-116187000D01*
X150417000Y-116187000D01*
X150542000Y-116062000D01*
X150542000Y-115162000D01*
X149517000Y-115162000D01*
X149392000Y-115287000D01*
X148740884Y-115287000D01*
X149392000Y-114635884D01*
X149392000Y-114837000D01*
X149517000Y-114962000D01*
X150542000Y-114962000D01*
X150542000Y-114062000D01*
X150417000Y-113937000D01*
X150090884Y-113937000D01*
X151729942Y-112297942D01*
X151865425Y-112095177D01*
X151913001Y-111856000D01*
X151913000Y-111855995D01*
X151913000Y-110571742D01*
X152113172Y-110654861D01*
X152431432Y-110655139D01*
X152725572Y-110533603D01*
X152732187Y-110527000D01*
X152764205Y-110527000D01*
X152764205Y-110652000D01*
X152799069Y-110837289D01*
X152908575Y-111007465D01*
X153075661Y-111121630D01*
X153274000Y-111161795D01*
X154574000Y-111161795D01*
X154759289Y-111126931D01*
X154929465Y-111017425D01*
X155043630Y-110850339D01*
X155083795Y-110652000D01*
X155083795Y-109152000D01*
X155048931Y-108966711D01*
X154939425Y-108796535D01*
X154772339Y-108682370D01*
X154574000Y-108642205D01*
X153274000Y-108642205D01*
X153088711Y-108677069D01*
X152918535Y-108786575D01*
X152804370Y-108953661D01*
X152764205Y-109152000D01*
X152764205Y-109214703D01*
X152726755Y-109177188D01*
X152432828Y-109055139D01*
X152114568Y-109054861D01*
X151913000Y-109138147D01*
X151913000Y-108894942D01*
X151918465Y-108891425D01*
X152032630Y-108724339D01*
X152072795Y-108526000D01*
X152072795Y-107026000D01*
X152037931Y-106840711D01*
X152013512Y-106802763D01*
X152039661Y-106820630D01*
X152238000Y-106860795D01*
X153738000Y-106860795D01*
X153923289Y-106825931D01*
X154093465Y-106716425D01*
X154207630Y-106549339D01*
X154247795Y-106351000D01*
X154247795Y-105801000D01*
X154223411Y-105671410D01*
X154247795Y-105551000D01*
X154247795Y-105101000D01*
X156033116Y-105101000D01*
X156601000Y-105668883D01*
X156601000Y-110490000D01*
X156648575Y-110729177D01*
X156784058Y-110931942D01*
X158477558Y-112625441D01*
X158402400Y-113003285D01*
X158402400Y-113056715D01*
X158506198Y-113578542D01*
X158801789Y-114020926D01*
X159244173Y-114316517D01*
X159766000Y-114420315D01*
X160287827Y-114316517D01*
X160730211Y-114020926D01*
X160932605Y-113718021D01*
X160932605Y-113893600D01*
X160967469Y-114078889D01*
X161076975Y-114249065D01*
X161244061Y-114363230D01*
X161442400Y-114403395D01*
X161681000Y-114403395D01*
X161681000Y-118781241D01*
X161644711Y-118788069D01*
X161474535Y-118897575D01*
X161360370Y-119064661D01*
X161320205Y-119263000D01*
X158226883Y-119263000D01*
X154401795Y-115437911D01*
X154401795Y-114668284D01*
X154501425Y-114519177D01*
X154549000Y-114280000D01*
X154549000Y-113861795D01*
X154574000Y-113861795D01*
X154759289Y-113826931D01*
X154929465Y-113717425D01*
X155043630Y-113550339D01*
X155083795Y-113352000D01*
X155083795Y-111852000D01*
X155048931Y-111666711D01*
X154939425Y-111496535D01*
X154772339Y-111382370D01*
X154574000Y-111342205D01*
X153274000Y-111342205D01*
X153088711Y-111377069D01*
X152918535Y-111486575D01*
X152804370Y-111653661D01*
X152764205Y-111852000D01*
X152764205Y-113352000D01*
X152799069Y-113537289D01*
X152908575Y-113707465D01*
X153075661Y-113821630D01*
X153274000Y-113861795D01*
X153299000Y-113861795D01*
X153299000Y-113927205D01*
X152392000Y-113927205D01*
X152206711Y-113962069D01*
X152036535Y-114071575D01*
X151922370Y-114238661D01*
X151892000Y-114388631D01*
X151892000Y-114337544D01*
X151815879Y-114153773D01*
X151675227Y-114013120D01*
X151491456Y-113937000D01*
X150867000Y-113937000D01*
X150742000Y-114062000D01*
X150742000Y-114962000D01*
X150762000Y-114962000D01*
X150762000Y-115162000D01*
X150742000Y-115162000D01*
X150742000Y-116062000D01*
X150867000Y-116187000D01*
X151491456Y-116187000D01*
X151675227Y-116110880D01*
X151815879Y-115970227D01*
X151892000Y-115786456D01*
X151892000Y-115739057D01*
X151917069Y-115872289D01*
X152026575Y-116042465D01*
X152193661Y-116156630D01*
X152392000Y-116196795D01*
X152517000Y-116196795D01*
X152517000Y-117684094D01*
X152207406Y-117890958D01*
X151914763Y-118328929D01*
X151888881Y-118459044D01*
X151717659Y-118083296D01*
X151332433Y-117724042D01*
X150931375Y-117557928D01*
X150722000Y-117651088D01*
X150722000Y-118772000D01*
X150742000Y-118772000D01*
X150742000Y-118972000D01*
X150722000Y-118972000D01*
X150722000Y-120092912D01*
X150931375Y-120186072D01*
X151332433Y-120019958D01*
X151717659Y-119660704D01*
X151888881Y-119284956D01*
X151914763Y-119415071D01*
X152207406Y-119853042D01*
X152645377Y-120145685D01*
X153162000Y-120248448D01*
X153678623Y-120145685D01*
X154116594Y-119853042D01*
X154409237Y-119415071D01*
X154512000Y-118898448D01*
X154512000Y-118845552D01*
X154409237Y-118328929D01*
X154116594Y-117890958D01*
X153767000Y-117657367D01*
X153767000Y-116570884D01*
X157526056Y-120329939D01*
X157526058Y-120329942D01*
X157728823Y-120465425D01*
X157968000Y-120513001D01*
X157968005Y-120513000D01*
X161320205Y-120513000D01*
X161355069Y-120698289D01*
X161464575Y-120868465D01*
X161631661Y-120982630D01*
X161830000Y-121022795D01*
X163330000Y-121022795D01*
X163515289Y-120987931D01*
X163685465Y-120878425D01*
X163799630Y-120711339D01*
X163830000Y-120561369D01*
X163830000Y-120612456D01*
X163906121Y-120796227D01*
X164046773Y-120936880D01*
X164230544Y-121013000D01*
X164855000Y-121013000D01*
X164980000Y-120888000D01*
X164980000Y-119988000D01*
X165180000Y-119988000D01*
X165180000Y-120888000D01*
X165305000Y-121013000D01*
X165929456Y-121013000D01*
X166113227Y-120936880D01*
X166253879Y-120796227D01*
X166330000Y-120612456D01*
X166330000Y-120113000D01*
X166205000Y-119988000D01*
X165180000Y-119988000D01*
X164980000Y-119988000D01*
X164960000Y-119988000D01*
X164960000Y-119788000D01*
X164980000Y-119788000D01*
X164980000Y-118888000D01*
X165180000Y-118888000D01*
X165180000Y-119788000D01*
X166205000Y-119788000D01*
X166330000Y-119663000D01*
X166330000Y-119163544D01*
X166276293Y-119033883D01*
X167571637Y-119033883D01*
X167890669Y-119806000D01*
X168480893Y-120397255D01*
X169252452Y-120717634D01*
X170087883Y-120718363D01*
X170860000Y-120399331D01*
X171451255Y-119809107D01*
X171771634Y-119037548D01*
X171772363Y-118202117D01*
X171453331Y-117430000D01*
X170863107Y-116838745D01*
X170091548Y-116518366D01*
X169256117Y-116517637D01*
X168484000Y-116836669D01*
X167892745Y-117426893D01*
X167572366Y-118198452D01*
X167571637Y-119033883D01*
X166276293Y-119033883D01*
X166253879Y-118979773D01*
X166113227Y-118839120D01*
X165929456Y-118763000D01*
X165305000Y-118763000D01*
X165180000Y-118888000D01*
X164980000Y-118888000D01*
X164855000Y-118763000D01*
X164230544Y-118763000D01*
X164046773Y-118839120D01*
X163906121Y-118979773D01*
X163830000Y-119163544D01*
X163830000Y-119210943D01*
X163804931Y-119077711D01*
X163695425Y-118907535D01*
X163528339Y-118793370D01*
X163330000Y-118753205D01*
X162931000Y-118753205D01*
X162931000Y-114403395D01*
X163169600Y-114403395D01*
X163354889Y-114368531D01*
X163525065Y-114259025D01*
X163639230Y-114091939D01*
X163679395Y-113893600D01*
X163679395Y-112166400D01*
X163644531Y-111981111D01*
X163535025Y-111810935D01*
X163367939Y-111696770D01*
X163169600Y-111656605D01*
X163007288Y-111656605D01*
X163270211Y-111480926D01*
X163565802Y-111038542D01*
X163669600Y-110516715D01*
X163669600Y-110463285D01*
X163565802Y-109941458D01*
X163270211Y-109499074D01*
X162827827Y-109203483D01*
X162806537Y-109199248D01*
X163024449Y-109108991D01*
X163413287Y-108745829D01*
X163633550Y-108261510D01*
X163540937Y-108050000D01*
X162406000Y-108050000D01*
X162406000Y-108070000D01*
X162206000Y-108070000D01*
X162206000Y-108050000D01*
X162186000Y-108050000D01*
X162186000Y-107850000D01*
X162206000Y-107850000D01*
X162206000Y-107830000D01*
X162406000Y-107830000D01*
X162406000Y-107850000D01*
X163540937Y-107850000D01*
X163633550Y-107638490D01*
X163481882Y-107305000D01*
X167127116Y-107305000D01*
X167361274Y-107539158D01*
X167279552Y-107950000D01*
X167382315Y-108466623D01*
X167674958Y-108904594D01*
X168112929Y-109197237D01*
X168227366Y-109220000D01*
X168112929Y-109242763D01*
X167674958Y-109535406D01*
X167382315Y-109973377D01*
X167279552Y-110490000D01*
X167382315Y-111006623D01*
X167674958Y-111444594D01*
X168012609Y-111670205D01*
X167806000Y-111670205D01*
X167620711Y-111705069D01*
X167450535Y-111814575D01*
X167336370Y-111981661D01*
X167296205Y-112180000D01*
X167296205Y-113880000D01*
X167331069Y-114065289D01*
X167440575Y-114235465D01*
X167607661Y-114349630D01*
X167806000Y-114389795D01*
X169506000Y-114389795D01*
X169691289Y-114354931D01*
X169861465Y-114245425D01*
X169975630Y-114078339D01*
X170015795Y-113880000D01*
X170015795Y-112180000D01*
X169980931Y-111994711D01*
X169871425Y-111824535D01*
X169704339Y-111710370D01*
X169506000Y-111670205D01*
X169299391Y-111670205D01*
X169637042Y-111444594D01*
X169929685Y-111006623D01*
X170032448Y-110490000D01*
X169929685Y-109973377D01*
X169637042Y-109535406D01*
X169199071Y-109242763D01*
X169084634Y-109220000D01*
X169199071Y-109197237D01*
X169637042Y-108904594D01*
X169929685Y-108466623D01*
X170032448Y-107950000D01*
X169929685Y-107433377D01*
X169637042Y-106995406D01*
X169199071Y-106702763D01*
X169084634Y-106680000D01*
X169199071Y-106657237D01*
X169637042Y-106364594D01*
X169929685Y-105926623D01*
X170032448Y-105410000D01*
X169929685Y-104893377D01*
X169637042Y-104455406D01*
X169199071Y-104162763D01*
X169084634Y-104140000D01*
X169199071Y-104117237D01*
X169637042Y-103824594D01*
X169929685Y-103386623D01*
X170032448Y-102870000D01*
X169929685Y-102353377D01*
X169637042Y-101915406D01*
X169199071Y-101622763D01*
X169084634Y-101600000D01*
X169199071Y-101577237D01*
X169637042Y-101284594D01*
X169929685Y-100846623D01*
X170032448Y-100330000D01*
X169929685Y-99813377D01*
X169637042Y-99375406D01*
X169199071Y-99082763D01*
X169084634Y-99060000D01*
X169199071Y-99037237D01*
X169637042Y-98744594D01*
X169929685Y-98306623D01*
X170032448Y-97790000D01*
X169929685Y-97273377D01*
X169637042Y-96835406D01*
X169199071Y-96542763D01*
X169068956Y-96516881D01*
X169444704Y-96345659D01*
X169803958Y-95960433D01*
X169970072Y-95559375D01*
X169876912Y-95350000D01*
X168756000Y-95350000D01*
X168756000Y-95370000D01*
X168556000Y-95370000D01*
X168556000Y-95350000D01*
X168536000Y-95350000D01*
X168536000Y-95150000D01*
X168556000Y-95150000D01*
X168556000Y-94028700D01*
X168446100Y-93980000D01*
X168556000Y-93931300D01*
X168556000Y-92810000D01*
X168756000Y-92810000D01*
X168756000Y-93931300D01*
X168865900Y-93980000D01*
X168756000Y-94028700D01*
X168756000Y-95150000D01*
X169876912Y-95150000D01*
X169970072Y-94940625D01*
X169803958Y-94539567D01*
X169444704Y-94154341D01*
X169062113Y-93980000D01*
X169444704Y-93805659D01*
X169803958Y-93420433D01*
X169970072Y-93019375D01*
X169876912Y-92810000D01*
X168756000Y-92810000D01*
X168556000Y-92810000D01*
X168536000Y-92810000D01*
X168536000Y-92610000D01*
X168556000Y-92610000D01*
X168556000Y-92590000D01*
X168756000Y-92590000D01*
X168756000Y-92610000D01*
X169876912Y-92610000D01*
X169970072Y-92400625D01*
X169803958Y-91999567D01*
X169444704Y-91614341D01*
X169068956Y-91443119D01*
X169199071Y-91417237D01*
X169637042Y-91124594D01*
X169929685Y-90686623D01*
X170032448Y-90170000D01*
X169929685Y-89653377D01*
X169637042Y-89215406D01*
X169199071Y-88922763D01*
X168682448Y-88820000D01*
X168629552Y-88820000D01*
X168262830Y-88892946D01*
X163605767Y-84235883D01*
X167571637Y-84235883D01*
X167890669Y-85008000D01*
X168480893Y-85599255D01*
X169252452Y-85919634D01*
X170087883Y-85920363D01*
X170860000Y-85601331D01*
X171451255Y-85011107D01*
X171771634Y-84239548D01*
X171772363Y-83404117D01*
X171453331Y-82632000D01*
X170863107Y-82040745D01*
X170091548Y-81720366D01*
X169256117Y-81719637D01*
X168484000Y-82038669D01*
X167892745Y-82628893D01*
X167572366Y-83400452D01*
X167571637Y-84235883D01*
X163605767Y-84235883D01*
X163507249Y-84137365D01*
X163645465Y-84048425D01*
X163759630Y-83881339D01*
X163799795Y-83683000D01*
X164339525Y-83683000D01*
X164392245Y-83735812D01*
X164686172Y-83857861D01*
X165004432Y-83858139D01*
X165298572Y-83736603D01*
X165523812Y-83511755D01*
X165645861Y-83217828D01*
X165646139Y-82899568D01*
X165524603Y-82605428D01*
X165299755Y-82380188D01*
X165005828Y-82258139D01*
X164687568Y-82257861D01*
X164393428Y-82379397D01*
X164339732Y-82433000D01*
X163799795Y-82433000D01*
X163764931Y-82247711D01*
X163655425Y-82077535D01*
X163488339Y-81963370D01*
X163290000Y-81923205D01*
X161790000Y-81923205D01*
X161604711Y-81958069D01*
X161434535Y-82067575D01*
X161320370Y-82234661D01*
X161290000Y-82384631D01*
X161290000Y-82333544D01*
X161213879Y-82149773D01*
X161073227Y-82009120D01*
X160889456Y-81933000D01*
X160265000Y-81933000D01*
X160140000Y-82058000D01*
X160140000Y-82958000D01*
X160160000Y-82958000D01*
X160160000Y-83158000D01*
X160140000Y-83158000D01*
X160140000Y-84058000D01*
X160265000Y-84183000D01*
X160889456Y-84183000D01*
X161073227Y-84106880D01*
X161213879Y-83966227D01*
X161290000Y-83782456D01*
X161290000Y-83735057D01*
X161315069Y-83868289D01*
X161424575Y-84038465D01*
X161591661Y-84152630D01*
X161790000Y-84192795D01*
X161942608Y-84192795D01*
X161962575Y-84293177D01*
X162098058Y-84495942D01*
X167361274Y-89759158D01*
X167279552Y-90170000D01*
X167382315Y-90686623D01*
X167674958Y-91124594D01*
X168112929Y-91417237D01*
X168243044Y-91443119D01*
X167867296Y-91614341D01*
X167508042Y-91999567D01*
X167477434Y-92073466D01*
X167455425Y-91962823D01*
X167319942Y-91760058D01*
X166557942Y-90998058D01*
X166355177Y-90862575D01*
X166116000Y-90815000D01*
X163481882Y-90815000D01*
X163633550Y-90481510D01*
X163540937Y-90270000D01*
X162406000Y-90270000D01*
X162406000Y-90290000D01*
X162206000Y-90290000D01*
X162206000Y-90270000D01*
X162186000Y-90270000D01*
X162186000Y-90070000D01*
X162206000Y-90070000D01*
X162206000Y-88935443D01*
X162406000Y-88935443D01*
X162406000Y-90070000D01*
X163540937Y-90070000D01*
X163633550Y-89858490D01*
X163413287Y-89374171D01*
X163024449Y-89011009D01*
X162617508Y-88842458D01*
X162406000Y-88935443D01*
X162206000Y-88935443D01*
X161994492Y-88842458D01*
X161587551Y-89011009D01*
X161198713Y-89374171D01*
X161044195Y-89713928D01*
X161025802Y-89621458D01*
X160730211Y-89179074D01*
X160287827Y-88883483D01*
X159766000Y-88779685D01*
X159244173Y-88883483D01*
X158801789Y-89179074D01*
X158506198Y-89621458D01*
X158402400Y-90143285D01*
X158402400Y-90196715D01*
X158477558Y-90574558D01*
X157038058Y-92014058D01*
X156902575Y-92216823D01*
X156855000Y-92456000D01*
X156855000Y-98801117D01*
X156605116Y-99051000D01*
X154247795Y-99051000D01*
X154247795Y-98601000D01*
X154223411Y-98471410D01*
X154247795Y-98351000D01*
X154247795Y-97801000D01*
X154223411Y-97671410D01*
X154247795Y-97551000D01*
X154247795Y-97001000D01*
X154223411Y-96871410D01*
X154247795Y-96751000D01*
X154247795Y-96201000D01*
X154223411Y-96071410D01*
X154247795Y-95951000D01*
X154247795Y-95460463D01*
X154283177Y-95453425D01*
X154485942Y-95317942D01*
X155381939Y-94421944D01*
X155381942Y-94421942D01*
X155496162Y-94251000D01*
X155517425Y-94219178D01*
X155565000Y-93980000D01*
X155565000Y-88392005D01*
X155565001Y-88392000D01*
X155517425Y-88152823D01*
X155381942Y-87950058D01*
X154521795Y-87089911D01*
X154521795Y-85764000D01*
X154486931Y-85578711D01*
X154377425Y-85408535D01*
X154210339Y-85294370D01*
X154012000Y-85254205D01*
X153765168Y-85254205D01*
X153950704Y-85169659D01*
X154309958Y-84784433D01*
X154476072Y-84383375D01*
X154382912Y-84174000D01*
X153262000Y-84174000D01*
X153262000Y-84194000D01*
X153062000Y-84194000D01*
X153062000Y-84174000D01*
X151941088Y-84174000D01*
X151847928Y-84383375D01*
X152014042Y-84784433D01*
X152373296Y-85169659D01*
X152558832Y-85254205D01*
X152312000Y-85254205D01*
X152126711Y-85289069D01*
X151956535Y-85398575D01*
X151842370Y-85565661D01*
X151802205Y-85764000D01*
X151802205Y-87464000D01*
X151837069Y-87649289D01*
X151946575Y-87819465D01*
X152113661Y-87933630D01*
X152312000Y-87973795D01*
X153637911Y-87973795D01*
X154315000Y-88650884D01*
X154315000Y-93721117D01*
X154245787Y-93790329D01*
X154212931Y-93615711D01*
X154103425Y-93445535D01*
X153936339Y-93331370D01*
X153738000Y-93291205D01*
X152238000Y-93291205D01*
X152052711Y-93326069D01*
X152014763Y-93350488D01*
X152032630Y-93324339D01*
X152072795Y-93126000D01*
X152072795Y-91626000D01*
X152037931Y-91440711D01*
X151928425Y-91270535D01*
X151761339Y-91156370D01*
X151563000Y-91116205D01*
X151013000Y-91116205D01*
X150883410Y-91140589D01*
X150763000Y-91116205D01*
X150213000Y-91116205D01*
X150083410Y-91140589D01*
X149963000Y-91116205D01*
X149777679Y-91116205D01*
X150351089Y-90542795D01*
X151352000Y-90542795D01*
X151537289Y-90507931D01*
X151707465Y-90398425D01*
X151821630Y-90231339D01*
X151861795Y-90033000D01*
X151861795Y-88783000D01*
X151826931Y-88597711D01*
X151717425Y-88427535D01*
X151550339Y-88313370D01*
X151352000Y-88273205D01*
X151227000Y-88273205D01*
X151227000Y-85578000D01*
X151179425Y-85338823D01*
X151043942Y-85136058D01*
X151043939Y-85136056D01*
X150527802Y-84619918D01*
X150780432Y-84620139D01*
X151074572Y-84498603D01*
X151299812Y-84273755D01*
X151421861Y-83979828D01*
X151422048Y-83764625D01*
X151847928Y-83764625D01*
X151941088Y-83974000D01*
X153062000Y-83974000D01*
X153062000Y-82852700D01*
X153262000Y-82852700D01*
X153262000Y-83974000D01*
X154382912Y-83974000D01*
X154476072Y-83764625D01*
X154309958Y-83363567D01*
X154234823Y-83283000D01*
X158790000Y-83283000D01*
X158790000Y-83782456D01*
X158866121Y-83966227D01*
X159006773Y-84106880D01*
X159190544Y-84183000D01*
X159815000Y-84183000D01*
X159940000Y-84058000D01*
X159940000Y-83158000D01*
X158915000Y-83158000D01*
X158790000Y-83283000D01*
X154234823Y-83283000D01*
X153950704Y-82978341D01*
X153471377Y-82759919D01*
X153262000Y-82852700D01*
X153062000Y-82852700D01*
X152852623Y-82759919D01*
X152373296Y-82978341D01*
X152014042Y-83363567D01*
X151847928Y-83764625D01*
X151422048Y-83764625D01*
X151422139Y-83661568D01*
X151300603Y-83367428D01*
X151075755Y-83142188D01*
X150781828Y-83020139D01*
X150463568Y-83019861D01*
X150169428Y-83141397D01*
X150115732Y-83195000D01*
X150103795Y-83195000D01*
X150103795Y-83070000D01*
X150068931Y-82884711D01*
X149959425Y-82714535D01*
X149792339Y-82600370D01*
X149594000Y-82560205D01*
X148094000Y-82560205D01*
X147908711Y-82595069D01*
X147738535Y-82704575D01*
X147624370Y-82871661D01*
X147584205Y-83070000D01*
X147584205Y-84570000D01*
X147619069Y-84755289D01*
X147728575Y-84925465D01*
X147895661Y-85039630D01*
X148094000Y-85079795D01*
X149219911Y-85079795D01*
X149977000Y-85836883D01*
X149977000Y-88273205D01*
X149852000Y-88273205D01*
X149666711Y-88308069D01*
X149496535Y-88417575D01*
X149382370Y-88584661D01*
X149352000Y-88734631D01*
X149352000Y-88683544D01*
X149275879Y-88499773D01*
X149135227Y-88359120D01*
X148951456Y-88283000D01*
X148327000Y-88283000D01*
X148202000Y-88408000D01*
X148202000Y-89308000D01*
X148222000Y-89308000D01*
X148222000Y-89508000D01*
X148202000Y-89508000D01*
X148202000Y-90408000D01*
X148327000Y-90533000D01*
X148593116Y-90533000D01*
X148446058Y-90680058D01*
X148310575Y-90882823D01*
X148263000Y-91122000D01*
X148263000Y-91176000D01*
X148188000Y-91251000D01*
X148188000Y-91362343D01*
X148143370Y-91427661D01*
X148103205Y-91626000D01*
X148103205Y-93126000D01*
X148138069Y-93311289D01*
X148188000Y-93388883D01*
X148188000Y-93501000D01*
X148313000Y-93626000D01*
X148462456Y-93626000D01*
X148496006Y-93612103D01*
X148613000Y-93635795D01*
X149163000Y-93635795D01*
X149292590Y-93611411D01*
X149413000Y-93635795D01*
X149963000Y-93635795D01*
X150092590Y-93611411D01*
X150213000Y-93635795D01*
X150763000Y-93635795D01*
X150892590Y-93611411D01*
X151013000Y-93635795D01*
X151563000Y-93635795D01*
X151748289Y-93600931D01*
X151786237Y-93576512D01*
X151768370Y-93602661D01*
X151728205Y-93801000D01*
X151728205Y-94351000D01*
X151752589Y-94480590D01*
X151728205Y-94601000D01*
X151728205Y-95151000D01*
X151752589Y-95280590D01*
X151728205Y-95401000D01*
X151728205Y-95951000D01*
X151752589Y-96080590D01*
X151728205Y-96201000D01*
X151728205Y-96751000D01*
X151752589Y-96880590D01*
X151728205Y-97001000D01*
X151728205Y-97451000D01*
X151541419Y-97451000D01*
X151456755Y-97366188D01*
X151162828Y-97244139D01*
X150844568Y-97243861D01*
X150550428Y-97365397D01*
X150325188Y-97590245D01*
X150203139Y-97884172D01*
X150202861Y-98202432D01*
X150324397Y-98496572D01*
X150549245Y-98721812D01*
X150843172Y-98843861D01*
X151161432Y-98844139D01*
X151455572Y-98722603D01*
X151477213Y-98701000D01*
X151728205Y-98701000D01*
X151728205Y-99151000D01*
X151752589Y-99280590D01*
X151728205Y-99401000D01*
X151728205Y-99951000D01*
X151752589Y-100080590D01*
X151728205Y-100201000D01*
X151728205Y-100751000D01*
X151752589Y-100880590D01*
X151728205Y-101001000D01*
X151728205Y-101551000D01*
X151752589Y-101680590D01*
X151728205Y-101801000D01*
X151728205Y-102351000D01*
X151752589Y-102480590D01*
X151728205Y-102601000D01*
X151728205Y-103151000D01*
X151752589Y-103280590D01*
X151728205Y-103401000D01*
X151728205Y-103951000D01*
X151752589Y-104080590D01*
X151728205Y-104201000D01*
X151728205Y-104751000D01*
X151752589Y-104880590D01*
X151728205Y-105001000D01*
X151728205Y-105551000D01*
X151752589Y-105680590D01*
X151728205Y-105801000D01*
X151728205Y-106351000D01*
X151763069Y-106536289D01*
X151787488Y-106574237D01*
X151761339Y-106556370D01*
X151563000Y-106516205D01*
X151013000Y-106516205D01*
X150883410Y-106540589D01*
X150763000Y-106516205D01*
X150213000Y-106516205D01*
X150083410Y-106540589D01*
X149963000Y-106516205D01*
X149413000Y-106516205D01*
X149283410Y-106540589D01*
X149163000Y-106516205D01*
X148713000Y-106516205D01*
X148713000Y-106418486D01*
X148759812Y-106371755D01*
X148881861Y-106077828D01*
X148882139Y-105759568D01*
X148760603Y-105465428D01*
X148535755Y-105240188D01*
X148241828Y-105118139D01*
X148120034Y-105118033D01*
X148120139Y-104997568D01*
X147998603Y-104703428D01*
X147773755Y-104478188D01*
X147479828Y-104356139D01*
X147358034Y-104356033D01*
X147358139Y-104235568D01*
X147236603Y-103941428D01*
X147011755Y-103716188D01*
X146717828Y-103594139D01*
X146596034Y-103594033D01*
X146596139Y-103473568D01*
X146474603Y-103179428D01*
X146249755Y-102954188D01*
X145955828Y-102832139D01*
X145637568Y-102831861D01*
X145343428Y-102953397D01*
X145118188Y-103178245D01*
X144996139Y-103472172D01*
X144995861Y-103790432D01*
X145063000Y-103952921D01*
X145063000Y-106516205D01*
X144613000Y-106516205D01*
X144483410Y-106540589D01*
X144363000Y-106516205D01*
X143813000Y-106516205D01*
X143693220Y-106538743D01*
X143662456Y-106526000D01*
X143513000Y-106526000D01*
X143388000Y-106651000D01*
X143388000Y-106762343D01*
X143343370Y-106827661D01*
X143303205Y-107026000D01*
X143303205Y-108526000D01*
X143338069Y-108711289D01*
X143388000Y-108788883D01*
X143388000Y-108901000D01*
X143463000Y-108976000D01*
X143463000Y-109930801D01*
X143323456Y-109873000D01*
X142699000Y-109873000D01*
X142574000Y-109998000D01*
X142574000Y-110898000D01*
X142594000Y-110898000D01*
X142594000Y-111098000D01*
X142574000Y-111098000D01*
X142574000Y-111998000D01*
X142699000Y-112123000D01*
X143323456Y-112123000D01*
X143463000Y-112065199D01*
X143463000Y-114225117D01*
X143251116Y-114437000D01*
X143197870Y-114437000D01*
X143293861Y-114205828D01*
X143294139Y-113887568D01*
X143172603Y-113593428D01*
X142947755Y-113368188D01*
X142653828Y-113246139D01*
X142577957Y-113246073D01*
X141177228Y-111845344D01*
X141193630Y-111821339D01*
X141224000Y-111671369D01*
X141224000Y-111722456D01*
X141300121Y-111906227D01*
X141440773Y-112046880D01*
X141624544Y-112123000D01*
X142249000Y-112123000D01*
X142374000Y-111998000D01*
X142374000Y-111098000D01*
X142354000Y-111098000D01*
X142354000Y-110898000D01*
X142374000Y-110898000D01*
X142374000Y-109998000D01*
X142359942Y-109983942D01*
X142929939Y-109413944D01*
X142929942Y-109413942D01*
X143065425Y-109211177D01*
X143112007Y-108976993D01*
X143188000Y-108901000D01*
X143188000Y-108789657D01*
X143232630Y-108724339D01*
X143272795Y-108526000D01*
X143272795Y-107026000D01*
X143237931Y-106840711D01*
X143188000Y-106763117D01*
X143188000Y-106651000D01*
X143063000Y-106526000D01*
X142913544Y-106526000D01*
X142879994Y-106539897D01*
X142763000Y-106516205D01*
X142313000Y-106516205D01*
X142313000Y-102531399D01*
X142409812Y-102434755D01*
X142531861Y-102140828D01*
X142532139Y-101822568D01*
X142410603Y-101528428D01*
X142185755Y-101303188D01*
X141891828Y-101181139D01*
X141573568Y-101180861D01*
X141279428Y-101302397D01*
X141054188Y-101527245D01*
X140932139Y-101821172D01*
X140931861Y-102139432D01*
X141053397Y-102433572D01*
X141063000Y-102443192D01*
X141063000Y-106516205D01*
X140613000Y-106516205D01*
X140483410Y-106540589D01*
X140363000Y-106516205D01*
X139813000Y-106516205D01*
X139683410Y-106540589D01*
X139563000Y-106516205D01*
X139013000Y-106516205D01*
X138827711Y-106551069D01*
X138789763Y-106575488D01*
X138807630Y-106549339D01*
X138847795Y-106351000D01*
X138847795Y-105801000D01*
X138823411Y-105671410D01*
X138847795Y-105551000D01*
X138847795Y-105001000D01*
X138823411Y-104871410D01*
X138847795Y-104751000D01*
X138847795Y-104201000D01*
X138823411Y-104071410D01*
X138847795Y-103951000D01*
X138847795Y-103401000D01*
X138823411Y-103271410D01*
X138847795Y-103151000D01*
X138847795Y-102601000D01*
X138823411Y-102471410D01*
X138847795Y-102351000D01*
X138847795Y-101801000D01*
X138823411Y-101671410D01*
X138847795Y-101551000D01*
X138847795Y-101001000D01*
X138823411Y-100871410D01*
X138847795Y-100751000D01*
X138847795Y-100301000D01*
X139633153Y-100301000D01*
X139794172Y-100367861D01*
X140112432Y-100368139D01*
X140406572Y-100246603D01*
X140631812Y-100021755D01*
X140753861Y-99727828D01*
X140754139Y-99409568D01*
X140632603Y-99115428D01*
X140407755Y-98890188D01*
X140113828Y-98768139D01*
X139795568Y-98767861D01*
X139501428Y-98889397D01*
X139339543Y-99051000D01*
X138847795Y-99051000D01*
X138847795Y-98601000D01*
X138825257Y-98481220D01*
X138838000Y-98450456D01*
X138838000Y-98301000D01*
X138713000Y-98176000D01*
X138601657Y-98176000D01*
X138536339Y-98131370D01*
X138338000Y-98091205D01*
X136838000Y-98091205D01*
X136652711Y-98126069D01*
X136575117Y-98176000D01*
X136463000Y-98176000D01*
X136388000Y-98251000D01*
X136328000Y-98251000D01*
X136253000Y-98265918D01*
X136253000Y-97976544D01*
X136221709Y-97901000D01*
X136388000Y-97901000D01*
X136463000Y-97976000D01*
X136574343Y-97976000D01*
X136639661Y-98020630D01*
X136838000Y-98060795D01*
X138338000Y-98060795D01*
X138523289Y-98025931D01*
X138600883Y-97976000D01*
X138713000Y-97976000D01*
X138838000Y-97851000D01*
X138838000Y-97701544D01*
X138824103Y-97667994D01*
X138847795Y-97551000D01*
X138847795Y-97001000D01*
X138823411Y-96871410D01*
X138847795Y-96751000D01*
X138847795Y-96284730D01*
X139005177Y-96253425D01*
X139207942Y-96117942D01*
X139729939Y-95595944D01*
X139729942Y-95595942D01*
X139865425Y-95393177D01*
X139913000Y-95154000D01*
X139913000Y-93576000D01*
X139988000Y-93501000D01*
X139988000Y-93389657D01*
X140032630Y-93324339D01*
X140072795Y-93126000D01*
X140072795Y-91626000D01*
X140037931Y-91440711D01*
X139988000Y-91363117D01*
X139988000Y-91251000D01*
X139863000Y-91126000D01*
X139713544Y-91126000D01*
X139679994Y-91139897D01*
X139563000Y-91116205D01*
X139013000Y-91116205D01*
X138827711Y-91151069D01*
X138657535Y-91260575D01*
X138543370Y-91427661D01*
X138503205Y-91626000D01*
X138503205Y-91751000D01*
X138374883Y-91751000D01*
X137410883Y-90787000D01*
X137677000Y-90787000D01*
X137802000Y-90662000D01*
X137802000Y-89762000D01*
X138002000Y-89762000D01*
X138002000Y-90662000D01*
X138127000Y-90787000D01*
X138751456Y-90787000D01*
X138935227Y-90710880D01*
X139065000Y-90581106D01*
X139194773Y-90710880D01*
X139378544Y-90787000D01*
X140003000Y-90787000D01*
X140128000Y-90662000D01*
X140128000Y-89762000D01*
X139103000Y-89762000D01*
X139065000Y-89800000D01*
X139027000Y-89762000D01*
X138002000Y-89762000D01*
X137802000Y-89762000D01*
X137782000Y-89762000D01*
X137782000Y-89562000D01*
X137802000Y-89562000D01*
X137802000Y-88662000D01*
X138002000Y-88662000D01*
X138002000Y-89562000D01*
X139027000Y-89562000D01*
X139065000Y-89524000D01*
X139103000Y-89562000D01*
X140128000Y-89562000D01*
X140128000Y-88662000D01*
X140003000Y-88537000D01*
X139378544Y-88537000D01*
X139194773Y-88613120D01*
X139065000Y-88742894D01*
X138935227Y-88613120D01*
X138751456Y-88537000D01*
X138127000Y-88537000D01*
X138002000Y-88662000D01*
X137802000Y-88662000D01*
X137677000Y-88537000D01*
X137052544Y-88537000D01*
X136868773Y-88613120D01*
X136728121Y-88753773D01*
X136652000Y-88937544D01*
X136652000Y-88984943D01*
X136626931Y-88851711D01*
X136517425Y-88681535D01*
X136350339Y-88567370D01*
X136152000Y-88527205D01*
X136027000Y-88527205D01*
X136027000Y-87608510D01*
X136059812Y-87575755D01*
X136181861Y-87281828D01*
X136182139Y-86963568D01*
X136060603Y-86669428D01*
X135835755Y-86444188D01*
X135541828Y-86322139D01*
X135223568Y-86321861D01*
X134929428Y-86443397D01*
X134704188Y-86668245D01*
X134582139Y-86962172D01*
X134581861Y-87280432D01*
X134703397Y-87574572D01*
X134777000Y-87648303D01*
X134777000Y-88527205D01*
X134652000Y-88527205D01*
X134466711Y-88562069D01*
X134296535Y-88671575D01*
X134182370Y-88838661D01*
X134142205Y-89037000D01*
X134112000Y-89037000D01*
X133872822Y-89084575D01*
X133791606Y-89138842D01*
X133670058Y-89220058D01*
X133670056Y-89220061D01*
X129098058Y-93792058D01*
X128962575Y-93994823D01*
X128915000Y-94234000D01*
X128915000Y-96007117D01*
X128617000Y-96305117D01*
X128617000Y-92385000D01*
X128569425Y-92145823D01*
X128433942Y-91943058D01*
X128433939Y-91943056D01*
X127524795Y-91033911D01*
X127524795Y-90395000D01*
X128063000Y-90395000D01*
X128063000Y-91119456D01*
X128139121Y-91303227D01*
X128279773Y-91443880D01*
X128463544Y-91520000D01*
X129188000Y-91520000D01*
X129313000Y-91395000D01*
X129313000Y-90270000D01*
X129513000Y-90270000D01*
X129513000Y-91395000D01*
X129638000Y-91520000D01*
X130362456Y-91520000D01*
X130546227Y-91443880D01*
X130686879Y-91303227D01*
X130763000Y-91119456D01*
X130763000Y-90395000D01*
X130638000Y-90270000D01*
X129513000Y-90270000D01*
X129313000Y-90270000D01*
X128188000Y-90270000D01*
X128063000Y-90395000D01*
X127524795Y-90395000D01*
X127524795Y-90008000D01*
X127489931Y-89822711D01*
X127380425Y-89652535D01*
X127213339Y-89538370D01*
X127015000Y-89498205D01*
X125715000Y-89498205D01*
X125529711Y-89533069D01*
X125359535Y-89642575D01*
X125245370Y-89809661D01*
X125205205Y-90008000D01*
X121454000Y-90008000D01*
X121454000Y-87308000D01*
X125205205Y-87308000D01*
X125205205Y-88808000D01*
X125240069Y-88993289D01*
X125349575Y-89163465D01*
X125516661Y-89277630D01*
X125715000Y-89317795D01*
X127015000Y-89317795D01*
X127200289Y-89282931D01*
X127370465Y-89173425D01*
X127484630Y-89006339D01*
X127524795Y-88808000D01*
X127524795Y-88683000D01*
X128579233Y-88683000D01*
X128784268Y-88820000D01*
X128463544Y-88820000D01*
X128279773Y-88896120D01*
X128139121Y-89036773D01*
X128063000Y-89220544D01*
X128063000Y-89945000D01*
X128188000Y-90070000D01*
X129313000Y-90070000D01*
X129313000Y-90050000D01*
X129513000Y-90050000D01*
X129513000Y-90070000D01*
X130638000Y-90070000D01*
X130763000Y-89945000D01*
X130763000Y-89220544D01*
X130686879Y-89036773D01*
X130546227Y-88896120D01*
X130362456Y-88820000D01*
X130041732Y-88820000D01*
X130394042Y-88584594D01*
X130614270Y-88255000D01*
X131572000Y-88255000D01*
X131811177Y-88207425D01*
X132013942Y-88071942D01*
X132163810Y-87922074D01*
X132238432Y-87922139D01*
X132532572Y-87800603D01*
X132757812Y-87575755D01*
X132879861Y-87281828D01*
X132880139Y-86963568D01*
X132758603Y-86669428D01*
X132705000Y-86615732D01*
X132705000Y-85079795D01*
X132830000Y-85079795D01*
X133015289Y-85044931D01*
X133185465Y-84935425D01*
X133299630Y-84768339D01*
X133339795Y-84570000D01*
X133339795Y-83070000D01*
X133614205Y-83070000D01*
X133614205Y-84570000D01*
X133649069Y-84755289D01*
X133758575Y-84925465D01*
X133925661Y-85039630D01*
X134124000Y-85079795D01*
X135249911Y-85079795D01*
X137226058Y-87055942D01*
X137428823Y-87191425D01*
X137668000Y-87239001D01*
X137668005Y-87239000D01*
X143251116Y-87239000D01*
X144263000Y-88250884D01*
X144263000Y-91116205D01*
X143813000Y-91116205D01*
X143683410Y-91140589D01*
X143563000Y-91116205D01*
X143013000Y-91116205D01*
X142883410Y-91140589D01*
X142763000Y-91116205D01*
X142213000Y-91116205D01*
X142144857Y-91129027D01*
X142477089Y-90796795D01*
X143478000Y-90796795D01*
X143663289Y-90761931D01*
X143833465Y-90652425D01*
X143947630Y-90485339D01*
X143987795Y-90287000D01*
X143987795Y-89037000D01*
X143952931Y-88851711D01*
X143843425Y-88681535D01*
X143676339Y-88567370D01*
X143478000Y-88527205D01*
X141978000Y-88527205D01*
X141792711Y-88562069D01*
X141622535Y-88671575D01*
X141508370Y-88838661D01*
X141478000Y-88988631D01*
X141478000Y-88937544D01*
X141401879Y-88753773D01*
X141261227Y-88613120D01*
X141077456Y-88537000D01*
X140453000Y-88537000D01*
X140328000Y-88662000D01*
X140328000Y-89562000D01*
X140348000Y-89562000D01*
X140348000Y-89762000D01*
X140328000Y-89762000D01*
X140328000Y-90662000D01*
X140453000Y-90787000D01*
X140719116Y-90787000D01*
X140446058Y-91060058D01*
X140401997Y-91126000D01*
X140313000Y-91126000D01*
X140188000Y-91251000D01*
X140188000Y-91362343D01*
X140143370Y-91427661D01*
X140103205Y-91626000D01*
X140103205Y-93126000D01*
X140138069Y-93311289D01*
X140188000Y-93388883D01*
X140188000Y-93501000D01*
X140313000Y-93626000D01*
X140462456Y-93626000D01*
X140496006Y-93612103D01*
X140613000Y-93635795D01*
X141163000Y-93635795D01*
X141292590Y-93611411D01*
X141413000Y-93635795D01*
X141963000Y-93635795D01*
X142092590Y-93611411D01*
X142213000Y-93635795D01*
X142763000Y-93635795D01*
X142892590Y-93611411D01*
X143013000Y-93635795D01*
X143563000Y-93635795D01*
X143692590Y-93611411D01*
X143813000Y-93635795D01*
X144363000Y-93635795D01*
X144492590Y-93611411D01*
X144613000Y-93635795D01*
X145163000Y-93635795D01*
X145292590Y-93611411D01*
X145413000Y-93635795D01*
X145963000Y-93635795D01*
X146092590Y-93611411D01*
X146213000Y-93635795D01*
X146663000Y-93635795D01*
X146663000Y-94013469D01*
X146642188Y-94034245D01*
X146520139Y-94328172D01*
X146519861Y-94646432D01*
X146641397Y-94940572D01*
X146866245Y-95165812D01*
X147160172Y-95287861D01*
X147478432Y-95288139D01*
X147772572Y-95166603D01*
X147997812Y-94941755D01*
X148119861Y-94647828D01*
X148120139Y-94329568D01*
X147998603Y-94035428D01*
X147913000Y-93949676D01*
X147913000Y-93576000D01*
X147988000Y-93501000D01*
X147988000Y-93389657D01*
X148032630Y-93324339D01*
X148072795Y-93126000D01*
X148072795Y-91626000D01*
X148037931Y-91440711D01*
X147988000Y-91363117D01*
X147988000Y-91251000D01*
X147863000Y-91126000D01*
X147713544Y-91126000D01*
X147679994Y-91139897D01*
X147563000Y-91116205D01*
X147113000Y-91116205D01*
X147113000Y-90475199D01*
X147252544Y-90533000D01*
X147877000Y-90533000D01*
X148002000Y-90408000D01*
X148002000Y-89508000D01*
X147982000Y-89508000D01*
X147982000Y-89308000D01*
X148002000Y-89308000D01*
X148002000Y-88408000D01*
X147877000Y-88283000D01*
X147252544Y-88283000D01*
X147113000Y-88340801D01*
X147113000Y-88068000D01*
X147065425Y-87828823D01*
X146929942Y-87626058D01*
X146929939Y-87626056D01*
X145526884Y-86223000D01*
X145543525Y-86223000D01*
X145596245Y-86275812D01*
X145890172Y-86397861D01*
X146208432Y-86398139D01*
X146502572Y-86276603D01*
X146727812Y-86051755D01*
X146849861Y-85757828D01*
X146850139Y-85439568D01*
X146728603Y-85145428D01*
X146653306Y-85070000D01*
X146899456Y-85070000D01*
X147083227Y-84993880D01*
X147223879Y-84853227D01*
X147300000Y-84669456D01*
X147300000Y-84045000D01*
X147175000Y-83920000D01*
X146150000Y-83920000D01*
X146150000Y-83940000D01*
X145950000Y-83940000D01*
X145950000Y-83920000D01*
X144925000Y-83920000D01*
X144800000Y-84045000D01*
X144800000Y-84480116D01*
X144515795Y-84195911D01*
X144515795Y-83070000D01*
X144497082Y-82970544D01*
X144800000Y-82970544D01*
X144800000Y-83595000D01*
X144925000Y-83720000D01*
X145950000Y-83720000D01*
X145950000Y-82695000D01*
X146150000Y-82695000D01*
X146150000Y-83720000D01*
X147175000Y-83720000D01*
X147300000Y-83595000D01*
X147300000Y-82970544D01*
X147223879Y-82786773D01*
X147083227Y-82646120D01*
X146899456Y-82570000D01*
X146275000Y-82570000D01*
X146150000Y-82695000D01*
X145950000Y-82695000D01*
X145825000Y-82570000D01*
X145200544Y-82570000D01*
X145016773Y-82646120D01*
X144876121Y-82786773D01*
X144800000Y-82970544D01*
X144497082Y-82970544D01*
X144480931Y-82884711D01*
X144371425Y-82714535D01*
X144204339Y-82600370D01*
X144006000Y-82560205D01*
X142506000Y-82560205D01*
X142320711Y-82595069D01*
X142150535Y-82704575D01*
X142036370Y-82871661D01*
X141996205Y-83070000D01*
X141996205Y-84470321D01*
X141721795Y-84195911D01*
X141721795Y-83070000D01*
X141686931Y-82884711D01*
X141577425Y-82714535D01*
X141410339Y-82600370D01*
X141212000Y-82560205D01*
X139712000Y-82560205D01*
X139526711Y-82595069D01*
X139356535Y-82704575D01*
X139242370Y-82871661D01*
X139202205Y-83070000D01*
X139202205Y-84470321D01*
X138927795Y-84195911D01*
X138927795Y-83070000D01*
X138892931Y-82884711D01*
X138783425Y-82714535D01*
X138616339Y-82600370D01*
X138418000Y-82560205D01*
X136918000Y-82560205D01*
X136732711Y-82595069D01*
X136562535Y-82704575D01*
X136448370Y-82871661D01*
X136408205Y-83070000D01*
X136408205Y-84470321D01*
X136133795Y-84195911D01*
X136133795Y-83070000D01*
X136098931Y-82884711D01*
X135989425Y-82714535D01*
X135822339Y-82600370D01*
X135624000Y-82560205D01*
X134124000Y-82560205D01*
X133938711Y-82595069D01*
X133768535Y-82704575D01*
X133654370Y-82871661D01*
X133614205Y-83070000D01*
X133339795Y-83070000D01*
X133304931Y-82884711D01*
X133195425Y-82714535D01*
X133028339Y-82600370D01*
X132830000Y-82560205D01*
X131330000Y-82560205D01*
X131144711Y-82595069D01*
X130974535Y-82704575D01*
X130860370Y-82871661D01*
X130820205Y-83070000D01*
X130820205Y-84570000D01*
X130855069Y-84755289D01*
X130964575Y-84925465D01*
X131131661Y-85039630D01*
X131330000Y-85079795D01*
X131455000Y-85079795D01*
X131455000Y-86615525D01*
X131402188Y-86668245D01*
X131280139Y-86962172D01*
X131280102Y-87005000D01*
X130614270Y-87005000D01*
X130394042Y-86675406D01*
X129956071Y-86382763D01*
X129439448Y-86280000D01*
X129386552Y-86280000D01*
X128869929Y-86382763D01*
X128431958Y-86675406D01*
X128139315Y-87113377D01*
X128075738Y-87433000D01*
X127524795Y-87433000D01*
X127524795Y-87308000D01*
X127489931Y-87122711D01*
X127380425Y-86952535D01*
X127213339Y-86838370D01*
X127015000Y-86798205D01*
X125715000Y-86798205D01*
X125529711Y-86833069D01*
X125359535Y-86942575D01*
X125245370Y-87109661D01*
X125205205Y-87308000D01*
X121454000Y-87308000D01*
X121454000Y-84235883D01*
X122359637Y-84235883D01*
X122678669Y-85008000D01*
X123268893Y-85599255D01*
X124040452Y-85919634D01*
X124875883Y-85920363D01*
X125648000Y-85601331D01*
X126239255Y-85011107D01*
X126559634Y-84239548D01*
X126560363Y-83404117D01*
X126241331Y-82632000D01*
X125943396Y-82333544D01*
X158790000Y-82333544D01*
X158790000Y-82833000D01*
X158915000Y-82958000D01*
X159940000Y-82958000D01*
X159940000Y-82058000D01*
X159815000Y-81933000D01*
X159190544Y-81933000D01*
X159006773Y-82009120D01*
X158866121Y-82149773D01*
X158790000Y-82333544D01*
X125943396Y-82333544D01*
X125651107Y-82040745D01*
X124879548Y-81720366D01*
X124044117Y-81719637D01*
X123272000Y-82038669D01*
X122680745Y-82628893D01*
X122360366Y-83400452D01*
X122359637Y-84235883D01*
X121454000Y-84235883D01*
X121454000Y-80814000D01*
X172678000Y-80814000D01*
X172678000Y-121878000D01*
G36*
X167361274Y-104999158D02*
X167279552Y-105410000D01*
X167382315Y-105926623D01*
X167480677Y-106073832D01*
X167386000Y-106055000D01*
X163481882Y-106055000D01*
X163633550Y-105721510D01*
X163540937Y-105510000D01*
X162406000Y-105510000D01*
X162406000Y-105530000D01*
X162206000Y-105530000D01*
X162206000Y-105510000D01*
X162186000Y-105510000D01*
X162186000Y-105310000D01*
X162206000Y-105310000D01*
X162206000Y-105290000D01*
X162406000Y-105290000D01*
X162406000Y-105310000D01*
X163540937Y-105310000D01*
X163633550Y-105098490D01*
X163481882Y-104765000D01*
X167127116Y-104765000D01*
X167361274Y-104999158D01*
X167361274Y-104999158D01*
G37*
X167361274Y-104999158D02*
X167279552Y-105410000D01*
X167382315Y-105926623D01*
X167480677Y-106073832D01*
X167386000Y-106055000D01*
X163481882Y-106055000D01*
X163633550Y-105721510D01*
X163540937Y-105510000D01*
X162406000Y-105510000D01*
X162406000Y-105530000D01*
X162206000Y-105530000D01*
X162206000Y-105510000D01*
X162186000Y-105510000D01*
X162186000Y-105310000D01*
X162206000Y-105310000D01*
X162206000Y-105290000D01*
X162406000Y-105290000D01*
X162406000Y-105310000D01*
X163540937Y-105310000D01*
X163633550Y-105098490D01*
X163481882Y-104765000D01*
X167127116Y-104765000D01*
X167361274Y-104999158D01*
G36*
X164729000Y-97540884D02*
X164729000Y-99568000D01*
X164776575Y-99807177D01*
X164912058Y-100009942D01*
X167361274Y-102459158D01*
X167279552Y-102870000D01*
X167382315Y-103386623D01*
X167480677Y-103533832D01*
X167386000Y-103515000D01*
X163481882Y-103515000D01*
X163633550Y-103181510D01*
X163540937Y-102970000D01*
X162406000Y-102970000D01*
X162406000Y-102990000D01*
X162206000Y-102990000D01*
X162206000Y-102970000D01*
X162186000Y-102970000D01*
X162186000Y-102770000D01*
X162206000Y-102770000D01*
X162206000Y-101635443D01*
X162125380Y-101600000D01*
X162206000Y-101564557D01*
X162206000Y-100430000D01*
X162406000Y-100430000D01*
X162406000Y-101564557D01*
X162486620Y-101600000D01*
X162406000Y-101635443D01*
X162406000Y-102770000D01*
X163540937Y-102770000D01*
X163633550Y-102558490D01*
X163413287Y-102074171D01*
X163024449Y-101711009D01*
X162756434Y-101600000D01*
X163024449Y-101488991D01*
X163413287Y-101125829D01*
X163633550Y-100641510D01*
X163540937Y-100430000D01*
X162406000Y-100430000D01*
X162206000Y-100430000D01*
X162186000Y-100430000D01*
X162186000Y-100230000D01*
X162206000Y-100230000D01*
X162206000Y-99095443D01*
X162125380Y-99060000D01*
X162206000Y-99024557D01*
X162206000Y-97890000D01*
X162406000Y-97890000D01*
X162406000Y-99024557D01*
X162486620Y-99060000D01*
X162406000Y-99095443D01*
X162406000Y-100230000D01*
X163540937Y-100230000D01*
X163633550Y-100018490D01*
X163413287Y-99534171D01*
X163024449Y-99171009D01*
X162756434Y-99060000D01*
X163024449Y-98948991D01*
X163413287Y-98585829D01*
X163633550Y-98101510D01*
X163540937Y-97890000D01*
X162406000Y-97890000D01*
X162206000Y-97890000D01*
X162186000Y-97890000D01*
X162186000Y-97690000D01*
X162206000Y-97690000D01*
X162206000Y-97670000D01*
X162406000Y-97670000D01*
X162406000Y-97690000D01*
X163540937Y-97690000D01*
X163633550Y-97478490D01*
X163481882Y-97145000D01*
X164333116Y-97145000D01*
X164729000Y-97540884D01*
X164729000Y-97540884D01*
G37*
X164729000Y-97540884D02*
X164729000Y-99568000D01*
X164776575Y-99807177D01*
X164912058Y-100009942D01*
X167361274Y-102459158D01*
X167279552Y-102870000D01*
X167382315Y-103386623D01*
X167480677Y-103533832D01*
X167386000Y-103515000D01*
X163481882Y-103515000D01*
X163633550Y-103181510D01*
X163540937Y-102970000D01*
X162406000Y-102970000D01*
X162406000Y-102990000D01*
X162206000Y-102990000D01*
X162206000Y-102970000D01*
X162186000Y-102970000D01*
X162186000Y-102770000D01*
X162206000Y-102770000D01*
X162206000Y-101635443D01*
X162125380Y-101600000D01*
X162206000Y-101564557D01*
X162206000Y-100430000D01*
X162406000Y-100430000D01*
X162406000Y-101564557D01*
X162486620Y-101600000D01*
X162406000Y-101635443D01*
X162406000Y-102770000D01*
X163540937Y-102770000D01*
X163633550Y-102558490D01*
X163413287Y-102074171D01*
X163024449Y-101711009D01*
X162756434Y-101600000D01*
X163024449Y-101488991D01*
X163413287Y-101125829D01*
X163633550Y-100641510D01*
X163540937Y-100430000D01*
X162406000Y-100430000D01*
X162206000Y-100430000D01*
X162186000Y-100430000D01*
X162186000Y-100230000D01*
X162206000Y-100230000D01*
X162206000Y-99095443D01*
X162125380Y-99060000D01*
X162206000Y-99024557D01*
X162206000Y-97890000D01*
X162406000Y-97890000D01*
X162406000Y-99024557D01*
X162486620Y-99060000D01*
X162406000Y-99095443D01*
X162406000Y-100230000D01*
X163540937Y-100230000D01*
X163633550Y-100018490D01*
X163413287Y-99534171D01*
X163024449Y-99171009D01*
X162756434Y-99060000D01*
X163024449Y-98948991D01*
X163413287Y-98585829D01*
X163633550Y-98101510D01*
X163540937Y-97890000D01*
X162406000Y-97890000D01*
X162206000Y-97890000D01*
X162186000Y-97890000D01*
X162186000Y-97690000D01*
X162206000Y-97690000D01*
X162206000Y-97670000D01*
X162406000Y-97670000D01*
X162406000Y-97690000D01*
X163540937Y-97690000D01*
X163633550Y-97478490D01*
X163481882Y-97145000D01*
X164333116Y-97145000D01*
X164729000Y-97540884D01*
G36*
X165491000Y-94746883D02*
X165491000Y-96535116D01*
X165033942Y-96078058D01*
X164831177Y-95942575D01*
X164592000Y-95895000D01*
X163481882Y-95895000D01*
X163633550Y-95561510D01*
X163540937Y-95350000D01*
X162406000Y-95350000D01*
X162406000Y-95370000D01*
X162206000Y-95370000D01*
X162206000Y-95350000D01*
X162186000Y-95350000D01*
X162186000Y-95150000D01*
X162206000Y-95150000D01*
X162206000Y-95130000D01*
X162406000Y-95130000D01*
X162406000Y-95150000D01*
X163540937Y-95150000D01*
X163633550Y-94938490D01*
X163481882Y-94605000D01*
X165349116Y-94605000D01*
X165491000Y-94746883D01*
X165491000Y-94746883D01*
G37*
X165491000Y-94746883D02*
X165491000Y-96535116D01*
X165033942Y-96078058D01*
X164831177Y-95942575D01*
X164592000Y-95895000D01*
X163481882Y-95895000D01*
X163633550Y-95561510D01*
X163540937Y-95350000D01*
X162406000Y-95350000D01*
X162406000Y-95370000D01*
X162206000Y-95370000D01*
X162206000Y-95350000D01*
X162186000Y-95350000D01*
X162186000Y-95150000D01*
X162206000Y-95150000D01*
X162206000Y-95130000D01*
X162406000Y-95130000D01*
X162406000Y-95150000D01*
X163540937Y-95150000D01*
X163633550Y-94938490D01*
X163481882Y-94605000D01*
X165349116Y-94605000D01*
X165491000Y-94746883D01*
G36*
X166253000Y-92460884D02*
X166253000Y-93741116D01*
X166049942Y-93538058D01*
X165847177Y-93402575D01*
X165608000Y-93355000D01*
X163481882Y-93355000D01*
X163633550Y-93021510D01*
X163540937Y-92810000D01*
X162406000Y-92810000D01*
X162406000Y-92830000D01*
X162206000Y-92830000D01*
X162206000Y-92810000D01*
X162186000Y-92810000D01*
X162186000Y-92610000D01*
X162206000Y-92610000D01*
X162206000Y-92590000D01*
X162406000Y-92590000D01*
X162406000Y-92610000D01*
X163540937Y-92610000D01*
X163633550Y-92398490D01*
X163481882Y-92065000D01*
X165857116Y-92065000D01*
X166253000Y-92460884D01*
X166253000Y-92460884D01*
G37*
X166253000Y-92460884D02*
X166253000Y-93741116D01*
X166049942Y-93538058D01*
X165847177Y-93402575D01*
X165608000Y-93355000D01*
X163481882Y-93355000D01*
X163633550Y-93021510D01*
X163540937Y-92810000D01*
X162406000Y-92810000D01*
X162406000Y-92830000D01*
X162206000Y-92830000D01*
X162206000Y-92810000D01*
X162186000Y-92810000D01*
X162186000Y-92610000D01*
X162206000Y-92610000D01*
X162206000Y-92590000D01*
X162406000Y-92590000D01*
X162406000Y-92610000D01*
X163540937Y-92610000D01*
X163633550Y-92398490D01*
X163481882Y-92065000D01*
X165857116Y-92065000D01*
X166253000Y-92460884D01*
M02*
