G04 #@! TF.FileFunction,Copper,L2,Bot,Signal*
%FSLAX46Y46*%
G04 Gerber Fmt 4.6, Leading zero omitted, Abs format (unit mm)*
G04 Created by KiCad (PCBNEW 4.0.6) date 05/07/17 15:41:17*
%MOMM*%
%LPD*%
G01*
G04 APERTURE LIST*
%ADD10C,0.100000*%
%ADD11R,1.700000X1.700000*%
%ADD12O,1.700000X1.700000*%
%ADD13R,1.727200X1.727200*%
%ADD14O,1.727200X1.727200*%
%ADD15C,3.000000*%
%ADD16C,0.600000*%
%ADD17C,0.250000*%
%ADD18C,0.200000*%
G04 APERTURE END LIST*
D10*
D11*
X130302000Y-118872000D03*
D12*
X132842000Y-118872000D03*
X135382000Y-118872000D03*
X137922000Y-118872000D03*
X140462000Y-118872000D03*
X143002000Y-118872000D03*
X145542000Y-118872000D03*
X148082000Y-118872000D03*
X150622000Y-118872000D03*
X153162000Y-118872000D03*
D11*
X153162000Y-86614000D03*
D12*
X153162000Y-84074000D03*
D13*
X162306000Y-113030000D03*
D14*
X159766000Y-113030000D03*
X162306000Y-110490000D03*
X159766000Y-110490000D03*
X162306000Y-107950000D03*
X159766000Y-107950000D03*
X162306000Y-105410000D03*
X159766000Y-105410000D03*
X162306000Y-102870000D03*
X159766000Y-102870000D03*
X162306000Y-100330000D03*
X159766000Y-100330000D03*
X162306000Y-97790000D03*
X159766000Y-97790000D03*
X162306000Y-95250000D03*
X159766000Y-95250000D03*
X162306000Y-92710000D03*
X159766000Y-92710000D03*
X162306000Y-90170000D03*
X159766000Y-90170000D03*
D11*
X168656000Y-113030000D03*
D12*
X168656000Y-110490000D03*
X168656000Y-107950000D03*
X168656000Y-105410000D03*
X168656000Y-102870000D03*
X168656000Y-100330000D03*
X168656000Y-97790000D03*
X168656000Y-95250000D03*
X168656000Y-92710000D03*
X168656000Y-90170000D03*
D15*
X124352000Y-107916000D03*
X124352000Y-94776000D03*
D11*
X131826000Y-104648000D03*
D12*
X134366000Y-104648000D03*
D11*
X129413000Y-90170000D03*
D12*
X129413000Y-87630000D03*
D16*
X150622000Y-113538000D03*
X140208000Y-109474000D03*
X142494000Y-112522000D03*
X140208000Y-87630000D03*
X159766000Y-121158000D03*
X135382000Y-91440000D03*
X139954000Y-99568000D03*
X142494000Y-114046000D03*
X135382000Y-87122000D03*
X150622000Y-83820000D03*
X164846000Y-83058000D03*
X132080000Y-87122000D03*
X141732000Y-101981000D03*
X145796000Y-103632000D03*
X146558000Y-104394000D03*
X147320000Y-105156000D03*
X148082000Y-105918000D03*
X152273000Y-109855000D03*
X151003000Y-98044000D03*
X146050000Y-85598000D03*
X147320000Y-94488000D03*
D17*
X129413000Y-90170000D02*
X124807000Y-94776000D01*
X124807000Y-94776000D02*
X124352000Y-94776000D01*
X162306000Y-92710000D02*
X162306000Y-95250000D01*
X142494000Y-109982000D02*
X142494000Y-112522000D01*
X141986000Y-109474000D02*
X142494000Y-109982000D01*
X140208000Y-109474000D02*
X141986000Y-109474000D01*
X143510000Y-113538000D02*
X150622000Y-113538000D01*
X142494000Y-112522000D02*
X143510000Y-113538000D01*
X149606000Y-84836000D02*
X141478000Y-84836000D01*
X140208000Y-87630000D02*
X140208000Y-86360000D01*
X140208000Y-86360000D02*
X140208000Y-86106000D01*
X140208000Y-86106000D02*
X141478000Y-84836000D01*
X152400000Y-84836000D02*
X153162000Y-84074000D01*
X149606000Y-84836000D02*
X152400000Y-84836000D01*
X153162000Y-84074000D02*
X154432000Y-84074000D01*
X154432000Y-84074000D02*
X155194000Y-84836000D01*
X155194000Y-84836000D02*
X155194000Y-116586000D01*
X162306000Y-90170000D02*
X162306000Y-92710000D01*
X162306000Y-95250000D02*
X162306000Y-97790000D01*
X162306000Y-97790000D02*
X162306000Y-100330000D01*
X162306000Y-100330000D02*
X162306000Y-102870000D01*
X162306000Y-102870000D02*
X162306000Y-105410000D01*
X162306000Y-105410000D02*
X162306000Y-107950000D01*
X159766000Y-121158000D02*
X155194000Y-116586000D01*
X155194000Y-116586000D02*
X152146000Y-113538000D01*
X152146000Y-113538000D02*
X150622000Y-113538000D01*
X135382000Y-94996000D02*
X135382000Y-91440000D01*
X139954000Y-99568000D02*
X135382000Y-94996000D01*
X148336000Y-114046000D02*
X153162000Y-118872000D01*
X142494000Y-114046000D02*
X148336000Y-114046000D01*
X138684000Y-83820000D02*
X150622000Y-83820000D01*
X135382000Y-87122000D02*
X138684000Y-83820000D01*
X150622000Y-82550000D02*
X150622000Y-83820000D01*
X151638000Y-81534000D02*
X150622000Y-82550000D01*
X163322000Y-81534000D02*
X151638000Y-81534000D01*
X164846000Y-83058000D02*
X163322000Y-81534000D01*
X162306000Y-113030000D02*
X164084000Y-114808000D01*
X170180000Y-90170000D02*
X168656000Y-90170000D01*
X170942000Y-90932000D02*
X170180000Y-90170000D01*
X170942000Y-114300000D02*
X170942000Y-90932000D01*
X170434000Y-114808000D02*
X170942000Y-114300000D01*
X164084000Y-114808000D02*
X170434000Y-114808000D01*
X132080000Y-92710000D02*
X132080000Y-87122000D01*
X139827000Y-100457000D02*
X132080000Y-92710000D01*
X140208000Y-100457000D02*
X139827000Y-100457000D01*
X141732000Y-101981000D02*
X140208000Y-100457000D01*
X130302000Y-118872000D02*
X133604000Y-115570000D01*
X136144000Y-105537000D02*
X138049000Y-103632000D01*
X136144000Y-105918000D02*
X136144000Y-105537000D01*
X136144000Y-114935000D02*
X136144000Y-105918000D01*
X135509000Y-115570000D02*
X136144000Y-114935000D01*
X133604000Y-115570000D02*
X135509000Y-115570000D01*
X145796000Y-103632000D02*
X138049000Y-103632000D01*
X132842000Y-118872000D02*
X132842000Y-117856000D01*
X136779000Y-106045000D02*
X138430000Y-104394000D01*
X136779000Y-115824000D02*
X136779000Y-106045000D01*
X136271000Y-116332000D02*
X136779000Y-115824000D01*
X134366000Y-116332000D02*
X136271000Y-116332000D01*
X132842000Y-117856000D02*
X134366000Y-116332000D01*
X146558000Y-104394000D02*
X138430000Y-104394000D01*
X135382000Y-118872000D02*
X135382000Y-118618000D01*
X135382000Y-118618000D02*
X137414000Y-116586000D01*
X137414000Y-106680000D02*
X138938000Y-105156000D01*
X137414000Y-116586000D02*
X137414000Y-106680000D01*
X147320000Y-105156000D02*
X138938000Y-105156000D01*
X137922000Y-107696000D02*
X137922000Y-118872000D01*
X139700000Y-105918000D02*
X137922000Y-107696000D01*
X148082000Y-105918000D02*
X139700000Y-105918000D01*
X159766000Y-113030000D02*
X161036000Y-111760000D01*
X167386000Y-111760000D02*
X168656000Y-113030000D01*
X161036000Y-111760000D02*
X167386000Y-111760000D01*
X159766000Y-110490000D02*
X161036000Y-109220000D01*
X167386000Y-109220000D02*
X168656000Y-110490000D01*
X161036000Y-109220000D02*
X167386000Y-109220000D01*
X151003000Y-108585000D02*
X151003000Y-98044000D01*
X152273000Y-109855000D02*
X151003000Y-108585000D01*
X136144000Y-102870000D02*
X134366000Y-104648000D01*
X146177000Y-102870000D02*
X136144000Y-102870000D01*
X151003000Y-98044000D02*
X146177000Y-102870000D01*
X147320000Y-86868000D02*
X146050000Y-85598000D01*
X147320000Y-94488000D02*
X147320000Y-86868000D01*
D18*
G36*
X172678000Y-121878000D02*
X121454000Y-121878000D01*
X121454000Y-119033883D01*
X122359637Y-119033883D01*
X122678669Y-119806000D01*
X123268893Y-120397255D01*
X124040452Y-120717634D01*
X124875883Y-120718363D01*
X125648000Y-120399331D01*
X126239255Y-119809107D01*
X126559634Y-119037548D01*
X126560363Y-118202117D01*
X126485941Y-118022000D01*
X128942205Y-118022000D01*
X128942205Y-119722000D01*
X128977069Y-119907289D01*
X129086575Y-120077465D01*
X129253661Y-120191630D01*
X129452000Y-120231795D01*
X131152000Y-120231795D01*
X131337289Y-120196931D01*
X131507465Y-120087425D01*
X131621630Y-119920339D01*
X131661795Y-119722000D01*
X131661795Y-119515391D01*
X131887406Y-119853042D01*
X132325377Y-120145685D01*
X132842000Y-120248448D01*
X133358623Y-120145685D01*
X133796594Y-119853042D01*
X134089237Y-119415071D01*
X134112000Y-119300634D01*
X134134763Y-119415071D01*
X134427406Y-119853042D01*
X134865377Y-120145685D01*
X135382000Y-120248448D01*
X135898623Y-120145685D01*
X136336594Y-119853042D01*
X136629237Y-119415071D01*
X136652000Y-119300634D01*
X136674763Y-119415071D01*
X136967406Y-119853042D01*
X137405377Y-120145685D01*
X137922000Y-120248448D01*
X138438623Y-120145685D01*
X138876594Y-119853042D01*
X139169237Y-119415071D01*
X139192000Y-119300634D01*
X139214763Y-119415071D01*
X139507406Y-119853042D01*
X139945377Y-120145685D01*
X140462000Y-120248448D01*
X140978623Y-120145685D01*
X141416594Y-119853042D01*
X141709237Y-119415071D01*
X141732000Y-119300634D01*
X141754763Y-119415071D01*
X142047406Y-119853042D01*
X142485377Y-120145685D01*
X143002000Y-120248448D01*
X143518623Y-120145685D01*
X143956594Y-119853042D01*
X144249237Y-119415071D01*
X144272000Y-119300634D01*
X144294763Y-119415071D01*
X144587406Y-119853042D01*
X145025377Y-120145685D01*
X145542000Y-120248448D01*
X146058623Y-120145685D01*
X146496594Y-119853042D01*
X146789237Y-119415071D01*
X146812000Y-119300634D01*
X146834763Y-119415071D01*
X147127406Y-119853042D01*
X147565377Y-120145685D01*
X148082000Y-120248448D01*
X148598623Y-120145685D01*
X149036594Y-119853042D01*
X149329237Y-119415071D01*
X149355119Y-119284956D01*
X149526341Y-119660704D01*
X149911567Y-120019958D01*
X150312625Y-120186072D01*
X150522000Y-120092912D01*
X150522000Y-118972000D01*
X150502000Y-118972000D01*
X150502000Y-118772000D01*
X150522000Y-118772000D01*
X150522000Y-117651088D01*
X150312625Y-117557928D01*
X149911567Y-117724042D01*
X149526341Y-118083296D01*
X149355119Y-118459044D01*
X149329237Y-118328929D01*
X149036594Y-117890958D01*
X148598623Y-117598315D01*
X148082000Y-117495552D01*
X147565377Y-117598315D01*
X147127406Y-117890958D01*
X146834763Y-118328929D01*
X146812000Y-118443366D01*
X146789237Y-118328929D01*
X146496594Y-117890958D01*
X146058623Y-117598315D01*
X145542000Y-117495552D01*
X145025377Y-117598315D01*
X144587406Y-117890958D01*
X144294763Y-118328929D01*
X144272000Y-118443366D01*
X144249237Y-118328929D01*
X143956594Y-117890958D01*
X143518623Y-117598315D01*
X143002000Y-117495552D01*
X142485377Y-117598315D01*
X142047406Y-117890958D01*
X141754763Y-118328929D01*
X141732000Y-118443366D01*
X141709237Y-118328929D01*
X141416594Y-117890958D01*
X140978623Y-117598315D01*
X140462000Y-117495552D01*
X139945377Y-117598315D01*
X139507406Y-117890958D01*
X139214763Y-118328929D01*
X139192000Y-118443366D01*
X139169237Y-118328929D01*
X138876594Y-117890958D01*
X138547000Y-117670730D01*
X138547000Y-114204432D01*
X141693861Y-114204432D01*
X141815397Y-114498572D01*
X142040245Y-114723812D01*
X142334172Y-114845861D01*
X142652432Y-114846139D01*
X142946572Y-114724603D01*
X143000268Y-114671000D01*
X148077116Y-114671000D01*
X150987143Y-117581027D01*
X150931375Y-117557928D01*
X150722000Y-117651088D01*
X150722000Y-118772000D01*
X150742000Y-118772000D01*
X150742000Y-118972000D01*
X150722000Y-118972000D01*
X150722000Y-120092912D01*
X150931375Y-120186072D01*
X151332433Y-120019958D01*
X151717659Y-119660704D01*
X151888881Y-119284956D01*
X151914763Y-119415071D01*
X152207406Y-119853042D01*
X152645377Y-120145685D01*
X153162000Y-120248448D01*
X153678623Y-120145685D01*
X154116594Y-119853042D01*
X154409237Y-119415071D01*
X154485060Y-119033883D01*
X167571637Y-119033883D01*
X167890669Y-119806000D01*
X168480893Y-120397255D01*
X169252452Y-120717634D01*
X170087883Y-120718363D01*
X170860000Y-120399331D01*
X171451255Y-119809107D01*
X171771634Y-119037548D01*
X171772363Y-118202117D01*
X171453331Y-117430000D01*
X170863107Y-116838745D01*
X170091548Y-116518366D01*
X169256117Y-116517637D01*
X168484000Y-116836669D01*
X167892745Y-117426893D01*
X167572366Y-118198452D01*
X167571637Y-119033883D01*
X154485060Y-119033883D01*
X154512000Y-118898448D01*
X154512000Y-118845552D01*
X154409237Y-118328929D01*
X154116594Y-117890958D01*
X153678623Y-117598315D01*
X153162000Y-117495552D01*
X152751157Y-117577274D01*
X148777942Y-113604058D01*
X148575177Y-113468575D01*
X148336000Y-113421000D01*
X143000475Y-113421000D01*
X142947755Y-113368188D01*
X142653828Y-113246139D01*
X142335568Y-113245861D01*
X142041428Y-113367397D01*
X141816188Y-113592245D01*
X141694139Y-113886172D01*
X141693861Y-114204432D01*
X138547000Y-114204432D01*
X138547000Y-107954884D01*
X139958884Y-106543000D01*
X147575525Y-106543000D01*
X147628245Y-106595812D01*
X147922172Y-106717861D01*
X148240432Y-106718139D01*
X148534572Y-106596603D01*
X148759812Y-106371755D01*
X148881861Y-106077828D01*
X148882139Y-105759568D01*
X148760603Y-105465428D01*
X148535755Y-105240188D01*
X148241828Y-105118139D01*
X148120034Y-105118033D01*
X148120139Y-104997568D01*
X147998603Y-104703428D01*
X147773755Y-104478188D01*
X147479828Y-104356139D01*
X147358034Y-104356033D01*
X147358139Y-104235568D01*
X147236603Y-103941428D01*
X147011755Y-103716188D01*
X146717828Y-103594139D01*
X146596034Y-103594033D01*
X146596139Y-103473568D01*
X146548739Y-103358850D01*
X146618942Y-103311942D01*
X150378000Y-99552883D01*
X150378000Y-108585000D01*
X150425575Y-108824177D01*
X150561058Y-109026942D01*
X151472926Y-109938810D01*
X151472861Y-110013432D01*
X151594397Y-110307572D01*
X151819245Y-110532812D01*
X152113172Y-110654861D01*
X152431432Y-110655139D01*
X152725572Y-110533603D01*
X152950812Y-110308755D01*
X153072861Y-110014828D01*
X153073139Y-109696568D01*
X152951603Y-109402428D01*
X152726755Y-109177188D01*
X152432828Y-109055139D01*
X152356957Y-109055073D01*
X151628000Y-108326116D01*
X151628000Y-98550475D01*
X151680812Y-98497755D01*
X151802861Y-98203828D01*
X151803139Y-97885568D01*
X151681603Y-97591428D01*
X151456755Y-97366188D01*
X151162828Y-97244139D01*
X150844568Y-97243861D01*
X150550428Y-97365397D01*
X150325188Y-97590245D01*
X150203139Y-97884172D01*
X150203073Y-97960044D01*
X145918116Y-102245000D01*
X142488605Y-102245000D01*
X142531861Y-102140828D01*
X142532139Y-101822568D01*
X142410603Y-101528428D01*
X142185755Y-101303188D01*
X141891828Y-101181139D01*
X141815956Y-101181073D01*
X140649942Y-100015058D01*
X140637927Y-100007030D01*
X140753861Y-99727828D01*
X140754139Y-99409568D01*
X140632603Y-99115428D01*
X140407755Y-98890188D01*
X140113828Y-98768139D01*
X140037956Y-98768073D01*
X136007000Y-94737116D01*
X136007000Y-91946475D01*
X136059812Y-91893755D01*
X136181861Y-91599828D01*
X136182139Y-91281568D01*
X136060603Y-90987428D01*
X135835755Y-90762188D01*
X135541828Y-90640139D01*
X135223568Y-90639861D01*
X134929428Y-90761397D01*
X134704188Y-90986245D01*
X134582139Y-91280172D01*
X134581861Y-91598432D01*
X134703397Y-91892572D01*
X134757000Y-91946268D01*
X134757000Y-94503116D01*
X132705000Y-92451116D01*
X132705000Y-87628475D01*
X132757812Y-87575755D01*
X132879861Y-87281828D01*
X132879862Y-87280432D01*
X134581861Y-87280432D01*
X134703397Y-87574572D01*
X134928245Y-87799812D01*
X135222172Y-87921861D01*
X135540432Y-87922139D01*
X135834572Y-87800603D01*
X136059812Y-87575755D01*
X136181861Y-87281828D01*
X136181927Y-87205957D01*
X137631452Y-85756432D01*
X145249861Y-85756432D01*
X145371397Y-86050572D01*
X145596245Y-86275812D01*
X145890172Y-86397861D01*
X145966043Y-86397927D01*
X146695000Y-87126884D01*
X146695000Y-93981525D01*
X146642188Y-94034245D01*
X146520139Y-94328172D01*
X146519861Y-94646432D01*
X146641397Y-94940572D01*
X146866245Y-95165812D01*
X147160172Y-95287861D01*
X147478432Y-95288139D01*
X147772572Y-95166603D01*
X147997812Y-94941755D01*
X148119861Y-94647828D01*
X148120139Y-94329568D01*
X147998603Y-94035428D01*
X147945000Y-93981732D01*
X147945000Y-90143285D01*
X158402400Y-90143285D01*
X158402400Y-90196715D01*
X158506198Y-90718542D01*
X158801789Y-91160926D01*
X159219454Y-91440000D01*
X158801789Y-91719074D01*
X158506198Y-92161458D01*
X158402400Y-92683285D01*
X158402400Y-92736715D01*
X158506198Y-93258542D01*
X158801789Y-93700926D01*
X159219454Y-93980000D01*
X158801789Y-94259074D01*
X158506198Y-94701458D01*
X158402400Y-95223285D01*
X158402400Y-95276715D01*
X158506198Y-95798542D01*
X158801789Y-96240926D01*
X159219454Y-96520000D01*
X158801789Y-96799074D01*
X158506198Y-97241458D01*
X158402400Y-97763285D01*
X158402400Y-97816715D01*
X158506198Y-98338542D01*
X158801789Y-98780926D01*
X159219454Y-99060000D01*
X158801789Y-99339074D01*
X158506198Y-99781458D01*
X158402400Y-100303285D01*
X158402400Y-100356715D01*
X158506198Y-100878542D01*
X158801789Y-101320926D01*
X159219454Y-101600000D01*
X158801789Y-101879074D01*
X158506198Y-102321458D01*
X158402400Y-102843285D01*
X158402400Y-102896715D01*
X158506198Y-103418542D01*
X158801789Y-103860926D01*
X159219454Y-104140000D01*
X158801789Y-104419074D01*
X158506198Y-104861458D01*
X158402400Y-105383285D01*
X158402400Y-105436715D01*
X158506198Y-105958542D01*
X158801789Y-106400926D01*
X159219454Y-106680000D01*
X158801789Y-106959074D01*
X158506198Y-107401458D01*
X158402400Y-107923285D01*
X158402400Y-107976715D01*
X158506198Y-108498542D01*
X158801789Y-108940926D01*
X159219454Y-109220000D01*
X158801789Y-109499074D01*
X158506198Y-109941458D01*
X158402400Y-110463285D01*
X158402400Y-110516715D01*
X158506198Y-111038542D01*
X158801789Y-111480926D01*
X159219454Y-111760000D01*
X158801789Y-112039074D01*
X158506198Y-112481458D01*
X158402400Y-113003285D01*
X158402400Y-113056715D01*
X158506198Y-113578542D01*
X158801789Y-114020926D01*
X159244173Y-114316517D01*
X159766000Y-114420315D01*
X160287827Y-114316517D01*
X160730211Y-114020926D01*
X160932605Y-113718021D01*
X160932605Y-113893600D01*
X160967469Y-114078889D01*
X161076975Y-114249065D01*
X161244061Y-114363230D01*
X161442400Y-114403395D01*
X162795511Y-114403395D01*
X163642058Y-115249942D01*
X163844823Y-115385425D01*
X164084000Y-115433001D01*
X164084005Y-115433000D01*
X170434000Y-115433000D01*
X170673177Y-115385425D01*
X170875942Y-115249942D01*
X171383939Y-114741944D01*
X171383942Y-114741942D01*
X171519425Y-114539177D01*
X171567000Y-114300000D01*
X171567000Y-90932005D01*
X171567001Y-90932000D01*
X171519425Y-90692823D01*
X171383942Y-90490058D01*
X170621942Y-89728058D01*
X170419177Y-89592575D01*
X170180000Y-89545000D01*
X169857270Y-89545000D01*
X169637042Y-89215406D01*
X169199071Y-88922763D01*
X168682448Y-88820000D01*
X168629552Y-88820000D01*
X168112929Y-88922763D01*
X167674958Y-89215406D01*
X167382315Y-89653377D01*
X167279552Y-90170000D01*
X167382315Y-90686623D01*
X167674958Y-91124594D01*
X168112929Y-91417237D01*
X168243044Y-91443119D01*
X167867296Y-91614341D01*
X167508042Y-91999567D01*
X167341928Y-92400625D01*
X167435088Y-92610000D01*
X168556000Y-92610000D01*
X168556000Y-92590000D01*
X168756000Y-92590000D01*
X168756000Y-92610000D01*
X169876912Y-92610000D01*
X169970072Y-92400625D01*
X169803958Y-91999567D01*
X169444704Y-91614341D01*
X169068956Y-91443119D01*
X169199071Y-91417237D01*
X169637042Y-91124594D01*
X169857270Y-90795000D01*
X169921116Y-90795000D01*
X170317000Y-91190884D01*
X170317000Y-114041117D01*
X170175116Y-114183000D01*
X169904118Y-114183000D01*
X169975630Y-114078339D01*
X170015795Y-113880000D01*
X170015795Y-112180000D01*
X169980931Y-111994711D01*
X169871425Y-111824535D01*
X169704339Y-111710370D01*
X169506000Y-111670205D01*
X169299391Y-111670205D01*
X169637042Y-111444594D01*
X169929685Y-111006623D01*
X170032448Y-110490000D01*
X169929685Y-109973377D01*
X169637042Y-109535406D01*
X169199071Y-109242763D01*
X169084634Y-109220000D01*
X169199071Y-109197237D01*
X169637042Y-108904594D01*
X169929685Y-108466623D01*
X170032448Y-107950000D01*
X169929685Y-107433377D01*
X169637042Y-106995406D01*
X169199071Y-106702763D01*
X169084634Y-106680000D01*
X169199071Y-106657237D01*
X169637042Y-106364594D01*
X169929685Y-105926623D01*
X170032448Y-105410000D01*
X169929685Y-104893377D01*
X169637042Y-104455406D01*
X169199071Y-104162763D01*
X169084634Y-104140000D01*
X169199071Y-104117237D01*
X169637042Y-103824594D01*
X169929685Y-103386623D01*
X170032448Y-102870000D01*
X169929685Y-102353377D01*
X169637042Y-101915406D01*
X169199071Y-101622763D01*
X169084634Y-101600000D01*
X169199071Y-101577237D01*
X169637042Y-101284594D01*
X169929685Y-100846623D01*
X170032448Y-100330000D01*
X169929685Y-99813377D01*
X169637042Y-99375406D01*
X169199071Y-99082763D01*
X169084634Y-99060000D01*
X169199071Y-99037237D01*
X169637042Y-98744594D01*
X169929685Y-98306623D01*
X170032448Y-97790000D01*
X169929685Y-97273377D01*
X169637042Y-96835406D01*
X169199071Y-96542763D01*
X169068956Y-96516881D01*
X169444704Y-96345659D01*
X169803958Y-95960433D01*
X169970072Y-95559375D01*
X169876912Y-95350000D01*
X168756000Y-95350000D01*
X168756000Y-95370000D01*
X168556000Y-95370000D01*
X168556000Y-95350000D01*
X167435088Y-95350000D01*
X167341928Y-95559375D01*
X167508042Y-95960433D01*
X167867296Y-96345659D01*
X168243044Y-96516881D01*
X168112929Y-96542763D01*
X167674958Y-96835406D01*
X167382315Y-97273377D01*
X167279552Y-97790000D01*
X167382315Y-98306623D01*
X167674958Y-98744594D01*
X168112929Y-99037237D01*
X168227366Y-99060000D01*
X168112929Y-99082763D01*
X167674958Y-99375406D01*
X167382315Y-99813377D01*
X167279552Y-100330000D01*
X167382315Y-100846623D01*
X167674958Y-101284594D01*
X168112929Y-101577237D01*
X168227366Y-101600000D01*
X168112929Y-101622763D01*
X167674958Y-101915406D01*
X167382315Y-102353377D01*
X167279552Y-102870000D01*
X167382315Y-103386623D01*
X167674958Y-103824594D01*
X168112929Y-104117237D01*
X168227366Y-104140000D01*
X168112929Y-104162763D01*
X167674958Y-104455406D01*
X167382315Y-104893377D01*
X167279552Y-105410000D01*
X167382315Y-105926623D01*
X167674958Y-106364594D01*
X168112929Y-106657237D01*
X168227366Y-106680000D01*
X168112929Y-106702763D01*
X167674958Y-106995406D01*
X167382315Y-107433377D01*
X167279552Y-107950000D01*
X167382315Y-108466623D01*
X167480677Y-108613832D01*
X167386000Y-108595000D01*
X163481882Y-108595000D01*
X163633550Y-108261510D01*
X163540937Y-108050000D01*
X162406000Y-108050000D01*
X162406000Y-108070000D01*
X162206000Y-108070000D01*
X162206000Y-108050000D01*
X162186000Y-108050000D01*
X162186000Y-107850000D01*
X162206000Y-107850000D01*
X162206000Y-106715443D01*
X162125380Y-106680000D01*
X162206000Y-106644557D01*
X162206000Y-105510000D01*
X162406000Y-105510000D01*
X162406000Y-106644557D01*
X162486620Y-106680000D01*
X162406000Y-106715443D01*
X162406000Y-107850000D01*
X163540937Y-107850000D01*
X163633550Y-107638490D01*
X163413287Y-107154171D01*
X163024449Y-106791009D01*
X162756434Y-106680000D01*
X163024449Y-106568991D01*
X163413287Y-106205829D01*
X163633550Y-105721510D01*
X163540937Y-105510000D01*
X162406000Y-105510000D01*
X162206000Y-105510000D01*
X162186000Y-105510000D01*
X162186000Y-105310000D01*
X162206000Y-105310000D01*
X162206000Y-104175443D01*
X162125380Y-104140000D01*
X162206000Y-104104557D01*
X162206000Y-102970000D01*
X162406000Y-102970000D01*
X162406000Y-104104557D01*
X162486620Y-104140000D01*
X162406000Y-104175443D01*
X162406000Y-105310000D01*
X163540937Y-105310000D01*
X163633550Y-105098490D01*
X163413287Y-104614171D01*
X163024449Y-104251009D01*
X162756434Y-104140000D01*
X163024449Y-104028991D01*
X163413287Y-103665829D01*
X163633550Y-103181510D01*
X163540937Y-102970000D01*
X162406000Y-102970000D01*
X162206000Y-102970000D01*
X162186000Y-102970000D01*
X162186000Y-102770000D01*
X162206000Y-102770000D01*
X162206000Y-101635443D01*
X162125380Y-101600000D01*
X162206000Y-101564557D01*
X162206000Y-100430000D01*
X162406000Y-100430000D01*
X162406000Y-101564557D01*
X162486620Y-101600000D01*
X162406000Y-101635443D01*
X162406000Y-102770000D01*
X163540937Y-102770000D01*
X163633550Y-102558490D01*
X163413287Y-102074171D01*
X163024449Y-101711009D01*
X162756434Y-101600000D01*
X163024449Y-101488991D01*
X163413287Y-101125829D01*
X163633550Y-100641510D01*
X163540937Y-100430000D01*
X162406000Y-100430000D01*
X162206000Y-100430000D01*
X162186000Y-100430000D01*
X162186000Y-100230000D01*
X162206000Y-100230000D01*
X162206000Y-99095443D01*
X162125380Y-99060000D01*
X162206000Y-99024557D01*
X162206000Y-97890000D01*
X162406000Y-97890000D01*
X162406000Y-99024557D01*
X162486620Y-99060000D01*
X162406000Y-99095443D01*
X162406000Y-100230000D01*
X163540937Y-100230000D01*
X163633550Y-100018490D01*
X163413287Y-99534171D01*
X163024449Y-99171009D01*
X162756434Y-99060000D01*
X163024449Y-98948991D01*
X163413287Y-98585829D01*
X163633550Y-98101510D01*
X163540937Y-97890000D01*
X162406000Y-97890000D01*
X162206000Y-97890000D01*
X162186000Y-97890000D01*
X162186000Y-97690000D01*
X162206000Y-97690000D01*
X162206000Y-96555443D01*
X162125380Y-96520000D01*
X162206000Y-96484557D01*
X162206000Y-95350000D01*
X162406000Y-95350000D01*
X162406000Y-96484557D01*
X162486620Y-96520000D01*
X162406000Y-96555443D01*
X162406000Y-97690000D01*
X163540937Y-97690000D01*
X163633550Y-97478490D01*
X163413287Y-96994171D01*
X163024449Y-96631009D01*
X162756434Y-96520000D01*
X163024449Y-96408991D01*
X163413287Y-96045829D01*
X163633550Y-95561510D01*
X163540937Y-95350000D01*
X162406000Y-95350000D01*
X162206000Y-95350000D01*
X162186000Y-95350000D01*
X162186000Y-95150000D01*
X162206000Y-95150000D01*
X162206000Y-94015443D01*
X162125380Y-93980000D01*
X162206000Y-93944557D01*
X162206000Y-92810000D01*
X162406000Y-92810000D01*
X162406000Y-93944557D01*
X162486620Y-93980000D01*
X162406000Y-94015443D01*
X162406000Y-95150000D01*
X163540937Y-95150000D01*
X163633550Y-94938490D01*
X163413287Y-94454171D01*
X163024449Y-94091009D01*
X162756434Y-93980000D01*
X163024449Y-93868991D01*
X163413287Y-93505829D01*
X163633550Y-93021510D01*
X163632616Y-93019375D01*
X167341928Y-93019375D01*
X167508042Y-93420433D01*
X167867296Y-93805659D01*
X168249887Y-93980000D01*
X167867296Y-94154341D01*
X167508042Y-94539567D01*
X167341928Y-94940625D01*
X167435088Y-95150000D01*
X168556000Y-95150000D01*
X168556000Y-94028700D01*
X168446100Y-93980000D01*
X168556000Y-93931300D01*
X168556000Y-92810000D01*
X168756000Y-92810000D01*
X168756000Y-93931300D01*
X168865900Y-93980000D01*
X168756000Y-94028700D01*
X168756000Y-95150000D01*
X169876912Y-95150000D01*
X169970072Y-94940625D01*
X169803958Y-94539567D01*
X169444704Y-94154341D01*
X169062113Y-93980000D01*
X169444704Y-93805659D01*
X169803958Y-93420433D01*
X169970072Y-93019375D01*
X169876912Y-92810000D01*
X168756000Y-92810000D01*
X168556000Y-92810000D01*
X167435088Y-92810000D01*
X167341928Y-93019375D01*
X163632616Y-93019375D01*
X163540937Y-92810000D01*
X162406000Y-92810000D01*
X162206000Y-92810000D01*
X162186000Y-92810000D01*
X162186000Y-92610000D01*
X162206000Y-92610000D01*
X162206000Y-91475443D01*
X162125380Y-91440000D01*
X162206000Y-91404557D01*
X162206000Y-90270000D01*
X162406000Y-90270000D01*
X162406000Y-91404557D01*
X162486620Y-91440000D01*
X162406000Y-91475443D01*
X162406000Y-92610000D01*
X163540937Y-92610000D01*
X163633550Y-92398490D01*
X163413287Y-91914171D01*
X163024449Y-91551009D01*
X162756434Y-91440000D01*
X163024449Y-91328991D01*
X163413287Y-90965829D01*
X163633550Y-90481510D01*
X163540937Y-90270000D01*
X162406000Y-90270000D01*
X162206000Y-90270000D01*
X162186000Y-90270000D01*
X162186000Y-90070000D01*
X162206000Y-90070000D01*
X162206000Y-88935443D01*
X162406000Y-88935443D01*
X162406000Y-90070000D01*
X163540937Y-90070000D01*
X163633550Y-89858490D01*
X163413287Y-89374171D01*
X163024449Y-89011009D01*
X162617508Y-88842458D01*
X162406000Y-88935443D01*
X162206000Y-88935443D01*
X161994492Y-88842458D01*
X161587551Y-89011009D01*
X161198713Y-89374171D01*
X161044195Y-89713928D01*
X161025802Y-89621458D01*
X160730211Y-89179074D01*
X160287827Y-88883483D01*
X159766000Y-88779685D01*
X159244173Y-88883483D01*
X158801789Y-89179074D01*
X158506198Y-89621458D01*
X158402400Y-90143285D01*
X147945000Y-90143285D01*
X147945000Y-86868000D01*
X147905502Y-86669428D01*
X147897425Y-86628822D01*
X147761942Y-86426058D01*
X147099884Y-85764000D01*
X151802205Y-85764000D01*
X151802205Y-87464000D01*
X151837069Y-87649289D01*
X151946575Y-87819465D01*
X152113661Y-87933630D01*
X152312000Y-87973795D01*
X154012000Y-87973795D01*
X154197289Y-87938931D01*
X154367465Y-87829425D01*
X154481630Y-87662339D01*
X154521795Y-87464000D01*
X154521795Y-85764000D01*
X154486931Y-85578711D01*
X154377425Y-85408535D01*
X154210339Y-85294370D01*
X154012000Y-85254205D01*
X153765168Y-85254205D01*
X153950704Y-85169659D01*
X154309958Y-84784433D01*
X154476072Y-84383375D01*
X154410447Y-84235883D01*
X167571637Y-84235883D01*
X167890669Y-85008000D01*
X168480893Y-85599255D01*
X169252452Y-85919634D01*
X170087883Y-85920363D01*
X170860000Y-85601331D01*
X171451255Y-85011107D01*
X171771634Y-84239548D01*
X171772363Y-83404117D01*
X171453331Y-82632000D01*
X170863107Y-82040745D01*
X170091548Y-81720366D01*
X169256117Y-81719637D01*
X168484000Y-82038669D01*
X167892745Y-82628893D01*
X167572366Y-83400452D01*
X167571637Y-84235883D01*
X154410447Y-84235883D01*
X154382912Y-84174000D01*
X153262000Y-84174000D01*
X153262000Y-84194000D01*
X153062000Y-84194000D01*
X153062000Y-84174000D01*
X151941088Y-84174000D01*
X151847928Y-84383375D01*
X152014042Y-84784433D01*
X152373296Y-85169659D01*
X152558832Y-85254205D01*
X152312000Y-85254205D01*
X152126711Y-85289069D01*
X151956535Y-85398575D01*
X151842370Y-85565661D01*
X151802205Y-85764000D01*
X147099884Y-85764000D01*
X146850074Y-85514190D01*
X146850139Y-85439568D01*
X146728603Y-85145428D01*
X146503755Y-84920188D01*
X146209828Y-84798139D01*
X145891568Y-84797861D01*
X145597428Y-84919397D01*
X145372188Y-85144245D01*
X145250139Y-85438172D01*
X145249861Y-85756432D01*
X137631452Y-85756432D01*
X138942884Y-84445000D01*
X150115525Y-84445000D01*
X150168245Y-84497812D01*
X150462172Y-84619861D01*
X150780432Y-84620139D01*
X151074572Y-84498603D01*
X151299812Y-84273755D01*
X151421861Y-83979828D01*
X151422048Y-83764625D01*
X151847928Y-83764625D01*
X151941088Y-83974000D01*
X153062000Y-83974000D01*
X153062000Y-82852700D01*
X153262000Y-82852700D01*
X153262000Y-83974000D01*
X154382912Y-83974000D01*
X154476072Y-83764625D01*
X154309958Y-83363567D01*
X153950704Y-82978341D01*
X153471377Y-82759919D01*
X153262000Y-82852700D01*
X153062000Y-82852700D01*
X152852623Y-82759919D01*
X152373296Y-82978341D01*
X152014042Y-83363567D01*
X151847928Y-83764625D01*
X151422048Y-83764625D01*
X151422139Y-83661568D01*
X151300603Y-83367428D01*
X151247000Y-83313732D01*
X151247000Y-82808884D01*
X151896884Y-82159000D01*
X163063116Y-82159000D01*
X164045926Y-83141809D01*
X164045861Y-83216432D01*
X164167397Y-83510572D01*
X164392245Y-83735812D01*
X164686172Y-83857861D01*
X165004432Y-83858139D01*
X165298572Y-83736603D01*
X165523812Y-83511755D01*
X165645861Y-83217828D01*
X165646139Y-82899568D01*
X165524603Y-82605428D01*
X165299755Y-82380188D01*
X165005828Y-82258139D01*
X164929956Y-82258073D01*
X163763942Y-81092058D01*
X163561177Y-80956575D01*
X163322000Y-80909000D01*
X151638000Y-80909000D01*
X151398823Y-80956575D01*
X151196058Y-81092058D01*
X150180058Y-82108058D01*
X150044575Y-82310823D01*
X149997000Y-82550000D01*
X149997000Y-83195000D01*
X138684000Y-83195000D01*
X138444822Y-83242575D01*
X138242058Y-83378058D01*
X135298190Y-86321926D01*
X135223568Y-86321861D01*
X134929428Y-86443397D01*
X134704188Y-86668245D01*
X134582139Y-86962172D01*
X134581861Y-87280432D01*
X132879862Y-87280432D01*
X132880139Y-86963568D01*
X132758603Y-86669428D01*
X132533755Y-86444188D01*
X132239828Y-86322139D01*
X131921568Y-86321861D01*
X131627428Y-86443397D01*
X131402188Y-86668245D01*
X131280139Y-86962172D01*
X131279861Y-87280432D01*
X131401397Y-87574572D01*
X131455000Y-87628268D01*
X131455000Y-92710000D01*
X131502575Y-92949177D01*
X131638058Y-93151942D01*
X139385056Y-100898939D01*
X139385058Y-100898942D01*
X139587823Y-101034425D01*
X139827000Y-101082000D01*
X139949116Y-101082000D01*
X140931926Y-102064809D01*
X140931861Y-102139432D01*
X140975481Y-102245000D01*
X136144005Y-102245000D01*
X136144000Y-102244999D01*
X135904823Y-102292575D01*
X135702058Y-102428058D01*
X134776842Y-103353274D01*
X134366000Y-103271552D01*
X133849377Y-103374315D01*
X133411406Y-103666958D01*
X133176000Y-104019268D01*
X133176000Y-103698544D01*
X133099880Y-103514773D01*
X132959227Y-103374121D01*
X132775456Y-103298000D01*
X132051000Y-103298000D01*
X131926000Y-103423000D01*
X131926000Y-104548000D01*
X131946000Y-104548000D01*
X131946000Y-104748000D01*
X131926000Y-104748000D01*
X131926000Y-105873000D01*
X132051000Y-105998000D01*
X132775456Y-105998000D01*
X132959227Y-105921879D01*
X133099880Y-105781227D01*
X133176000Y-105597456D01*
X133176000Y-105276732D01*
X133411406Y-105629042D01*
X133849377Y-105921685D01*
X134366000Y-106024448D01*
X134882623Y-105921685D01*
X135320594Y-105629042D01*
X135613237Y-105191071D01*
X135716000Y-104674448D01*
X135716000Y-104621552D01*
X135643054Y-104254830D01*
X136402884Y-103495000D01*
X137302116Y-103495000D01*
X135702058Y-105095058D01*
X135566575Y-105297823D01*
X135519000Y-105537000D01*
X135519000Y-114676117D01*
X135250116Y-114945000D01*
X133604000Y-114945000D01*
X133364822Y-114992575D01*
X133162058Y-115128058D01*
X130777911Y-117512205D01*
X129452000Y-117512205D01*
X129266711Y-117547069D01*
X129096535Y-117656575D01*
X128982370Y-117823661D01*
X128942205Y-118022000D01*
X126485941Y-118022000D01*
X126241331Y-117430000D01*
X125651107Y-116838745D01*
X124879548Y-116518366D01*
X124044117Y-116517637D01*
X123272000Y-116836669D01*
X122680745Y-117426893D01*
X122360366Y-118198452D01*
X122359637Y-119033883D01*
X121454000Y-119033883D01*
X121454000Y-109338393D01*
X123071028Y-109338393D01*
X123235742Y-109622527D01*
X123973772Y-109919798D01*
X124769384Y-109912010D01*
X125468258Y-109622527D01*
X125632972Y-109338393D01*
X124352000Y-108057421D01*
X123071028Y-109338393D01*
X121454000Y-109338393D01*
X121454000Y-107537772D01*
X122348202Y-107537772D01*
X122355990Y-108333384D01*
X122645473Y-109032258D01*
X122929607Y-109196972D01*
X124210579Y-107916000D01*
X124493421Y-107916000D01*
X125774393Y-109196972D01*
X126058527Y-109032258D01*
X126355798Y-108294228D01*
X126348010Y-107498616D01*
X126058527Y-106799742D01*
X125774393Y-106635028D01*
X124493421Y-107916000D01*
X124210579Y-107916000D01*
X122929607Y-106635028D01*
X122645473Y-106799742D01*
X122348202Y-107537772D01*
X121454000Y-107537772D01*
X121454000Y-106493607D01*
X123071028Y-106493607D01*
X124352000Y-107774579D01*
X125632972Y-106493607D01*
X125468258Y-106209473D01*
X124730228Y-105912202D01*
X123934616Y-105919990D01*
X123235742Y-106209473D01*
X123071028Y-106493607D01*
X121454000Y-106493607D01*
X121454000Y-104873000D01*
X130476000Y-104873000D01*
X130476000Y-105597456D01*
X130552120Y-105781227D01*
X130692773Y-105921879D01*
X130876544Y-105998000D01*
X131601000Y-105998000D01*
X131726000Y-105873000D01*
X131726000Y-104748000D01*
X130601000Y-104748000D01*
X130476000Y-104873000D01*
X121454000Y-104873000D01*
X121454000Y-103698544D01*
X130476000Y-103698544D01*
X130476000Y-104423000D01*
X130601000Y-104548000D01*
X131726000Y-104548000D01*
X131726000Y-103423000D01*
X131601000Y-103298000D01*
X130876544Y-103298000D01*
X130692773Y-103374121D01*
X130552120Y-103514773D01*
X130476000Y-103698544D01*
X121454000Y-103698544D01*
X121454000Y-96198393D01*
X123071028Y-96198393D01*
X123235742Y-96482527D01*
X123973772Y-96779798D01*
X124769384Y-96772010D01*
X125468258Y-96482527D01*
X125632972Y-96198393D01*
X124352000Y-94917421D01*
X123071028Y-96198393D01*
X121454000Y-96198393D01*
X121454000Y-94397772D01*
X122348202Y-94397772D01*
X122355990Y-95193384D01*
X122645473Y-95892258D01*
X122929607Y-96056972D01*
X124210579Y-94776000D01*
X124493421Y-94776000D01*
X125774393Y-96056972D01*
X126058527Y-95892258D01*
X126355798Y-95154228D01*
X126348010Y-94358616D01*
X126058527Y-93659742D01*
X125774393Y-93495028D01*
X124493421Y-94776000D01*
X124210579Y-94776000D01*
X122929607Y-93495028D01*
X122645473Y-93659742D01*
X122348202Y-94397772D01*
X121454000Y-94397772D01*
X121454000Y-93353607D01*
X123071028Y-93353607D01*
X124352000Y-94634579D01*
X125632972Y-93353607D01*
X125468258Y-93069473D01*
X124730228Y-92772202D01*
X123934616Y-92779990D01*
X123235742Y-93069473D01*
X123071028Y-93353607D01*
X121454000Y-93353607D01*
X121454000Y-90395000D01*
X128063000Y-90395000D01*
X128063000Y-91119456D01*
X128139121Y-91303227D01*
X128279773Y-91443880D01*
X128463544Y-91520000D01*
X129188000Y-91520000D01*
X129313000Y-91395000D01*
X129313000Y-90270000D01*
X129513000Y-90270000D01*
X129513000Y-91395000D01*
X129638000Y-91520000D01*
X130362456Y-91520000D01*
X130546227Y-91443880D01*
X130686879Y-91303227D01*
X130763000Y-91119456D01*
X130763000Y-90395000D01*
X130638000Y-90270000D01*
X129513000Y-90270000D01*
X129313000Y-90270000D01*
X128188000Y-90270000D01*
X128063000Y-90395000D01*
X121454000Y-90395000D01*
X121454000Y-87630000D01*
X128036552Y-87630000D01*
X128139315Y-88146623D01*
X128431958Y-88584594D01*
X128784268Y-88820000D01*
X128463544Y-88820000D01*
X128279773Y-88896120D01*
X128139121Y-89036773D01*
X128063000Y-89220544D01*
X128063000Y-89945000D01*
X128188000Y-90070000D01*
X129313000Y-90070000D01*
X129313000Y-90050000D01*
X129513000Y-90050000D01*
X129513000Y-90070000D01*
X130638000Y-90070000D01*
X130763000Y-89945000D01*
X130763000Y-89220544D01*
X130686879Y-89036773D01*
X130546227Y-88896120D01*
X130362456Y-88820000D01*
X130041732Y-88820000D01*
X130394042Y-88584594D01*
X130686685Y-88146623D01*
X130789448Y-87630000D01*
X130686685Y-87113377D01*
X130394042Y-86675406D01*
X129956071Y-86382763D01*
X129439448Y-86280000D01*
X129386552Y-86280000D01*
X128869929Y-86382763D01*
X128431958Y-86675406D01*
X128139315Y-87113377D01*
X128036552Y-87630000D01*
X121454000Y-87630000D01*
X121454000Y-84235883D01*
X122359637Y-84235883D01*
X122678669Y-85008000D01*
X123268893Y-85599255D01*
X124040452Y-85919634D01*
X124875883Y-85920363D01*
X125648000Y-85601331D01*
X126239255Y-85011107D01*
X126559634Y-84239548D01*
X126560363Y-83404117D01*
X126241331Y-82632000D01*
X125651107Y-82040745D01*
X124879548Y-81720366D01*
X124044117Y-81719637D01*
X123272000Y-82038669D01*
X122680745Y-82628893D01*
X122360366Y-83400452D01*
X122359637Y-84235883D01*
X121454000Y-84235883D01*
X121454000Y-80814000D01*
X172678000Y-80814000D01*
X172678000Y-121878000D01*
X172678000Y-121878000D01*
G37*
X172678000Y-121878000D02*
X121454000Y-121878000D01*
X121454000Y-119033883D01*
X122359637Y-119033883D01*
X122678669Y-119806000D01*
X123268893Y-120397255D01*
X124040452Y-120717634D01*
X124875883Y-120718363D01*
X125648000Y-120399331D01*
X126239255Y-119809107D01*
X126559634Y-119037548D01*
X126560363Y-118202117D01*
X126485941Y-118022000D01*
X128942205Y-118022000D01*
X128942205Y-119722000D01*
X128977069Y-119907289D01*
X129086575Y-120077465D01*
X129253661Y-120191630D01*
X129452000Y-120231795D01*
X131152000Y-120231795D01*
X131337289Y-120196931D01*
X131507465Y-120087425D01*
X131621630Y-119920339D01*
X131661795Y-119722000D01*
X131661795Y-119515391D01*
X131887406Y-119853042D01*
X132325377Y-120145685D01*
X132842000Y-120248448D01*
X133358623Y-120145685D01*
X133796594Y-119853042D01*
X134089237Y-119415071D01*
X134112000Y-119300634D01*
X134134763Y-119415071D01*
X134427406Y-119853042D01*
X134865377Y-120145685D01*
X135382000Y-120248448D01*
X135898623Y-120145685D01*
X136336594Y-119853042D01*
X136629237Y-119415071D01*
X136652000Y-119300634D01*
X136674763Y-119415071D01*
X136967406Y-119853042D01*
X137405377Y-120145685D01*
X137922000Y-120248448D01*
X138438623Y-120145685D01*
X138876594Y-119853042D01*
X139169237Y-119415071D01*
X139192000Y-119300634D01*
X139214763Y-119415071D01*
X139507406Y-119853042D01*
X139945377Y-120145685D01*
X140462000Y-120248448D01*
X140978623Y-120145685D01*
X141416594Y-119853042D01*
X141709237Y-119415071D01*
X141732000Y-119300634D01*
X141754763Y-119415071D01*
X142047406Y-119853042D01*
X142485377Y-120145685D01*
X143002000Y-120248448D01*
X143518623Y-120145685D01*
X143956594Y-119853042D01*
X144249237Y-119415071D01*
X144272000Y-119300634D01*
X144294763Y-119415071D01*
X144587406Y-119853042D01*
X145025377Y-120145685D01*
X145542000Y-120248448D01*
X146058623Y-120145685D01*
X146496594Y-119853042D01*
X146789237Y-119415071D01*
X146812000Y-119300634D01*
X146834763Y-119415071D01*
X147127406Y-119853042D01*
X147565377Y-120145685D01*
X148082000Y-120248448D01*
X148598623Y-120145685D01*
X149036594Y-119853042D01*
X149329237Y-119415071D01*
X149355119Y-119284956D01*
X149526341Y-119660704D01*
X149911567Y-120019958D01*
X150312625Y-120186072D01*
X150522000Y-120092912D01*
X150522000Y-118972000D01*
X150502000Y-118972000D01*
X150502000Y-118772000D01*
X150522000Y-118772000D01*
X150522000Y-117651088D01*
X150312625Y-117557928D01*
X149911567Y-117724042D01*
X149526341Y-118083296D01*
X149355119Y-118459044D01*
X149329237Y-118328929D01*
X149036594Y-117890958D01*
X148598623Y-117598315D01*
X148082000Y-117495552D01*
X147565377Y-117598315D01*
X147127406Y-117890958D01*
X146834763Y-118328929D01*
X146812000Y-118443366D01*
X146789237Y-118328929D01*
X146496594Y-117890958D01*
X146058623Y-117598315D01*
X145542000Y-117495552D01*
X145025377Y-117598315D01*
X144587406Y-117890958D01*
X144294763Y-118328929D01*
X144272000Y-118443366D01*
X144249237Y-118328929D01*
X143956594Y-117890958D01*
X143518623Y-117598315D01*
X143002000Y-117495552D01*
X142485377Y-117598315D01*
X142047406Y-117890958D01*
X141754763Y-118328929D01*
X141732000Y-118443366D01*
X141709237Y-118328929D01*
X141416594Y-117890958D01*
X140978623Y-117598315D01*
X140462000Y-117495552D01*
X139945377Y-117598315D01*
X139507406Y-117890958D01*
X139214763Y-118328929D01*
X139192000Y-118443366D01*
X139169237Y-118328929D01*
X138876594Y-117890958D01*
X138547000Y-117670730D01*
X138547000Y-114204432D01*
X141693861Y-114204432D01*
X141815397Y-114498572D01*
X142040245Y-114723812D01*
X142334172Y-114845861D01*
X142652432Y-114846139D01*
X142946572Y-114724603D01*
X143000268Y-114671000D01*
X148077116Y-114671000D01*
X150987143Y-117581027D01*
X150931375Y-117557928D01*
X150722000Y-117651088D01*
X150722000Y-118772000D01*
X150742000Y-118772000D01*
X150742000Y-118972000D01*
X150722000Y-118972000D01*
X150722000Y-120092912D01*
X150931375Y-120186072D01*
X151332433Y-120019958D01*
X151717659Y-119660704D01*
X151888881Y-119284956D01*
X151914763Y-119415071D01*
X152207406Y-119853042D01*
X152645377Y-120145685D01*
X153162000Y-120248448D01*
X153678623Y-120145685D01*
X154116594Y-119853042D01*
X154409237Y-119415071D01*
X154485060Y-119033883D01*
X167571637Y-119033883D01*
X167890669Y-119806000D01*
X168480893Y-120397255D01*
X169252452Y-120717634D01*
X170087883Y-120718363D01*
X170860000Y-120399331D01*
X171451255Y-119809107D01*
X171771634Y-119037548D01*
X171772363Y-118202117D01*
X171453331Y-117430000D01*
X170863107Y-116838745D01*
X170091548Y-116518366D01*
X169256117Y-116517637D01*
X168484000Y-116836669D01*
X167892745Y-117426893D01*
X167572366Y-118198452D01*
X167571637Y-119033883D01*
X154485060Y-119033883D01*
X154512000Y-118898448D01*
X154512000Y-118845552D01*
X154409237Y-118328929D01*
X154116594Y-117890958D01*
X153678623Y-117598315D01*
X153162000Y-117495552D01*
X152751157Y-117577274D01*
X148777942Y-113604058D01*
X148575177Y-113468575D01*
X148336000Y-113421000D01*
X143000475Y-113421000D01*
X142947755Y-113368188D01*
X142653828Y-113246139D01*
X142335568Y-113245861D01*
X142041428Y-113367397D01*
X141816188Y-113592245D01*
X141694139Y-113886172D01*
X141693861Y-114204432D01*
X138547000Y-114204432D01*
X138547000Y-107954884D01*
X139958884Y-106543000D01*
X147575525Y-106543000D01*
X147628245Y-106595812D01*
X147922172Y-106717861D01*
X148240432Y-106718139D01*
X148534572Y-106596603D01*
X148759812Y-106371755D01*
X148881861Y-106077828D01*
X148882139Y-105759568D01*
X148760603Y-105465428D01*
X148535755Y-105240188D01*
X148241828Y-105118139D01*
X148120034Y-105118033D01*
X148120139Y-104997568D01*
X147998603Y-104703428D01*
X147773755Y-104478188D01*
X147479828Y-104356139D01*
X147358034Y-104356033D01*
X147358139Y-104235568D01*
X147236603Y-103941428D01*
X147011755Y-103716188D01*
X146717828Y-103594139D01*
X146596034Y-103594033D01*
X146596139Y-103473568D01*
X146548739Y-103358850D01*
X146618942Y-103311942D01*
X150378000Y-99552883D01*
X150378000Y-108585000D01*
X150425575Y-108824177D01*
X150561058Y-109026942D01*
X151472926Y-109938810D01*
X151472861Y-110013432D01*
X151594397Y-110307572D01*
X151819245Y-110532812D01*
X152113172Y-110654861D01*
X152431432Y-110655139D01*
X152725572Y-110533603D01*
X152950812Y-110308755D01*
X153072861Y-110014828D01*
X153073139Y-109696568D01*
X152951603Y-109402428D01*
X152726755Y-109177188D01*
X152432828Y-109055139D01*
X152356957Y-109055073D01*
X151628000Y-108326116D01*
X151628000Y-98550475D01*
X151680812Y-98497755D01*
X151802861Y-98203828D01*
X151803139Y-97885568D01*
X151681603Y-97591428D01*
X151456755Y-97366188D01*
X151162828Y-97244139D01*
X150844568Y-97243861D01*
X150550428Y-97365397D01*
X150325188Y-97590245D01*
X150203139Y-97884172D01*
X150203073Y-97960044D01*
X145918116Y-102245000D01*
X142488605Y-102245000D01*
X142531861Y-102140828D01*
X142532139Y-101822568D01*
X142410603Y-101528428D01*
X142185755Y-101303188D01*
X141891828Y-101181139D01*
X141815956Y-101181073D01*
X140649942Y-100015058D01*
X140637927Y-100007030D01*
X140753861Y-99727828D01*
X140754139Y-99409568D01*
X140632603Y-99115428D01*
X140407755Y-98890188D01*
X140113828Y-98768139D01*
X140037956Y-98768073D01*
X136007000Y-94737116D01*
X136007000Y-91946475D01*
X136059812Y-91893755D01*
X136181861Y-91599828D01*
X136182139Y-91281568D01*
X136060603Y-90987428D01*
X135835755Y-90762188D01*
X135541828Y-90640139D01*
X135223568Y-90639861D01*
X134929428Y-90761397D01*
X134704188Y-90986245D01*
X134582139Y-91280172D01*
X134581861Y-91598432D01*
X134703397Y-91892572D01*
X134757000Y-91946268D01*
X134757000Y-94503116D01*
X132705000Y-92451116D01*
X132705000Y-87628475D01*
X132757812Y-87575755D01*
X132879861Y-87281828D01*
X132879862Y-87280432D01*
X134581861Y-87280432D01*
X134703397Y-87574572D01*
X134928245Y-87799812D01*
X135222172Y-87921861D01*
X135540432Y-87922139D01*
X135834572Y-87800603D01*
X136059812Y-87575755D01*
X136181861Y-87281828D01*
X136181927Y-87205957D01*
X137631452Y-85756432D01*
X145249861Y-85756432D01*
X145371397Y-86050572D01*
X145596245Y-86275812D01*
X145890172Y-86397861D01*
X145966043Y-86397927D01*
X146695000Y-87126884D01*
X146695000Y-93981525D01*
X146642188Y-94034245D01*
X146520139Y-94328172D01*
X146519861Y-94646432D01*
X146641397Y-94940572D01*
X146866245Y-95165812D01*
X147160172Y-95287861D01*
X147478432Y-95288139D01*
X147772572Y-95166603D01*
X147997812Y-94941755D01*
X148119861Y-94647828D01*
X148120139Y-94329568D01*
X147998603Y-94035428D01*
X147945000Y-93981732D01*
X147945000Y-90143285D01*
X158402400Y-90143285D01*
X158402400Y-90196715D01*
X158506198Y-90718542D01*
X158801789Y-91160926D01*
X159219454Y-91440000D01*
X158801789Y-91719074D01*
X158506198Y-92161458D01*
X158402400Y-92683285D01*
X158402400Y-92736715D01*
X158506198Y-93258542D01*
X158801789Y-93700926D01*
X159219454Y-93980000D01*
X158801789Y-94259074D01*
X158506198Y-94701458D01*
X158402400Y-95223285D01*
X158402400Y-95276715D01*
X158506198Y-95798542D01*
X158801789Y-96240926D01*
X159219454Y-96520000D01*
X158801789Y-96799074D01*
X158506198Y-97241458D01*
X158402400Y-97763285D01*
X158402400Y-97816715D01*
X158506198Y-98338542D01*
X158801789Y-98780926D01*
X159219454Y-99060000D01*
X158801789Y-99339074D01*
X158506198Y-99781458D01*
X158402400Y-100303285D01*
X158402400Y-100356715D01*
X158506198Y-100878542D01*
X158801789Y-101320926D01*
X159219454Y-101600000D01*
X158801789Y-101879074D01*
X158506198Y-102321458D01*
X158402400Y-102843285D01*
X158402400Y-102896715D01*
X158506198Y-103418542D01*
X158801789Y-103860926D01*
X159219454Y-104140000D01*
X158801789Y-104419074D01*
X158506198Y-104861458D01*
X158402400Y-105383285D01*
X158402400Y-105436715D01*
X158506198Y-105958542D01*
X158801789Y-106400926D01*
X159219454Y-106680000D01*
X158801789Y-106959074D01*
X158506198Y-107401458D01*
X158402400Y-107923285D01*
X158402400Y-107976715D01*
X158506198Y-108498542D01*
X158801789Y-108940926D01*
X159219454Y-109220000D01*
X158801789Y-109499074D01*
X158506198Y-109941458D01*
X158402400Y-110463285D01*
X158402400Y-110516715D01*
X158506198Y-111038542D01*
X158801789Y-111480926D01*
X159219454Y-111760000D01*
X158801789Y-112039074D01*
X158506198Y-112481458D01*
X158402400Y-113003285D01*
X158402400Y-113056715D01*
X158506198Y-113578542D01*
X158801789Y-114020926D01*
X159244173Y-114316517D01*
X159766000Y-114420315D01*
X160287827Y-114316517D01*
X160730211Y-114020926D01*
X160932605Y-113718021D01*
X160932605Y-113893600D01*
X160967469Y-114078889D01*
X161076975Y-114249065D01*
X161244061Y-114363230D01*
X161442400Y-114403395D01*
X162795511Y-114403395D01*
X163642058Y-115249942D01*
X163844823Y-115385425D01*
X164084000Y-115433001D01*
X164084005Y-115433000D01*
X170434000Y-115433000D01*
X170673177Y-115385425D01*
X170875942Y-115249942D01*
X171383939Y-114741944D01*
X171383942Y-114741942D01*
X171519425Y-114539177D01*
X171567000Y-114300000D01*
X171567000Y-90932005D01*
X171567001Y-90932000D01*
X171519425Y-90692823D01*
X171383942Y-90490058D01*
X170621942Y-89728058D01*
X170419177Y-89592575D01*
X170180000Y-89545000D01*
X169857270Y-89545000D01*
X169637042Y-89215406D01*
X169199071Y-88922763D01*
X168682448Y-88820000D01*
X168629552Y-88820000D01*
X168112929Y-88922763D01*
X167674958Y-89215406D01*
X167382315Y-89653377D01*
X167279552Y-90170000D01*
X167382315Y-90686623D01*
X167674958Y-91124594D01*
X168112929Y-91417237D01*
X168243044Y-91443119D01*
X167867296Y-91614341D01*
X167508042Y-91999567D01*
X167341928Y-92400625D01*
X167435088Y-92610000D01*
X168556000Y-92610000D01*
X168556000Y-92590000D01*
X168756000Y-92590000D01*
X168756000Y-92610000D01*
X169876912Y-92610000D01*
X169970072Y-92400625D01*
X169803958Y-91999567D01*
X169444704Y-91614341D01*
X169068956Y-91443119D01*
X169199071Y-91417237D01*
X169637042Y-91124594D01*
X169857270Y-90795000D01*
X169921116Y-90795000D01*
X170317000Y-91190884D01*
X170317000Y-114041117D01*
X170175116Y-114183000D01*
X169904118Y-114183000D01*
X169975630Y-114078339D01*
X170015795Y-113880000D01*
X170015795Y-112180000D01*
X169980931Y-111994711D01*
X169871425Y-111824535D01*
X169704339Y-111710370D01*
X169506000Y-111670205D01*
X169299391Y-111670205D01*
X169637042Y-111444594D01*
X169929685Y-111006623D01*
X170032448Y-110490000D01*
X169929685Y-109973377D01*
X169637042Y-109535406D01*
X169199071Y-109242763D01*
X169084634Y-109220000D01*
X169199071Y-109197237D01*
X169637042Y-108904594D01*
X169929685Y-108466623D01*
X170032448Y-107950000D01*
X169929685Y-107433377D01*
X169637042Y-106995406D01*
X169199071Y-106702763D01*
X169084634Y-106680000D01*
X169199071Y-106657237D01*
X169637042Y-106364594D01*
X169929685Y-105926623D01*
X170032448Y-105410000D01*
X169929685Y-104893377D01*
X169637042Y-104455406D01*
X169199071Y-104162763D01*
X169084634Y-104140000D01*
X169199071Y-104117237D01*
X169637042Y-103824594D01*
X169929685Y-103386623D01*
X170032448Y-102870000D01*
X169929685Y-102353377D01*
X169637042Y-101915406D01*
X169199071Y-101622763D01*
X169084634Y-101600000D01*
X169199071Y-101577237D01*
X169637042Y-101284594D01*
X169929685Y-100846623D01*
X170032448Y-100330000D01*
X169929685Y-99813377D01*
X169637042Y-99375406D01*
X169199071Y-99082763D01*
X169084634Y-99060000D01*
X169199071Y-99037237D01*
X169637042Y-98744594D01*
X169929685Y-98306623D01*
X170032448Y-97790000D01*
X169929685Y-97273377D01*
X169637042Y-96835406D01*
X169199071Y-96542763D01*
X169068956Y-96516881D01*
X169444704Y-96345659D01*
X169803958Y-95960433D01*
X169970072Y-95559375D01*
X169876912Y-95350000D01*
X168756000Y-95350000D01*
X168756000Y-95370000D01*
X168556000Y-95370000D01*
X168556000Y-95350000D01*
X167435088Y-95350000D01*
X167341928Y-95559375D01*
X167508042Y-95960433D01*
X167867296Y-96345659D01*
X168243044Y-96516881D01*
X168112929Y-96542763D01*
X167674958Y-96835406D01*
X167382315Y-97273377D01*
X167279552Y-97790000D01*
X167382315Y-98306623D01*
X167674958Y-98744594D01*
X168112929Y-99037237D01*
X168227366Y-99060000D01*
X168112929Y-99082763D01*
X167674958Y-99375406D01*
X167382315Y-99813377D01*
X167279552Y-100330000D01*
X167382315Y-100846623D01*
X167674958Y-101284594D01*
X168112929Y-101577237D01*
X168227366Y-101600000D01*
X168112929Y-101622763D01*
X167674958Y-101915406D01*
X167382315Y-102353377D01*
X167279552Y-102870000D01*
X167382315Y-103386623D01*
X167674958Y-103824594D01*
X168112929Y-104117237D01*
X168227366Y-104140000D01*
X168112929Y-104162763D01*
X167674958Y-104455406D01*
X167382315Y-104893377D01*
X167279552Y-105410000D01*
X167382315Y-105926623D01*
X167674958Y-106364594D01*
X168112929Y-106657237D01*
X168227366Y-106680000D01*
X168112929Y-106702763D01*
X167674958Y-106995406D01*
X167382315Y-107433377D01*
X167279552Y-107950000D01*
X167382315Y-108466623D01*
X167480677Y-108613832D01*
X167386000Y-108595000D01*
X163481882Y-108595000D01*
X163633550Y-108261510D01*
X163540937Y-108050000D01*
X162406000Y-108050000D01*
X162406000Y-108070000D01*
X162206000Y-108070000D01*
X162206000Y-108050000D01*
X162186000Y-108050000D01*
X162186000Y-107850000D01*
X162206000Y-107850000D01*
X162206000Y-106715443D01*
X162125380Y-106680000D01*
X162206000Y-106644557D01*
X162206000Y-105510000D01*
X162406000Y-105510000D01*
X162406000Y-106644557D01*
X162486620Y-106680000D01*
X162406000Y-106715443D01*
X162406000Y-107850000D01*
X163540937Y-107850000D01*
X163633550Y-107638490D01*
X163413287Y-107154171D01*
X163024449Y-106791009D01*
X162756434Y-106680000D01*
X163024449Y-106568991D01*
X163413287Y-106205829D01*
X163633550Y-105721510D01*
X163540937Y-105510000D01*
X162406000Y-105510000D01*
X162206000Y-105510000D01*
X162186000Y-105510000D01*
X162186000Y-105310000D01*
X162206000Y-105310000D01*
X162206000Y-104175443D01*
X162125380Y-104140000D01*
X162206000Y-104104557D01*
X162206000Y-102970000D01*
X162406000Y-102970000D01*
X162406000Y-104104557D01*
X162486620Y-104140000D01*
X162406000Y-104175443D01*
X162406000Y-105310000D01*
X163540937Y-105310000D01*
X163633550Y-105098490D01*
X163413287Y-104614171D01*
X163024449Y-104251009D01*
X162756434Y-104140000D01*
X163024449Y-104028991D01*
X163413287Y-103665829D01*
X163633550Y-103181510D01*
X163540937Y-102970000D01*
X162406000Y-102970000D01*
X162206000Y-102970000D01*
X162186000Y-102970000D01*
X162186000Y-102770000D01*
X162206000Y-102770000D01*
X162206000Y-101635443D01*
X162125380Y-101600000D01*
X162206000Y-101564557D01*
X162206000Y-100430000D01*
X162406000Y-100430000D01*
X162406000Y-101564557D01*
X162486620Y-101600000D01*
X162406000Y-101635443D01*
X162406000Y-102770000D01*
X163540937Y-102770000D01*
X163633550Y-102558490D01*
X163413287Y-102074171D01*
X163024449Y-101711009D01*
X162756434Y-101600000D01*
X163024449Y-101488991D01*
X163413287Y-101125829D01*
X163633550Y-100641510D01*
X163540937Y-100430000D01*
X162406000Y-100430000D01*
X162206000Y-100430000D01*
X162186000Y-100430000D01*
X162186000Y-100230000D01*
X162206000Y-100230000D01*
X162206000Y-99095443D01*
X162125380Y-99060000D01*
X162206000Y-99024557D01*
X162206000Y-97890000D01*
X162406000Y-97890000D01*
X162406000Y-99024557D01*
X162486620Y-99060000D01*
X162406000Y-99095443D01*
X162406000Y-100230000D01*
X163540937Y-100230000D01*
X163633550Y-100018490D01*
X163413287Y-99534171D01*
X163024449Y-99171009D01*
X162756434Y-99060000D01*
X163024449Y-98948991D01*
X163413287Y-98585829D01*
X163633550Y-98101510D01*
X163540937Y-97890000D01*
X162406000Y-97890000D01*
X162206000Y-97890000D01*
X162186000Y-97890000D01*
X162186000Y-97690000D01*
X162206000Y-97690000D01*
X162206000Y-96555443D01*
X162125380Y-96520000D01*
X162206000Y-96484557D01*
X162206000Y-95350000D01*
X162406000Y-95350000D01*
X162406000Y-96484557D01*
X162486620Y-96520000D01*
X162406000Y-96555443D01*
X162406000Y-97690000D01*
X163540937Y-97690000D01*
X163633550Y-97478490D01*
X163413287Y-96994171D01*
X163024449Y-96631009D01*
X162756434Y-96520000D01*
X163024449Y-96408991D01*
X163413287Y-96045829D01*
X163633550Y-95561510D01*
X163540937Y-95350000D01*
X162406000Y-95350000D01*
X162206000Y-95350000D01*
X162186000Y-95350000D01*
X162186000Y-95150000D01*
X162206000Y-95150000D01*
X162206000Y-94015443D01*
X162125380Y-93980000D01*
X162206000Y-93944557D01*
X162206000Y-92810000D01*
X162406000Y-92810000D01*
X162406000Y-93944557D01*
X162486620Y-93980000D01*
X162406000Y-94015443D01*
X162406000Y-95150000D01*
X163540937Y-95150000D01*
X163633550Y-94938490D01*
X163413287Y-94454171D01*
X163024449Y-94091009D01*
X162756434Y-93980000D01*
X163024449Y-93868991D01*
X163413287Y-93505829D01*
X163633550Y-93021510D01*
X163632616Y-93019375D01*
X167341928Y-93019375D01*
X167508042Y-93420433D01*
X167867296Y-93805659D01*
X168249887Y-93980000D01*
X167867296Y-94154341D01*
X167508042Y-94539567D01*
X167341928Y-94940625D01*
X167435088Y-95150000D01*
X168556000Y-95150000D01*
X168556000Y-94028700D01*
X168446100Y-93980000D01*
X168556000Y-93931300D01*
X168556000Y-92810000D01*
X168756000Y-92810000D01*
X168756000Y-93931300D01*
X168865900Y-93980000D01*
X168756000Y-94028700D01*
X168756000Y-95150000D01*
X169876912Y-95150000D01*
X169970072Y-94940625D01*
X169803958Y-94539567D01*
X169444704Y-94154341D01*
X169062113Y-93980000D01*
X169444704Y-93805659D01*
X169803958Y-93420433D01*
X169970072Y-93019375D01*
X169876912Y-92810000D01*
X168756000Y-92810000D01*
X168556000Y-92810000D01*
X167435088Y-92810000D01*
X167341928Y-93019375D01*
X163632616Y-93019375D01*
X163540937Y-92810000D01*
X162406000Y-92810000D01*
X162206000Y-92810000D01*
X162186000Y-92810000D01*
X162186000Y-92610000D01*
X162206000Y-92610000D01*
X162206000Y-91475443D01*
X162125380Y-91440000D01*
X162206000Y-91404557D01*
X162206000Y-90270000D01*
X162406000Y-90270000D01*
X162406000Y-91404557D01*
X162486620Y-91440000D01*
X162406000Y-91475443D01*
X162406000Y-92610000D01*
X163540937Y-92610000D01*
X163633550Y-92398490D01*
X163413287Y-91914171D01*
X163024449Y-91551009D01*
X162756434Y-91440000D01*
X163024449Y-91328991D01*
X163413287Y-90965829D01*
X163633550Y-90481510D01*
X163540937Y-90270000D01*
X162406000Y-90270000D01*
X162206000Y-90270000D01*
X162186000Y-90270000D01*
X162186000Y-90070000D01*
X162206000Y-90070000D01*
X162206000Y-88935443D01*
X162406000Y-88935443D01*
X162406000Y-90070000D01*
X163540937Y-90070000D01*
X163633550Y-89858490D01*
X163413287Y-89374171D01*
X163024449Y-89011009D01*
X162617508Y-88842458D01*
X162406000Y-88935443D01*
X162206000Y-88935443D01*
X161994492Y-88842458D01*
X161587551Y-89011009D01*
X161198713Y-89374171D01*
X161044195Y-89713928D01*
X161025802Y-89621458D01*
X160730211Y-89179074D01*
X160287827Y-88883483D01*
X159766000Y-88779685D01*
X159244173Y-88883483D01*
X158801789Y-89179074D01*
X158506198Y-89621458D01*
X158402400Y-90143285D01*
X147945000Y-90143285D01*
X147945000Y-86868000D01*
X147905502Y-86669428D01*
X147897425Y-86628822D01*
X147761942Y-86426058D01*
X147099884Y-85764000D01*
X151802205Y-85764000D01*
X151802205Y-87464000D01*
X151837069Y-87649289D01*
X151946575Y-87819465D01*
X152113661Y-87933630D01*
X152312000Y-87973795D01*
X154012000Y-87973795D01*
X154197289Y-87938931D01*
X154367465Y-87829425D01*
X154481630Y-87662339D01*
X154521795Y-87464000D01*
X154521795Y-85764000D01*
X154486931Y-85578711D01*
X154377425Y-85408535D01*
X154210339Y-85294370D01*
X154012000Y-85254205D01*
X153765168Y-85254205D01*
X153950704Y-85169659D01*
X154309958Y-84784433D01*
X154476072Y-84383375D01*
X154410447Y-84235883D01*
X167571637Y-84235883D01*
X167890669Y-85008000D01*
X168480893Y-85599255D01*
X169252452Y-85919634D01*
X170087883Y-85920363D01*
X170860000Y-85601331D01*
X171451255Y-85011107D01*
X171771634Y-84239548D01*
X171772363Y-83404117D01*
X171453331Y-82632000D01*
X170863107Y-82040745D01*
X170091548Y-81720366D01*
X169256117Y-81719637D01*
X168484000Y-82038669D01*
X167892745Y-82628893D01*
X167572366Y-83400452D01*
X167571637Y-84235883D01*
X154410447Y-84235883D01*
X154382912Y-84174000D01*
X153262000Y-84174000D01*
X153262000Y-84194000D01*
X153062000Y-84194000D01*
X153062000Y-84174000D01*
X151941088Y-84174000D01*
X151847928Y-84383375D01*
X152014042Y-84784433D01*
X152373296Y-85169659D01*
X152558832Y-85254205D01*
X152312000Y-85254205D01*
X152126711Y-85289069D01*
X151956535Y-85398575D01*
X151842370Y-85565661D01*
X151802205Y-85764000D01*
X147099884Y-85764000D01*
X146850074Y-85514190D01*
X146850139Y-85439568D01*
X146728603Y-85145428D01*
X146503755Y-84920188D01*
X146209828Y-84798139D01*
X145891568Y-84797861D01*
X145597428Y-84919397D01*
X145372188Y-85144245D01*
X145250139Y-85438172D01*
X145249861Y-85756432D01*
X137631452Y-85756432D01*
X138942884Y-84445000D01*
X150115525Y-84445000D01*
X150168245Y-84497812D01*
X150462172Y-84619861D01*
X150780432Y-84620139D01*
X151074572Y-84498603D01*
X151299812Y-84273755D01*
X151421861Y-83979828D01*
X151422048Y-83764625D01*
X151847928Y-83764625D01*
X151941088Y-83974000D01*
X153062000Y-83974000D01*
X153062000Y-82852700D01*
X153262000Y-82852700D01*
X153262000Y-83974000D01*
X154382912Y-83974000D01*
X154476072Y-83764625D01*
X154309958Y-83363567D01*
X153950704Y-82978341D01*
X153471377Y-82759919D01*
X153262000Y-82852700D01*
X153062000Y-82852700D01*
X152852623Y-82759919D01*
X152373296Y-82978341D01*
X152014042Y-83363567D01*
X151847928Y-83764625D01*
X151422048Y-83764625D01*
X151422139Y-83661568D01*
X151300603Y-83367428D01*
X151247000Y-83313732D01*
X151247000Y-82808884D01*
X151896884Y-82159000D01*
X163063116Y-82159000D01*
X164045926Y-83141809D01*
X164045861Y-83216432D01*
X164167397Y-83510572D01*
X164392245Y-83735812D01*
X164686172Y-83857861D01*
X165004432Y-83858139D01*
X165298572Y-83736603D01*
X165523812Y-83511755D01*
X165645861Y-83217828D01*
X165646139Y-82899568D01*
X165524603Y-82605428D01*
X165299755Y-82380188D01*
X165005828Y-82258139D01*
X164929956Y-82258073D01*
X163763942Y-81092058D01*
X163561177Y-80956575D01*
X163322000Y-80909000D01*
X151638000Y-80909000D01*
X151398823Y-80956575D01*
X151196058Y-81092058D01*
X150180058Y-82108058D01*
X150044575Y-82310823D01*
X149997000Y-82550000D01*
X149997000Y-83195000D01*
X138684000Y-83195000D01*
X138444822Y-83242575D01*
X138242058Y-83378058D01*
X135298190Y-86321926D01*
X135223568Y-86321861D01*
X134929428Y-86443397D01*
X134704188Y-86668245D01*
X134582139Y-86962172D01*
X134581861Y-87280432D01*
X132879862Y-87280432D01*
X132880139Y-86963568D01*
X132758603Y-86669428D01*
X132533755Y-86444188D01*
X132239828Y-86322139D01*
X131921568Y-86321861D01*
X131627428Y-86443397D01*
X131402188Y-86668245D01*
X131280139Y-86962172D01*
X131279861Y-87280432D01*
X131401397Y-87574572D01*
X131455000Y-87628268D01*
X131455000Y-92710000D01*
X131502575Y-92949177D01*
X131638058Y-93151942D01*
X139385056Y-100898939D01*
X139385058Y-100898942D01*
X139587823Y-101034425D01*
X139827000Y-101082000D01*
X139949116Y-101082000D01*
X140931926Y-102064809D01*
X140931861Y-102139432D01*
X140975481Y-102245000D01*
X136144005Y-102245000D01*
X136144000Y-102244999D01*
X135904823Y-102292575D01*
X135702058Y-102428058D01*
X134776842Y-103353274D01*
X134366000Y-103271552D01*
X133849377Y-103374315D01*
X133411406Y-103666958D01*
X133176000Y-104019268D01*
X133176000Y-103698544D01*
X133099880Y-103514773D01*
X132959227Y-103374121D01*
X132775456Y-103298000D01*
X132051000Y-103298000D01*
X131926000Y-103423000D01*
X131926000Y-104548000D01*
X131946000Y-104548000D01*
X131946000Y-104748000D01*
X131926000Y-104748000D01*
X131926000Y-105873000D01*
X132051000Y-105998000D01*
X132775456Y-105998000D01*
X132959227Y-105921879D01*
X133099880Y-105781227D01*
X133176000Y-105597456D01*
X133176000Y-105276732D01*
X133411406Y-105629042D01*
X133849377Y-105921685D01*
X134366000Y-106024448D01*
X134882623Y-105921685D01*
X135320594Y-105629042D01*
X135613237Y-105191071D01*
X135716000Y-104674448D01*
X135716000Y-104621552D01*
X135643054Y-104254830D01*
X136402884Y-103495000D01*
X137302116Y-103495000D01*
X135702058Y-105095058D01*
X135566575Y-105297823D01*
X135519000Y-105537000D01*
X135519000Y-114676117D01*
X135250116Y-114945000D01*
X133604000Y-114945000D01*
X133364822Y-114992575D01*
X133162058Y-115128058D01*
X130777911Y-117512205D01*
X129452000Y-117512205D01*
X129266711Y-117547069D01*
X129096535Y-117656575D01*
X128982370Y-117823661D01*
X128942205Y-118022000D01*
X126485941Y-118022000D01*
X126241331Y-117430000D01*
X125651107Y-116838745D01*
X124879548Y-116518366D01*
X124044117Y-116517637D01*
X123272000Y-116836669D01*
X122680745Y-117426893D01*
X122360366Y-118198452D01*
X122359637Y-119033883D01*
X121454000Y-119033883D01*
X121454000Y-109338393D01*
X123071028Y-109338393D01*
X123235742Y-109622527D01*
X123973772Y-109919798D01*
X124769384Y-109912010D01*
X125468258Y-109622527D01*
X125632972Y-109338393D01*
X124352000Y-108057421D01*
X123071028Y-109338393D01*
X121454000Y-109338393D01*
X121454000Y-107537772D01*
X122348202Y-107537772D01*
X122355990Y-108333384D01*
X122645473Y-109032258D01*
X122929607Y-109196972D01*
X124210579Y-107916000D01*
X124493421Y-107916000D01*
X125774393Y-109196972D01*
X126058527Y-109032258D01*
X126355798Y-108294228D01*
X126348010Y-107498616D01*
X126058527Y-106799742D01*
X125774393Y-106635028D01*
X124493421Y-107916000D01*
X124210579Y-107916000D01*
X122929607Y-106635028D01*
X122645473Y-106799742D01*
X122348202Y-107537772D01*
X121454000Y-107537772D01*
X121454000Y-106493607D01*
X123071028Y-106493607D01*
X124352000Y-107774579D01*
X125632972Y-106493607D01*
X125468258Y-106209473D01*
X124730228Y-105912202D01*
X123934616Y-105919990D01*
X123235742Y-106209473D01*
X123071028Y-106493607D01*
X121454000Y-106493607D01*
X121454000Y-104873000D01*
X130476000Y-104873000D01*
X130476000Y-105597456D01*
X130552120Y-105781227D01*
X130692773Y-105921879D01*
X130876544Y-105998000D01*
X131601000Y-105998000D01*
X131726000Y-105873000D01*
X131726000Y-104748000D01*
X130601000Y-104748000D01*
X130476000Y-104873000D01*
X121454000Y-104873000D01*
X121454000Y-103698544D01*
X130476000Y-103698544D01*
X130476000Y-104423000D01*
X130601000Y-104548000D01*
X131726000Y-104548000D01*
X131726000Y-103423000D01*
X131601000Y-103298000D01*
X130876544Y-103298000D01*
X130692773Y-103374121D01*
X130552120Y-103514773D01*
X130476000Y-103698544D01*
X121454000Y-103698544D01*
X121454000Y-96198393D01*
X123071028Y-96198393D01*
X123235742Y-96482527D01*
X123973772Y-96779798D01*
X124769384Y-96772010D01*
X125468258Y-96482527D01*
X125632972Y-96198393D01*
X124352000Y-94917421D01*
X123071028Y-96198393D01*
X121454000Y-96198393D01*
X121454000Y-94397772D01*
X122348202Y-94397772D01*
X122355990Y-95193384D01*
X122645473Y-95892258D01*
X122929607Y-96056972D01*
X124210579Y-94776000D01*
X124493421Y-94776000D01*
X125774393Y-96056972D01*
X126058527Y-95892258D01*
X126355798Y-95154228D01*
X126348010Y-94358616D01*
X126058527Y-93659742D01*
X125774393Y-93495028D01*
X124493421Y-94776000D01*
X124210579Y-94776000D01*
X122929607Y-93495028D01*
X122645473Y-93659742D01*
X122348202Y-94397772D01*
X121454000Y-94397772D01*
X121454000Y-93353607D01*
X123071028Y-93353607D01*
X124352000Y-94634579D01*
X125632972Y-93353607D01*
X125468258Y-93069473D01*
X124730228Y-92772202D01*
X123934616Y-92779990D01*
X123235742Y-93069473D01*
X123071028Y-93353607D01*
X121454000Y-93353607D01*
X121454000Y-90395000D01*
X128063000Y-90395000D01*
X128063000Y-91119456D01*
X128139121Y-91303227D01*
X128279773Y-91443880D01*
X128463544Y-91520000D01*
X129188000Y-91520000D01*
X129313000Y-91395000D01*
X129313000Y-90270000D01*
X129513000Y-90270000D01*
X129513000Y-91395000D01*
X129638000Y-91520000D01*
X130362456Y-91520000D01*
X130546227Y-91443880D01*
X130686879Y-91303227D01*
X130763000Y-91119456D01*
X130763000Y-90395000D01*
X130638000Y-90270000D01*
X129513000Y-90270000D01*
X129313000Y-90270000D01*
X128188000Y-90270000D01*
X128063000Y-90395000D01*
X121454000Y-90395000D01*
X121454000Y-87630000D01*
X128036552Y-87630000D01*
X128139315Y-88146623D01*
X128431958Y-88584594D01*
X128784268Y-88820000D01*
X128463544Y-88820000D01*
X128279773Y-88896120D01*
X128139121Y-89036773D01*
X128063000Y-89220544D01*
X128063000Y-89945000D01*
X128188000Y-90070000D01*
X129313000Y-90070000D01*
X129313000Y-90050000D01*
X129513000Y-90050000D01*
X129513000Y-90070000D01*
X130638000Y-90070000D01*
X130763000Y-89945000D01*
X130763000Y-89220544D01*
X130686879Y-89036773D01*
X130546227Y-88896120D01*
X130362456Y-88820000D01*
X130041732Y-88820000D01*
X130394042Y-88584594D01*
X130686685Y-88146623D01*
X130789448Y-87630000D01*
X130686685Y-87113377D01*
X130394042Y-86675406D01*
X129956071Y-86382763D01*
X129439448Y-86280000D01*
X129386552Y-86280000D01*
X128869929Y-86382763D01*
X128431958Y-86675406D01*
X128139315Y-87113377D01*
X128036552Y-87630000D01*
X121454000Y-87630000D01*
X121454000Y-84235883D01*
X122359637Y-84235883D01*
X122678669Y-85008000D01*
X123268893Y-85599255D01*
X124040452Y-85919634D01*
X124875883Y-85920363D01*
X125648000Y-85601331D01*
X126239255Y-85011107D01*
X126559634Y-84239548D01*
X126560363Y-83404117D01*
X126241331Y-82632000D01*
X125651107Y-82040745D01*
X124879548Y-81720366D01*
X124044117Y-81719637D01*
X123272000Y-82038669D01*
X122680745Y-82628893D01*
X122360366Y-83400452D01*
X122359637Y-84235883D01*
X121454000Y-84235883D01*
X121454000Y-80814000D01*
X172678000Y-80814000D01*
X172678000Y-121878000D01*
M02*
