M48
;DRILL file {KiCad 4.0.6} date 05/07/17 15:42:04
;FORMAT={-:-/ absolute / inch / decimal}
FMAT,2
INCH,TZ
T1C0.016
T2C0.039
T3C0.040
T4C0.091
%
G90
G05
M72
T1
X5.2Y-3.43
X5.33Y-3.43
X5.33Y-3.6
X5.51Y-3.92
X5.52Y-3.45
X5.52Y-4.31
X5.58Y-4.015
X5.61Y-4.43
X5.61Y-4.49
X5.74Y-4.08
X5.75Y-3.37
X5.77Y-4.11
X5.8Y-3.72
X5.8Y-4.14
X5.83Y-4.17
X5.93Y-3.3
X5.93Y-4.47
X5.945Y-3.86
X5.995Y-4.325
X6.29Y-4.77
X6.49Y-3.27
T2
X5.095Y-3.45
X5.095Y-3.55
X5.13Y-4.68
X5.19Y-4.12
X5.23Y-4.68
X5.29Y-4.12
X5.33Y-4.68
X5.43Y-4.68
X5.53Y-4.68
X5.63Y-4.68
X5.73Y-4.68
X5.83Y-4.68
X5.93Y-4.68
X6.03Y-3.31
X6.03Y-3.41
X6.03Y-4.68
X6.64Y-3.55
X6.64Y-3.65
X6.64Y-3.75
X6.64Y-3.85
X6.64Y-3.95
X6.64Y-4.05
X6.64Y-4.15
X6.64Y-4.25
X6.64Y-4.35
X6.64Y-4.45
T3
X6.29Y-3.55
X6.29Y-3.65
X6.29Y-3.75
X6.29Y-3.85
X6.29Y-3.95
X6.29Y-4.05
X6.29Y-4.15
X6.29Y-4.25
X6.29Y-4.35
X6.29Y-4.45
X6.39Y-3.55
X6.39Y-3.65
X6.39Y-3.75
X6.39Y-3.85
X6.39Y-3.95
X6.39Y-4.05
X6.39Y-4.15
X6.39Y-4.25
X6.39Y-4.35
X6.39Y-4.45
T4
X4.8957Y-3.7313
X4.8957Y-4.2487
T0
M30
