G04 #@! TF.FileFunction,Legend,Bot*
%FSLAX46Y46*%
G04 Gerber Fmt 4.6, Leading zero omitted, Abs format (unit mm)*
G04 Created by KiCad (PCBNEW 4.0.6) date 05/07/17 15:41:17*
%MOMM*%
%LPD*%
G01*
G04 APERTURE LIST*
%ADD10C,0.100000*%
%ADD11C,0.150000*%
%ADD12C,0.300000*%
%ADD13C,0.010000*%
G04 APERTURE END LIST*
D10*
D11*
X154279859Y-99721381D02*
X154279859Y-100530905D01*
X154232240Y-100626143D01*
X154184621Y-100673762D01*
X154089383Y-100721381D01*
X153898906Y-100721381D01*
X153803668Y-100673762D01*
X153756049Y-100626143D01*
X153708430Y-100530905D01*
X153708430Y-99721381D01*
X153232240Y-100054714D02*
X153232240Y-100721381D01*
X153232240Y-100149952D02*
X153184621Y-100102333D01*
X153089383Y-100054714D01*
X152946525Y-100054714D01*
X152851287Y-100102333D01*
X152803668Y-100197571D01*
X152803668Y-100721381D01*
X152327478Y-100721381D02*
X152327478Y-100054714D01*
X152327478Y-99721381D02*
X152375097Y-99769000D01*
X152327478Y-99816619D01*
X152279859Y-99769000D01*
X152327478Y-99721381D01*
X152327478Y-99816619D01*
X151946526Y-100054714D02*
X151708431Y-100721381D01*
X151470335Y-100054714D01*
X150708430Y-100673762D02*
X150803668Y-100721381D01*
X150994145Y-100721381D01*
X151089383Y-100673762D01*
X151137002Y-100578524D01*
X151137002Y-100197571D01*
X151089383Y-100102333D01*
X150994145Y-100054714D01*
X150803668Y-100054714D01*
X150708430Y-100102333D01*
X150660811Y-100197571D01*
X150660811Y-100292810D01*
X151137002Y-100388048D01*
X150232240Y-100721381D02*
X150232240Y-100054714D01*
X150232240Y-100245190D02*
X150184621Y-100149952D01*
X150137002Y-100102333D01*
X150041764Y-100054714D01*
X149946525Y-100054714D01*
X149660811Y-100673762D02*
X149565573Y-100721381D01*
X149375097Y-100721381D01*
X149279858Y-100673762D01*
X149232239Y-100578524D01*
X149232239Y-100530905D01*
X149279858Y-100435667D01*
X149375097Y-100388048D01*
X149517954Y-100388048D01*
X149613192Y-100340429D01*
X149660811Y-100245190D01*
X149660811Y-100197571D01*
X149613192Y-100102333D01*
X149517954Y-100054714D01*
X149375097Y-100054714D01*
X149279858Y-100102333D01*
X148375096Y-100721381D02*
X148375096Y-100197571D01*
X148422715Y-100102333D01*
X148517953Y-100054714D01*
X148708430Y-100054714D01*
X148803668Y-100102333D01*
X148375096Y-100673762D02*
X148470334Y-100721381D01*
X148708430Y-100721381D01*
X148803668Y-100673762D01*
X148851287Y-100578524D01*
X148851287Y-100483286D01*
X148803668Y-100388048D01*
X148708430Y-100340429D01*
X148470334Y-100340429D01*
X148375096Y-100292810D01*
X147756049Y-100721381D02*
X147851287Y-100673762D01*
X147898906Y-100578524D01*
X147898906Y-99721381D01*
X146613191Y-99721381D02*
X146613191Y-100530905D01*
X146565572Y-100626143D01*
X146517953Y-100673762D01*
X146422715Y-100721381D01*
X146232238Y-100721381D01*
X146137000Y-100673762D01*
X146089381Y-100626143D01*
X146041762Y-100530905D01*
X146041762Y-99721381D01*
X145613191Y-100673762D02*
X145470334Y-100721381D01*
X145232238Y-100721381D01*
X145137000Y-100673762D01*
X145089381Y-100626143D01*
X145041762Y-100530905D01*
X145041762Y-100435667D01*
X145089381Y-100340429D01*
X145137000Y-100292810D01*
X145232238Y-100245190D01*
X145422715Y-100197571D01*
X145517953Y-100149952D01*
X145565572Y-100102333D01*
X145613191Y-100007095D01*
X145613191Y-99911857D01*
X145565572Y-99816619D01*
X145517953Y-99769000D01*
X145422715Y-99721381D01*
X145184619Y-99721381D01*
X145041762Y-99769000D01*
X144279857Y-100197571D02*
X144137000Y-100245190D01*
X144089381Y-100292810D01*
X144041762Y-100388048D01*
X144041762Y-100530905D01*
X144089381Y-100626143D01*
X144137000Y-100673762D01*
X144232238Y-100721381D01*
X144613191Y-100721381D01*
X144613191Y-99721381D01*
X144279857Y-99721381D01*
X144184619Y-99769000D01*
X144137000Y-99816619D01*
X144089381Y-99911857D01*
X144089381Y-100007095D01*
X144137000Y-100102333D01*
X144184619Y-100149952D01*
X144279857Y-100197571D01*
X144613191Y-100197571D01*
X142994143Y-100054714D02*
X142613191Y-100054714D01*
X142851286Y-99721381D02*
X142851286Y-100578524D01*
X142803667Y-100673762D01*
X142708429Y-100721381D01*
X142613191Y-100721381D01*
X142137000Y-100721381D02*
X142232238Y-100673762D01*
X142279857Y-100626143D01*
X142327476Y-100530905D01*
X142327476Y-100245190D01*
X142279857Y-100149952D01*
X142232238Y-100102333D01*
X142137000Y-100054714D01*
X141994142Y-100054714D01*
X141898904Y-100102333D01*
X141851285Y-100149952D01*
X141803666Y-100245190D01*
X141803666Y-100530905D01*
X141851285Y-100626143D01*
X141898904Y-100673762D01*
X141994142Y-100721381D01*
X142137000Y-100721381D01*
X140184618Y-100054714D02*
X140184618Y-101054714D01*
X140184618Y-100673762D02*
X140279856Y-100721381D01*
X140470333Y-100721381D01*
X140565571Y-100673762D01*
X140613190Y-100626143D01*
X140660809Y-100530905D01*
X140660809Y-100245190D01*
X140613190Y-100149952D01*
X140565571Y-100102333D01*
X140470333Y-100054714D01*
X140279856Y-100054714D01*
X140184618Y-100102333D01*
X139279856Y-100054714D02*
X139279856Y-100721381D01*
X139708428Y-100054714D02*
X139708428Y-100578524D01*
X139660809Y-100673762D01*
X139565571Y-100721381D01*
X139422713Y-100721381D01*
X139327475Y-100673762D01*
X139279856Y-100626143D01*
X138375094Y-100721381D02*
X138375094Y-100197571D01*
X138422713Y-100102333D01*
X138517951Y-100054714D01*
X138708428Y-100054714D01*
X138803666Y-100102333D01*
X138375094Y-100673762D02*
X138470332Y-100721381D01*
X138708428Y-100721381D01*
X138803666Y-100673762D01*
X138851285Y-100578524D01*
X138851285Y-100483286D01*
X138803666Y-100388048D01*
X138708428Y-100340429D01*
X138470332Y-100340429D01*
X138375094Y-100292810D01*
X137470332Y-100721381D02*
X137470332Y-99721381D01*
X137470332Y-100673762D02*
X137565570Y-100721381D01*
X137756047Y-100721381D01*
X137851285Y-100673762D01*
X137898904Y-100626143D01*
X137946523Y-100530905D01*
X137946523Y-100245190D01*
X137898904Y-100149952D01*
X137851285Y-100102333D01*
X137756047Y-100054714D01*
X137565570Y-100054714D01*
X137470332Y-100102333D01*
X136994142Y-100721381D02*
X136994142Y-100054714D01*
X136994142Y-100245190D02*
X136946523Y-100149952D01*
X136898904Y-100102333D01*
X136803666Y-100054714D01*
X136708427Y-100054714D01*
X135946522Y-100721381D02*
X135946522Y-100197571D01*
X135994141Y-100102333D01*
X136089379Y-100054714D01*
X136279856Y-100054714D01*
X136375094Y-100102333D01*
X135946522Y-100673762D02*
X136041760Y-100721381D01*
X136279856Y-100721381D01*
X136375094Y-100673762D01*
X136422713Y-100578524D01*
X136422713Y-100483286D01*
X136375094Y-100388048D01*
X136279856Y-100340429D01*
X136041760Y-100340429D01*
X135946522Y-100292810D01*
X135613189Y-100054714D02*
X135232237Y-100054714D01*
X135470332Y-99721381D02*
X135470332Y-100578524D01*
X135422713Y-100673762D01*
X135327475Y-100721381D01*
X135232237Y-100721381D01*
X134470331Y-100054714D02*
X134470331Y-100721381D01*
X134898903Y-100054714D02*
X134898903Y-100578524D01*
X134851284Y-100673762D01*
X134756046Y-100721381D01*
X134613188Y-100721381D01*
X134517950Y-100673762D01*
X134470331Y-100626143D01*
X133994141Y-100721381D02*
X133994141Y-100054714D01*
X133994141Y-100245190D02*
X133946522Y-100149952D01*
X133898903Y-100102333D01*
X133803665Y-100054714D01*
X133708426Y-100054714D01*
X132994140Y-100673762D02*
X133089378Y-100721381D01*
X133279855Y-100721381D01*
X133375093Y-100673762D01*
X133422712Y-100578524D01*
X133422712Y-100197571D01*
X133375093Y-100102333D01*
X133279855Y-100054714D01*
X133089378Y-100054714D01*
X132994140Y-100102333D01*
X132946521Y-100197571D01*
X132946521Y-100292810D01*
X133422712Y-100388048D01*
X149660811Y-102371381D02*
X149660811Y-101704714D01*
X149660811Y-101799952D02*
X149613192Y-101752333D01*
X149517954Y-101704714D01*
X149375096Y-101704714D01*
X149279858Y-101752333D01*
X149232239Y-101847571D01*
X149232239Y-102371381D01*
X149232239Y-101847571D02*
X149184620Y-101752333D01*
X149089382Y-101704714D01*
X148946525Y-101704714D01*
X148851287Y-101752333D01*
X148803668Y-101847571D01*
X148803668Y-102371381D01*
X148184621Y-102371381D02*
X148279859Y-102323762D01*
X148327478Y-102276143D01*
X148375097Y-102180905D01*
X148375097Y-101895190D01*
X148327478Y-101799952D01*
X148279859Y-101752333D01*
X148184621Y-101704714D01*
X148041763Y-101704714D01*
X147946525Y-101752333D01*
X147898906Y-101799952D01*
X147851287Y-101895190D01*
X147851287Y-102180905D01*
X147898906Y-102276143D01*
X147946525Y-102323762D01*
X148041763Y-102371381D01*
X148184621Y-102371381D01*
X146994144Y-101704714D02*
X146994144Y-102371381D01*
X147422716Y-101704714D02*
X147422716Y-102228524D01*
X147375097Y-102323762D01*
X147279859Y-102371381D01*
X147137001Y-102371381D01*
X147041763Y-102323762D01*
X146994144Y-102276143D01*
X146565573Y-102323762D02*
X146470335Y-102371381D01*
X146279859Y-102371381D01*
X146184620Y-102323762D01*
X146137001Y-102228524D01*
X146137001Y-102180905D01*
X146184620Y-102085667D01*
X146279859Y-102038048D01*
X146422716Y-102038048D01*
X146517954Y-101990429D01*
X146565573Y-101895190D01*
X146565573Y-101847571D01*
X146517954Y-101752333D01*
X146422716Y-101704714D01*
X146279859Y-101704714D01*
X146184620Y-101752333D01*
X145327477Y-102323762D02*
X145422715Y-102371381D01*
X145613192Y-102371381D01*
X145708430Y-102323762D01*
X145756049Y-102228524D01*
X145756049Y-101847571D01*
X145708430Y-101752333D01*
X145613192Y-101704714D01*
X145422715Y-101704714D01*
X145327477Y-101752333D01*
X145279858Y-101847571D01*
X145279858Y-101942810D01*
X145756049Y-102038048D01*
X143660810Y-102323762D02*
X143756048Y-102371381D01*
X143946525Y-102371381D01*
X144041763Y-102323762D01*
X144089382Y-102276143D01*
X144137001Y-102180905D01*
X144137001Y-101895190D01*
X144089382Y-101799952D01*
X144041763Y-101752333D01*
X143946525Y-101704714D01*
X143756048Y-101704714D01*
X143660810Y-101752333D01*
X143089382Y-102371381D02*
X143184620Y-102323762D01*
X143232239Y-102276143D01*
X143279858Y-102180905D01*
X143279858Y-101895190D01*
X143232239Y-101799952D01*
X143184620Y-101752333D01*
X143089382Y-101704714D01*
X142946524Y-101704714D01*
X142851286Y-101752333D01*
X142803667Y-101799952D01*
X142756048Y-101895190D01*
X142756048Y-102180905D01*
X142803667Y-102276143D01*
X142851286Y-102323762D01*
X142946524Y-102371381D01*
X143089382Y-102371381D01*
X142327477Y-101704714D02*
X142327477Y-102371381D01*
X142327477Y-101799952D02*
X142279858Y-101752333D01*
X142184620Y-101704714D01*
X142041762Y-101704714D01*
X141946524Y-101752333D01*
X141898905Y-101847571D01*
X141898905Y-102371381D01*
X141517953Y-101704714D02*
X141279858Y-102371381D01*
X141041762Y-101704714D01*
X140279857Y-102323762D02*
X140375095Y-102371381D01*
X140565572Y-102371381D01*
X140660810Y-102323762D01*
X140708429Y-102228524D01*
X140708429Y-101847571D01*
X140660810Y-101752333D01*
X140565572Y-101704714D01*
X140375095Y-101704714D01*
X140279857Y-101752333D01*
X140232238Y-101847571D01*
X140232238Y-101942810D01*
X140708429Y-102038048D01*
X139803667Y-102371381D02*
X139803667Y-101704714D01*
X139803667Y-101895190D02*
X139756048Y-101799952D01*
X139708429Y-101752333D01*
X139613191Y-101704714D01*
X139517952Y-101704714D01*
X139327476Y-101704714D02*
X138946524Y-101704714D01*
X139184619Y-101371381D02*
X139184619Y-102228524D01*
X139137000Y-102323762D01*
X139041762Y-102371381D01*
X138946524Y-102371381D01*
X138232237Y-102323762D02*
X138327475Y-102371381D01*
X138517952Y-102371381D01*
X138613190Y-102323762D01*
X138660809Y-102228524D01*
X138660809Y-101847571D01*
X138613190Y-101752333D01*
X138517952Y-101704714D01*
X138327475Y-101704714D01*
X138232237Y-101752333D01*
X138184618Y-101847571D01*
X138184618Y-101942810D01*
X138660809Y-102038048D01*
X137756047Y-102371381D02*
X137756047Y-101704714D01*
X137756047Y-101895190D02*
X137708428Y-101799952D01*
X137660809Y-101752333D01*
X137565571Y-101704714D01*
X137470332Y-101704714D01*
X150708428Y-107702333D02*
X150756048Y-107654714D01*
X150851286Y-107511857D01*
X150898905Y-107416619D01*
X150946524Y-107273762D01*
X150994143Y-107035667D01*
X150994143Y-106845190D01*
X150946524Y-106607095D01*
X150898905Y-106464238D01*
X150851286Y-106369000D01*
X150756048Y-106226143D01*
X150708428Y-106178524D01*
X149898904Y-107273762D02*
X149994142Y-107321381D01*
X150184619Y-107321381D01*
X150279857Y-107273762D01*
X150327476Y-107226143D01*
X150375095Y-107130905D01*
X150375095Y-106845190D01*
X150327476Y-106749952D01*
X150279857Y-106702333D01*
X150184619Y-106654714D01*
X149994142Y-106654714D01*
X149898904Y-106702333D01*
X149565571Y-107702333D02*
X149517952Y-107654714D01*
X149422714Y-107511857D01*
X149375095Y-107416619D01*
X149327476Y-107273762D01*
X149279857Y-107035667D01*
X149279857Y-106845190D01*
X149327476Y-106607095D01*
X149375095Y-106464238D01*
X149422714Y-106369000D01*
X149517952Y-106226143D01*
X149565571Y-106178524D01*
X148851285Y-106416619D02*
X148803666Y-106369000D01*
X148708428Y-106321381D01*
X148470332Y-106321381D01*
X148375094Y-106369000D01*
X148327475Y-106416619D01*
X148279856Y-106511857D01*
X148279856Y-106607095D01*
X148327475Y-106749952D01*
X148898904Y-107321381D01*
X148279856Y-107321381D01*
X147660809Y-106321381D02*
X147565570Y-106321381D01*
X147470332Y-106369000D01*
X147422713Y-106416619D01*
X147375094Y-106511857D01*
X147327475Y-106702333D01*
X147327475Y-106940429D01*
X147375094Y-107130905D01*
X147422713Y-107226143D01*
X147470332Y-107273762D01*
X147565570Y-107321381D01*
X147660809Y-107321381D01*
X147756047Y-107273762D01*
X147803666Y-107226143D01*
X147851285Y-107130905D01*
X147898904Y-106940429D01*
X147898904Y-106702333D01*
X147851285Y-106511857D01*
X147803666Y-106416619D01*
X147756047Y-106369000D01*
X147660809Y-106321381D01*
X146375094Y-107321381D02*
X146946523Y-107321381D01*
X146660809Y-107321381D02*
X146660809Y-106321381D01*
X146756047Y-106464238D01*
X146851285Y-106559476D01*
X146946523Y-106607095D01*
X146041761Y-106321381D02*
X145375094Y-106321381D01*
X145803666Y-107321381D01*
X144279856Y-107273762D02*
X144136999Y-107321381D01*
X143898903Y-107321381D01*
X143803665Y-107273762D01*
X143756046Y-107226143D01*
X143708427Y-107130905D01*
X143708427Y-107035667D01*
X143756046Y-106940429D01*
X143803665Y-106892810D01*
X143898903Y-106845190D01*
X144089380Y-106797571D01*
X144184618Y-106749952D01*
X144232237Y-106702333D01*
X144279856Y-106607095D01*
X144279856Y-106511857D01*
X144232237Y-106416619D01*
X144184618Y-106369000D01*
X144089380Y-106321381D01*
X143851284Y-106321381D01*
X143708427Y-106369000D01*
X143279856Y-107321381D02*
X143279856Y-106654714D01*
X143279856Y-106321381D02*
X143327475Y-106369000D01*
X143279856Y-106416619D01*
X143232237Y-106369000D01*
X143279856Y-106321381D01*
X143279856Y-106416619D01*
X142803666Y-107321381D02*
X142803666Y-106654714D01*
X142803666Y-106749952D02*
X142756047Y-106702333D01*
X142660809Y-106654714D01*
X142517951Y-106654714D01*
X142422713Y-106702333D01*
X142375094Y-106797571D01*
X142375094Y-107321381D01*
X142375094Y-106797571D02*
X142327475Y-106702333D01*
X142232237Y-106654714D01*
X142089380Y-106654714D01*
X141994142Y-106702333D01*
X141946523Y-106797571D01*
X141946523Y-107321381D01*
X141327476Y-107321381D02*
X141422714Y-107273762D01*
X141470333Y-107226143D01*
X141517952Y-107130905D01*
X141517952Y-106845190D01*
X141470333Y-106749952D01*
X141422714Y-106702333D01*
X141327476Y-106654714D01*
X141184618Y-106654714D01*
X141089380Y-106702333D01*
X141041761Y-106749952D01*
X140994142Y-106845190D01*
X140994142Y-107130905D01*
X141041761Y-107226143D01*
X141089380Y-107273762D01*
X141184618Y-107321381D01*
X141327476Y-107321381D01*
X140565571Y-106654714D02*
X140565571Y-107321381D01*
X140565571Y-106749952D02*
X140517952Y-106702333D01*
X140422714Y-106654714D01*
X140279856Y-106654714D01*
X140184618Y-106702333D01*
X140136999Y-106797571D01*
X140136999Y-107321381D01*
X138898904Y-107321381D02*
X138898904Y-106321381D01*
X138422714Y-106654714D02*
X138422714Y-107321381D01*
X138422714Y-106749952D02*
X138375095Y-106702333D01*
X138279857Y-106654714D01*
X138136999Y-106654714D01*
X138041761Y-106702333D01*
X137994142Y-106797571D01*
X137994142Y-107321381D01*
X137517952Y-106654714D02*
X137517952Y-107321381D01*
X137517952Y-106749952D02*
X137470333Y-106702333D01*
X137375095Y-106654714D01*
X137232237Y-106654714D01*
X137136999Y-106702333D01*
X137089380Y-106797571D01*
X137089380Y-107321381D01*
X136660809Y-107273762D02*
X136565571Y-107321381D01*
X136375095Y-107321381D01*
X136279856Y-107273762D01*
X136232237Y-107178524D01*
X136232237Y-107130905D01*
X136279856Y-107035667D01*
X136375095Y-106988048D01*
X136517952Y-106988048D01*
X136613190Y-106940429D01*
X136660809Y-106845190D01*
X136660809Y-106797571D01*
X136613190Y-106702333D01*
X136517952Y-106654714D01*
X136375095Y-106654714D01*
X136279856Y-106702333D01*
X155565572Y-108971381D02*
X155565572Y-107971381D01*
X155137000Y-108971381D02*
X155137000Y-108447571D01*
X155184619Y-108352333D01*
X155279857Y-108304714D01*
X155422715Y-108304714D01*
X155517953Y-108352333D01*
X155565572Y-108399952D01*
X154803667Y-108304714D02*
X154422715Y-108304714D01*
X154660810Y-107971381D02*
X154660810Y-108828524D01*
X154613191Y-108923762D01*
X154517953Y-108971381D01*
X154422715Y-108971381D01*
X154232238Y-108304714D02*
X153851286Y-108304714D01*
X154089381Y-107971381D02*
X154089381Y-108828524D01*
X154041762Y-108923762D01*
X153946524Y-108971381D01*
X153851286Y-108971381D01*
X153517952Y-108304714D02*
X153517952Y-109304714D01*
X153517952Y-108352333D02*
X153422714Y-108304714D01*
X153232237Y-108304714D01*
X153136999Y-108352333D01*
X153089380Y-108399952D01*
X153041761Y-108495190D01*
X153041761Y-108780905D01*
X153089380Y-108876143D01*
X153136999Y-108923762D01*
X153232237Y-108971381D01*
X153422714Y-108971381D01*
X153517952Y-108923762D01*
X152613190Y-108876143D02*
X152565571Y-108923762D01*
X152613190Y-108971381D01*
X152660809Y-108923762D01*
X152613190Y-108876143D01*
X152613190Y-108971381D01*
X152613190Y-108352333D02*
X152565571Y-108399952D01*
X152613190Y-108447571D01*
X152660809Y-108399952D01*
X152613190Y-108352333D01*
X152613190Y-108447571D01*
X151422714Y-107923762D02*
X152279857Y-109209476D01*
X150375095Y-107923762D02*
X151232238Y-109209476D01*
X150137000Y-108304714D02*
X149946524Y-108971381D01*
X149756047Y-108495190D01*
X149565571Y-108971381D01*
X149375095Y-108304714D01*
X149089381Y-108304714D02*
X148898905Y-108971381D01*
X148708428Y-108495190D01*
X148517952Y-108971381D01*
X148327476Y-108304714D01*
X148041762Y-108304714D02*
X147851286Y-108971381D01*
X147660809Y-108495190D01*
X147470333Y-108971381D01*
X147279857Y-108304714D01*
X146898905Y-108876143D02*
X146851286Y-108923762D01*
X146898905Y-108971381D01*
X146946524Y-108923762D01*
X146898905Y-108876143D01*
X146898905Y-108971381D01*
X146517953Y-108304714D02*
X146327477Y-108971381D01*
X146137000Y-108495190D01*
X145946524Y-108971381D01*
X145756048Y-108304714D01*
X144946524Y-108971381D02*
X144946524Y-108447571D01*
X144994143Y-108352333D01*
X145089381Y-108304714D01*
X145279858Y-108304714D01*
X145375096Y-108352333D01*
X144946524Y-108923762D02*
X145041762Y-108971381D01*
X145279858Y-108971381D01*
X145375096Y-108923762D01*
X145422715Y-108828524D01*
X145422715Y-108733286D01*
X145375096Y-108638048D01*
X145279858Y-108590429D01*
X145041762Y-108590429D01*
X144946524Y-108542810D01*
X144470334Y-108971381D02*
X144470334Y-108304714D01*
X144470334Y-107971381D02*
X144517953Y-108019000D01*
X144470334Y-108066619D01*
X144422715Y-108019000D01*
X144470334Y-107971381D01*
X144470334Y-108066619D01*
X144137001Y-108304714D02*
X143756049Y-108304714D01*
X143994144Y-107971381D02*
X143994144Y-108828524D01*
X143946525Y-108923762D01*
X143851287Y-108971381D01*
X143756049Y-108971381D01*
X143422715Y-108971381D02*
X143422715Y-108304714D01*
X143422715Y-107971381D02*
X143470334Y-108019000D01*
X143422715Y-108066619D01*
X143375096Y-108019000D01*
X143422715Y-107971381D01*
X143422715Y-108066619D01*
X142946525Y-108304714D02*
X142946525Y-108971381D01*
X142946525Y-108399952D02*
X142898906Y-108352333D01*
X142803668Y-108304714D01*
X142660810Y-108304714D01*
X142565572Y-108352333D01*
X142517953Y-108447571D01*
X142517953Y-108971381D01*
X141613191Y-108304714D02*
X141613191Y-109114238D01*
X141660810Y-109209476D01*
X141708429Y-109257095D01*
X141803668Y-109304714D01*
X141946525Y-109304714D01*
X142041763Y-109257095D01*
X141613191Y-108923762D02*
X141708429Y-108971381D01*
X141898906Y-108971381D01*
X141994144Y-108923762D01*
X142041763Y-108876143D01*
X142089382Y-108780905D01*
X142089382Y-108495190D01*
X142041763Y-108399952D01*
X141994144Y-108352333D01*
X141898906Y-108304714D01*
X141708429Y-108304714D01*
X141613191Y-108352333D01*
X141279858Y-108304714D02*
X140898906Y-108304714D01*
X141137001Y-108971381D02*
X141137001Y-108114238D01*
X141089382Y-108019000D01*
X140994144Y-107971381D01*
X140898906Y-107971381D01*
X140422715Y-108971381D02*
X140517953Y-108923762D01*
X140565572Y-108876143D01*
X140613191Y-108780905D01*
X140613191Y-108495190D01*
X140565572Y-108399952D01*
X140517953Y-108352333D01*
X140422715Y-108304714D01*
X140279857Y-108304714D01*
X140184619Y-108352333D01*
X140137000Y-108399952D01*
X140089381Y-108495190D01*
X140089381Y-108780905D01*
X140137000Y-108876143D01*
X140184619Y-108923762D01*
X140279857Y-108971381D01*
X140422715Y-108971381D01*
X139660810Y-108971381D02*
X139660810Y-108304714D01*
X139660810Y-108495190D02*
X139613191Y-108399952D01*
X139565572Y-108352333D01*
X139470334Y-108304714D01*
X139375095Y-108304714D01*
X139184619Y-108304714D02*
X138803667Y-108304714D01*
X139041762Y-108971381D02*
X139041762Y-108114238D01*
X138994143Y-108019000D01*
X138898905Y-107971381D01*
X138803667Y-107971381D01*
X138470333Y-108971381D02*
X138470333Y-108304714D01*
X138470333Y-108495190D02*
X138422714Y-108399952D01*
X138375095Y-108352333D01*
X138279857Y-108304714D01*
X138184618Y-108304714D01*
X137851285Y-108971381D02*
X137851285Y-108304714D01*
X137851285Y-107971381D02*
X137898904Y-108019000D01*
X137851285Y-108066619D01*
X137803666Y-108019000D01*
X137851285Y-107971381D01*
X137851285Y-108066619D01*
X136946523Y-108971381D02*
X136946523Y-107971381D01*
X136946523Y-108923762D02*
X137041761Y-108971381D01*
X137232238Y-108971381D01*
X137327476Y-108923762D01*
X137375095Y-108876143D01*
X137422714Y-108780905D01*
X137422714Y-108495190D01*
X137375095Y-108399952D01*
X137327476Y-108352333D01*
X137232238Y-108304714D01*
X137041761Y-108304714D01*
X136946523Y-108352333D01*
X136041761Y-108971381D02*
X136041761Y-108447571D01*
X136089380Y-108352333D01*
X136184618Y-108304714D01*
X136375095Y-108304714D01*
X136470333Y-108352333D01*
X136041761Y-108923762D02*
X136136999Y-108971381D01*
X136375095Y-108971381D01*
X136470333Y-108923762D01*
X136517952Y-108828524D01*
X136517952Y-108733286D01*
X136470333Y-108638048D01*
X136375095Y-108590429D01*
X136136999Y-108590429D01*
X136041761Y-108542810D01*
X135660809Y-108304714D02*
X135422714Y-108971381D01*
X135184618Y-108304714D02*
X135422714Y-108971381D01*
X135517952Y-109209476D01*
X135565571Y-109257095D01*
X135660809Y-109304714D01*
X134803666Y-108876143D02*
X134756047Y-108923762D01*
X134803666Y-108971381D01*
X134851285Y-108923762D01*
X134803666Y-108876143D01*
X134803666Y-108971381D01*
X133898904Y-108923762D02*
X133994142Y-108971381D01*
X134184619Y-108971381D01*
X134279857Y-108923762D01*
X134327476Y-108876143D01*
X134375095Y-108780905D01*
X134375095Y-108495190D01*
X134327476Y-108399952D01*
X134279857Y-108352333D01*
X134184619Y-108304714D01*
X133994142Y-108304714D01*
X133898904Y-108352333D01*
X133327476Y-108971381D02*
X133422714Y-108923762D01*
X133470333Y-108876143D01*
X133517952Y-108780905D01*
X133517952Y-108495190D01*
X133470333Y-108399952D01*
X133422714Y-108352333D01*
X133327476Y-108304714D01*
X133184618Y-108304714D01*
X133089380Y-108352333D01*
X133041761Y-108399952D01*
X132994142Y-108495190D01*
X132994142Y-108780905D01*
X133041761Y-108876143D01*
X133089380Y-108923762D01*
X133184618Y-108971381D01*
X133327476Y-108971381D01*
X132565571Y-108971381D02*
X132565571Y-108304714D01*
X132565571Y-108399952D02*
X132517952Y-108352333D01*
X132422714Y-108304714D01*
X132279856Y-108304714D01*
X132184618Y-108352333D01*
X132136999Y-108447571D01*
X132136999Y-108971381D01*
X132136999Y-108447571D02*
X132089380Y-108352333D01*
X131994142Y-108304714D01*
X131851285Y-108304714D01*
X131756047Y-108352333D01*
X131708428Y-108447571D01*
X131708428Y-108971381D01*
D12*
X146453857Y-97000143D02*
X146239571Y-97071571D01*
X145882428Y-97071571D01*
X145739571Y-97000143D01*
X145668142Y-96928714D01*
X145596714Y-96785857D01*
X145596714Y-96643000D01*
X145668142Y-96500143D01*
X145739571Y-96428714D01*
X145882428Y-96357286D01*
X146168142Y-96285857D01*
X146311000Y-96214429D01*
X146382428Y-96143000D01*
X146453857Y-96000143D01*
X146453857Y-95857286D01*
X146382428Y-95714429D01*
X146311000Y-95643000D01*
X146168142Y-95571571D01*
X145811000Y-95571571D01*
X145596714Y-95643000D01*
X144953857Y-97071571D02*
X144953857Y-96071571D01*
X144953857Y-96214429D02*
X144882429Y-96143000D01*
X144739571Y-96071571D01*
X144525286Y-96071571D01*
X144382429Y-96143000D01*
X144311000Y-96285857D01*
X144311000Y-97071571D01*
X144311000Y-96285857D02*
X144239571Y-96143000D01*
X144096714Y-96071571D01*
X143882429Y-96071571D01*
X143739571Y-96143000D01*
X143668143Y-96285857D01*
X143668143Y-97071571D01*
X142311000Y-97071571D02*
X142311000Y-96285857D01*
X142382429Y-96143000D01*
X142525286Y-96071571D01*
X142811000Y-96071571D01*
X142953857Y-96143000D01*
X142311000Y-97000143D02*
X142453857Y-97071571D01*
X142811000Y-97071571D01*
X142953857Y-97000143D01*
X143025286Y-96857286D01*
X143025286Y-96714429D01*
X142953857Y-96571571D01*
X142811000Y-96500143D01*
X142453857Y-96500143D01*
X142311000Y-96428714D01*
X141382428Y-97071571D02*
X141525286Y-97000143D01*
X141596714Y-96857286D01*
X141596714Y-95571571D01*
X140596714Y-97071571D02*
X140739572Y-97000143D01*
X140811000Y-96857286D01*
X140811000Y-95571571D01*
X140168143Y-96071571D02*
X139811000Y-97071571D01*
X139453858Y-96071571D02*
X139811000Y-97071571D01*
X139953858Y-97428714D01*
X140025286Y-97500143D01*
X140168143Y-97571571D01*
X138882429Y-97071571D02*
X138882429Y-95571571D01*
X138382429Y-96643000D01*
X137882429Y-95571571D01*
X137882429Y-97071571D01*
X136953857Y-97071571D02*
X137096715Y-97000143D01*
X137168143Y-96928714D01*
X137239572Y-96785857D01*
X137239572Y-96357286D01*
X137168143Y-96214429D01*
X137096715Y-96143000D01*
X136953857Y-96071571D01*
X136739572Y-96071571D01*
X136596715Y-96143000D01*
X136525286Y-96214429D01*
X136453857Y-96357286D01*
X136453857Y-96785857D01*
X136525286Y-96928714D01*
X136596715Y-97000143D01*
X136739572Y-97071571D01*
X136953857Y-97071571D01*
X135168143Y-96071571D02*
X135168143Y-97071571D01*
X135811000Y-96071571D02*
X135811000Y-96857286D01*
X135739572Y-97000143D01*
X135596714Y-97071571D01*
X135382429Y-97071571D01*
X135239572Y-97000143D01*
X135168143Y-96928714D01*
X134525286Y-97000143D02*
X134382429Y-97071571D01*
X134096714Y-97071571D01*
X133953857Y-97000143D01*
X133882429Y-96857286D01*
X133882429Y-96785857D01*
X133953857Y-96643000D01*
X134096714Y-96571571D01*
X134311000Y-96571571D01*
X134453857Y-96500143D01*
X134525286Y-96357286D01*
X134525286Y-96285857D01*
X134453857Y-96143000D01*
X134311000Y-96071571D01*
X134096714Y-96071571D01*
X133953857Y-96143000D01*
X132668143Y-97000143D02*
X132811000Y-97071571D01*
X133096714Y-97071571D01*
X133239571Y-97000143D01*
X133311000Y-96857286D01*
X133311000Y-96285857D01*
X133239571Y-96143000D01*
X133096714Y-96071571D01*
X132811000Y-96071571D01*
X132668143Y-96143000D01*
X132596714Y-96285857D01*
X132596714Y-96428714D01*
X133311000Y-96571571D01*
X132025286Y-95714429D02*
X131953857Y-95643000D01*
X131811000Y-95571571D01*
X131453857Y-95571571D01*
X131311000Y-95643000D01*
X131239571Y-95714429D01*
X131168143Y-95857286D01*
X131168143Y-96000143D01*
X131239571Y-96214429D01*
X132096714Y-97071571D01*
X131168143Y-97071571D01*
D13*
G36*
X147068100Y-90856903D02*
X146956550Y-90912522D01*
X146858092Y-91014931D01*
X146830977Y-91052864D01*
X146801438Y-91102500D01*
X146782272Y-91156412D01*
X146771307Y-91228364D01*
X146766371Y-91332122D01*
X146765287Y-91469101D01*
X146770182Y-91656815D01*
X146787196Y-91797758D01*
X146819823Y-91902908D01*
X146871558Y-91983243D01*
X146945896Y-92049741D01*
X146951358Y-92053678D01*
X147024620Y-92093953D01*
X147112840Y-92113880D01*
X147225038Y-92118793D01*
X147407433Y-92118793D01*
X147407509Y-92295857D01*
X147409207Y-92394470D01*
X147419550Y-92452314D01*
X147446578Y-92487006D01*
X147498332Y-92516164D01*
X147510761Y-92522121D01*
X147568923Y-92550039D01*
X147613956Y-92567672D01*
X147647441Y-92569194D01*
X147670962Y-92548781D01*
X147686100Y-92500607D01*
X147694437Y-92418846D01*
X147697556Y-92297672D01*
X147697040Y-92131260D01*
X147694471Y-91913785D01*
X147693668Y-91848736D01*
X147690778Y-91624502D01*
X147688188Y-91477821D01*
X147407586Y-91477821D01*
X147406009Y-91602326D01*
X147399000Y-91683787D01*
X147383142Y-91737515D01*
X147355019Y-91778823D01*
X147335925Y-91798971D01*
X147257865Y-91857921D01*
X147188753Y-91862720D01*
X147117440Y-91814038D01*
X147115632Y-91812241D01*
X147086617Y-91774618D01*
X147068967Y-91723484D01*
X147060064Y-91644738D01*
X147057291Y-91524276D01*
X147057241Y-91497588D01*
X147063942Y-91331583D01*
X147085752Y-91216505D01*
X147125235Y-91146254D01*
X147184956Y-91114729D01*
X147219472Y-91111552D01*
X147301389Y-91126460D01*
X147357579Y-91175548D01*
X147391402Y-91265362D01*
X147406220Y-91402445D01*
X147407586Y-91477821D01*
X147688188Y-91477821D01*
X147687713Y-91450952D01*
X147683753Y-91320382D01*
X147678174Y-91225087D01*
X147670254Y-91157364D01*
X147659269Y-91109507D01*
X147644499Y-91073813D01*
X147625218Y-91042578D01*
X147616951Y-91030824D01*
X147507288Y-90919797D01*
X147368635Y-90856847D01*
X147208246Y-90839297D01*
X147068100Y-90856903D01*
X147068100Y-90856903D01*
G37*
X147068100Y-90856903D02*
X146956550Y-90912522D01*
X146858092Y-91014931D01*
X146830977Y-91052864D01*
X146801438Y-91102500D01*
X146782272Y-91156412D01*
X146771307Y-91228364D01*
X146766371Y-91332122D01*
X146765287Y-91469101D01*
X146770182Y-91656815D01*
X146787196Y-91797758D01*
X146819823Y-91902908D01*
X146871558Y-91983243D01*
X146945896Y-92049741D01*
X146951358Y-92053678D01*
X147024620Y-92093953D01*
X147112840Y-92113880D01*
X147225038Y-92118793D01*
X147407433Y-92118793D01*
X147407509Y-92295857D01*
X147409207Y-92394470D01*
X147419550Y-92452314D01*
X147446578Y-92487006D01*
X147498332Y-92516164D01*
X147510761Y-92522121D01*
X147568923Y-92550039D01*
X147613956Y-92567672D01*
X147647441Y-92569194D01*
X147670962Y-92548781D01*
X147686100Y-92500607D01*
X147694437Y-92418846D01*
X147697556Y-92297672D01*
X147697040Y-92131260D01*
X147694471Y-91913785D01*
X147693668Y-91848736D01*
X147690778Y-91624502D01*
X147688188Y-91477821D01*
X147407586Y-91477821D01*
X147406009Y-91602326D01*
X147399000Y-91683787D01*
X147383142Y-91737515D01*
X147355019Y-91778823D01*
X147335925Y-91798971D01*
X147257865Y-91857921D01*
X147188753Y-91862720D01*
X147117440Y-91814038D01*
X147115632Y-91812241D01*
X147086617Y-91774618D01*
X147068967Y-91723484D01*
X147060064Y-91644738D01*
X147057291Y-91524276D01*
X147057241Y-91497588D01*
X147063942Y-91331583D01*
X147085752Y-91216505D01*
X147125235Y-91146254D01*
X147184956Y-91114729D01*
X147219472Y-91111552D01*
X147301389Y-91126460D01*
X147357579Y-91175548D01*
X147391402Y-91265362D01*
X147406220Y-91402445D01*
X147407586Y-91477821D01*
X147688188Y-91477821D01*
X147687713Y-91450952D01*
X147683753Y-91320382D01*
X147678174Y-91225087D01*
X147670254Y-91157364D01*
X147659269Y-91109507D01*
X147644499Y-91073813D01*
X147625218Y-91042578D01*
X147616951Y-91030824D01*
X147507288Y-90919797D01*
X147368635Y-90856847D01*
X147208246Y-90839297D01*
X147068100Y-90856903D01*
G36*
X144822571Y-90872719D02*
X144728877Y-90926914D01*
X144663736Y-90980707D01*
X144616093Y-91037066D01*
X144583272Y-91105987D01*
X144562594Y-91197468D01*
X144551380Y-91321506D01*
X144546951Y-91488098D01*
X144546437Y-91607851D01*
X144546437Y-92048659D01*
X144670517Y-92104283D01*
X144794598Y-92159907D01*
X144809195Y-91677095D01*
X144815227Y-91496779D01*
X144821555Y-91365901D01*
X144829394Y-91275511D01*
X144839963Y-91216664D01*
X144854477Y-91180413D01*
X144874152Y-91157810D01*
X144880465Y-91152917D01*
X144976112Y-91114706D01*
X145072793Y-91129827D01*
X145130345Y-91169943D01*
X145153755Y-91198370D01*
X145169961Y-91235672D01*
X145180259Y-91292223D01*
X145185951Y-91378394D01*
X145188336Y-91504558D01*
X145188736Y-91636042D01*
X145188814Y-91800999D01*
X145191639Y-91917761D01*
X145201093Y-91996510D01*
X145221060Y-92047431D01*
X145255424Y-92080706D01*
X145308068Y-92106520D01*
X145378383Y-92133344D01*
X145455180Y-92162542D01*
X145446038Y-91644346D01*
X145442357Y-91457539D01*
X145438050Y-91319490D01*
X145431877Y-91220568D01*
X145422598Y-91151145D01*
X145408973Y-91101590D01*
X145389761Y-91062273D01*
X145366598Y-91027584D01*
X145254848Y-90916770D01*
X145118487Y-90852689D01*
X144970175Y-90837339D01*
X144822571Y-90872719D01*
X144822571Y-90872719D01*
G37*
X144822571Y-90872719D02*
X144728877Y-90926914D01*
X144663736Y-90980707D01*
X144616093Y-91037066D01*
X144583272Y-91105987D01*
X144562594Y-91197468D01*
X144551380Y-91321506D01*
X144546951Y-91488098D01*
X144546437Y-91607851D01*
X144546437Y-92048659D01*
X144670517Y-92104283D01*
X144794598Y-92159907D01*
X144809195Y-91677095D01*
X144815227Y-91496779D01*
X144821555Y-91365901D01*
X144829394Y-91275511D01*
X144839963Y-91216664D01*
X144854477Y-91180413D01*
X144874152Y-91157810D01*
X144880465Y-91152917D01*
X144976112Y-91114706D01*
X145072793Y-91129827D01*
X145130345Y-91169943D01*
X145153755Y-91198370D01*
X145169961Y-91235672D01*
X145180259Y-91292223D01*
X145185951Y-91378394D01*
X145188336Y-91504558D01*
X145188736Y-91636042D01*
X145188814Y-91800999D01*
X145191639Y-91917761D01*
X145201093Y-91996510D01*
X145221060Y-92047431D01*
X145255424Y-92080706D01*
X145308068Y-92106520D01*
X145378383Y-92133344D01*
X145455180Y-92162542D01*
X145446038Y-91644346D01*
X145442357Y-91457539D01*
X145438050Y-91319490D01*
X145431877Y-91220568D01*
X145422598Y-91151145D01*
X145408973Y-91101590D01*
X145389761Y-91062273D01*
X145366598Y-91027584D01*
X145254848Y-90916770D01*
X145118487Y-90852689D01*
X144970175Y-90837339D01*
X144822571Y-90872719D01*
G36*
X148191779Y-90861015D02*
X148054939Y-90932968D01*
X147953949Y-91048766D01*
X147918075Y-91123213D01*
X147890161Y-91234992D01*
X147875871Y-91376227D01*
X147874516Y-91530371D01*
X147885405Y-91680879D01*
X147907847Y-91811205D01*
X147941150Y-91904803D01*
X147951385Y-91920922D01*
X148072618Y-92041249D01*
X148216613Y-92113317D01*
X148372861Y-92134408D01*
X148530852Y-92101802D01*
X148574820Y-92082253D01*
X148660444Y-92022012D01*
X148735592Y-91942135D01*
X148742694Y-91932004D01*
X148771561Y-91883181D01*
X148790643Y-91830990D01*
X148801916Y-91762285D01*
X148807355Y-91663918D01*
X148808938Y-91522744D01*
X148808965Y-91491092D01*
X148808893Y-91481019D01*
X148517011Y-91481019D01*
X148515313Y-91614256D01*
X148508628Y-91702674D01*
X148494575Y-91759785D01*
X148470771Y-91799102D01*
X148458621Y-91812241D01*
X148388764Y-91862172D01*
X148320941Y-91859895D01*
X148252365Y-91816584D01*
X148211465Y-91770346D01*
X148187242Y-91702857D01*
X148173639Y-91596433D01*
X148172706Y-91584020D01*
X148170384Y-91391147D01*
X148194650Y-91247900D01*
X148245176Y-91155160D01*
X148321632Y-91113807D01*
X148348924Y-91111552D01*
X148420589Y-91122893D01*
X148469610Y-91162184D01*
X148499582Y-91237326D01*
X148514101Y-91356222D01*
X148517011Y-91481019D01*
X148808893Y-91481019D01*
X148807878Y-91340659D01*
X148803312Y-91235549D01*
X148793312Y-91162714D01*
X148775921Y-91109108D01*
X148749184Y-91061681D01*
X148743276Y-91052864D01*
X148643968Y-90934007D01*
X148535758Y-90865008D01*
X148404019Y-90837619D01*
X148359283Y-90836281D01*
X148191779Y-90861015D01*
X148191779Y-90861015D01*
G37*
X148191779Y-90861015D02*
X148054939Y-90932968D01*
X147953949Y-91048766D01*
X147918075Y-91123213D01*
X147890161Y-91234992D01*
X147875871Y-91376227D01*
X147874516Y-91530371D01*
X147885405Y-91680879D01*
X147907847Y-91811205D01*
X147941150Y-91904803D01*
X147951385Y-91920922D01*
X148072618Y-92041249D01*
X148216613Y-92113317D01*
X148372861Y-92134408D01*
X148530852Y-92101802D01*
X148574820Y-92082253D01*
X148660444Y-92022012D01*
X148735592Y-91942135D01*
X148742694Y-91932004D01*
X148771561Y-91883181D01*
X148790643Y-91830990D01*
X148801916Y-91762285D01*
X148807355Y-91663918D01*
X148808938Y-91522744D01*
X148808965Y-91491092D01*
X148808893Y-91481019D01*
X148517011Y-91481019D01*
X148515313Y-91614256D01*
X148508628Y-91702674D01*
X148494575Y-91759785D01*
X148470771Y-91799102D01*
X148458621Y-91812241D01*
X148388764Y-91862172D01*
X148320941Y-91859895D01*
X148252365Y-91816584D01*
X148211465Y-91770346D01*
X148187242Y-91702857D01*
X148173639Y-91596433D01*
X148172706Y-91584020D01*
X148170384Y-91391147D01*
X148194650Y-91247900D01*
X148245176Y-91155160D01*
X148321632Y-91113807D01*
X148348924Y-91111552D01*
X148420589Y-91122893D01*
X148469610Y-91162184D01*
X148499582Y-91237326D01*
X148514101Y-91356222D01*
X148517011Y-91481019D01*
X148808893Y-91481019D01*
X148807878Y-91340659D01*
X148803312Y-91235549D01*
X148793312Y-91162714D01*
X148775921Y-91109108D01*
X148749184Y-91061681D01*
X148743276Y-91052864D01*
X148643968Y-90934007D01*
X148535758Y-90865008D01*
X148404019Y-90837619D01*
X148359283Y-90836281D01*
X148191779Y-90861015D01*
G36*
X145924448Y-90879676D02*
X145809342Y-90957111D01*
X145720389Y-91068949D01*
X145667251Y-91211265D01*
X145656503Y-91316015D01*
X145657724Y-91359726D01*
X145667944Y-91393194D01*
X145696039Y-91423179D01*
X145750884Y-91456440D01*
X145841355Y-91499738D01*
X145976328Y-91559833D01*
X145977011Y-91560134D01*
X146101249Y-91617037D01*
X146203127Y-91667565D01*
X146272233Y-91706280D01*
X146298154Y-91727740D01*
X146298161Y-91727913D01*
X146275315Y-91774644D01*
X146221891Y-91826154D01*
X146160558Y-91863261D01*
X146129485Y-91870632D01*
X146044711Y-91845138D01*
X145971707Y-91781291D01*
X145936087Y-91711094D01*
X145901820Y-91659343D01*
X145834697Y-91600409D01*
X145755792Y-91549496D01*
X145686179Y-91521809D01*
X145671623Y-91520287D01*
X145655237Y-91545321D01*
X145654250Y-91609311D01*
X145666292Y-91695593D01*
X145688993Y-91787501D01*
X145719986Y-91868369D01*
X145721552Y-91871509D01*
X145814819Y-92001734D01*
X145935696Y-92090311D01*
X146072973Y-92133786D01*
X146215440Y-92128706D01*
X146351888Y-92071616D01*
X146357955Y-92067602D01*
X146465290Y-91970326D01*
X146535868Y-91843409D01*
X146574926Y-91676526D01*
X146580168Y-91629639D01*
X146589452Y-91408329D01*
X146578322Y-91305124D01*
X146298161Y-91305124D01*
X146294521Y-91369503D01*
X146274611Y-91388291D01*
X146224974Y-91374235D01*
X146146733Y-91341009D01*
X146059274Y-91299359D01*
X146057101Y-91298256D01*
X145982970Y-91259265D01*
X145953219Y-91233244D01*
X145960555Y-91205965D01*
X145991447Y-91170121D01*
X146070040Y-91118251D01*
X146154677Y-91114439D01*
X146230597Y-91152189D01*
X146283035Y-91225001D01*
X146298161Y-91305124D01*
X146578322Y-91305124D01*
X146570356Y-91231261D01*
X146521366Y-91090829D01*
X146453164Y-90992447D01*
X146330065Y-90893030D01*
X146194472Y-90843711D01*
X146056045Y-90840568D01*
X145924448Y-90879676D01*
X145924448Y-90879676D01*
G37*
X145924448Y-90879676D02*
X145809342Y-90957111D01*
X145720389Y-91068949D01*
X145667251Y-91211265D01*
X145656503Y-91316015D01*
X145657724Y-91359726D01*
X145667944Y-91393194D01*
X145696039Y-91423179D01*
X145750884Y-91456440D01*
X145841355Y-91499738D01*
X145976328Y-91559833D01*
X145977011Y-91560134D01*
X146101249Y-91617037D01*
X146203127Y-91667565D01*
X146272233Y-91706280D01*
X146298154Y-91727740D01*
X146298161Y-91727913D01*
X146275315Y-91774644D01*
X146221891Y-91826154D01*
X146160558Y-91863261D01*
X146129485Y-91870632D01*
X146044711Y-91845138D01*
X145971707Y-91781291D01*
X145936087Y-91711094D01*
X145901820Y-91659343D01*
X145834697Y-91600409D01*
X145755792Y-91549496D01*
X145686179Y-91521809D01*
X145671623Y-91520287D01*
X145655237Y-91545321D01*
X145654250Y-91609311D01*
X145666292Y-91695593D01*
X145688993Y-91787501D01*
X145719986Y-91868369D01*
X145721552Y-91871509D01*
X145814819Y-92001734D01*
X145935696Y-92090311D01*
X146072973Y-92133786D01*
X146215440Y-92128706D01*
X146351888Y-92071616D01*
X146357955Y-92067602D01*
X146465290Y-91970326D01*
X146535868Y-91843409D01*
X146574926Y-91676526D01*
X146580168Y-91629639D01*
X146589452Y-91408329D01*
X146578322Y-91305124D01*
X146298161Y-91305124D01*
X146294521Y-91369503D01*
X146274611Y-91388291D01*
X146224974Y-91374235D01*
X146146733Y-91341009D01*
X146059274Y-91299359D01*
X146057101Y-91298256D01*
X145982970Y-91259265D01*
X145953219Y-91233244D01*
X145960555Y-91205965D01*
X145991447Y-91170121D01*
X146070040Y-91118251D01*
X146154677Y-91114439D01*
X146230597Y-91152189D01*
X146283035Y-91225001D01*
X146298161Y-91305124D01*
X146578322Y-91305124D01*
X146570356Y-91231261D01*
X146521366Y-91090829D01*
X146453164Y-90992447D01*
X146330065Y-90893030D01*
X146194472Y-90843711D01*
X146056045Y-90840568D01*
X145924448Y-90879676D01*
G36*
X143495402Y-90718857D02*
X143486846Y-90838188D01*
X143477019Y-90908506D01*
X143463401Y-90939179D01*
X143443473Y-90939571D01*
X143437011Y-90935910D01*
X143351060Y-90909398D01*
X143239255Y-90910946D01*
X143125586Y-90938199D01*
X143054490Y-90973455D01*
X142981595Y-91029778D01*
X142928307Y-91093519D01*
X142891725Y-91174510D01*
X142868950Y-91282586D01*
X142857081Y-91427580D01*
X142853218Y-91619326D01*
X142853149Y-91656109D01*
X142853103Y-92069288D01*
X142945046Y-92101339D01*
X143010348Y-92123144D01*
X143046176Y-92133297D01*
X143047230Y-92133391D01*
X143050758Y-92105860D01*
X143053761Y-92029923D01*
X143056010Y-91915565D01*
X143057276Y-91772769D01*
X143057471Y-91685951D01*
X143057877Y-91514773D01*
X143059968Y-91392088D01*
X143065053Y-91308000D01*
X143074440Y-91252614D01*
X143089439Y-91216032D01*
X143111358Y-91188359D01*
X143125043Y-91175032D01*
X143219051Y-91121328D01*
X143321636Y-91117307D01*
X143414710Y-91162725D01*
X143431922Y-91179123D01*
X143457168Y-91209957D01*
X143474680Y-91246531D01*
X143485858Y-91299415D01*
X143492104Y-91379177D01*
X143494818Y-91496385D01*
X143495402Y-91657991D01*
X143495402Y-92069288D01*
X143587345Y-92101339D01*
X143652647Y-92123144D01*
X143688475Y-92133297D01*
X143689529Y-92133391D01*
X143692225Y-92105448D01*
X143694655Y-92026630D01*
X143696722Y-91904453D01*
X143698329Y-91746432D01*
X143699377Y-91560083D01*
X143699769Y-91352920D01*
X143699770Y-91343706D01*
X143699770Y-90554020D01*
X143604885Y-90513997D01*
X143510000Y-90473973D01*
X143495402Y-90718857D01*
X143495402Y-90718857D01*
G37*
X143495402Y-90718857D02*
X143486846Y-90838188D01*
X143477019Y-90908506D01*
X143463401Y-90939179D01*
X143443473Y-90939571D01*
X143437011Y-90935910D01*
X143351060Y-90909398D01*
X143239255Y-90910946D01*
X143125586Y-90938199D01*
X143054490Y-90973455D01*
X142981595Y-91029778D01*
X142928307Y-91093519D01*
X142891725Y-91174510D01*
X142868950Y-91282586D01*
X142857081Y-91427580D01*
X142853218Y-91619326D01*
X142853149Y-91656109D01*
X142853103Y-92069288D01*
X142945046Y-92101339D01*
X143010348Y-92123144D01*
X143046176Y-92133297D01*
X143047230Y-92133391D01*
X143050758Y-92105860D01*
X143053761Y-92029923D01*
X143056010Y-91915565D01*
X143057276Y-91772769D01*
X143057471Y-91685951D01*
X143057877Y-91514773D01*
X143059968Y-91392088D01*
X143065053Y-91308000D01*
X143074440Y-91252614D01*
X143089439Y-91216032D01*
X143111358Y-91188359D01*
X143125043Y-91175032D01*
X143219051Y-91121328D01*
X143321636Y-91117307D01*
X143414710Y-91162725D01*
X143431922Y-91179123D01*
X143457168Y-91209957D01*
X143474680Y-91246531D01*
X143485858Y-91299415D01*
X143492104Y-91379177D01*
X143494818Y-91496385D01*
X143495402Y-91657991D01*
X143495402Y-92069288D01*
X143587345Y-92101339D01*
X143652647Y-92123144D01*
X143688475Y-92133297D01*
X143689529Y-92133391D01*
X143692225Y-92105448D01*
X143694655Y-92026630D01*
X143696722Y-91904453D01*
X143698329Y-91746432D01*
X143699377Y-91560083D01*
X143699769Y-91352920D01*
X143699770Y-91343706D01*
X143699770Y-90554020D01*
X143604885Y-90513997D01*
X143510000Y-90473973D01*
X143495402Y-90718857D01*
G36*
X142160056Y-90919360D02*
X142045657Y-90961842D01*
X142044348Y-90962658D01*
X141973597Y-91014730D01*
X141921364Y-91075584D01*
X141884629Y-91154887D01*
X141860366Y-91262309D01*
X141845555Y-91407517D01*
X141837171Y-91600179D01*
X141836436Y-91627628D01*
X141825880Y-92041521D01*
X141914709Y-92087456D01*
X141978982Y-92118498D01*
X142017790Y-92133206D01*
X142019585Y-92133391D01*
X142026300Y-92106250D01*
X142031635Y-92033041D01*
X142034917Y-91926081D01*
X142035632Y-91839469D01*
X142035649Y-91699162D01*
X142042063Y-91611051D01*
X142064420Y-91569025D01*
X142112268Y-91566975D01*
X142195151Y-91598790D01*
X142320287Y-91657272D01*
X142412303Y-91705845D01*
X142459629Y-91747986D01*
X142473542Y-91793916D01*
X142473563Y-91796189D01*
X142450605Y-91875311D01*
X142382630Y-91918055D01*
X142278602Y-91924246D01*
X142203670Y-91923172D01*
X142164161Y-91944753D01*
X142139522Y-91996591D01*
X142125341Y-92062632D01*
X142145777Y-92100104D01*
X142153472Y-92105467D01*
X142225917Y-92127006D01*
X142327367Y-92130055D01*
X142431843Y-92115778D01*
X142505875Y-92089688D01*
X142608228Y-92002785D01*
X142666409Y-91881816D01*
X142677931Y-91787308D01*
X142669138Y-91702062D01*
X142637320Y-91632476D01*
X142574316Y-91570672D01*
X142471969Y-91508772D01*
X142322118Y-91438897D01*
X142312988Y-91434948D01*
X142178003Y-91372588D01*
X142094706Y-91321446D01*
X142059003Y-91275488D01*
X142066797Y-91228683D01*
X142113993Y-91174998D01*
X142128106Y-91162644D01*
X142222641Y-91114741D01*
X142320594Y-91116758D01*
X142405903Y-91163724D01*
X142462504Y-91250669D01*
X142467763Y-91267734D01*
X142518977Y-91350504D01*
X142583963Y-91390372D01*
X142677931Y-91429882D01*
X142677931Y-91327658D01*
X142649347Y-91179072D01*
X142564505Y-91042784D01*
X142520355Y-90997191D01*
X142419995Y-90938674D01*
X142292365Y-90912184D01*
X142160056Y-90919360D01*
X142160056Y-90919360D01*
G37*
X142160056Y-90919360D02*
X142045657Y-90961842D01*
X142044348Y-90962658D01*
X141973597Y-91014730D01*
X141921364Y-91075584D01*
X141884629Y-91154887D01*
X141860366Y-91262309D01*
X141845555Y-91407517D01*
X141837171Y-91600179D01*
X141836436Y-91627628D01*
X141825880Y-92041521D01*
X141914709Y-92087456D01*
X141978982Y-92118498D01*
X142017790Y-92133206D01*
X142019585Y-92133391D01*
X142026300Y-92106250D01*
X142031635Y-92033041D01*
X142034917Y-91926081D01*
X142035632Y-91839469D01*
X142035649Y-91699162D01*
X142042063Y-91611051D01*
X142064420Y-91569025D01*
X142112268Y-91566975D01*
X142195151Y-91598790D01*
X142320287Y-91657272D01*
X142412303Y-91705845D01*
X142459629Y-91747986D01*
X142473542Y-91793916D01*
X142473563Y-91796189D01*
X142450605Y-91875311D01*
X142382630Y-91918055D01*
X142278602Y-91924246D01*
X142203670Y-91923172D01*
X142164161Y-91944753D01*
X142139522Y-91996591D01*
X142125341Y-92062632D01*
X142145777Y-92100104D01*
X142153472Y-92105467D01*
X142225917Y-92127006D01*
X142327367Y-92130055D01*
X142431843Y-92115778D01*
X142505875Y-92089688D01*
X142608228Y-92002785D01*
X142666409Y-91881816D01*
X142677931Y-91787308D01*
X142669138Y-91702062D01*
X142637320Y-91632476D01*
X142574316Y-91570672D01*
X142471969Y-91508772D01*
X142322118Y-91438897D01*
X142312988Y-91434948D01*
X142178003Y-91372588D01*
X142094706Y-91321446D01*
X142059003Y-91275488D01*
X142066797Y-91228683D01*
X142113993Y-91174998D01*
X142128106Y-91162644D01*
X142222641Y-91114741D01*
X142320594Y-91116758D01*
X142405903Y-91163724D01*
X142462504Y-91250669D01*
X142467763Y-91267734D01*
X142518977Y-91350504D01*
X142583963Y-91390372D01*
X142677931Y-91429882D01*
X142677931Y-91327658D01*
X142649347Y-91179072D01*
X142564505Y-91042784D01*
X142520355Y-90997191D01*
X142419995Y-90938674D01*
X142292365Y-90912184D01*
X142160056Y-90919360D01*
G36*
X141174057Y-90916920D02*
X141041435Y-90965859D01*
X140933990Y-91052419D01*
X140891968Y-91113352D01*
X140846157Y-91225161D01*
X140847109Y-91306006D01*
X140895192Y-91360378D01*
X140912983Y-91369624D01*
X140989796Y-91398450D01*
X141029024Y-91391065D01*
X141042311Y-91342658D01*
X141042988Y-91315920D01*
X141067314Y-91217548D01*
X141130719Y-91148734D01*
X141218846Y-91115498D01*
X141317337Y-91123861D01*
X141397398Y-91167296D01*
X141424439Y-91192072D01*
X141443606Y-91222129D01*
X141456554Y-91267565D01*
X141464936Y-91338476D01*
X141470407Y-91444960D01*
X141474622Y-91597112D01*
X141475713Y-91645287D01*
X141479693Y-91810095D01*
X141484219Y-91926088D01*
X141491005Y-92002833D01*
X141501769Y-92049893D01*
X141518227Y-92076835D01*
X141542094Y-92093223D01*
X141557374Y-92100463D01*
X141622267Y-92125220D01*
X141660466Y-92133391D01*
X141673088Y-92106103D01*
X141680792Y-92023603D01*
X141683620Y-91884941D01*
X141681614Y-91689162D01*
X141680989Y-91658965D01*
X141676579Y-91480349D01*
X141671365Y-91349923D01*
X141663945Y-91257492D01*
X141652918Y-91192858D01*
X141636883Y-91145825D01*
X141614439Y-91106196D01*
X141602698Y-91089215D01*
X141535381Y-91014080D01*
X141460090Y-90955638D01*
X141450872Y-90950536D01*
X141315867Y-90910260D01*
X141174057Y-90916920D01*
X141174057Y-90916920D01*
G37*
X141174057Y-90916920D02*
X141041435Y-90965859D01*
X140933990Y-91052419D01*
X140891968Y-91113352D01*
X140846157Y-91225161D01*
X140847109Y-91306006D01*
X140895192Y-91360378D01*
X140912983Y-91369624D01*
X140989796Y-91398450D01*
X141029024Y-91391065D01*
X141042311Y-91342658D01*
X141042988Y-91315920D01*
X141067314Y-91217548D01*
X141130719Y-91148734D01*
X141218846Y-91115498D01*
X141317337Y-91123861D01*
X141397398Y-91167296D01*
X141424439Y-91192072D01*
X141443606Y-91222129D01*
X141456554Y-91267565D01*
X141464936Y-91338476D01*
X141470407Y-91444960D01*
X141474622Y-91597112D01*
X141475713Y-91645287D01*
X141479693Y-91810095D01*
X141484219Y-91926088D01*
X141491005Y-92002833D01*
X141501769Y-92049893D01*
X141518227Y-92076835D01*
X141542094Y-92093223D01*
X141557374Y-92100463D01*
X141622267Y-92125220D01*
X141660466Y-92133391D01*
X141673088Y-92106103D01*
X141680792Y-92023603D01*
X141683620Y-91884941D01*
X141681614Y-91689162D01*
X141680989Y-91658965D01*
X141676579Y-91480349D01*
X141671365Y-91349923D01*
X141663945Y-91257492D01*
X141652918Y-91192858D01*
X141636883Y-91145825D01*
X141614439Y-91106196D01*
X141602698Y-91089215D01*
X141535381Y-91014080D01*
X141460090Y-90955638D01*
X141450872Y-90950536D01*
X141315867Y-90910260D01*
X141174057Y-90916920D01*
G36*
X139846086Y-91149455D02*
X139846457Y-91367661D01*
X139847892Y-91535519D01*
X139850998Y-91661070D01*
X139856378Y-91752355D01*
X139864638Y-91817415D01*
X139876384Y-91864291D01*
X139892219Y-91901024D01*
X139904210Y-91921991D01*
X140003510Y-92035694D01*
X140129412Y-92106965D01*
X140268709Y-92132538D01*
X140408195Y-92109150D01*
X140491257Y-92067119D01*
X140578455Y-91994411D01*
X140637883Y-91905612D01*
X140673739Y-91789320D01*
X140690219Y-91634135D01*
X140692553Y-91520287D01*
X140692239Y-91512106D01*
X140488276Y-91512106D01*
X140487030Y-91642657D01*
X140481322Y-91729080D01*
X140468196Y-91785618D01*
X140444694Y-91826514D01*
X140416614Y-91857362D01*
X140322312Y-91916905D01*
X140221060Y-91921992D01*
X140125364Y-91872279D01*
X140117916Y-91865543D01*
X140086126Y-91830502D01*
X140066192Y-91788811D01*
X140055400Y-91726762D01*
X140051035Y-91630644D01*
X140050345Y-91524379D01*
X140051841Y-91390880D01*
X140058036Y-91301822D01*
X140071486Y-91243293D01*
X140094749Y-91201382D01*
X140113825Y-91179123D01*
X140202437Y-91122985D01*
X140304492Y-91116235D01*
X140401905Y-91159114D01*
X140420704Y-91175032D01*
X140452707Y-91210382D01*
X140472682Y-91252502D01*
X140483407Y-91315251D01*
X140487661Y-91412487D01*
X140488276Y-91512106D01*
X140692239Y-91512106D01*
X140685496Y-91336947D01*
X140661528Y-91199195D01*
X140616452Y-91095632D01*
X140546072Y-91014856D01*
X140491257Y-90973455D01*
X140391624Y-90928728D01*
X140276145Y-90907967D01*
X140168801Y-90913525D01*
X140108736Y-90935943D01*
X140085165Y-90942323D01*
X140069523Y-90918535D01*
X140058605Y-90854788D01*
X140050345Y-90757687D01*
X140041301Y-90649541D01*
X140028739Y-90584475D01*
X140005881Y-90547268D01*
X139965949Y-90522699D01*
X139940862Y-90511819D01*
X139845977Y-90472072D01*
X139846086Y-91149455D01*
X139846086Y-91149455D01*
G37*
X139846086Y-91149455D02*
X139846457Y-91367661D01*
X139847892Y-91535519D01*
X139850998Y-91661070D01*
X139856378Y-91752355D01*
X139864638Y-91817415D01*
X139876384Y-91864291D01*
X139892219Y-91901024D01*
X139904210Y-91921991D01*
X140003510Y-92035694D01*
X140129412Y-92106965D01*
X140268709Y-92132538D01*
X140408195Y-92109150D01*
X140491257Y-92067119D01*
X140578455Y-91994411D01*
X140637883Y-91905612D01*
X140673739Y-91789320D01*
X140690219Y-91634135D01*
X140692553Y-91520287D01*
X140692239Y-91512106D01*
X140488276Y-91512106D01*
X140487030Y-91642657D01*
X140481322Y-91729080D01*
X140468196Y-91785618D01*
X140444694Y-91826514D01*
X140416614Y-91857362D01*
X140322312Y-91916905D01*
X140221060Y-91921992D01*
X140125364Y-91872279D01*
X140117916Y-91865543D01*
X140086126Y-91830502D01*
X140066192Y-91788811D01*
X140055400Y-91726762D01*
X140051035Y-91630644D01*
X140050345Y-91524379D01*
X140051841Y-91390880D01*
X140058036Y-91301822D01*
X140071486Y-91243293D01*
X140094749Y-91201382D01*
X140113825Y-91179123D01*
X140202437Y-91122985D01*
X140304492Y-91116235D01*
X140401905Y-91159114D01*
X140420704Y-91175032D01*
X140452707Y-91210382D01*
X140472682Y-91252502D01*
X140483407Y-91315251D01*
X140487661Y-91412487D01*
X140488276Y-91512106D01*
X140692239Y-91512106D01*
X140685496Y-91336947D01*
X140661528Y-91199195D01*
X140616452Y-91095632D01*
X140546072Y-91014856D01*
X140491257Y-90973455D01*
X140391624Y-90928728D01*
X140276145Y-90907967D01*
X140168801Y-90913525D01*
X140108736Y-90935943D01*
X140085165Y-90942323D01*
X140069523Y-90918535D01*
X140058605Y-90854788D01*
X140050345Y-90757687D01*
X140041301Y-90649541D01*
X140028739Y-90584475D01*
X140005881Y-90547268D01*
X139965949Y-90522699D01*
X139940862Y-90511819D01*
X139845977Y-90472072D01*
X139846086Y-91149455D01*
G36*
X138659876Y-90934840D02*
X138655421Y-91011653D01*
X138651929Y-91128391D01*
X138649685Y-91275821D01*
X138648965Y-91430455D01*
X138648965Y-91953727D01*
X138741355Y-92046117D01*
X138805022Y-92103047D01*
X138860911Y-92126107D01*
X138937298Y-92124647D01*
X138967620Y-92120934D01*
X139062390Y-92110126D01*
X139140778Y-92103933D01*
X139159885Y-92103361D01*
X139224301Y-92107102D01*
X139316429Y-92116494D01*
X139352150Y-92120934D01*
X139439886Y-92127801D01*
X139498847Y-92112885D01*
X139557310Y-92066835D01*
X139578415Y-92046117D01*
X139670805Y-91953727D01*
X139670805Y-90974947D01*
X139596442Y-90941066D01*
X139532410Y-90915970D01*
X139494948Y-90907184D01*
X139485343Y-90934950D01*
X139476365Y-91012530D01*
X139468614Y-91131348D01*
X139462686Y-91282828D01*
X139459827Y-91410805D01*
X139451839Y-91914425D01*
X139382152Y-91924278D01*
X139318771Y-91917389D01*
X139287714Y-91895083D01*
X139279033Y-91853379D01*
X139271622Y-91764544D01*
X139266069Y-91639834D01*
X139262964Y-91490507D01*
X139262516Y-91413661D01*
X139262069Y-90971287D01*
X139170126Y-90939235D01*
X139105051Y-90917443D01*
X139069653Y-90907281D01*
X139068632Y-90907184D01*
X139065080Y-90934809D01*
X139061177Y-91011411D01*
X139057249Y-91127579D01*
X139053624Y-91273904D01*
X139051092Y-91410805D01*
X139043103Y-91914425D01*
X138867931Y-91914425D01*
X138859893Y-91454965D01*
X138851854Y-90995505D01*
X138766457Y-90951344D01*
X138703407Y-90921019D01*
X138666090Y-90907258D01*
X138665013Y-90907184D01*
X138659876Y-90934840D01*
X138659876Y-90934840D01*
G37*
X138659876Y-90934840D02*
X138655421Y-91011653D01*
X138651929Y-91128391D01*
X138649685Y-91275821D01*
X138648965Y-91430455D01*
X138648965Y-91953727D01*
X138741355Y-92046117D01*
X138805022Y-92103047D01*
X138860911Y-92126107D01*
X138937298Y-92124647D01*
X138967620Y-92120934D01*
X139062390Y-92110126D01*
X139140778Y-92103933D01*
X139159885Y-92103361D01*
X139224301Y-92107102D01*
X139316429Y-92116494D01*
X139352150Y-92120934D01*
X139439886Y-92127801D01*
X139498847Y-92112885D01*
X139557310Y-92066835D01*
X139578415Y-92046117D01*
X139670805Y-91953727D01*
X139670805Y-90974947D01*
X139596442Y-90941066D01*
X139532410Y-90915970D01*
X139494948Y-90907184D01*
X139485343Y-90934950D01*
X139476365Y-91012530D01*
X139468614Y-91131348D01*
X139462686Y-91282828D01*
X139459827Y-91410805D01*
X139451839Y-91914425D01*
X139382152Y-91924278D01*
X139318771Y-91917389D01*
X139287714Y-91895083D01*
X139279033Y-91853379D01*
X139271622Y-91764544D01*
X139266069Y-91639834D01*
X139262964Y-91490507D01*
X139262516Y-91413661D01*
X139262069Y-90971287D01*
X139170126Y-90939235D01*
X139105051Y-90917443D01*
X139069653Y-90907281D01*
X139068632Y-90907184D01*
X139065080Y-90934809D01*
X139061177Y-91011411D01*
X139057249Y-91127579D01*
X139053624Y-91273904D01*
X139051092Y-91410805D01*
X139043103Y-91914425D01*
X138867931Y-91914425D01*
X138859893Y-91454965D01*
X138851854Y-90995505D01*
X138766457Y-90951344D01*
X138703407Y-90921019D01*
X138666090Y-90907258D01*
X138665013Y-90907184D01*
X138659876Y-90934840D01*
G36*
X137925594Y-90930156D02*
X137841531Y-90968393D01*
X137775550Y-91014726D01*
X137727206Y-91066532D01*
X137693828Y-91133363D01*
X137672747Y-91224769D01*
X137661293Y-91350301D01*
X137656797Y-91519508D01*
X137656322Y-91630933D01*
X137656322Y-92065627D01*
X137730684Y-92099509D01*
X137789254Y-92124272D01*
X137818270Y-92133391D01*
X137823821Y-92106257D01*
X137828225Y-92033094D01*
X137830922Y-91926263D01*
X137831494Y-91841437D01*
X137833954Y-91718887D01*
X137840588Y-91621668D01*
X137850274Y-91562134D01*
X137857968Y-91549483D01*
X137909689Y-91562402D01*
X137990883Y-91595539D01*
X138084898Y-91640461D01*
X138175083Y-91688735D01*
X138244785Y-91731928D01*
X138277352Y-91761608D01*
X138277481Y-91761929D01*
X138274680Y-91816857D01*
X138249561Y-91869292D01*
X138205459Y-91911881D01*
X138141091Y-91926126D01*
X138086079Y-91924466D01*
X138008165Y-91923245D01*
X137967268Y-91941498D01*
X137942705Y-91989726D01*
X137939608Y-91998820D01*
X137928960Y-92067598D01*
X137957435Y-92109360D01*
X138031656Y-92129263D01*
X138111832Y-92132944D01*
X138256110Y-92105658D01*
X138330797Y-92066690D01*
X138423037Y-91975148D01*
X138471957Y-91862782D01*
X138476346Y-91744051D01*
X138434999Y-91633411D01*
X138372803Y-91564080D01*
X138310706Y-91525265D01*
X138213105Y-91476125D01*
X138099368Y-91426292D01*
X138080410Y-91418677D01*
X137955479Y-91363545D01*
X137883461Y-91314954D01*
X137860300Y-91266647D01*
X137881936Y-91212370D01*
X137919080Y-91169943D01*
X138006873Y-91117702D01*
X138103470Y-91113784D01*
X138192056Y-91154041D01*
X138255814Y-91234326D01*
X138264183Y-91255040D01*
X138312904Y-91331225D01*
X138384035Y-91387785D01*
X138473793Y-91434201D01*
X138473793Y-91302584D01*
X138468510Y-91222168D01*
X138445858Y-91158786D01*
X138395633Y-91091163D01*
X138347418Y-91039076D01*
X138272446Y-90965322D01*
X138214194Y-90925702D01*
X138151628Y-90909810D01*
X138080807Y-90907184D01*
X137925594Y-90930156D01*
X137925594Y-90930156D01*
G37*
X137925594Y-90930156D02*
X137841531Y-90968393D01*
X137775550Y-91014726D01*
X137727206Y-91066532D01*
X137693828Y-91133363D01*
X137672747Y-91224769D01*
X137661293Y-91350301D01*
X137656797Y-91519508D01*
X137656322Y-91630933D01*
X137656322Y-92065627D01*
X137730684Y-92099509D01*
X137789254Y-92124272D01*
X137818270Y-92133391D01*
X137823821Y-92106257D01*
X137828225Y-92033094D01*
X137830922Y-91926263D01*
X137831494Y-91841437D01*
X137833954Y-91718887D01*
X137840588Y-91621668D01*
X137850274Y-91562134D01*
X137857968Y-91549483D01*
X137909689Y-91562402D01*
X137990883Y-91595539D01*
X138084898Y-91640461D01*
X138175083Y-91688735D01*
X138244785Y-91731928D01*
X138277352Y-91761608D01*
X138277481Y-91761929D01*
X138274680Y-91816857D01*
X138249561Y-91869292D01*
X138205459Y-91911881D01*
X138141091Y-91926126D01*
X138086079Y-91924466D01*
X138008165Y-91923245D01*
X137967268Y-91941498D01*
X137942705Y-91989726D01*
X137939608Y-91998820D01*
X137928960Y-92067598D01*
X137957435Y-92109360D01*
X138031656Y-92129263D01*
X138111832Y-92132944D01*
X138256110Y-92105658D01*
X138330797Y-92066690D01*
X138423037Y-91975148D01*
X138471957Y-91862782D01*
X138476346Y-91744051D01*
X138434999Y-91633411D01*
X138372803Y-91564080D01*
X138310706Y-91525265D01*
X138213105Y-91476125D01*
X138099368Y-91426292D01*
X138080410Y-91418677D01*
X137955479Y-91363545D01*
X137883461Y-91314954D01*
X137860300Y-91266647D01*
X137881936Y-91212370D01*
X137919080Y-91169943D01*
X138006873Y-91117702D01*
X138103470Y-91113784D01*
X138192056Y-91154041D01*
X138255814Y-91234326D01*
X138264183Y-91255040D01*
X138312904Y-91331225D01*
X138384035Y-91387785D01*
X138473793Y-91434201D01*
X138473793Y-91302584D01*
X138468510Y-91222168D01*
X138445858Y-91158786D01*
X138395633Y-91091163D01*
X138347418Y-91039076D01*
X138272446Y-90965322D01*
X138214194Y-90925702D01*
X138151628Y-90909810D01*
X138080807Y-90907184D01*
X137925594Y-90930156D01*
G36*
X136904310Y-90935018D02*
X136869415Y-90950269D01*
X136786123Y-91016235D01*
X136714897Y-91111618D01*
X136670847Y-91213406D01*
X136663678Y-91263587D01*
X136687715Y-91333647D01*
X136740439Y-91370717D01*
X136796969Y-91393164D01*
X136822854Y-91397300D01*
X136835458Y-91367283D01*
X136860346Y-91301961D01*
X136871265Y-91272445D01*
X136932492Y-91170348D01*
X137021139Y-91119423D01*
X137134807Y-91120989D01*
X137143226Y-91122994D01*
X137203912Y-91151767D01*
X137248526Y-91207859D01*
X137278998Y-91298163D01*
X137297256Y-91429571D01*
X137305229Y-91608974D01*
X137305977Y-91704433D01*
X137306348Y-91854913D01*
X137308777Y-91957495D01*
X137315240Y-92022672D01*
X137327712Y-92060938D01*
X137348167Y-92082785D01*
X137378581Y-92098707D01*
X137380339Y-92099509D01*
X137438909Y-92124272D01*
X137467925Y-92133391D01*
X137472384Y-92105822D01*
X137476201Y-92029620D01*
X137479101Y-91914541D01*
X137480809Y-91770341D01*
X137481149Y-91664814D01*
X137479412Y-91460613D01*
X137472618Y-91305697D01*
X137458393Y-91191024D01*
X137434362Y-91107551D01*
X137398152Y-91046236D01*
X137347388Y-90998034D01*
X137297261Y-90964393D01*
X137176725Y-90919619D01*
X137036443Y-90909521D01*
X136904310Y-90935018D01*
X136904310Y-90935018D01*
G37*
X136904310Y-90935018D02*
X136869415Y-90950269D01*
X136786123Y-91016235D01*
X136714897Y-91111618D01*
X136670847Y-91213406D01*
X136663678Y-91263587D01*
X136687715Y-91333647D01*
X136740439Y-91370717D01*
X136796969Y-91393164D01*
X136822854Y-91397300D01*
X136835458Y-91367283D01*
X136860346Y-91301961D01*
X136871265Y-91272445D01*
X136932492Y-91170348D01*
X137021139Y-91119423D01*
X137134807Y-91120989D01*
X137143226Y-91122994D01*
X137203912Y-91151767D01*
X137248526Y-91207859D01*
X137278998Y-91298163D01*
X137297256Y-91429571D01*
X137305229Y-91608974D01*
X137305977Y-91704433D01*
X137306348Y-91854913D01*
X137308777Y-91957495D01*
X137315240Y-92022672D01*
X137327712Y-92060938D01*
X137348167Y-92082785D01*
X137378581Y-92098707D01*
X137380339Y-92099509D01*
X137438909Y-92124272D01*
X137467925Y-92133391D01*
X137472384Y-92105822D01*
X137476201Y-92029620D01*
X137479101Y-91914541D01*
X137480809Y-91770341D01*
X137481149Y-91664814D01*
X137479412Y-91460613D01*
X137472618Y-91305697D01*
X137458393Y-91191024D01*
X137434362Y-91107551D01*
X137398152Y-91046236D01*
X137347388Y-90998034D01*
X137297261Y-90964393D01*
X137176725Y-90919619D01*
X137036443Y-90909521D01*
X136904310Y-90935018D01*
G36*
X135896561Y-90951540D02*
X135781050Y-91027034D01*
X135725336Y-91094617D01*
X135681196Y-91217255D01*
X135677691Y-91314298D01*
X135685632Y-91444056D01*
X135984885Y-91575039D01*
X136130389Y-91641958D01*
X136225463Y-91695790D01*
X136274899Y-91742416D01*
X136283489Y-91787720D01*
X136256028Y-91837582D01*
X136225747Y-91870632D01*
X136137637Y-91923633D01*
X136041804Y-91927347D01*
X135953788Y-91886041D01*
X135889131Y-91803983D01*
X135877567Y-91775008D01*
X135822175Y-91684509D01*
X135758447Y-91645940D01*
X135671034Y-91612946D01*
X135671034Y-91738034D01*
X135678762Y-91823156D01*
X135709034Y-91894938D01*
X135772482Y-91977356D01*
X135781912Y-91988066D01*
X135852487Y-92061391D01*
X135913153Y-92100742D01*
X135989050Y-92118845D01*
X136051970Y-92124774D01*
X136164513Y-92126251D01*
X136244630Y-92107535D01*
X136294610Y-92079747D01*
X136373162Y-92018641D01*
X136427537Y-91952554D01*
X136461948Y-91869441D01*
X136480612Y-91757254D01*
X136487744Y-91603946D01*
X136488313Y-91526136D01*
X136486378Y-91432853D01*
X136310101Y-91432853D01*
X136308056Y-91482896D01*
X136302961Y-91491092D01*
X136269334Y-91479958D01*
X136196970Y-91450493D01*
X136100253Y-91408601D01*
X136080027Y-91399597D01*
X135957797Y-91337442D01*
X135890453Y-91282815D01*
X135875652Y-91231649D01*
X135911053Y-91179876D01*
X135940289Y-91157000D01*
X136045784Y-91111250D01*
X136144524Y-91118808D01*
X136227188Y-91174651D01*
X136284452Y-91273753D01*
X136302812Y-91352414D01*
X136310101Y-91432853D01*
X136486378Y-91432853D01*
X136484541Y-91344351D01*
X136470641Y-91209853D01*
X136443106Y-91111916D01*
X136398428Y-91039811D01*
X136333099Y-90982813D01*
X136304617Y-90964393D01*
X136175237Y-90916422D01*
X136033588Y-90913403D01*
X135896561Y-90951540D01*
X135896561Y-90951540D01*
G37*
X135896561Y-90951540D02*
X135781050Y-91027034D01*
X135725336Y-91094617D01*
X135681196Y-91217255D01*
X135677691Y-91314298D01*
X135685632Y-91444056D01*
X135984885Y-91575039D01*
X136130389Y-91641958D01*
X136225463Y-91695790D01*
X136274899Y-91742416D01*
X136283489Y-91787720D01*
X136256028Y-91837582D01*
X136225747Y-91870632D01*
X136137637Y-91923633D01*
X136041804Y-91927347D01*
X135953788Y-91886041D01*
X135889131Y-91803983D01*
X135877567Y-91775008D01*
X135822175Y-91684509D01*
X135758447Y-91645940D01*
X135671034Y-91612946D01*
X135671034Y-91738034D01*
X135678762Y-91823156D01*
X135709034Y-91894938D01*
X135772482Y-91977356D01*
X135781912Y-91988066D01*
X135852487Y-92061391D01*
X135913153Y-92100742D01*
X135989050Y-92118845D01*
X136051970Y-92124774D01*
X136164513Y-92126251D01*
X136244630Y-92107535D01*
X136294610Y-92079747D01*
X136373162Y-92018641D01*
X136427537Y-91952554D01*
X136461948Y-91869441D01*
X136480612Y-91757254D01*
X136487744Y-91603946D01*
X136488313Y-91526136D01*
X136486378Y-91432853D01*
X136310101Y-91432853D01*
X136308056Y-91482896D01*
X136302961Y-91491092D01*
X136269334Y-91479958D01*
X136196970Y-91450493D01*
X136100253Y-91408601D01*
X136080027Y-91399597D01*
X135957797Y-91337442D01*
X135890453Y-91282815D01*
X135875652Y-91231649D01*
X135911053Y-91179876D01*
X135940289Y-91157000D01*
X136045784Y-91111250D01*
X136144524Y-91118808D01*
X136227188Y-91174651D01*
X136284452Y-91273753D01*
X136302812Y-91352414D01*
X136310101Y-91432853D01*
X136486378Y-91432853D01*
X136484541Y-91344351D01*
X136470641Y-91209853D01*
X136443106Y-91111916D01*
X136398428Y-91039811D01*
X136333099Y-90982813D01*
X136304617Y-90964393D01*
X136175237Y-90916422D01*
X136033588Y-90913403D01*
X135896561Y-90951540D01*
G36*
X142030986Y-81447998D02*
X141872994Y-81448863D01*
X141758653Y-81451205D01*
X141680593Y-81455762D01*
X141631446Y-81463270D01*
X141603841Y-81474466D01*
X141590408Y-81490088D01*
X141583779Y-81510873D01*
X141583135Y-81513563D01*
X141573065Y-81562113D01*
X141554425Y-81657905D01*
X141529155Y-81790743D01*
X141499193Y-81950431D01*
X141466478Y-82126774D01*
X141465336Y-82132967D01*
X141432567Y-82305782D01*
X141401907Y-82458469D01*
X141375336Y-82581871D01*
X141354833Y-82666831D01*
X141342374Y-82704190D01*
X141341780Y-82704852D01*
X141305081Y-82723095D01*
X141229414Y-82753497D01*
X141131122Y-82789493D01*
X141130575Y-82789685D01*
X141006767Y-82836222D01*
X140860804Y-82895504D01*
X140723219Y-82955109D01*
X140716707Y-82958056D01*
X140492610Y-83059765D01*
X139996381Y-82720897D01*
X139844154Y-82617592D01*
X139706259Y-82525237D01*
X139590685Y-82449084D01*
X139505421Y-82394385D01*
X139458456Y-82366393D01*
X139453996Y-82364317D01*
X139419866Y-82373560D01*
X139356119Y-82418156D01*
X139260269Y-82500209D01*
X139129831Y-82621821D01*
X138996672Y-82751205D01*
X138868306Y-82878702D01*
X138753419Y-82995046D01*
X138658927Y-83093052D01*
X138591747Y-83165536D01*
X138558794Y-83205313D01*
X138557568Y-83207361D01*
X138553926Y-83234656D01*
X138567650Y-83279234D01*
X138602131Y-83347112D01*
X138660761Y-83444311D01*
X138746930Y-83576851D01*
X138861800Y-83747476D01*
X138963746Y-83897655D01*
X139054877Y-84032350D01*
X139129927Y-84143740D01*
X139183631Y-84224005D01*
X139210720Y-84265325D01*
X139212426Y-84268130D01*
X139209118Y-84307721D01*
X139184047Y-84384669D01*
X139142202Y-84484432D01*
X139127288Y-84516291D01*
X139062214Y-84658226D01*
X138992788Y-84819273D01*
X138936391Y-84958621D01*
X138895753Y-85062044D01*
X138863474Y-85140642D01*
X138844822Y-85181720D01*
X138842503Y-85184885D01*
X138808197Y-85190128D01*
X138727331Y-85204494D01*
X138610657Y-85225937D01*
X138468925Y-85252413D01*
X138312890Y-85281877D01*
X138153302Y-85312283D01*
X138000915Y-85341588D01*
X137866479Y-85367745D01*
X137760748Y-85388710D01*
X137694474Y-85402439D01*
X137678218Y-85406320D01*
X137661427Y-85415900D01*
X137648751Y-85437536D01*
X137639622Y-85478531D01*
X137633469Y-85546189D01*
X137629720Y-85647812D01*
X137627808Y-85790703D01*
X137627160Y-85982165D01*
X137627126Y-86060645D01*
X137627126Y-86698906D01*
X137780402Y-86729160D01*
X137865678Y-86745564D01*
X137992930Y-86769509D01*
X138146685Y-86798107D01*
X138311466Y-86828467D01*
X138357011Y-86836806D01*
X138509068Y-86866370D01*
X138641532Y-86895442D01*
X138743286Y-86921329D01*
X138803212Y-86941337D01*
X138813195Y-86947301D01*
X138837707Y-86989534D01*
X138872852Y-87071370D01*
X138911827Y-87176683D01*
X138919558Y-87199368D01*
X138970640Y-87340018D01*
X139034046Y-87498714D01*
X139096096Y-87641225D01*
X139096402Y-87641886D01*
X139199733Y-87865440D01*
X138520039Y-88865232D01*
X138956379Y-89302300D01*
X139088351Y-89432381D01*
X139208721Y-89547048D01*
X139310727Y-89640181D01*
X139387609Y-89705658D01*
X139432607Y-89737357D01*
X139439062Y-89739368D01*
X139476960Y-89723529D01*
X139554292Y-89679496D01*
X139662611Y-89612490D01*
X139793468Y-89527734D01*
X139934948Y-89432816D01*
X140078539Y-89335998D01*
X140206565Y-89251751D01*
X140310895Y-89185258D01*
X140383400Y-89141702D01*
X140415842Y-89126264D01*
X140455424Y-89139328D01*
X140530481Y-89173750D01*
X140625532Y-89222380D01*
X140635608Y-89227785D01*
X140763609Y-89291980D01*
X140851382Y-89323463D01*
X140905972Y-89323798D01*
X140934425Y-89294548D01*
X140934590Y-89294138D01*
X140948812Y-89259498D01*
X140982731Y-89177269D01*
X141033716Y-89053814D01*
X141099138Y-88895498D01*
X141176366Y-88708686D01*
X141262771Y-88499742D01*
X141346449Y-88297446D01*
X141438412Y-88074200D01*
X141522850Y-87867392D01*
X141597231Y-87683362D01*
X141659026Y-87528451D01*
X141705703Y-87408996D01*
X141734732Y-87331339D01*
X141743678Y-87302356D01*
X141721244Y-87269110D01*
X141662561Y-87216123D01*
X141584311Y-87157704D01*
X141361466Y-86972952D01*
X141187282Y-86761182D01*
X141063846Y-86526856D01*
X140993246Y-86274434D01*
X140977569Y-86008377D01*
X140988964Y-85885575D01*
X141051050Y-85630793D01*
X141157977Y-85405801D01*
X141303111Y-85212817D01*
X141479822Y-85054061D01*
X141681478Y-84931750D01*
X141901446Y-84848105D01*
X142133094Y-84805344D01*
X142369791Y-84805687D01*
X142604905Y-84851352D01*
X142831804Y-84944559D01*
X143043856Y-85087527D01*
X143132364Y-85168383D01*
X143302111Y-85376007D01*
X143420301Y-85602895D01*
X143487722Y-85842433D01*
X143505160Y-86088007D01*
X143473402Y-86333003D01*
X143393235Y-86570808D01*
X143265445Y-86794807D01*
X143090820Y-86998387D01*
X142895688Y-87157704D01*
X142814409Y-87218602D01*
X142756991Y-87271015D01*
X142736322Y-87302406D01*
X142747144Y-87336639D01*
X142777923Y-87418419D01*
X142826126Y-87541407D01*
X142889222Y-87699263D01*
X142964678Y-87885649D01*
X143049962Y-88094226D01*
X143133781Y-88297496D01*
X143226255Y-88520933D01*
X143311911Y-88727984D01*
X143388118Y-88912286D01*
X143452247Y-89067475D01*
X143501668Y-89187188D01*
X143533752Y-89265061D01*
X143545641Y-89294138D01*
X143573726Y-89323677D01*
X143628051Y-89323591D01*
X143715605Y-89292326D01*
X143843381Y-89228329D01*
X143844392Y-89227785D01*
X143940598Y-89178121D01*
X144018369Y-89141945D01*
X144062223Y-89126408D01*
X144064158Y-89126264D01*
X144097171Y-89142024D01*
X144170054Y-89185850D01*
X144274678Y-89252557D01*
X144402910Y-89336964D01*
X144545052Y-89432816D01*
X144689767Y-89529867D01*
X144820196Y-89614270D01*
X144927890Y-89680801D01*
X145004402Y-89724238D01*
X145040938Y-89739368D01*
X145074582Y-89719482D01*
X145142224Y-89663903D01*
X145237107Y-89578754D01*
X145352470Y-89470153D01*
X145481555Y-89344221D01*
X145523771Y-89302149D01*
X145960261Y-88864931D01*
X145628023Y-88377340D01*
X145527054Y-88227605D01*
X145438438Y-88093220D01*
X145367146Y-87981969D01*
X145318150Y-87901639D01*
X145296422Y-87860014D01*
X145295785Y-87857053D01*
X145307240Y-87817818D01*
X145338051Y-87738895D01*
X145382884Y-87633509D01*
X145414353Y-87562954D01*
X145473192Y-87427876D01*
X145528604Y-87291409D01*
X145571564Y-87176103D01*
X145583234Y-87140977D01*
X145616389Y-87047174D01*
X145648799Y-86974694D01*
X145666601Y-86947301D01*
X145705886Y-86930536D01*
X145791626Y-86906770D01*
X145912697Y-86878697D01*
X146057973Y-86849009D01*
X146122988Y-86836806D01*
X146288087Y-86806468D01*
X146446448Y-86777093D01*
X146582596Y-86751569D01*
X146681057Y-86732785D01*
X146699598Y-86729160D01*
X146852873Y-86698906D01*
X146852873Y-86060645D01*
X146852529Y-85850770D01*
X146851116Y-85691980D01*
X146848064Y-85576973D01*
X146842803Y-85498446D01*
X146834763Y-85449096D01*
X146823373Y-85421619D01*
X146808063Y-85408713D01*
X146801782Y-85406320D01*
X146763896Y-85397833D01*
X146680195Y-85380900D01*
X146561433Y-85357566D01*
X146418361Y-85329875D01*
X146261732Y-85299873D01*
X146102297Y-85269604D01*
X145950809Y-85241115D01*
X145818019Y-85216449D01*
X145714681Y-85197651D01*
X145651545Y-85186767D01*
X145637497Y-85184885D01*
X145624770Y-85159704D01*
X145596600Y-85092622D01*
X145558252Y-84996333D01*
X145543609Y-84958621D01*
X145484548Y-84812921D01*
X145415000Y-84651951D01*
X145352712Y-84516291D01*
X145306879Y-84412561D01*
X145276387Y-84327326D01*
X145266208Y-84275126D01*
X145267831Y-84268130D01*
X145289343Y-84235102D01*
X145338465Y-84161643D01*
X145409923Y-84055577D01*
X145498445Y-83924726D01*
X145598759Y-83776912D01*
X145618594Y-83747734D01*
X145734988Y-83574863D01*
X145820548Y-83443226D01*
X145878684Y-83346761D01*
X145912808Y-83279408D01*
X145926331Y-83235106D01*
X145922664Y-83207794D01*
X145922570Y-83207620D01*
X145893707Y-83171746D01*
X145829867Y-83102391D01*
X145737969Y-83006745D01*
X145624933Y-82891999D01*
X145497679Y-82765341D01*
X145483328Y-82751205D01*
X145322957Y-82595903D01*
X145199195Y-82481870D01*
X145109555Y-82407002D01*
X145051552Y-82369196D01*
X145026004Y-82364317D01*
X144988718Y-82385603D01*
X144911343Y-82434773D01*
X144801867Y-82506575D01*
X144668280Y-82595755D01*
X144518570Y-82697063D01*
X144483618Y-82720897D01*
X143987390Y-83059765D01*
X143763293Y-82958056D01*
X143627011Y-82898783D01*
X143480724Y-82839170D01*
X143354965Y-82791640D01*
X143349425Y-82789685D01*
X143251057Y-82753677D01*
X143175229Y-82723229D01*
X143138282Y-82704905D01*
X143138220Y-82704852D01*
X143126496Y-82671729D01*
X143106568Y-82590267D01*
X143080413Y-82469625D01*
X143050010Y-82318959D01*
X143017337Y-82147428D01*
X143014664Y-82132967D01*
X142981890Y-81956235D01*
X142951802Y-81795810D01*
X142926339Y-81661888D01*
X142907441Y-81564663D01*
X142897047Y-81514332D01*
X142896865Y-81513563D01*
X142890539Y-81492153D01*
X142878239Y-81475988D01*
X142852594Y-81464331D01*
X142806235Y-81456445D01*
X142731792Y-81451593D01*
X142621895Y-81449039D01*
X142469175Y-81448045D01*
X142266262Y-81447874D01*
X142240000Y-81447874D01*
X142030986Y-81447998D01*
X142030986Y-81447998D01*
G37*
X142030986Y-81447998D02*
X141872994Y-81448863D01*
X141758653Y-81451205D01*
X141680593Y-81455762D01*
X141631446Y-81463270D01*
X141603841Y-81474466D01*
X141590408Y-81490088D01*
X141583779Y-81510873D01*
X141583135Y-81513563D01*
X141573065Y-81562113D01*
X141554425Y-81657905D01*
X141529155Y-81790743D01*
X141499193Y-81950431D01*
X141466478Y-82126774D01*
X141465336Y-82132967D01*
X141432567Y-82305782D01*
X141401907Y-82458469D01*
X141375336Y-82581871D01*
X141354833Y-82666831D01*
X141342374Y-82704190D01*
X141341780Y-82704852D01*
X141305081Y-82723095D01*
X141229414Y-82753497D01*
X141131122Y-82789493D01*
X141130575Y-82789685D01*
X141006767Y-82836222D01*
X140860804Y-82895504D01*
X140723219Y-82955109D01*
X140716707Y-82958056D01*
X140492610Y-83059765D01*
X139996381Y-82720897D01*
X139844154Y-82617592D01*
X139706259Y-82525237D01*
X139590685Y-82449084D01*
X139505421Y-82394385D01*
X139458456Y-82366393D01*
X139453996Y-82364317D01*
X139419866Y-82373560D01*
X139356119Y-82418156D01*
X139260269Y-82500209D01*
X139129831Y-82621821D01*
X138996672Y-82751205D01*
X138868306Y-82878702D01*
X138753419Y-82995046D01*
X138658927Y-83093052D01*
X138591747Y-83165536D01*
X138558794Y-83205313D01*
X138557568Y-83207361D01*
X138553926Y-83234656D01*
X138567650Y-83279234D01*
X138602131Y-83347112D01*
X138660761Y-83444311D01*
X138746930Y-83576851D01*
X138861800Y-83747476D01*
X138963746Y-83897655D01*
X139054877Y-84032350D01*
X139129927Y-84143740D01*
X139183631Y-84224005D01*
X139210720Y-84265325D01*
X139212426Y-84268130D01*
X139209118Y-84307721D01*
X139184047Y-84384669D01*
X139142202Y-84484432D01*
X139127288Y-84516291D01*
X139062214Y-84658226D01*
X138992788Y-84819273D01*
X138936391Y-84958621D01*
X138895753Y-85062044D01*
X138863474Y-85140642D01*
X138844822Y-85181720D01*
X138842503Y-85184885D01*
X138808197Y-85190128D01*
X138727331Y-85204494D01*
X138610657Y-85225937D01*
X138468925Y-85252413D01*
X138312890Y-85281877D01*
X138153302Y-85312283D01*
X138000915Y-85341588D01*
X137866479Y-85367745D01*
X137760748Y-85388710D01*
X137694474Y-85402439D01*
X137678218Y-85406320D01*
X137661427Y-85415900D01*
X137648751Y-85437536D01*
X137639622Y-85478531D01*
X137633469Y-85546189D01*
X137629720Y-85647812D01*
X137627808Y-85790703D01*
X137627160Y-85982165D01*
X137627126Y-86060645D01*
X137627126Y-86698906D01*
X137780402Y-86729160D01*
X137865678Y-86745564D01*
X137992930Y-86769509D01*
X138146685Y-86798107D01*
X138311466Y-86828467D01*
X138357011Y-86836806D01*
X138509068Y-86866370D01*
X138641532Y-86895442D01*
X138743286Y-86921329D01*
X138803212Y-86941337D01*
X138813195Y-86947301D01*
X138837707Y-86989534D01*
X138872852Y-87071370D01*
X138911827Y-87176683D01*
X138919558Y-87199368D01*
X138970640Y-87340018D01*
X139034046Y-87498714D01*
X139096096Y-87641225D01*
X139096402Y-87641886D01*
X139199733Y-87865440D01*
X138520039Y-88865232D01*
X138956379Y-89302300D01*
X139088351Y-89432381D01*
X139208721Y-89547048D01*
X139310727Y-89640181D01*
X139387609Y-89705658D01*
X139432607Y-89737357D01*
X139439062Y-89739368D01*
X139476960Y-89723529D01*
X139554292Y-89679496D01*
X139662611Y-89612490D01*
X139793468Y-89527734D01*
X139934948Y-89432816D01*
X140078539Y-89335998D01*
X140206565Y-89251751D01*
X140310895Y-89185258D01*
X140383400Y-89141702D01*
X140415842Y-89126264D01*
X140455424Y-89139328D01*
X140530481Y-89173750D01*
X140625532Y-89222380D01*
X140635608Y-89227785D01*
X140763609Y-89291980D01*
X140851382Y-89323463D01*
X140905972Y-89323798D01*
X140934425Y-89294548D01*
X140934590Y-89294138D01*
X140948812Y-89259498D01*
X140982731Y-89177269D01*
X141033716Y-89053814D01*
X141099138Y-88895498D01*
X141176366Y-88708686D01*
X141262771Y-88499742D01*
X141346449Y-88297446D01*
X141438412Y-88074200D01*
X141522850Y-87867392D01*
X141597231Y-87683362D01*
X141659026Y-87528451D01*
X141705703Y-87408996D01*
X141734732Y-87331339D01*
X141743678Y-87302356D01*
X141721244Y-87269110D01*
X141662561Y-87216123D01*
X141584311Y-87157704D01*
X141361466Y-86972952D01*
X141187282Y-86761182D01*
X141063846Y-86526856D01*
X140993246Y-86274434D01*
X140977569Y-86008377D01*
X140988964Y-85885575D01*
X141051050Y-85630793D01*
X141157977Y-85405801D01*
X141303111Y-85212817D01*
X141479822Y-85054061D01*
X141681478Y-84931750D01*
X141901446Y-84848105D01*
X142133094Y-84805344D01*
X142369791Y-84805687D01*
X142604905Y-84851352D01*
X142831804Y-84944559D01*
X143043856Y-85087527D01*
X143132364Y-85168383D01*
X143302111Y-85376007D01*
X143420301Y-85602895D01*
X143487722Y-85842433D01*
X143505160Y-86088007D01*
X143473402Y-86333003D01*
X143393235Y-86570808D01*
X143265445Y-86794807D01*
X143090820Y-86998387D01*
X142895688Y-87157704D01*
X142814409Y-87218602D01*
X142756991Y-87271015D01*
X142736322Y-87302406D01*
X142747144Y-87336639D01*
X142777923Y-87418419D01*
X142826126Y-87541407D01*
X142889222Y-87699263D01*
X142964678Y-87885649D01*
X143049962Y-88094226D01*
X143133781Y-88297496D01*
X143226255Y-88520933D01*
X143311911Y-88727984D01*
X143388118Y-88912286D01*
X143452247Y-89067475D01*
X143501668Y-89187188D01*
X143533752Y-89265061D01*
X143545641Y-89294138D01*
X143573726Y-89323677D01*
X143628051Y-89323591D01*
X143715605Y-89292326D01*
X143843381Y-89228329D01*
X143844392Y-89227785D01*
X143940598Y-89178121D01*
X144018369Y-89141945D01*
X144062223Y-89126408D01*
X144064158Y-89126264D01*
X144097171Y-89142024D01*
X144170054Y-89185850D01*
X144274678Y-89252557D01*
X144402910Y-89336964D01*
X144545052Y-89432816D01*
X144689767Y-89529867D01*
X144820196Y-89614270D01*
X144927890Y-89680801D01*
X145004402Y-89724238D01*
X145040938Y-89739368D01*
X145074582Y-89719482D01*
X145142224Y-89663903D01*
X145237107Y-89578754D01*
X145352470Y-89470153D01*
X145481555Y-89344221D01*
X145523771Y-89302149D01*
X145960261Y-88864931D01*
X145628023Y-88377340D01*
X145527054Y-88227605D01*
X145438438Y-88093220D01*
X145367146Y-87981969D01*
X145318150Y-87901639D01*
X145296422Y-87860014D01*
X145295785Y-87857053D01*
X145307240Y-87817818D01*
X145338051Y-87738895D01*
X145382884Y-87633509D01*
X145414353Y-87562954D01*
X145473192Y-87427876D01*
X145528604Y-87291409D01*
X145571564Y-87176103D01*
X145583234Y-87140977D01*
X145616389Y-87047174D01*
X145648799Y-86974694D01*
X145666601Y-86947301D01*
X145705886Y-86930536D01*
X145791626Y-86906770D01*
X145912697Y-86878697D01*
X146057973Y-86849009D01*
X146122988Y-86836806D01*
X146288087Y-86806468D01*
X146446448Y-86777093D01*
X146582596Y-86751569D01*
X146681057Y-86732785D01*
X146699598Y-86729160D01*
X146852873Y-86698906D01*
X146852873Y-86060645D01*
X146852529Y-85850770D01*
X146851116Y-85691980D01*
X146848064Y-85576973D01*
X146842803Y-85498446D01*
X146834763Y-85449096D01*
X146823373Y-85421619D01*
X146808063Y-85408713D01*
X146801782Y-85406320D01*
X146763896Y-85397833D01*
X146680195Y-85380900D01*
X146561433Y-85357566D01*
X146418361Y-85329875D01*
X146261732Y-85299873D01*
X146102297Y-85269604D01*
X145950809Y-85241115D01*
X145818019Y-85216449D01*
X145714681Y-85197651D01*
X145651545Y-85186767D01*
X145637497Y-85184885D01*
X145624770Y-85159704D01*
X145596600Y-85092622D01*
X145558252Y-84996333D01*
X145543609Y-84958621D01*
X145484548Y-84812921D01*
X145415000Y-84651951D01*
X145352712Y-84516291D01*
X145306879Y-84412561D01*
X145276387Y-84327326D01*
X145266208Y-84275126D01*
X145267831Y-84268130D01*
X145289343Y-84235102D01*
X145338465Y-84161643D01*
X145409923Y-84055577D01*
X145498445Y-83924726D01*
X145598759Y-83776912D01*
X145618594Y-83747734D01*
X145734988Y-83574863D01*
X145820548Y-83443226D01*
X145878684Y-83346761D01*
X145912808Y-83279408D01*
X145926331Y-83235106D01*
X145922664Y-83207794D01*
X145922570Y-83207620D01*
X145893707Y-83171746D01*
X145829867Y-83102391D01*
X145737969Y-83006745D01*
X145624933Y-82891999D01*
X145497679Y-82765341D01*
X145483328Y-82751205D01*
X145322957Y-82595903D01*
X145199195Y-82481870D01*
X145109555Y-82407002D01*
X145051552Y-82369196D01*
X145026004Y-82364317D01*
X144988718Y-82385603D01*
X144911343Y-82434773D01*
X144801867Y-82506575D01*
X144668280Y-82595755D01*
X144518570Y-82697063D01*
X144483618Y-82720897D01*
X143987390Y-83059765D01*
X143763293Y-82958056D01*
X143627011Y-82898783D01*
X143480724Y-82839170D01*
X143354965Y-82791640D01*
X143349425Y-82789685D01*
X143251057Y-82753677D01*
X143175229Y-82723229D01*
X143138282Y-82704905D01*
X143138220Y-82704852D01*
X143126496Y-82671729D01*
X143106568Y-82590267D01*
X143080413Y-82469625D01*
X143050010Y-82318959D01*
X143017337Y-82147428D01*
X143014664Y-82132967D01*
X142981890Y-81956235D01*
X142951802Y-81795810D01*
X142926339Y-81661888D01*
X142907441Y-81564663D01*
X142897047Y-81514332D01*
X142896865Y-81513563D01*
X142890539Y-81492153D01*
X142878239Y-81475988D01*
X142852594Y-81464331D01*
X142806235Y-81456445D01*
X142731792Y-81451593D01*
X142621895Y-81449039D01*
X142469175Y-81448045D01*
X142266262Y-81447874D01*
X142240000Y-81447874D01*
X142030986Y-81447998D01*
G36*
X151875248Y-93969348D02*
X151696171Y-93988752D01*
X151529757Y-94027666D01*
X151360497Y-94092193D01*
X151172879Y-94188438D01*
X150951393Y-94322506D01*
X150680528Y-94500500D01*
X150628391Y-94535609D01*
X150436575Y-94662720D01*
X150269636Y-94768866D01*
X150139816Y-94846622D01*
X150059355Y-94888560D01*
X150039252Y-94893029D01*
X150037527Y-94869286D01*
X150041243Y-94869000D01*
X150041523Y-94868578D01*
X149945053Y-94868578D01*
X149911534Y-95019731D01*
X149900844Y-95041116D01*
X149842470Y-95113638D01*
X149797056Y-95105188D01*
X149776897Y-95024021D01*
X149684872Y-95024021D01*
X149665699Y-95164266D01*
X149606000Y-95250000D01*
X149482366Y-95323776D01*
X149350641Y-95319094D01*
X149260084Y-95264605D01*
X149198282Y-95158171D01*
X149187442Y-95022068D01*
X149228266Y-94894761D01*
X149252728Y-94861750D01*
X149361628Y-94795492D01*
X149488377Y-94791550D01*
X149598913Y-94848399D01*
X149624767Y-94878419D01*
X149684872Y-95024021D01*
X149776897Y-95024021D01*
X149775759Y-95019442D01*
X149775334Y-94999763D01*
X149739286Y-94871166D01*
X149648334Y-94769663D01*
X149554637Y-94684475D01*
X149530425Y-94637561D01*
X149576206Y-94618097D01*
X149655584Y-94615000D01*
X149807133Y-94648935D01*
X149906938Y-94739220D01*
X149945053Y-94868578D01*
X150041523Y-94868578D01*
X150060068Y-94840654D01*
X150037456Y-94771168D01*
X149986852Y-94683873D01*
X149921701Y-94602098D01*
X149857513Y-94550214D01*
X149702442Y-94494786D01*
X149569301Y-94510955D01*
X149450499Y-94585065D01*
X149331797Y-94675165D01*
X149216396Y-94754078D01*
X149111033Y-94864685D01*
X149067733Y-95009743D01*
X149085958Y-95166698D01*
X149165166Y-95312998D01*
X149231330Y-95378219D01*
X149256872Y-95404225D01*
X149260305Y-95433317D01*
X149233283Y-95473071D01*
X149167460Y-95531064D01*
X149054491Y-95614874D01*
X148886032Y-95732077D01*
X148707792Y-95853555D01*
X148324323Y-96117837D01*
X148009293Y-96344304D01*
X147757906Y-96537633D01*
X147565370Y-96702499D01*
X147426890Y-96843580D01*
X147337673Y-96965551D01*
X147292925Y-97073089D01*
X147287851Y-97170871D01*
X147301386Y-97225486D01*
X147358501Y-97323366D01*
X147457493Y-97404021D01*
X147603509Y-97468078D01*
X147801698Y-97516165D01*
X148057206Y-97548909D01*
X148375182Y-97566938D01*
X148760773Y-97570879D01*
X149219127Y-97561360D01*
X149755392Y-97539009D01*
X149838834Y-97534796D01*
X150275565Y-97504787D01*
X150683062Y-97459247D01*
X151086443Y-97393945D01*
X151510824Y-97304650D01*
X151981324Y-97187131D01*
X152113678Y-97151602D01*
X152440487Y-97064058D01*
X152720570Y-96993206D01*
X152968897Y-96937290D01*
X153200437Y-96894554D01*
X153430159Y-96863239D01*
X153673032Y-96841591D01*
X153944025Y-96827851D01*
X154258108Y-96820264D01*
X154630249Y-96817072D01*
X154968995Y-96816503D01*
X155319125Y-96815146D01*
X155637188Y-96811360D01*
X155913150Y-96805438D01*
X156136976Y-96797670D01*
X156298633Y-96788348D01*
X156388086Y-96777762D01*
X156397745Y-96775048D01*
X156479459Y-96718561D01*
X156506334Y-96657638D01*
X156477547Y-96598668D01*
X156399464Y-96496781D01*
X156284504Y-96367022D01*
X156164832Y-96243840D01*
X155835022Y-95905587D01*
X155551422Y-95589716D01*
X155317804Y-95301411D01*
X155137938Y-95045853D01*
X155015596Y-94828226D01*
X154954548Y-94653711D01*
X154948840Y-94572667D01*
X154966847Y-94473836D01*
X155016150Y-94415962D01*
X155121795Y-94370807D01*
X155130500Y-94367876D01*
X155309751Y-94339474D01*
X155547837Y-94348661D01*
X155829662Y-94391765D01*
X156140131Y-94465112D01*
X156464146Y-94565031D01*
X156786612Y-94687848D01*
X157092433Y-94829891D01*
X157146701Y-94858369D01*
X157181671Y-94838090D01*
X157199387Y-94804428D01*
X157178472Y-94748496D01*
X157087789Y-94679087D01*
X156940265Y-94600883D01*
X156748830Y-94518566D01*
X156526411Y-94436820D01*
X156285937Y-94360326D01*
X156040335Y-94293769D01*
X155802533Y-94241829D01*
X155585460Y-94209191D01*
X155545505Y-94205377D01*
X155341789Y-94196228D01*
X155185955Y-94211286D01*
X155051199Y-94250867D01*
X154905902Y-94329639D01*
X154817875Y-94435468D01*
X154788433Y-94571403D01*
X154818886Y-94740490D01*
X154910547Y-94945778D01*
X155064729Y-95190313D01*
X155282743Y-95477143D01*
X155565902Y-95809316D01*
X155861360Y-96132334D01*
X156038856Y-96323542D01*
X156163046Y-96462869D01*
X156240133Y-96558661D01*
X156276318Y-96619264D01*
X156277803Y-96653024D01*
X156258161Y-96666317D01*
X156197071Y-96672286D01*
X156062371Y-96677040D01*
X155865108Y-96680465D01*
X155616331Y-96682448D01*
X155327089Y-96682874D01*
X155008429Y-96681630D01*
X154871135Y-96680604D01*
X154470244Y-96677723D01*
X154138522Y-96677806D01*
X153860479Y-96682690D01*
X153620624Y-96694216D01*
X153403468Y-96714223D01*
X153193519Y-96744548D01*
X152975288Y-96787031D01*
X152733284Y-96843512D01*
X152452017Y-96915828D01*
X152115996Y-97005819D01*
X152103667Y-97009146D01*
X151682294Y-97118744D01*
X151302254Y-97207268D01*
X150945864Y-97276948D01*
X150595443Y-97330016D01*
X150233306Y-97368702D01*
X149841771Y-97395240D01*
X149403154Y-97411858D01*
X148899773Y-97420789D01*
X148836115Y-97421432D01*
X148476035Y-97422559D01*
X148189883Y-97417410D01*
X147967059Y-97404546D01*
X147796962Y-97382528D01*
X147668992Y-97349916D01*
X147572549Y-97305270D01*
X147497033Y-97247152D01*
X147488061Y-97238394D01*
X147452870Y-97196915D01*
X147432259Y-97153002D01*
X147429930Y-97103693D01*
X147449582Y-97046026D01*
X147494914Y-96977038D01*
X147569627Y-96893768D01*
X147677419Y-96793253D01*
X147821991Y-96672532D01*
X148007043Y-96528642D01*
X148236274Y-96358621D01*
X148513383Y-96159508D01*
X148842072Y-95928339D01*
X149226039Y-95662154D01*
X149668984Y-95357990D01*
X150174607Y-95012885D01*
X150746607Y-94623877D01*
X150793379Y-94592106D01*
X151077867Y-94407086D01*
X151317942Y-94272292D01*
X151531727Y-94180876D01*
X151737347Y-94125992D01*
X151952927Y-94100792D01*
X152103667Y-94097077D01*
X152439281Y-94121125D01*
X152773085Y-94194976D01*
X153117156Y-94323292D01*
X153483570Y-94510736D01*
X153884403Y-94761970D01*
X153960745Y-94814054D01*
X154152685Y-94941705D01*
X154286424Y-95018903D01*
X154368935Y-95049240D01*
X154402970Y-95041964D01*
X154421449Y-95019771D01*
X154422001Y-94995855D01*
X154395013Y-94961493D01*
X154330873Y-94907961D01*
X154219968Y-94826537D01*
X154052684Y-94708498D01*
X153977337Y-94655730D01*
X153551439Y-94383140D01*
X153151088Y-94182164D01*
X152764417Y-94048465D01*
X152379558Y-93977708D01*
X152082500Y-93963350D01*
X151875248Y-93969348D01*
X151875248Y-93969348D01*
G37*
X151875248Y-93969348D02*
X151696171Y-93988752D01*
X151529757Y-94027666D01*
X151360497Y-94092193D01*
X151172879Y-94188438D01*
X150951393Y-94322506D01*
X150680528Y-94500500D01*
X150628391Y-94535609D01*
X150436575Y-94662720D01*
X150269636Y-94768866D01*
X150139816Y-94846622D01*
X150059355Y-94888560D01*
X150039252Y-94893029D01*
X150037527Y-94869286D01*
X150041243Y-94869000D01*
X150041523Y-94868578D01*
X149945053Y-94868578D01*
X149911534Y-95019731D01*
X149900844Y-95041116D01*
X149842470Y-95113638D01*
X149797056Y-95105188D01*
X149776897Y-95024021D01*
X149684872Y-95024021D01*
X149665699Y-95164266D01*
X149606000Y-95250000D01*
X149482366Y-95323776D01*
X149350641Y-95319094D01*
X149260084Y-95264605D01*
X149198282Y-95158171D01*
X149187442Y-95022068D01*
X149228266Y-94894761D01*
X149252728Y-94861750D01*
X149361628Y-94795492D01*
X149488377Y-94791550D01*
X149598913Y-94848399D01*
X149624767Y-94878419D01*
X149684872Y-95024021D01*
X149776897Y-95024021D01*
X149775759Y-95019442D01*
X149775334Y-94999763D01*
X149739286Y-94871166D01*
X149648334Y-94769663D01*
X149554637Y-94684475D01*
X149530425Y-94637561D01*
X149576206Y-94618097D01*
X149655584Y-94615000D01*
X149807133Y-94648935D01*
X149906938Y-94739220D01*
X149945053Y-94868578D01*
X150041523Y-94868578D01*
X150060068Y-94840654D01*
X150037456Y-94771168D01*
X149986852Y-94683873D01*
X149921701Y-94602098D01*
X149857513Y-94550214D01*
X149702442Y-94494786D01*
X149569301Y-94510955D01*
X149450499Y-94585065D01*
X149331797Y-94675165D01*
X149216396Y-94754078D01*
X149111033Y-94864685D01*
X149067733Y-95009743D01*
X149085958Y-95166698D01*
X149165166Y-95312998D01*
X149231330Y-95378219D01*
X149256872Y-95404225D01*
X149260305Y-95433317D01*
X149233283Y-95473071D01*
X149167460Y-95531064D01*
X149054491Y-95614874D01*
X148886032Y-95732077D01*
X148707792Y-95853555D01*
X148324323Y-96117837D01*
X148009293Y-96344304D01*
X147757906Y-96537633D01*
X147565370Y-96702499D01*
X147426890Y-96843580D01*
X147337673Y-96965551D01*
X147292925Y-97073089D01*
X147287851Y-97170871D01*
X147301386Y-97225486D01*
X147358501Y-97323366D01*
X147457493Y-97404021D01*
X147603509Y-97468078D01*
X147801698Y-97516165D01*
X148057206Y-97548909D01*
X148375182Y-97566938D01*
X148760773Y-97570879D01*
X149219127Y-97561360D01*
X149755392Y-97539009D01*
X149838834Y-97534796D01*
X150275565Y-97504787D01*
X150683062Y-97459247D01*
X151086443Y-97393945D01*
X151510824Y-97304650D01*
X151981324Y-97187131D01*
X152113678Y-97151602D01*
X152440487Y-97064058D01*
X152720570Y-96993206D01*
X152968897Y-96937290D01*
X153200437Y-96894554D01*
X153430159Y-96863239D01*
X153673032Y-96841591D01*
X153944025Y-96827851D01*
X154258108Y-96820264D01*
X154630249Y-96817072D01*
X154968995Y-96816503D01*
X155319125Y-96815146D01*
X155637188Y-96811360D01*
X155913150Y-96805438D01*
X156136976Y-96797670D01*
X156298633Y-96788348D01*
X156388086Y-96777762D01*
X156397745Y-96775048D01*
X156479459Y-96718561D01*
X156506334Y-96657638D01*
X156477547Y-96598668D01*
X156399464Y-96496781D01*
X156284504Y-96367022D01*
X156164832Y-96243840D01*
X155835022Y-95905587D01*
X155551422Y-95589716D01*
X155317804Y-95301411D01*
X155137938Y-95045853D01*
X155015596Y-94828226D01*
X154954548Y-94653711D01*
X154948840Y-94572667D01*
X154966847Y-94473836D01*
X155016150Y-94415962D01*
X155121795Y-94370807D01*
X155130500Y-94367876D01*
X155309751Y-94339474D01*
X155547837Y-94348661D01*
X155829662Y-94391765D01*
X156140131Y-94465112D01*
X156464146Y-94565031D01*
X156786612Y-94687848D01*
X157092433Y-94829891D01*
X157146701Y-94858369D01*
X157181671Y-94838090D01*
X157199387Y-94804428D01*
X157178472Y-94748496D01*
X157087789Y-94679087D01*
X156940265Y-94600883D01*
X156748830Y-94518566D01*
X156526411Y-94436820D01*
X156285937Y-94360326D01*
X156040335Y-94293769D01*
X155802533Y-94241829D01*
X155585460Y-94209191D01*
X155545505Y-94205377D01*
X155341789Y-94196228D01*
X155185955Y-94211286D01*
X155051199Y-94250867D01*
X154905902Y-94329639D01*
X154817875Y-94435468D01*
X154788433Y-94571403D01*
X154818886Y-94740490D01*
X154910547Y-94945778D01*
X155064729Y-95190313D01*
X155282743Y-95477143D01*
X155565902Y-95809316D01*
X155861360Y-96132334D01*
X156038856Y-96323542D01*
X156163046Y-96462869D01*
X156240133Y-96558661D01*
X156276318Y-96619264D01*
X156277803Y-96653024D01*
X156258161Y-96666317D01*
X156197071Y-96672286D01*
X156062371Y-96677040D01*
X155865108Y-96680465D01*
X155616331Y-96682448D01*
X155327089Y-96682874D01*
X155008429Y-96681630D01*
X154871135Y-96680604D01*
X154470244Y-96677723D01*
X154138522Y-96677806D01*
X153860479Y-96682690D01*
X153620624Y-96694216D01*
X153403468Y-96714223D01*
X153193519Y-96744548D01*
X152975288Y-96787031D01*
X152733284Y-96843512D01*
X152452017Y-96915828D01*
X152115996Y-97005819D01*
X152103667Y-97009146D01*
X151682294Y-97118744D01*
X151302254Y-97207268D01*
X150945864Y-97276948D01*
X150595443Y-97330016D01*
X150233306Y-97368702D01*
X149841771Y-97395240D01*
X149403154Y-97411858D01*
X148899773Y-97420789D01*
X148836115Y-97421432D01*
X148476035Y-97422559D01*
X148189883Y-97417410D01*
X147967059Y-97404546D01*
X147796962Y-97382528D01*
X147668992Y-97349916D01*
X147572549Y-97305270D01*
X147497033Y-97247152D01*
X147488061Y-97238394D01*
X147452870Y-97196915D01*
X147432259Y-97153002D01*
X147429930Y-97103693D01*
X147449582Y-97046026D01*
X147494914Y-96977038D01*
X147569627Y-96893768D01*
X147677419Y-96793253D01*
X147821991Y-96672532D01*
X148007043Y-96528642D01*
X148236274Y-96358621D01*
X148513383Y-96159508D01*
X148842072Y-95928339D01*
X149226039Y-95662154D01*
X149668984Y-95357990D01*
X150174607Y-95012885D01*
X150746607Y-94623877D01*
X150793379Y-94592106D01*
X151077867Y-94407086D01*
X151317942Y-94272292D01*
X151531727Y-94180876D01*
X151737347Y-94125992D01*
X151952927Y-94100792D01*
X152103667Y-94097077D01*
X152439281Y-94121125D01*
X152773085Y-94194976D01*
X153117156Y-94323292D01*
X153483570Y-94510736D01*
X153884403Y-94761970D01*
X153960745Y-94814054D01*
X154152685Y-94941705D01*
X154286424Y-95018903D01*
X154368935Y-95049240D01*
X154402970Y-95041964D01*
X154421449Y-95019771D01*
X154422001Y-94995855D01*
X154395013Y-94961493D01*
X154330873Y-94907961D01*
X154219968Y-94826537D01*
X154052684Y-94708498D01*
X153977337Y-94655730D01*
X153551439Y-94383140D01*
X153151088Y-94182164D01*
X152764417Y-94048465D01*
X152379558Y-93977708D01*
X152082500Y-93963350D01*
X151875248Y-93969348D01*
G36*
X149390781Y-96575553D02*
X149383750Y-96576724D01*
X149279684Y-96590515D01*
X149119263Y-96607006D01*
X148930622Y-96623408D01*
X148851054Y-96629505D01*
X148645133Y-96650011D01*
X148504912Y-96675809D01*
X148439150Y-96705197D01*
X148436076Y-96710239D01*
X148447910Y-96768211D01*
X148496043Y-96871851D01*
X148567271Y-96999544D01*
X148648388Y-97129676D01*
X148726188Y-97240632D01*
X148787466Y-97310796D01*
X148811264Y-97324333D01*
X148823213Y-97294748D01*
X148793379Y-97229083D01*
X148668456Y-97027653D01*
X148592193Y-96894345D01*
X148564135Y-96828318D01*
X148572323Y-96821406D01*
X148624983Y-96847161D01*
X148733939Y-96902228D01*
X148880284Y-96977016D01*
X148964798Y-97020473D01*
X149120271Y-97096998D01*
X149246336Y-97152331D01*
X149325303Y-97179051D01*
X149342270Y-97178841D01*
X149354460Y-97163019D01*
X149348137Y-97145399D01*
X149311297Y-97118424D01*
X149231933Y-97074535D01*
X149098040Y-97006173D01*
X148950851Y-96932413D01*
X148570868Y-96742341D01*
X148739184Y-96717583D01*
X148869390Y-96700991D01*
X149044573Y-96681912D01*
X149214417Y-96665616D01*
X149363262Y-96647021D01*
X149472327Y-96623105D01*
X149520615Y-96598652D01*
X149521334Y-96595659D01*
X149484716Y-96571967D01*
X149390781Y-96575553D01*
X149390781Y-96575553D01*
G37*
X149390781Y-96575553D02*
X149383750Y-96576724D01*
X149279684Y-96590515D01*
X149119263Y-96607006D01*
X148930622Y-96623408D01*
X148851054Y-96629505D01*
X148645133Y-96650011D01*
X148504912Y-96675809D01*
X148439150Y-96705197D01*
X148436076Y-96710239D01*
X148447910Y-96768211D01*
X148496043Y-96871851D01*
X148567271Y-96999544D01*
X148648388Y-97129676D01*
X148726188Y-97240632D01*
X148787466Y-97310796D01*
X148811264Y-97324333D01*
X148823213Y-97294748D01*
X148793379Y-97229083D01*
X148668456Y-97027653D01*
X148592193Y-96894345D01*
X148564135Y-96828318D01*
X148572323Y-96821406D01*
X148624983Y-96847161D01*
X148733939Y-96902228D01*
X148880284Y-96977016D01*
X148964798Y-97020473D01*
X149120271Y-97096998D01*
X149246336Y-97152331D01*
X149325303Y-97179051D01*
X149342270Y-97178841D01*
X149354460Y-97163019D01*
X149348137Y-97145399D01*
X149311297Y-97118424D01*
X149231933Y-97074535D01*
X149098040Y-97006173D01*
X148950851Y-96932413D01*
X148570868Y-96742341D01*
X148739184Y-96717583D01*
X148869390Y-96700991D01*
X149044573Y-96681912D01*
X149214417Y-96665616D01*
X149363262Y-96647021D01*
X149472327Y-96623105D01*
X149520615Y-96598652D01*
X149521334Y-96595659D01*
X149484716Y-96571967D01*
X149390781Y-96575553D01*
G36*
X149039527Y-95927469D02*
X148988681Y-96003002D01*
X148983879Y-96091846D01*
X149037988Y-96167952D01*
X149123888Y-96217105D01*
X149189760Y-96203468D01*
X149245258Y-96155028D01*
X149298661Y-96056183D01*
X149287134Y-96016844D01*
X149116688Y-96016844D01*
X149115080Y-96060947D01*
X149070198Y-96078764D01*
X149043128Y-96058727D01*
X149017016Y-96004579D01*
X149023923Y-95987300D01*
X149075147Y-95978707D01*
X149116688Y-96016844D01*
X149287134Y-96016844D01*
X149270633Y-95960531D01*
X149214417Y-95910920D01*
X149120182Y-95888892D01*
X149039527Y-95927469D01*
X149039527Y-95927469D01*
G37*
X149039527Y-95927469D02*
X148988681Y-96003002D01*
X148983879Y-96091846D01*
X149037988Y-96167952D01*
X149123888Y-96217105D01*
X149189760Y-96203468D01*
X149245258Y-96155028D01*
X149298661Y-96056183D01*
X149287134Y-96016844D01*
X149116688Y-96016844D01*
X149115080Y-96060947D01*
X149070198Y-96078764D01*
X149043128Y-96058727D01*
X149017016Y-96004579D01*
X149023923Y-95987300D01*
X149075147Y-95978707D01*
X149116688Y-96016844D01*
X149287134Y-96016844D01*
X149270633Y-95960531D01*
X149214417Y-95910920D01*
X149120182Y-95888892D01*
X149039527Y-95927469D01*
M02*
