G04 #@! TF.FileFunction,Legend,Top*
%FSLAX46Y46*%
G04 Gerber Fmt 4.6, Leading zero omitted, Abs format (unit mm)*
G04 Created by KiCad (PCBNEW 4.0.6) date 05/07/17 15:41:17*
%MOMM*%
%LPD*%
G01*
G04 APERTURE LIST*
%ADD10C,0.100000*%
%ADD11C,0.150000*%
%ADD12C,0.010000*%
%ADD13C,0.120000*%
G04 APERTURE END LIST*
D10*
D11*
X147343905Y-117292381D02*
X147343905Y-116292381D01*
X147582000Y-116292381D01*
X147724858Y-116340000D01*
X147820096Y-116435238D01*
X147867715Y-116530476D01*
X147915334Y-116720952D01*
X147915334Y-116863810D01*
X147867715Y-117054286D01*
X147820096Y-117149524D01*
X147724858Y-117244762D01*
X147582000Y-117292381D01*
X147343905Y-117292381D01*
X148248667Y-116292381D02*
X148915334Y-116292381D01*
X148486762Y-117292381D01*
X144803905Y-117292381D02*
X144803905Y-116292381D01*
X145042000Y-116292381D01*
X145184858Y-116340000D01*
X145280096Y-116435238D01*
X145327715Y-116530476D01*
X145375334Y-116720952D01*
X145375334Y-116863810D01*
X145327715Y-117054286D01*
X145280096Y-117149524D01*
X145184858Y-117244762D01*
X145042000Y-117292381D01*
X144803905Y-117292381D01*
X146232477Y-116292381D02*
X146042000Y-116292381D01*
X145946762Y-116340000D01*
X145899143Y-116387619D01*
X145803905Y-116530476D01*
X145756286Y-116720952D01*
X145756286Y-117101905D01*
X145803905Y-117197143D01*
X145851524Y-117244762D01*
X145946762Y-117292381D01*
X146137239Y-117292381D01*
X146232477Y-117244762D01*
X146280096Y-117197143D01*
X146327715Y-117101905D01*
X146327715Y-116863810D01*
X146280096Y-116768571D01*
X146232477Y-116720952D01*
X146137239Y-116673333D01*
X145946762Y-116673333D01*
X145851524Y-116720952D01*
X145803905Y-116768571D01*
X145756286Y-116863810D01*
X142263905Y-117292381D02*
X142263905Y-116292381D01*
X142502000Y-116292381D01*
X142644858Y-116340000D01*
X142740096Y-116435238D01*
X142787715Y-116530476D01*
X142835334Y-116720952D01*
X142835334Y-116863810D01*
X142787715Y-117054286D01*
X142740096Y-117149524D01*
X142644858Y-117244762D01*
X142502000Y-117292381D01*
X142263905Y-117292381D01*
X143740096Y-116292381D02*
X143263905Y-116292381D01*
X143216286Y-116768571D01*
X143263905Y-116720952D01*
X143359143Y-116673333D01*
X143597239Y-116673333D01*
X143692477Y-116720952D01*
X143740096Y-116768571D01*
X143787715Y-116863810D01*
X143787715Y-117101905D01*
X143740096Y-117197143D01*
X143692477Y-117244762D01*
X143597239Y-117292381D01*
X143359143Y-117292381D01*
X143263905Y-117244762D01*
X143216286Y-117197143D01*
X139723905Y-117292381D02*
X139723905Y-116292381D01*
X139962000Y-116292381D01*
X140104858Y-116340000D01*
X140200096Y-116435238D01*
X140247715Y-116530476D01*
X140295334Y-116720952D01*
X140295334Y-116863810D01*
X140247715Y-117054286D01*
X140200096Y-117149524D01*
X140104858Y-117244762D01*
X139962000Y-117292381D01*
X139723905Y-117292381D01*
X141152477Y-116625714D02*
X141152477Y-117292381D01*
X140914381Y-116244762D02*
X140676286Y-116959048D01*
X141295334Y-116959048D01*
X137056905Y-117292381D02*
X137056905Y-116292381D01*
X137295000Y-116292381D01*
X137437858Y-116340000D01*
X137533096Y-116435238D01*
X137580715Y-116530476D01*
X137628334Y-116720952D01*
X137628334Y-116863810D01*
X137580715Y-117054286D01*
X137533096Y-117149524D01*
X137437858Y-117244762D01*
X137295000Y-117292381D01*
X137056905Y-117292381D01*
X137961667Y-116292381D02*
X138580715Y-116292381D01*
X138247381Y-116673333D01*
X138390239Y-116673333D01*
X138485477Y-116720952D01*
X138533096Y-116768571D01*
X138580715Y-116863810D01*
X138580715Y-117101905D01*
X138533096Y-117197143D01*
X138485477Y-117244762D01*
X138390239Y-117292381D01*
X138104524Y-117292381D01*
X138009286Y-117244762D01*
X137961667Y-117197143D01*
X134643905Y-117292381D02*
X134643905Y-116292381D01*
X134882000Y-116292381D01*
X135024858Y-116340000D01*
X135120096Y-116435238D01*
X135167715Y-116530476D01*
X135215334Y-116720952D01*
X135215334Y-116863810D01*
X135167715Y-117054286D01*
X135120096Y-117149524D01*
X135024858Y-117244762D01*
X134882000Y-117292381D01*
X134643905Y-117292381D01*
X135596286Y-116387619D02*
X135643905Y-116340000D01*
X135739143Y-116292381D01*
X135977239Y-116292381D01*
X136072477Y-116340000D01*
X136120096Y-116387619D01*
X136167715Y-116482857D01*
X136167715Y-116578095D01*
X136120096Y-116720952D01*
X135548667Y-117292381D01*
X136167715Y-117292381D01*
X132103905Y-117292381D02*
X132103905Y-116292381D01*
X132342000Y-116292381D01*
X132484858Y-116340000D01*
X132580096Y-116435238D01*
X132627715Y-116530476D01*
X132675334Y-116720952D01*
X132675334Y-116863810D01*
X132627715Y-117054286D01*
X132580096Y-117149524D01*
X132484858Y-117244762D01*
X132342000Y-117292381D01*
X132103905Y-117292381D01*
X133627715Y-117292381D02*
X133056286Y-117292381D01*
X133342000Y-117292381D02*
X133342000Y-116292381D01*
X133246762Y-116435238D01*
X133151524Y-116530476D01*
X133056286Y-116578095D01*
X129436905Y-117292381D02*
X129436905Y-116292381D01*
X129675000Y-116292381D01*
X129817858Y-116340000D01*
X129913096Y-116435238D01*
X129960715Y-116530476D01*
X130008334Y-116720952D01*
X130008334Y-116863810D01*
X129960715Y-117054286D01*
X129913096Y-117149524D01*
X129817858Y-117244762D01*
X129675000Y-117292381D01*
X129436905Y-117292381D01*
X130627381Y-116292381D02*
X130722620Y-116292381D01*
X130817858Y-116340000D01*
X130865477Y-116387619D01*
X130913096Y-116482857D01*
X130960715Y-116673333D01*
X130960715Y-116911429D01*
X130913096Y-117101905D01*
X130865477Y-117197143D01*
X130817858Y-117244762D01*
X130722620Y-117292381D01*
X130627381Y-117292381D01*
X130532143Y-117244762D01*
X130484524Y-117197143D01*
X130436905Y-117101905D01*
X130389286Y-116911429D01*
X130389286Y-116673333D01*
X130436905Y-116482857D01*
X130484524Y-116387619D01*
X130532143Y-116340000D01*
X130627381Y-116292381D01*
X150018809Y-116292381D02*
X150114048Y-116292381D01*
X150209286Y-116340000D01*
X150256905Y-116387619D01*
X150304524Y-116482857D01*
X150352143Y-116673333D01*
X150352143Y-116911429D01*
X150304524Y-117101905D01*
X150256905Y-117197143D01*
X150209286Y-117244762D01*
X150114048Y-117292381D01*
X150018809Y-117292381D01*
X149923571Y-117244762D01*
X149875952Y-117197143D01*
X149828333Y-117101905D01*
X149780714Y-116911429D01*
X149780714Y-116673333D01*
X149828333Y-116482857D01*
X149875952Y-116387619D01*
X149923571Y-116340000D01*
X150018809Y-116292381D01*
X150637857Y-116292381D02*
X150971190Y-117292381D01*
X151304524Y-116292381D01*
X152971524Y-116292381D02*
X152495333Y-116292381D01*
X152447714Y-116768571D01*
X152495333Y-116720952D01*
X152590571Y-116673333D01*
X152828667Y-116673333D01*
X152923905Y-116720952D01*
X152971524Y-116768571D01*
X153019143Y-116863810D01*
X153019143Y-117101905D01*
X152971524Y-117197143D01*
X152923905Y-117244762D01*
X152828667Y-117292381D01*
X152590571Y-117292381D01*
X152495333Y-117244762D01*
X152447714Y-117197143D01*
X153304857Y-116292381D02*
X153638190Y-117292381D01*
X153971524Y-116292381D01*
X127533570Y-121562762D02*
X127676427Y-121610381D01*
X127914523Y-121610381D01*
X128009761Y-121562762D01*
X128057380Y-121515143D01*
X128104999Y-121419905D01*
X128104999Y-121324667D01*
X128057380Y-121229429D01*
X128009761Y-121181810D01*
X127914523Y-121134190D01*
X127724046Y-121086571D01*
X127628808Y-121038952D01*
X127581189Y-120991333D01*
X127533570Y-120896095D01*
X127533570Y-120800857D01*
X127581189Y-120705619D01*
X127628808Y-120658000D01*
X127724046Y-120610381D01*
X127962142Y-120610381D01*
X128104999Y-120658000D01*
X128533570Y-121610381D02*
X128533570Y-120943714D01*
X128533570Y-121038952D02*
X128581189Y-120991333D01*
X128676427Y-120943714D01*
X128819285Y-120943714D01*
X128914523Y-120991333D01*
X128962142Y-121086571D01*
X128962142Y-121610381D01*
X128962142Y-121086571D02*
X129009761Y-120991333D01*
X129104999Y-120943714D01*
X129247856Y-120943714D01*
X129343094Y-120991333D01*
X129390713Y-121086571D01*
X129390713Y-121610381D01*
X130295475Y-121610381D02*
X130295475Y-121086571D01*
X130247856Y-120991333D01*
X130152618Y-120943714D01*
X129962141Y-120943714D01*
X129866903Y-120991333D01*
X130295475Y-121562762D02*
X130200237Y-121610381D01*
X129962141Y-121610381D01*
X129866903Y-121562762D01*
X129819284Y-121467524D01*
X129819284Y-121372286D01*
X129866903Y-121277048D01*
X129962141Y-121229429D01*
X130200237Y-121229429D01*
X130295475Y-121181810D01*
X130914522Y-121610381D02*
X130819284Y-121562762D01*
X130771665Y-121467524D01*
X130771665Y-120610381D01*
X131438332Y-121610381D02*
X131343094Y-121562762D01*
X131295475Y-121467524D01*
X131295475Y-120610381D01*
X131724047Y-120943714D02*
X131962142Y-121610381D01*
X132200238Y-120943714D02*
X131962142Y-121610381D01*
X131866904Y-121848476D01*
X131819285Y-121896095D01*
X131724047Y-121943714D01*
X132581190Y-121610381D02*
X132581190Y-120610381D01*
X132914524Y-121324667D01*
X133247857Y-120610381D01*
X133247857Y-121610381D01*
X133866904Y-121610381D02*
X133771666Y-121562762D01*
X133724047Y-121515143D01*
X133676428Y-121419905D01*
X133676428Y-121134190D01*
X133724047Y-121038952D01*
X133771666Y-120991333D01*
X133866904Y-120943714D01*
X134009762Y-120943714D01*
X134105000Y-120991333D01*
X134152619Y-121038952D01*
X134200238Y-121134190D01*
X134200238Y-121419905D01*
X134152619Y-121515143D01*
X134105000Y-121562762D01*
X134009762Y-121610381D01*
X133866904Y-121610381D01*
X135057381Y-120943714D02*
X135057381Y-121610381D01*
X134628809Y-120943714D02*
X134628809Y-121467524D01*
X134676428Y-121562762D01*
X134771666Y-121610381D01*
X134914524Y-121610381D01*
X135009762Y-121562762D01*
X135057381Y-121515143D01*
X135485952Y-121562762D02*
X135581190Y-121610381D01*
X135771666Y-121610381D01*
X135866905Y-121562762D01*
X135914524Y-121467524D01*
X135914524Y-121419905D01*
X135866905Y-121324667D01*
X135771666Y-121277048D01*
X135628809Y-121277048D01*
X135533571Y-121229429D01*
X135485952Y-121134190D01*
X135485952Y-121086571D01*
X135533571Y-120991333D01*
X135628809Y-120943714D01*
X135771666Y-120943714D01*
X135866905Y-120991333D01*
X136724048Y-121562762D02*
X136628810Y-121610381D01*
X136438333Y-121610381D01*
X136343095Y-121562762D01*
X136295476Y-121467524D01*
X136295476Y-121086571D01*
X136343095Y-120991333D01*
X136438333Y-120943714D01*
X136628810Y-120943714D01*
X136724048Y-120991333D01*
X136771667Y-121086571D01*
X136771667Y-121181810D01*
X136295476Y-121277048D01*
X137152619Y-120705619D02*
X137200238Y-120658000D01*
X137295476Y-120610381D01*
X137533572Y-120610381D01*
X137628810Y-120658000D01*
X137676429Y-120705619D01*
X137724048Y-120800857D01*
X137724048Y-120896095D01*
X137676429Y-121038952D01*
X137105000Y-121610381D01*
X137724048Y-121610381D01*
X138914524Y-121229429D02*
X139676429Y-121229429D01*
X141200239Y-121991333D02*
X141152619Y-121943714D01*
X141057381Y-121800857D01*
X141009762Y-121705619D01*
X140962143Y-121562762D01*
X140914524Y-121324667D01*
X140914524Y-121134190D01*
X140962143Y-120896095D01*
X141009762Y-120753238D01*
X141057381Y-120658000D01*
X141152619Y-120515143D01*
X141200239Y-120467524D01*
X142009763Y-121562762D02*
X141914525Y-121610381D01*
X141724048Y-121610381D01*
X141628810Y-121562762D01*
X141581191Y-121515143D01*
X141533572Y-121419905D01*
X141533572Y-121134190D01*
X141581191Y-121038952D01*
X141628810Y-120991333D01*
X141724048Y-120943714D01*
X141914525Y-120943714D01*
X142009763Y-120991333D01*
X142343096Y-121991333D02*
X142390715Y-121943714D01*
X142485953Y-121800857D01*
X142533572Y-121705619D01*
X142581191Y-121562762D01*
X142628810Y-121324667D01*
X142628810Y-121134190D01*
X142581191Y-120896095D01*
X142533572Y-120753238D01*
X142485953Y-120658000D01*
X142390715Y-120515143D01*
X142343096Y-120467524D01*
X143057382Y-120705619D02*
X143105001Y-120658000D01*
X143200239Y-120610381D01*
X143438335Y-120610381D01*
X143533573Y-120658000D01*
X143581192Y-120705619D01*
X143628811Y-120800857D01*
X143628811Y-120896095D01*
X143581192Y-121038952D01*
X143009763Y-121610381D01*
X143628811Y-121610381D01*
X144247858Y-120610381D02*
X144343097Y-120610381D01*
X144438335Y-120658000D01*
X144485954Y-120705619D01*
X144533573Y-120800857D01*
X144581192Y-120991333D01*
X144581192Y-121229429D01*
X144533573Y-121419905D01*
X144485954Y-121515143D01*
X144438335Y-121562762D01*
X144343097Y-121610381D01*
X144247858Y-121610381D01*
X144152620Y-121562762D01*
X144105001Y-121515143D01*
X144057382Y-121419905D01*
X144009763Y-121229429D01*
X144009763Y-120991333D01*
X144057382Y-120800857D01*
X144105001Y-120705619D01*
X144152620Y-120658000D01*
X144247858Y-120610381D01*
X145533573Y-121610381D02*
X144962144Y-121610381D01*
X145247858Y-121610381D02*
X145247858Y-120610381D01*
X145152620Y-120753238D01*
X145057382Y-120848476D01*
X144962144Y-120896095D01*
X145866906Y-120610381D02*
X146533573Y-120610381D01*
X146105001Y-121610381D01*
X147628811Y-121562762D02*
X147771668Y-121610381D01*
X148009764Y-121610381D01*
X148105002Y-121562762D01*
X148152621Y-121515143D01*
X148200240Y-121419905D01*
X148200240Y-121324667D01*
X148152621Y-121229429D01*
X148105002Y-121181810D01*
X148009764Y-121134190D01*
X147819287Y-121086571D01*
X147724049Y-121038952D01*
X147676430Y-120991333D01*
X147628811Y-120896095D01*
X147628811Y-120800857D01*
X147676430Y-120705619D01*
X147724049Y-120658000D01*
X147819287Y-120610381D01*
X148057383Y-120610381D01*
X148200240Y-120658000D01*
X148628811Y-121610381D02*
X148628811Y-120943714D01*
X148628811Y-120610381D02*
X148581192Y-120658000D01*
X148628811Y-120705619D01*
X148676430Y-120658000D01*
X148628811Y-120610381D01*
X148628811Y-120705619D01*
X149105001Y-121610381D02*
X149105001Y-120943714D01*
X149105001Y-121038952D02*
X149152620Y-120991333D01*
X149247858Y-120943714D01*
X149390716Y-120943714D01*
X149485954Y-120991333D01*
X149533573Y-121086571D01*
X149533573Y-121610381D01*
X149533573Y-121086571D02*
X149581192Y-120991333D01*
X149676430Y-120943714D01*
X149819287Y-120943714D01*
X149914525Y-120991333D01*
X149962144Y-121086571D01*
X149962144Y-121610381D01*
X150581191Y-121610381D02*
X150485953Y-121562762D01*
X150438334Y-121515143D01*
X150390715Y-121419905D01*
X150390715Y-121134190D01*
X150438334Y-121038952D01*
X150485953Y-120991333D01*
X150581191Y-120943714D01*
X150724049Y-120943714D01*
X150819287Y-120991333D01*
X150866906Y-121038952D01*
X150914525Y-121134190D01*
X150914525Y-121419905D01*
X150866906Y-121515143D01*
X150819287Y-121562762D01*
X150724049Y-121610381D01*
X150581191Y-121610381D01*
X151343096Y-120943714D02*
X151343096Y-121610381D01*
X151343096Y-121038952D02*
X151390715Y-120991333D01*
X151485953Y-120943714D01*
X151628811Y-120943714D01*
X151724049Y-120991333D01*
X151771668Y-121086571D01*
X151771668Y-121610381D01*
X153009763Y-121610381D02*
X153009763Y-120610381D01*
X153485953Y-120943714D02*
X153485953Y-121610381D01*
X153485953Y-121038952D02*
X153533572Y-120991333D01*
X153628810Y-120943714D01*
X153771668Y-120943714D01*
X153866906Y-120991333D01*
X153914525Y-121086571D01*
X153914525Y-121610381D01*
X154390715Y-120943714D02*
X154390715Y-121610381D01*
X154390715Y-121038952D02*
X154438334Y-120991333D01*
X154533572Y-120943714D01*
X154676430Y-120943714D01*
X154771668Y-120991333D01*
X154819287Y-121086571D01*
X154819287Y-121610381D01*
X155247858Y-121562762D02*
X155343096Y-121610381D01*
X155533572Y-121610381D01*
X155628811Y-121562762D01*
X155676430Y-121467524D01*
X155676430Y-121419905D01*
X155628811Y-121324667D01*
X155533572Y-121277048D01*
X155390715Y-121277048D01*
X155295477Y-121229429D01*
X155247858Y-121134190D01*
X155247858Y-121086571D01*
X155295477Y-120991333D01*
X155390715Y-120943714D01*
X155533572Y-120943714D01*
X155628811Y-120991333D01*
X123531381Y-102861905D02*
X124340905Y-102861905D01*
X124436143Y-102814286D01*
X124483762Y-102766667D01*
X124531381Y-102671429D01*
X124531381Y-102480952D01*
X124483762Y-102385714D01*
X124436143Y-102338095D01*
X124340905Y-102290476D01*
X123531381Y-102290476D01*
X124483762Y-101861905D02*
X124531381Y-101719048D01*
X124531381Y-101480952D01*
X124483762Y-101385714D01*
X124436143Y-101338095D01*
X124340905Y-101290476D01*
X124245667Y-101290476D01*
X124150429Y-101338095D01*
X124102810Y-101385714D01*
X124055190Y-101480952D01*
X124007571Y-101671429D01*
X123959952Y-101766667D01*
X123912333Y-101814286D01*
X123817095Y-101861905D01*
X123721857Y-101861905D01*
X123626619Y-101814286D01*
X123579000Y-101766667D01*
X123531381Y-101671429D01*
X123531381Y-101433333D01*
X123579000Y-101290476D01*
X124007571Y-100528571D02*
X124055190Y-100385714D01*
X124102810Y-100338095D01*
X124198048Y-100290476D01*
X124340905Y-100290476D01*
X124436143Y-100338095D01*
X124483762Y-100385714D01*
X124531381Y-100480952D01*
X124531381Y-100861905D01*
X123531381Y-100861905D01*
X123531381Y-100528571D01*
X123579000Y-100433333D01*
X123626619Y-100385714D01*
X123721857Y-100338095D01*
X123817095Y-100338095D01*
X123912333Y-100385714D01*
X123959952Y-100433333D01*
X124007571Y-100528571D01*
X124007571Y-100861905D01*
X130849857Y-102814381D02*
X130849857Y-101814381D01*
X130849857Y-102290571D02*
X131421286Y-102290571D01*
X131421286Y-102814381D02*
X131421286Y-101814381D01*
X131802238Y-101814381D02*
X132040333Y-102814381D01*
X132230810Y-102100095D01*
X132421286Y-102814381D01*
X132659381Y-101814381D01*
X133373667Y-102290571D02*
X133516524Y-102338190D01*
X133564143Y-102385810D01*
X133611762Y-102481048D01*
X133611762Y-102623905D01*
X133564143Y-102719143D01*
X133516524Y-102766762D01*
X133421286Y-102814381D01*
X133040333Y-102814381D01*
X133040333Y-101814381D01*
X133373667Y-101814381D01*
X133468905Y-101862000D01*
X133516524Y-101909619D01*
X133564143Y-102004857D01*
X133564143Y-102100095D01*
X133516524Y-102195333D01*
X133468905Y-102242952D01*
X133373667Y-102290571D01*
X133040333Y-102290571D01*
X131246619Y-88606381D02*
X131722810Y-88273047D01*
X131246619Y-88034952D02*
X132246619Y-88034952D01*
X132246619Y-88415905D01*
X132199000Y-88511143D01*
X132151381Y-88558762D01*
X132056143Y-88606381D01*
X131913286Y-88606381D01*
X131818048Y-88558762D01*
X131770429Y-88511143D01*
X131722810Y-88415905D01*
X131722810Y-88034952D01*
X131294238Y-88987333D02*
X131246619Y-89130190D01*
X131246619Y-89368286D01*
X131294238Y-89463524D01*
X131341857Y-89511143D01*
X131437095Y-89558762D01*
X131532333Y-89558762D01*
X131627571Y-89511143D01*
X131675190Y-89463524D01*
X131722810Y-89368286D01*
X131770429Y-89177809D01*
X131818048Y-89082571D01*
X131865667Y-89034952D01*
X131960905Y-88987333D01*
X132056143Y-88987333D01*
X132151381Y-89034952D01*
X132199000Y-89082571D01*
X132246619Y-89177809D01*
X132246619Y-89415905D01*
X132199000Y-89558762D01*
X132246619Y-89844476D02*
X132246619Y-90415905D01*
X131246619Y-90130190D02*
X132246619Y-90130190D01*
X151638190Y-82192762D02*
X151781047Y-82240381D01*
X152019143Y-82240381D01*
X152114381Y-82192762D01*
X152162000Y-82145143D01*
X152209619Y-82049905D01*
X152209619Y-81954667D01*
X152162000Y-81859429D01*
X152114381Y-81811810D01*
X152019143Y-81764190D01*
X151828666Y-81716571D01*
X151733428Y-81668952D01*
X151685809Y-81621333D01*
X151638190Y-81526095D01*
X151638190Y-81430857D01*
X151685809Y-81335619D01*
X151733428Y-81288000D01*
X151828666Y-81240381D01*
X152066762Y-81240381D01*
X152209619Y-81288000D01*
X152781047Y-82240381D02*
X152685809Y-82192762D01*
X152638190Y-82097524D01*
X152638190Y-81240381D01*
X153304857Y-82240381D02*
X153209619Y-82192762D01*
X153162000Y-82145143D01*
X153114381Y-82049905D01*
X153114381Y-81764190D01*
X153162000Y-81668952D01*
X153209619Y-81621333D01*
X153304857Y-81573714D01*
X153447715Y-81573714D01*
X153542953Y-81621333D01*
X153590572Y-81668952D01*
X153638191Y-81764190D01*
X153638191Y-82049905D01*
X153590572Y-82145143D01*
X153542953Y-82192762D01*
X153447715Y-82240381D01*
X153304857Y-82240381D01*
X153971524Y-81573714D02*
X154162000Y-82240381D01*
X154352477Y-81764190D01*
X154542953Y-82240381D01*
X154733429Y-81573714D01*
X170386476Y-112482381D02*
X171053143Y-113482381D01*
X171053143Y-112482381D02*
X170386476Y-113482381D01*
X171957905Y-113482381D02*
X171386476Y-113482381D01*
X171672190Y-113482381D02*
X171672190Y-112482381D01*
X171576952Y-112625238D01*
X171481714Y-112720476D01*
X171386476Y-112768095D01*
X170719809Y-110466190D02*
X170719809Y-110942381D01*
X170386476Y-109942381D02*
X170719809Y-110466190D01*
X171053143Y-109942381D01*
X171910286Y-110942381D02*
X171338857Y-110942381D01*
X171624571Y-110942381D02*
X171624571Y-109942381D01*
X171529333Y-110085238D01*
X171434095Y-110180476D01*
X171338857Y-110228095D01*
X170386476Y-107529381D02*
X171053143Y-108529381D01*
X171053143Y-107529381D02*
X170386476Y-108529381D01*
X171386476Y-107624619D02*
X171434095Y-107577000D01*
X171529333Y-107529381D01*
X171767429Y-107529381D01*
X171862667Y-107577000D01*
X171910286Y-107624619D01*
X171957905Y-107719857D01*
X171957905Y-107815095D01*
X171910286Y-107957952D01*
X171338857Y-108529381D01*
X171957905Y-108529381D01*
X170719809Y-105386190D02*
X170719809Y-105862381D01*
X170386476Y-104862381D02*
X170719809Y-105386190D01*
X171053143Y-104862381D01*
X171338857Y-104957619D02*
X171386476Y-104910000D01*
X171481714Y-104862381D01*
X171719810Y-104862381D01*
X171815048Y-104910000D01*
X171862667Y-104957619D01*
X171910286Y-105052857D01*
X171910286Y-105148095D01*
X171862667Y-105290952D01*
X171291238Y-105862381D01*
X171910286Y-105862381D01*
X171005524Y-103322381D02*
X170529333Y-103322381D01*
X170529333Y-102322381D01*
X171672191Y-102798571D02*
X171815048Y-102846190D01*
X171862667Y-102893810D01*
X171910286Y-102989048D01*
X171910286Y-103131905D01*
X171862667Y-103227143D01*
X171815048Y-103274762D01*
X171719810Y-103322381D01*
X171338857Y-103322381D01*
X171338857Y-102322381D01*
X171672191Y-102322381D01*
X171767429Y-102370000D01*
X171815048Y-102417619D01*
X171862667Y-102512857D01*
X171862667Y-102608095D01*
X171815048Y-102703333D01*
X171767429Y-102750952D01*
X171672191Y-102798571D01*
X171338857Y-102798571D01*
X170489667Y-100782381D02*
X170489667Y-99782381D01*
X170823001Y-100496667D01*
X171156334Y-99782381D01*
X171156334Y-100782381D01*
X171965858Y-100258571D02*
X172108715Y-100306190D01*
X172156334Y-100353810D01*
X172203953Y-100449048D01*
X172203953Y-100591905D01*
X172156334Y-100687143D01*
X172108715Y-100734762D01*
X172013477Y-100782381D01*
X171632524Y-100782381D01*
X171632524Y-99782381D01*
X171965858Y-99782381D01*
X172061096Y-99830000D01*
X172108715Y-99877619D01*
X172156334Y-99972857D01*
X172156334Y-100068095D01*
X172108715Y-100163333D01*
X172061096Y-100210952D01*
X171965858Y-100258571D01*
X171632524Y-100258571D01*
X171132524Y-98242381D02*
X170799190Y-97766190D01*
X170561095Y-98242381D02*
X170561095Y-97242381D01*
X170942048Y-97242381D01*
X171037286Y-97290000D01*
X171084905Y-97337619D01*
X171132524Y-97432857D01*
X171132524Y-97575714D01*
X171084905Y-97670952D01*
X171037286Y-97718571D01*
X170942048Y-97766190D01*
X170561095Y-97766190D01*
X171894429Y-97718571D02*
X172037286Y-97766190D01*
X172084905Y-97813810D01*
X172132524Y-97909048D01*
X172132524Y-98051905D01*
X172084905Y-98147143D01*
X172037286Y-98194762D01*
X171942048Y-98242381D01*
X171561095Y-98242381D01*
X171561095Y-97242381D01*
X171894429Y-97242381D01*
X171989667Y-97290000D01*
X172037286Y-97337619D01*
X172084905Y-97432857D01*
X172084905Y-97528095D01*
X172037286Y-97623333D01*
X171989667Y-97670952D01*
X171894429Y-97718571D01*
X171561095Y-97718571D01*
X170846809Y-94702381D02*
X170942048Y-94702381D01*
X171037286Y-94750000D01*
X171084905Y-94797619D01*
X171132524Y-94892857D01*
X171180143Y-95083333D01*
X171180143Y-95321429D01*
X171132524Y-95511905D01*
X171084905Y-95607143D01*
X171037286Y-95654762D01*
X170942048Y-95702381D01*
X170846809Y-95702381D01*
X170751571Y-95654762D01*
X170703952Y-95607143D01*
X170656333Y-95511905D01*
X170608714Y-95321429D01*
X170608714Y-95083333D01*
X170656333Y-94892857D01*
X170703952Y-94797619D01*
X170751571Y-94750000D01*
X170846809Y-94702381D01*
X171465857Y-94702381D02*
X171799190Y-95702381D01*
X172132524Y-94702381D01*
X170846809Y-92162381D02*
X170942048Y-92162381D01*
X171037286Y-92210000D01*
X171084905Y-92257619D01*
X171132524Y-92352857D01*
X171180143Y-92543333D01*
X171180143Y-92781429D01*
X171132524Y-92971905D01*
X171084905Y-93067143D01*
X171037286Y-93114762D01*
X170942048Y-93162381D01*
X170846809Y-93162381D01*
X170751571Y-93114762D01*
X170703952Y-93067143D01*
X170656333Y-92971905D01*
X170608714Y-92781429D01*
X170608714Y-92543333D01*
X170656333Y-92352857D01*
X170703952Y-92257619D01*
X170751571Y-92210000D01*
X170846809Y-92162381D01*
X171465857Y-92162381D02*
X171799190Y-93162381D01*
X172132524Y-92162381D01*
X171132524Y-89495381D02*
X170656333Y-89495381D01*
X170608714Y-89971571D01*
X170656333Y-89923952D01*
X170751571Y-89876333D01*
X170989667Y-89876333D01*
X171084905Y-89923952D01*
X171132524Y-89971571D01*
X171180143Y-90066810D01*
X171180143Y-90304905D01*
X171132524Y-90400143D01*
X171084905Y-90447762D01*
X170989667Y-90495381D01*
X170751571Y-90495381D01*
X170656333Y-90447762D01*
X170608714Y-90400143D01*
X171465857Y-89495381D02*
X171799190Y-90495381D01*
X172132524Y-89495381D01*
D12*
G36*
X124873485Y-110975979D02*
X125013832Y-110863073D01*
X125159021Y-110772917D01*
X125324334Y-110698860D01*
X125525055Y-110634249D01*
X125776470Y-110572435D01*
X126093861Y-110506765D01*
X126155553Y-110494725D01*
X126381069Y-110448972D01*
X126574169Y-110405984D01*
X126720947Y-110369170D01*
X126807496Y-110341930D01*
X126824871Y-110330875D01*
X126809302Y-110312866D01*
X126806473Y-110315292D01*
X126805976Y-110315191D01*
X126874191Y-110246977D01*
X127004774Y-110330156D01*
X127027454Y-110337719D01*
X127120012Y-110347723D01*
X127146149Y-110309635D01*
X127103010Y-110237987D01*
X127168081Y-110172916D01*
X127280807Y-110258526D01*
X127383644Y-110276936D01*
X127523233Y-110241681D01*
X127613066Y-110145227D01*
X127638570Y-110042664D01*
X127607011Y-109923703D01*
X127518436Y-109819799D01*
X127399550Y-109758646D01*
X127358910Y-109752601D01*
X127235055Y-109782753D01*
X127142642Y-109869591D01*
X127104680Y-109987950D01*
X127107626Y-110027459D01*
X127168081Y-110172916D01*
X127103010Y-110237987D01*
X127100577Y-110233945D01*
X127086962Y-110219729D01*
X127021520Y-110103307D01*
X127014059Y-109967221D01*
X127020076Y-109840730D01*
X127004023Y-109790437D01*
X126957888Y-109809046D01*
X126899570Y-109862984D01*
X126816404Y-109994141D01*
X126809672Y-110128555D01*
X126874191Y-110246977D01*
X126805976Y-110315191D01*
X126773118Y-110308559D01*
X126739973Y-110243436D01*
X126714028Y-110145927D01*
X126702273Y-110042034D01*
X126710974Y-109959959D01*
X126781432Y-109811114D01*
X126887010Y-109728402D01*
X127023419Y-109696800D01*
X127171065Y-109676575D01*
X127308465Y-109650775D01*
X127461179Y-109654483D01*
X127594368Y-109726436D01*
X127692465Y-109850307D01*
X127739907Y-110009766D01*
X127739240Y-110102669D01*
X127739568Y-110139119D01*
X127757712Y-110162117D01*
X127804929Y-110171120D01*
X127892480Y-110165584D01*
X128031624Y-110144965D01*
X128233618Y-110108722D01*
X128445550Y-110068585D01*
X128903579Y-109984307D01*
X129286476Y-109921683D01*
X129600937Y-109880630D01*
X129853659Y-109861065D01*
X130051338Y-109862904D01*
X130200671Y-109886064D01*
X130308353Y-109930464D01*
X130381083Y-109996018D01*
X130410131Y-110044207D01*
X130438956Y-110153805D01*
X130425990Y-110280835D01*
X130368037Y-110429379D01*
X130261898Y-110603522D01*
X130104380Y-110807347D01*
X129892286Y-111044939D01*
X129622419Y-111320380D01*
X129291582Y-111637754D01*
X128896581Y-112001146D01*
X128834600Y-112057169D01*
X128504565Y-112344765D01*
X128184219Y-112600707D01*
X127852810Y-112839765D01*
X127489587Y-113076707D01*
X127073794Y-113326302D01*
X126955083Y-113394768D01*
X126662091Y-113563954D01*
X126413943Y-113711902D01*
X126198810Y-113847957D01*
X126004868Y-113981462D01*
X125820287Y-114121757D01*
X125633242Y-114278187D01*
X125431906Y-114460092D01*
X125204451Y-114676817D01*
X124939050Y-114937704D01*
X124699118Y-115176831D01*
X124450579Y-115423451D01*
X124222998Y-115645678D01*
X124023676Y-115836625D01*
X123859914Y-115989401D01*
X123739014Y-116097118D01*
X123668275Y-116152886D01*
X123659526Y-116157797D01*
X123561804Y-116175635D01*
X123499721Y-116151559D01*
X123478378Y-116089506D01*
X123461546Y-115962248D01*
X123451082Y-115789205D01*
X123448600Y-115617482D01*
X123442630Y-115145090D01*
X123419811Y-114721200D01*
X123381141Y-114352144D01*
X123327619Y-114044253D01*
X123260242Y-113803859D01*
X123180009Y-113637291D01*
X123126738Y-113575948D01*
X123044121Y-113518796D01*
X122968336Y-113512736D01*
X122861704Y-113555509D01*
X122853476Y-113559592D01*
X122706643Y-113666258D01*
X122544787Y-113841106D01*
X122375986Y-114070866D01*
X122208316Y-114342265D01*
X122049856Y-114642031D01*
X121908683Y-114956894D01*
X121792874Y-115273582D01*
X121774638Y-115332092D01*
X121735571Y-115342480D01*
X121699241Y-115331204D01*
X121674480Y-115276865D01*
X121689523Y-115163663D01*
X121738540Y-115004049D01*
X121815698Y-114810478D01*
X121915169Y-114595400D01*
X122031120Y-114371270D01*
X122157724Y-114150540D01*
X122289148Y-113945662D01*
X122419564Y-113769090D01*
X122445119Y-113738140D01*
X122582699Y-113587622D01*
X122703538Y-113488078D01*
X122826813Y-113420779D01*
X122985253Y-113373739D01*
X123122330Y-113386327D01*
X123239269Y-113461629D01*
X123337299Y-113602725D01*
X123417645Y-113812700D01*
X123481534Y-114094635D01*
X123530194Y-114451614D01*
X123564853Y-114886719D01*
X123584340Y-115324048D01*
X123594036Y-115584761D01*
X123604740Y-115771096D01*
X123617966Y-115893339D01*
X123635232Y-115961779D01*
X123658054Y-115986701D01*
X123681343Y-115982211D01*
X123728761Y-115943235D01*
X123827369Y-115851349D01*
X123969277Y-115714285D01*
X124146591Y-115539775D01*
X124351418Y-115335552D01*
X124575865Y-115109345D01*
X124672221Y-115011538D01*
X124953656Y-114726029D01*
X125188278Y-114491524D01*
X125388337Y-114298372D01*
X125566091Y-114136919D01*
X125733790Y-113997513D01*
X125903690Y-113870500D01*
X126088042Y-113746227D01*
X126299103Y-113615043D01*
X126549124Y-113467292D01*
X126850360Y-113293323D01*
X126861430Y-113286957D01*
X127236884Y-113066499D01*
X127568208Y-112860366D01*
X127869485Y-112657632D01*
X128154795Y-112447371D01*
X128438220Y-112218657D01*
X128733842Y-111960565D01*
X129055742Y-111662167D01*
X129418001Y-111312538D01*
X129463469Y-111267979D01*
X129718881Y-111014161D01*
X129917580Y-110808180D01*
X130066044Y-110641524D01*
X130170752Y-110505678D01*
X130238180Y-110392129D01*
X130274806Y-110292364D01*
X130287108Y-110197871D01*
X130287259Y-110185334D01*
X130282813Y-110131120D01*
X130266336Y-110085495D01*
X130233116Y-110048981D01*
X130178443Y-110022100D01*
X130097607Y-110005373D01*
X129985896Y-109999322D01*
X129838601Y-110004468D01*
X129651010Y-110021333D01*
X129418413Y-110050439D01*
X129136100Y-110092307D01*
X128799360Y-110147458D01*
X128403480Y-110216415D01*
X127943753Y-110299700D01*
X127415468Y-110397833D01*
X126813912Y-110511336D01*
X126134377Y-110640731D01*
X126078838Y-110651338D01*
X125746846Y-110721673D01*
X125481774Y-110796118D01*
X125265964Y-110882646D01*
X125081760Y-110989232D01*
X124911503Y-111123851D01*
X124802287Y-111227814D01*
X124581976Y-111482133D01*
X124398162Y-111770389D01*
X124245600Y-112104417D01*
X124119049Y-112496053D01*
X124013266Y-112957134D01*
X123996113Y-113047945D01*
X123950654Y-113273930D01*
X123910674Y-113423085D01*
X123873781Y-113502881D01*
X123844570Y-113521802D01*
X123815810Y-113519176D01*
X123798509Y-113502655D01*
X123793295Y-113459274D01*
X123800796Y-113376068D01*
X123821642Y-113240070D01*
X123856463Y-113038317D01*
X123872429Y-112947726D01*
X123980834Y-112453820D01*
X124121814Y-112028618D01*
X124300692Y-111660661D01*
X124522796Y-111338491D01*
X124722695Y-111118287D01*
X124873485Y-110975979D01*
X124873485Y-110975979D01*
G37*
X124873485Y-110975979D02*
X125013832Y-110863073D01*
X125159021Y-110772917D01*
X125324334Y-110698860D01*
X125525055Y-110634249D01*
X125776470Y-110572435D01*
X126093861Y-110506765D01*
X126155553Y-110494725D01*
X126381069Y-110448972D01*
X126574169Y-110405984D01*
X126720947Y-110369170D01*
X126807496Y-110341930D01*
X126824871Y-110330875D01*
X126809302Y-110312866D01*
X126806473Y-110315292D01*
X126805976Y-110315191D01*
X126874191Y-110246977D01*
X127004774Y-110330156D01*
X127027454Y-110337719D01*
X127120012Y-110347723D01*
X127146149Y-110309635D01*
X127103010Y-110237987D01*
X127168081Y-110172916D01*
X127280807Y-110258526D01*
X127383644Y-110276936D01*
X127523233Y-110241681D01*
X127613066Y-110145227D01*
X127638570Y-110042664D01*
X127607011Y-109923703D01*
X127518436Y-109819799D01*
X127399550Y-109758646D01*
X127358910Y-109752601D01*
X127235055Y-109782753D01*
X127142642Y-109869591D01*
X127104680Y-109987950D01*
X127107626Y-110027459D01*
X127168081Y-110172916D01*
X127103010Y-110237987D01*
X127100577Y-110233945D01*
X127086962Y-110219729D01*
X127021520Y-110103307D01*
X127014059Y-109967221D01*
X127020076Y-109840730D01*
X127004023Y-109790437D01*
X126957888Y-109809046D01*
X126899570Y-109862984D01*
X126816404Y-109994141D01*
X126809672Y-110128555D01*
X126874191Y-110246977D01*
X126805976Y-110315191D01*
X126773118Y-110308559D01*
X126739973Y-110243436D01*
X126714028Y-110145927D01*
X126702273Y-110042034D01*
X126710974Y-109959959D01*
X126781432Y-109811114D01*
X126887010Y-109728402D01*
X127023419Y-109696800D01*
X127171065Y-109676575D01*
X127308465Y-109650775D01*
X127461179Y-109654483D01*
X127594368Y-109726436D01*
X127692465Y-109850307D01*
X127739907Y-110009766D01*
X127739240Y-110102669D01*
X127739568Y-110139119D01*
X127757712Y-110162117D01*
X127804929Y-110171120D01*
X127892480Y-110165584D01*
X128031624Y-110144965D01*
X128233618Y-110108722D01*
X128445550Y-110068585D01*
X128903579Y-109984307D01*
X129286476Y-109921683D01*
X129600937Y-109880630D01*
X129853659Y-109861065D01*
X130051338Y-109862904D01*
X130200671Y-109886064D01*
X130308353Y-109930464D01*
X130381083Y-109996018D01*
X130410131Y-110044207D01*
X130438956Y-110153805D01*
X130425990Y-110280835D01*
X130368037Y-110429379D01*
X130261898Y-110603522D01*
X130104380Y-110807347D01*
X129892286Y-111044939D01*
X129622419Y-111320380D01*
X129291582Y-111637754D01*
X128896581Y-112001146D01*
X128834600Y-112057169D01*
X128504565Y-112344765D01*
X128184219Y-112600707D01*
X127852810Y-112839765D01*
X127489587Y-113076707D01*
X127073794Y-113326302D01*
X126955083Y-113394768D01*
X126662091Y-113563954D01*
X126413943Y-113711902D01*
X126198810Y-113847957D01*
X126004868Y-113981462D01*
X125820287Y-114121757D01*
X125633242Y-114278187D01*
X125431906Y-114460092D01*
X125204451Y-114676817D01*
X124939050Y-114937704D01*
X124699118Y-115176831D01*
X124450579Y-115423451D01*
X124222998Y-115645678D01*
X124023676Y-115836625D01*
X123859914Y-115989401D01*
X123739014Y-116097118D01*
X123668275Y-116152886D01*
X123659526Y-116157797D01*
X123561804Y-116175635D01*
X123499721Y-116151559D01*
X123478378Y-116089506D01*
X123461546Y-115962248D01*
X123451082Y-115789205D01*
X123448600Y-115617482D01*
X123442630Y-115145090D01*
X123419811Y-114721200D01*
X123381141Y-114352144D01*
X123327619Y-114044253D01*
X123260242Y-113803859D01*
X123180009Y-113637291D01*
X123126738Y-113575948D01*
X123044121Y-113518796D01*
X122968336Y-113512736D01*
X122861704Y-113555509D01*
X122853476Y-113559592D01*
X122706643Y-113666258D01*
X122544787Y-113841106D01*
X122375986Y-114070866D01*
X122208316Y-114342265D01*
X122049856Y-114642031D01*
X121908683Y-114956894D01*
X121792874Y-115273582D01*
X121774638Y-115332092D01*
X121735571Y-115342480D01*
X121699241Y-115331204D01*
X121674480Y-115276865D01*
X121689523Y-115163663D01*
X121738540Y-115004049D01*
X121815698Y-114810478D01*
X121915169Y-114595400D01*
X122031120Y-114371270D01*
X122157724Y-114150540D01*
X122289148Y-113945662D01*
X122419564Y-113769090D01*
X122445119Y-113738140D01*
X122582699Y-113587622D01*
X122703538Y-113488078D01*
X122826813Y-113420779D01*
X122985253Y-113373739D01*
X123122330Y-113386327D01*
X123239269Y-113461629D01*
X123337299Y-113602725D01*
X123417645Y-113812700D01*
X123481534Y-114094635D01*
X123530194Y-114451614D01*
X123564853Y-114886719D01*
X123584340Y-115324048D01*
X123594036Y-115584761D01*
X123604740Y-115771096D01*
X123617966Y-115893339D01*
X123635232Y-115961779D01*
X123658054Y-115986701D01*
X123681343Y-115982211D01*
X123728761Y-115943235D01*
X123827369Y-115851349D01*
X123969277Y-115714285D01*
X124146591Y-115539775D01*
X124351418Y-115335552D01*
X124575865Y-115109345D01*
X124672221Y-115011538D01*
X124953656Y-114726029D01*
X125188278Y-114491524D01*
X125388337Y-114298372D01*
X125566091Y-114136919D01*
X125733790Y-113997513D01*
X125903690Y-113870500D01*
X126088042Y-113746227D01*
X126299103Y-113615043D01*
X126549124Y-113467292D01*
X126850360Y-113293323D01*
X126861430Y-113286957D01*
X127236884Y-113066499D01*
X127568208Y-112860366D01*
X127869485Y-112657632D01*
X128154795Y-112447371D01*
X128438220Y-112218657D01*
X128733842Y-111960565D01*
X129055742Y-111662167D01*
X129418001Y-111312538D01*
X129463469Y-111267979D01*
X129718881Y-111014161D01*
X129917580Y-110808180D01*
X130066044Y-110641524D01*
X130170752Y-110505678D01*
X130238180Y-110392129D01*
X130274806Y-110292364D01*
X130287108Y-110197871D01*
X130287259Y-110185334D01*
X130282813Y-110131120D01*
X130266336Y-110085495D01*
X130233116Y-110048981D01*
X130178443Y-110022100D01*
X130097607Y-110005373D01*
X129985896Y-109999322D01*
X129838601Y-110004468D01*
X129651010Y-110021333D01*
X129418413Y-110050439D01*
X129136100Y-110092307D01*
X128799360Y-110147458D01*
X128403480Y-110216415D01*
X127943753Y-110299700D01*
X127415468Y-110397833D01*
X126813912Y-110511336D01*
X126134377Y-110640731D01*
X126078838Y-110651338D01*
X125746846Y-110721673D01*
X125481774Y-110796118D01*
X125265964Y-110882646D01*
X125081760Y-110989232D01*
X124911503Y-111123851D01*
X124802287Y-111227814D01*
X124581976Y-111482133D01*
X124398162Y-111770389D01*
X124245600Y-112104417D01*
X124119049Y-112496053D01*
X124013266Y-112957134D01*
X123996113Y-113047945D01*
X123950654Y-113273930D01*
X123910674Y-113423085D01*
X123873781Y-113502881D01*
X123844570Y-113521802D01*
X123815810Y-113519176D01*
X123798509Y-113502655D01*
X123793295Y-113459274D01*
X123800796Y-113376068D01*
X123821642Y-113240070D01*
X123856463Y-113038317D01*
X123872429Y-112947726D01*
X123980834Y-112453820D01*
X124121814Y-112028618D01*
X124300692Y-111660661D01*
X124522796Y-111338491D01*
X124722695Y-111118287D01*
X124873485Y-110975979D01*
G36*
X128473134Y-111062061D02*
X128478934Y-111057917D01*
X128562271Y-110994083D01*
X128687367Y-110892309D01*
X128832354Y-110770518D01*
X128892928Y-110718566D01*
X129053036Y-110587458D01*
X129170430Y-110506548D01*
X129237711Y-110480828D01*
X129243450Y-110482220D01*
X129276074Y-110531580D01*
X129315324Y-110638900D01*
X129355250Y-110779558D01*
X129389909Y-110928934D01*
X129413354Y-111062404D01*
X129419637Y-111155348D01*
X129412382Y-111181748D01*
X129383013Y-111169277D01*
X129357676Y-111101749D01*
X129303578Y-110870983D01*
X129263241Y-110722794D01*
X129236393Y-110656266D01*
X129225715Y-110657168D01*
X129206691Y-110712616D01*
X129168585Y-110828597D01*
X129117987Y-110984962D01*
X129088955Y-111075451D01*
X129033131Y-111239499D01*
X128983116Y-111367766D01*
X128946171Y-111442498D01*
X128934025Y-111454347D01*
X128914218Y-111451779D01*
X128906230Y-111434849D01*
X128913205Y-111389725D01*
X128938290Y-111302572D01*
X128984627Y-111159556D01*
X129036549Y-111003321D01*
X129170837Y-110600232D01*
X129034313Y-110701742D01*
X128930511Y-110782080D01*
X128793147Y-110892462D01*
X128661526Y-111001037D01*
X128543128Y-111093137D01*
X128449096Y-111153347D01*
X128397661Y-111170201D01*
X128395036Y-111168593D01*
X128404176Y-111125947D01*
X128473134Y-111062061D01*
X128473134Y-111062061D01*
G37*
X128473134Y-111062061D02*
X128478934Y-111057917D01*
X128562271Y-110994083D01*
X128687367Y-110892309D01*
X128832354Y-110770518D01*
X128892928Y-110718566D01*
X129053036Y-110587458D01*
X129170430Y-110506548D01*
X129237711Y-110480828D01*
X129243450Y-110482220D01*
X129276074Y-110531580D01*
X129315324Y-110638900D01*
X129355250Y-110779558D01*
X129389909Y-110928934D01*
X129413354Y-111062404D01*
X129419637Y-111155348D01*
X129412382Y-111181748D01*
X129383013Y-111169277D01*
X129357676Y-111101749D01*
X129303578Y-110870983D01*
X129263241Y-110722794D01*
X129236393Y-110656266D01*
X129225715Y-110657168D01*
X129206691Y-110712616D01*
X129168585Y-110828597D01*
X129117987Y-110984962D01*
X129088955Y-111075451D01*
X129033131Y-111239499D01*
X128983116Y-111367766D01*
X128946171Y-111442498D01*
X128934025Y-111454347D01*
X128914218Y-111451779D01*
X128906230Y-111434849D01*
X128913205Y-111389725D01*
X128938290Y-111302572D01*
X128984627Y-111159556D01*
X129036549Y-111003321D01*
X129170837Y-110600232D01*
X129034313Y-110701742D01*
X128930511Y-110782080D01*
X128793147Y-110892462D01*
X128661526Y-111001037D01*
X128543128Y-111093137D01*
X128449096Y-111153347D01*
X128397661Y-111170201D01*
X128395036Y-111168593D01*
X128404176Y-111125947D01*
X128473134Y-111062061D01*
G36*
X128263243Y-110355422D02*
X128352607Y-110372878D01*
X128418825Y-110432305D01*
X128434379Y-110524381D01*
X128408395Y-110619878D01*
X128352173Y-110656814D01*
X128278678Y-110661804D01*
X128171022Y-110629672D01*
X128151356Y-110593704D01*
X128271880Y-110473181D01*
X128304203Y-110503229D01*
X128348537Y-110484091D01*
X128353510Y-110450782D01*
X128333686Y-110394029D01*
X128316584Y-110386695D01*
X128274287Y-110416840D01*
X128271880Y-110473181D01*
X128151356Y-110593704D01*
X128123205Y-110542217D01*
X128127876Y-110467386D01*
X128178934Y-110385176D01*
X128263243Y-110355422D01*
X128263243Y-110355422D01*
G37*
X128263243Y-110355422D02*
X128352607Y-110372878D01*
X128418825Y-110432305D01*
X128434379Y-110524381D01*
X128408395Y-110619878D01*
X128352173Y-110656814D01*
X128278678Y-110661804D01*
X128171022Y-110629672D01*
X128151356Y-110593704D01*
X128271880Y-110473181D01*
X128304203Y-110503229D01*
X128348537Y-110484091D01*
X128353510Y-110450782D01*
X128333686Y-110394029D01*
X128316584Y-110386695D01*
X128274287Y-110416840D01*
X128271880Y-110473181D01*
X128151356Y-110593704D01*
X128123205Y-110542217D01*
X128127876Y-110467386D01*
X128178934Y-110385176D01*
X128263243Y-110355422D01*
D13*
X131484000Y-108974000D02*
X131484000Y-109974000D01*
X133184000Y-109974000D02*
X133184000Y-108974000D01*
X134278000Y-108974000D02*
X134278000Y-109974000D01*
X135978000Y-109974000D02*
X135978000Y-108974000D01*
X140978000Y-90512000D02*
X141978000Y-90512000D01*
X141978000Y-88812000D02*
X140978000Y-88812000D01*
X134278000Y-99576000D02*
X134278000Y-100576000D01*
X135978000Y-100576000D02*
X135978000Y-99576000D01*
X136152000Y-90512000D02*
X137152000Y-90512000D01*
X137152000Y-88812000D02*
X136152000Y-88812000D01*
X140724000Y-111848000D02*
X141724000Y-111848000D01*
X141724000Y-110148000D02*
X140724000Y-110148000D01*
X149852000Y-88558000D02*
X148852000Y-88558000D01*
X148852000Y-90258000D02*
X149852000Y-90258000D01*
X152392000Y-114212000D02*
X151392000Y-114212000D01*
X151392000Y-115912000D02*
X152392000Y-115912000D01*
X163330000Y-120738000D02*
X164330000Y-120738000D01*
X164330000Y-119038000D02*
X163330000Y-119038000D01*
X161790000Y-82208000D02*
X160790000Y-82208000D01*
X160790000Y-83908000D02*
X161790000Y-83908000D01*
D11*
X138113000Y-92901000D02*
X138113000Y-93476000D01*
X152463000Y-92901000D02*
X152463000Y-93576000D01*
X152463000Y-107251000D02*
X152463000Y-106576000D01*
X138113000Y-107251000D02*
X138113000Y-106576000D01*
X138113000Y-92901000D02*
X138788000Y-92901000D01*
X138113000Y-107251000D02*
X138788000Y-107251000D01*
X152463000Y-107251000D02*
X151788000Y-107251000D01*
X152463000Y-92901000D02*
X151788000Y-92901000D01*
X138113000Y-93476000D02*
X136838000Y-93476000D01*
D13*
X131572000Y-120202000D02*
X154492000Y-120202000D01*
X154492000Y-120202000D02*
X154492000Y-117542000D01*
X154492000Y-117542000D02*
X131572000Y-117542000D01*
X131572000Y-117542000D02*
X131572000Y-120202000D01*
X130302000Y-120202000D02*
X128972000Y-120202000D01*
X128972000Y-120202000D02*
X128972000Y-118872000D01*
X154492000Y-85344000D02*
X154492000Y-82744000D01*
X154492000Y-82744000D02*
X151832000Y-82744000D01*
X151832000Y-82744000D02*
X151832000Y-85344000D01*
X151832000Y-85344000D02*
X154492000Y-85344000D01*
X154492000Y-86614000D02*
X154492000Y-87944000D01*
X154492000Y-87944000D02*
X153162000Y-87944000D01*
X156236000Y-118360000D02*
X156236000Y-84840000D01*
X156236000Y-84840000D02*
X165836000Y-84840000D01*
X165836000Y-84840000D02*
X165836000Y-118360000D01*
X165836000Y-118360000D02*
X156236000Y-118360000D01*
X169986000Y-111760000D02*
X169986000Y-88840000D01*
X169986000Y-88840000D02*
X167326000Y-88840000D01*
X167326000Y-88840000D02*
X167326000Y-111760000D01*
X167326000Y-111760000D02*
X169986000Y-111760000D01*
X169986000Y-113030000D02*
X169986000Y-114360000D01*
X169986000Y-114360000D02*
X168656000Y-114360000D01*
D11*
X122682000Y-107899200D02*
X113690400Y-107899200D01*
X122682000Y-94742000D02*
X113690400Y-94742000D01*
X127558800Y-107899200D02*
X126136400Y-107899200D01*
X127558800Y-94792800D02*
X126136400Y-94792800D01*
X127562000Y-107916000D02*
X127562000Y-105616500D01*
X127562000Y-94776000D02*
X127562000Y-97075500D01*
X113652000Y-94346000D02*
X113652000Y-108346000D01*
X113652000Y-94776000D02*
X113652000Y-107916000D01*
D13*
X132750000Y-95894000D02*
X133950000Y-95894000D01*
X133950000Y-97654000D02*
X132750000Y-97654000D01*
X132750000Y-93862000D02*
X133950000Y-93862000D01*
X133950000Y-95622000D02*
X132750000Y-95622000D01*
X132174000Y-115846000D02*
X139424000Y-115846000D01*
X139424000Y-115846000D02*
X139424000Y-112246000D01*
X139424000Y-112246000D02*
X132174000Y-112246000D01*
X133096000Y-105978000D02*
X135696000Y-105978000D01*
X135696000Y-105978000D02*
X135696000Y-103318000D01*
X135696000Y-103318000D02*
X133096000Y-103318000D01*
X133096000Y-103318000D02*
X133096000Y-105978000D01*
X131826000Y-105978000D02*
X130496000Y-105978000D01*
X130496000Y-105978000D02*
X130496000Y-104648000D01*
X130743000Y-88900000D02*
X130743000Y-86300000D01*
X130743000Y-86300000D02*
X128083000Y-86300000D01*
X128083000Y-86300000D02*
X128083000Y-88900000D01*
X128083000Y-88900000D02*
X130743000Y-88900000D01*
X130743000Y-90170000D02*
X130743000Y-91500000D01*
X130743000Y-91500000D02*
X129413000Y-91500000D01*
X153044000Y-111852000D02*
X153044000Y-110652000D01*
X154804000Y-110652000D02*
X154804000Y-111852000D01*
X125485000Y-90008000D02*
X125485000Y-88808000D01*
X127245000Y-88808000D02*
X127245000Y-90008000D01*
D11*
X131040143Y-107989666D02*
X131087762Y-108037285D01*
X131135381Y-108180142D01*
X131135381Y-108275380D01*
X131087762Y-108418238D01*
X130992524Y-108513476D01*
X130897286Y-108561095D01*
X130706810Y-108608714D01*
X130563952Y-108608714D01*
X130373476Y-108561095D01*
X130278238Y-108513476D01*
X130183000Y-108418238D01*
X130135381Y-108275380D01*
X130135381Y-108180142D01*
X130183000Y-108037285D01*
X130230619Y-107989666D01*
X131135381Y-107037285D02*
X131135381Y-107608714D01*
X131135381Y-107323000D02*
X130135381Y-107323000D01*
X130278238Y-107418238D01*
X130373476Y-107513476D01*
X130421095Y-107608714D01*
X137263143Y-109640666D02*
X137310762Y-109688285D01*
X137358381Y-109831142D01*
X137358381Y-109926380D01*
X137310762Y-110069238D01*
X137215524Y-110164476D01*
X137120286Y-110212095D01*
X136929810Y-110259714D01*
X136786952Y-110259714D01*
X136596476Y-110212095D01*
X136501238Y-110164476D01*
X136406000Y-110069238D01*
X136358381Y-109926380D01*
X136358381Y-109831142D01*
X136406000Y-109688285D01*
X136453619Y-109640666D01*
X136453619Y-109259714D02*
X136406000Y-109212095D01*
X136358381Y-109116857D01*
X136358381Y-108878761D01*
X136406000Y-108783523D01*
X136453619Y-108735904D01*
X136548857Y-108688285D01*
X136644095Y-108688285D01*
X136786952Y-108735904D01*
X137358381Y-109307333D01*
X137358381Y-108688285D01*
X141438334Y-88368143D02*
X141390715Y-88415762D01*
X141247858Y-88463381D01*
X141152620Y-88463381D01*
X141009762Y-88415762D01*
X140914524Y-88320524D01*
X140866905Y-88225286D01*
X140819286Y-88034810D01*
X140819286Y-87891952D01*
X140866905Y-87701476D01*
X140914524Y-87606238D01*
X141009762Y-87511000D01*
X141152620Y-87463381D01*
X141247858Y-87463381D01*
X141390715Y-87511000D01*
X141438334Y-87558619D01*
X141771667Y-87463381D02*
X142390715Y-87463381D01*
X142057381Y-87844333D01*
X142200239Y-87844333D01*
X142295477Y-87891952D01*
X142343096Y-87939571D01*
X142390715Y-88034810D01*
X142390715Y-88272905D01*
X142343096Y-88368143D01*
X142295477Y-88415762D01*
X142200239Y-88463381D01*
X141914524Y-88463381D01*
X141819286Y-88415762D01*
X141771667Y-88368143D01*
X133707143Y-100623666D02*
X133754762Y-100671285D01*
X133802381Y-100814142D01*
X133802381Y-100909380D01*
X133754762Y-101052238D01*
X133659524Y-101147476D01*
X133564286Y-101195095D01*
X133373810Y-101242714D01*
X133230952Y-101242714D01*
X133040476Y-101195095D01*
X132945238Y-101147476D01*
X132850000Y-101052238D01*
X132802381Y-100909380D01*
X132802381Y-100814142D01*
X132850000Y-100671285D01*
X132897619Y-100623666D01*
X133135714Y-99766523D02*
X133802381Y-99766523D01*
X132754762Y-100004619D02*
X133469048Y-100242714D01*
X133469048Y-99623666D01*
X136485334Y-88368143D02*
X136437715Y-88415762D01*
X136294858Y-88463381D01*
X136199620Y-88463381D01*
X136056762Y-88415762D01*
X135961524Y-88320524D01*
X135913905Y-88225286D01*
X135866286Y-88034810D01*
X135866286Y-87891952D01*
X135913905Y-87701476D01*
X135961524Y-87606238D01*
X136056762Y-87511000D01*
X136199620Y-87463381D01*
X136294858Y-87463381D01*
X136437715Y-87511000D01*
X136485334Y-87558619D01*
X137390096Y-87463381D02*
X136913905Y-87463381D01*
X136866286Y-87939571D01*
X136913905Y-87891952D01*
X137009143Y-87844333D01*
X137247239Y-87844333D01*
X137342477Y-87891952D01*
X137390096Y-87939571D01*
X137437715Y-88034810D01*
X137437715Y-88272905D01*
X137390096Y-88368143D01*
X137342477Y-88415762D01*
X137247239Y-88463381D01*
X137009143Y-88463381D01*
X136913905Y-88415762D01*
X136866286Y-88368143D01*
X141057334Y-113105143D02*
X141009715Y-113152762D01*
X140866858Y-113200381D01*
X140771620Y-113200381D01*
X140628762Y-113152762D01*
X140533524Y-113057524D01*
X140485905Y-112962286D01*
X140438286Y-112771810D01*
X140438286Y-112628952D01*
X140485905Y-112438476D01*
X140533524Y-112343238D01*
X140628762Y-112248000D01*
X140771620Y-112200381D01*
X140866858Y-112200381D01*
X141009715Y-112248000D01*
X141057334Y-112295619D01*
X141914477Y-112200381D02*
X141724000Y-112200381D01*
X141628762Y-112248000D01*
X141581143Y-112295619D01*
X141485905Y-112438476D01*
X141438286Y-112628952D01*
X141438286Y-113009905D01*
X141485905Y-113105143D01*
X141533524Y-113152762D01*
X141628762Y-113200381D01*
X141819239Y-113200381D01*
X141914477Y-113152762D01*
X141962096Y-113105143D01*
X142009715Y-113009905D01*
X142009715Y-112771810D01*
X141962096Y-112676571D01*
X141914477Y-112628952D01*
X141819239Y-112581333D01*
X141628762Y-112581333D01*
X141533524Y-112628952D01*
X141485905Y-112676571D01*
X141438286Y-112771810D01*
X149185334Y-88015143D02*
X149137715Y-88062762D01*
X148994858Y-88110381D01*
X148899620Y-88110381D01*
X148756762Y-88062762D01*
X148661524Y-87967524D01*
X148613905Y-87872286D01*
X148566286Y-87681810D01*
X148566286Y-87538952D01*
X148613905Y-87348476D01*
X148661524Y-87253238D01*
X148756762Y-87158000D01*
X148899620Y-87110381D01*
X148994858Y-87110381D01*
X149137715Y-87158000D01*
X149185334Y-87205619D01*
X149518667Y-87110381D02*
X150185334Y-87110381D01*
X149756762Y-88110381D01*
X148296334Y-115419143D02*
X148248715Y-115466762D01*
X148105858Y-115514381D01*
X148010620Y-115514381D01*
X147867762Y-115466762D01*
X147772524Y-115371524D01*
X147724905Y-115276286D01*
X147677286Y-115085810D01*
X147677286Y-114942952D01*
X147724905Y-114752476D01*
X147772524Y-114657238D01*
X147867762Y-114562000D01*
X148010620Y-114514381D01*
X148105858Y-114514381D01*
X148248715Y-114562000D01*
X148296334Y-114609619D01*
X148867762Y-114942952D02*
X148772524Y-114895333D01*
X148724905Y-114847714D01*
X148677286Y-114752476D01*
X148677286Y-114704857D01*
X148724905Y-114609619D01*
X148772524Y-114562000D01*
X148867762Y-114514381D01*
X149058239Y-114514381D01*
X149153477Y-114562000D01*
X149201096Y-114609619D01*
X149248715Y-114704857D01*
X149248715Y-114752476D01*
X149201096Y-114847714D01*
X149153477Y-114895333D01*
X149058239Y-114942952D01*
X148867762Y-114942952D01*
X148772524Y-114990571D01*
X148724905Y-115038190D01*
X148677286Y-115133429D01*
X148677286Y-115323905D01*
X148724905Y-115419143D01*
X148772524Y-115466762D01*
X148867762Y-115514381D01*
X149058239Y-115514381D01*
X149153477Y-115466762D01*
X149201096Y-115419143D01*
X149248715Y-115323905D01*
X149248715Y-115133429D01*
X149201096Y-115038190D01*
X149153477Y-114990571D01*
X149058239Y-114942952D01*
X160361334Y-120245143D02*
X160313715Y-120292762D01*
X160170858Y-120340381D01*
X160075620Y-120340381D01*
X159932762Y-120292762D01*
X159837524Y-120197524D01*
X159789905Y-120102286D01*
X159742286Y-119911810D01*
X159742286Y-119768952D01*
X159789905Y-119578476D01*
X159837524Y-119483238D01*
X159932762Y-119388000D01*
X160075620Y-119340381D01*
X160170858Y-119340381D01*
X160313715Y-119388000D01*
X160361334Y-119435619D01*
X160837524Y-120340381D02*
X161028000Y-120340381D01*
X161123239Y-120292762D01*
X161170858Y-120245143D01*
X161266096Y-120102286D01*
X161313715Y-119911810D01*
X161313715Y-119530857D01*
X161266096Y-119435619D01*
X161218477Y-119388000D01*
X161123239Y-119340381D01*
X160932762Y-119340381D01*
X160837524Y-119388000D01*
X160789905Y-119435619D01*
X160742286Y-119530857D01*
X160742286Y-119768952D01*
X160789905Y-119864190D01*
X160837524Y-119911810D01*
X160932762Y-119959429D01*
X161123239Y-119959429D01*
X161218477Y-119911810D01*
X161266096Y-119864190D01*
X161313715Y-119768952D01*
X156837143Y-83415143D02*
X156789524Y-83462762D01*
X156646667Y-83510381D01*
X156551429Y-83510381D01*
X156408571Y-83462762D01*
X156313333Y-83367524D01*
X156265714Y-83272286D01*
X156218095Y-83081810D01*
X156218095Y-82938952D01*
X156265714Y-82748476D01*
X156313333Y-82653238D01*
X156408571Y-82558000D01*
X156551429Y-82510381D01*
X156646667Y-82510381D01*
X156789524Y-82558000D01*
X156837143Y-82605619D01*
X157789524Y-83510381D02*
X157218095Y-83510381D01*
X157503809Y-83510381D02*
X157503809Y-82510381D01*
X157408571Y-82653238D01*
X157313333Y-82748476D01*
X157218095Y-82796095D01*
X158408571Y-82510381D02*
X158503810Y-82510381D01*
X158599048Y-82558000D01*
X158646667Y-82605619D01*
X158694286Y-82700857D01*
X158741905Y-82891333D01*
X158741905Y-83129429D01*
X158694286Y-83319905D01*
X158646667Y-83415143D01*
X158599048Y-83462762D01*
X158503810Y-83510381D01*
X158408571Y-83510381D01*
X158313333Y-83462762D01*
X158265714Y-83415143D01*
X158218095Y-83319905D01*
X158170476Y-83129429D01*
X158170476Y-82891333D01*
X158218095Y-82700857D01*
X158265714Y-82605619D01*
X158313333Y-82558000D01*
X158408571Y-82510381D01*
X152820810Y-92400381D02*
X152820810Y-91400381D01*
X153868429Y-92305143D02*
X153820810Y-92352762D01*
X153677953Y-92400381D01*
X153582715Y-92400381D01*
X153439857Y-92352762D01*
X153344619Y-92257524D01*
X153297000Y-92162286D01*
X153249381Y-91971810D01*
X153249381Y-91828952D01*
X153297000Y-91638476D01*
X153344619Y-91543238D01*
X153439857Y-91448000D01*
X153582715Y-91400381D01*
X153677953Y-91400381D01*
X153820810Y-91448000D01*
X153868429Y-91495619D01*
X154820810Y-92400381D02*
X154249381Y-92400381D01*
X154535095Y-92400381D02*
X154535095Y-91400381D01*
X154439857Y-91543238D01*
X154344619Y-91638476D01*
X154249381Y-91686095D01*
X127424381Y-119205333D02*
X128138667Y-119205333D01*
X128281524Y-119252953D01*
X128376762Y-119348191D01*
X128424381Y-119491048D01*
X128424381Y-119586286D01*
X128424381Y-118205333D02*
X128424381Y-118776762D01*
X128424381Y-118491048D02*
X127424381Y-118491048D01*
X127567238Y-118586286D01*
X127662476Y-118681524D01*
X127710095Y-118776762D01*
X166203381Y-117173333D02*
X166917667Y-117173333D01*
X167060524Y-117220953D01*
X167155762Y-117316191D01*
X167203381Y-117459048D01*
X167203381Y-117554286D01*
X166203381Y-116792381D02*
X166203381Y-116173333D01*
X166584333Y-116506667D01*
X166584333Y-116363809D01*
X166631952Y-116268571D01*
X166679571Y-116220952D01*
X166774810Y-116173333D01*
X167012905Y-116173333D01*
X167108143Y-116220952D01*
X167155762Y-116268571D01*
X167203381Y-116363809D01*
X167203381Y-116649524D01*
X167155762Y-116744762D01*
X167108143Y-116792381D01*
D13*
X164478381Y-112724285D02*
X164478381Y-113295714D01*
X164478381Y-113010000D02*
X163478381Y-113010000D01*
X163621238Y-113105238D01*
X163716476Y-113200476D01*
X163764095Y-113295714D01*
D11*
X168322667Y-87463381D02*
X168322667Y-88177667D01*
X168275047Y-88320524D01*
X168179809Y-88415762D01*
X168036952Y-88463381D01*
X167941714Y-88463381D01*
X169227429Y-87796714D02*
X169227429Y-88463381D01*
X168989333Y-87415762D02*
X168751238Y-88130048D01*
X169370286Y-88130048D01*
X128039905Y-95829381D02*
X128039905Y-94829381D01*
X128420858Y-94829381D01*
X128516096Y-94877000D01*
X128563715Y-94924619D01*
X128611334Y-95019857D01*
X128611334Y-95162714D01*
X128563715Y-95257952D01*
X128516096Y-95305571D01*
X128420858Y-95353190D01*
X128039905Y-95353190D01*
X129563715Y-95829381D02*
X128992286Y-95829381D01*
X129278000Y-95829381D02*
X129278000Y-94829381D01*
X129182762Y-94972238D01*
X129087524Y-95067476D01*
X128992286Y-95115095D01*
X133183334Y-98926381D02*
X132850000Y-98450190D01*
X132611905Y-98926381D02*
X132611905Y-97926381D01*
X132992858Y-97926381D01*
X133088096Y-97974000D01*
X133135715Y-98021619D01*
X133183334Y-98116857D01*
X133183334Y-98259714D01*
X133135715Y-98354952D01*
X133088096Y-98402571D01*
X132992858Y-98450190D01*
X132611905Y-98450190D01*
X134135715Y-98926381D02*
X133564286Y-98926381D01*
X133850000Y-98926381D02*
X133850000Y-97926381D01*
X133754762Y-98069238D01*
X133659524Y-98164476D01*
X133564286Y-98212095D01*
X133056334Y-93543381D02*
X132723000Y-93067190D01*
X132484905Y-93543381D02*
X132484905Y-92543381D01*
X132865858Y-92543381D01*
X132961096Y-92591000D01*
X133008715Y-92638619D01*
X133056334Y-92733857D01*
X133056334Y-92876714D01*
X133008715Y-92971952D01*
X132961096Y-93019571D01*
X132865858Y-93067190D01*
X132484905Y-93067190D01*
X133437286Y-92638619D02*
X133484905Y-92591000D01*
X133580143Y-92543381D01*
X133818239Y-92543381D01*
X133913477Y-92591000D01*
X133961096Y-92638619D01*
X134008715Y-92733857D01*
X134008715Y-92829095D01*
X133961096Y-92971952D01*
X133389667Y-93543381D01*
X134008715Y-93543381D01*
X131532381Y-82272381D02*
X131199047Y-81796190D01*
X130960952Y-82272381D02*
X130960952Y-81272381D01*
X131341905Y-81272381D01*
X131437143Y-81320000D01*
X131484762Y-81367619D01*
X131532381Y-81462857D01*
X131532381Y-81605714D01*
X131484762Y-81700952D01*
X131437143Y-81748571D01*
X131341905Y-81796190D01*
X130960952Y-81796190D01*
X131913333Y-82224762D02*
X132056190Y-82272381D01*
X132294286Y-82272381D01*
X132389524Y-82224762D01*
X132437143Y-82177143D01*
X132484762Y-82081905D01*
X132484762Y-81986667D01*
X132437143Y-81891429D01*
X132389524Y-81843810D01*
X132294286Y-81796190D01*
X132103809Y-81748571D01*
X132008571Y-81700952D01*
X131960952Y-81653333D01*
X131913333Y-81558095D01*
X131913333Y-81462857D01*
X131960952Y-81367619D01*
X132008571Y-81320000D01*
X132103809Y-81272381D01*
X132341905Y-81272381D01*
X132484762Y-81320000D01*
X132770476Y-81272381D02*
X133341905Y-81272381D01*
X133056190Y-82272381D02*
X133056190Y-81272381D01*
X136334667Y-81272381D02*
X136906096Y-81272381D01*
X136620381Y-82272381D02*
X136620381Y-81272381D01*
X137239429Y-82272381D02*
X137239429Y-81272381D01*
X137572763Y-81986667D01*
X137906096Y-81272381D01*
X137906096Y-82272381D01*
X138334667Y-82224762D02*
X138477524Y-82272381D01*
X138715620Y-82272381D01*
X138810858Y-82224762D01*
X138858477Y-82177143D01*
X138906096Y-82081905D01*
X138906096Y-81986667D01*
X138858477Y-81891429D01*
X138810858Y-81843810D01*
X138715620Y-81796190D01*
X138525143Y-81748571D01*
X138429905Y-81700952D01*
X138382286Y-81653333D01*
X138334667Y-81558095D01*
X138334667Y-81462857D01*
X138382286Y-81367619D01*
X138429905Y-81320000D01*
X138525143Y-81272381D01*
X138763239Y-81272381D01*
X138906096Y-81320000D01*
X142232191Y-81272381D02*
X142803620Y-81272381D01*
X142517905Y-82272381D02*
X142517905Y-81272381D01*
X143136953Y-82272381D02*
X143136953Y-81272381D01*
X143375048Y-81272381D01*
X143517906Y-81320000D01*
X143613144Y-81415238D01*
X143660763Y-81510476D01*
X143708382Y-81700952D01*
X143708382Y-81843810D01*
X143660763Y-82034286D01*
X143613144Y-82129524D01*
X143517906Y-82224762D01*
X143375048Y-82272381D01*
X143136953Y-82272381D01*
X144136953Y-82272381D02*
X144136953Y-81272381D01*
X145288096Y-85320000D02*
X145192858Y-85272381D01*
X145050001Y-85272381D01*
X144907143Y-85320000D01*
X144811905Y-85415238D01*
X144764286Y-85510476D01*
X144716667Y-85700952D01*
X144716667Y-85843810D01*
X144764286Y-86034286D01*
X144811905Y-86129524D01*
X144907143Y-86224762D01*
X145050001Y-86272381D01*
X145145239Y-86272381D01*
X145288096Y-86224762D01*
X145335715Y-86177143D01*
X145335715Y-85843810D01*
X145145239Y-85843810D01*
X145764286Y-86272381D02*
X145764286Y-85272381D01*
X146335715Y-86272381D01*
X146335715Y-85272381D01*
X146811905Y-86272381D02*
X146811905Y-85272381D01*
X147050000Y-85272381D01*
X147192858Y-85320000D01*
X147288096Y-85415238D01*
X147335715Y-85510476D01*
X147383334Y-85700952D01*
X147383334Y-85843810D01*
X147335715Y-86034286D01*
X147288096Y-86129524D01*
X147192858Y-86224762D01*
X147050000Y-86272381D01*
X146811905Y-86272381D01*
X133588286Y-85272381D02*
X134159715Y-85272381D01*
X133874000Y-86272381D02*
X133874000Y-85272381D01*
X135064477Y-86177143D02*
X135016858Y-86224762D01*
X134874001Y-86272381D01*
X134778763Y-86272381D01*
X134635905Y-86224762D01*
X134540667Y-86129524D01*
X134493048Y-86034286D01*
X134445429Y-85843810D01*
X134445429Y-85700952D01*
X134493048Y-85510476D01*
X134540667Y-85415238D01*
X134635905Y-85320000D01*
X134778763Y-85272381D01*
X134874001Y-85272381D01*
X135016858Y-85320000D01*
X135064477Y-85367619D01*
X135493048Y-86272381D02*
X135493048Y-85272381D01*
X136064477Y-86272381D02*
X135635905Y-85700952D01*
X136064477Y-85272381D02*
X135493048Y-85843810D01*
X139152476Y-85272381D02*
X139723905Y-85272381D01*
X139438190Y-86272381D02*
X139438190Y-85272381D01*
X140057238Y-86272381D02*
X140057238Y-85272381D01*
X140295333Y-85272381D01*
X140438191Y-85320000D01*
X140533429Y-85415238D01*
X140581048Y-85510476D01*
X140628667Y-85700952D01*
X140628667Y-85843810D01*
X140581048Y-86034286D01*
X140533429Y-86129524D01*
X140438191Y-86224762D01*
X140295333Y-86272381D01*
X140057238Y-86272381D01*
X141247714Y-85272381D02*
X141438191Y-85272381D01*
X141533429Y-85320000D01*
X141628667Y-85415238D01*
X141676286Y-85605714D01*
X141676286Y-85939048D01*
X141628667Y-86129524D01*
X141533429Y-86224762D01*
X141438191Y-86272381D01*
X141247714Y-86272381D01*
X141152476Y-86224762D01*
X141057238Y-86129524D01*
X141009619Y-85939048D01*
X141009619Y-85605714D01*
X141057238Y-85415238D01*
X141152476Y-85320000D01*
X141247714Y-85272381D01*
X148653524Y-81272381D02*
X148177333Y-81272381D01*
X148129714Y-81748571D01*
X148177333Y-81700952D01*
X148272571Y-81653333D01*
X148510667Y-81653333D01*
X148605905Y-81700952D01*
X148653524Y-81748571D01*
X148701143Y-81843810D01*
X148701143Y-82081905D01*
X148653524Y-82177143D01*
X148605905Y-82224762D01*
X148510667Y-82272381D01*
X148272571Y-82272381D01*
X148177333Y-82224762D01*
X148129714Y-82177143D01*
X148986857Y-81272381D02*
X149320190Y-82272381D01*
X149653524Y-81272381D01*
X139985809Y-114911190D02*
X139985809Y-115387381D01*
X139652476Y-114387381D02*
X139985809Y-114911190D01*
X140319143Y-114387381D01*
X141176286Y-115387381D02*
X140604857Y-115387381D01*
X140890571Y-115387381D02*
X140890571Y-114387381D01*
X140795333Y-114530238D01*
X140700095Y-114625476D01*
X140604857Y-114673095D01*
X152725381Y-111418666D02*
X152249190Y-111752000D01*
X152725381Y-111990095D02*
X151725381Y-111990095D01*
X151725381Y-111609142D01*
X151773000Y-111513904D01*
X151820619Y-111466285D01*
X151915857Y-111418666D01*
X152058714Y-111418666D01*
X152153952Y-111466285D01*
X152201571Y-111513904D01*
X152249190Y-111609142D01*
X152249190Y-111990095D01*
X151725381Y-111085333D02*
X151725381Y-110466285D01*
X152106333Y-110799619D01*
X152106333Y-110656761D01*
X152153952Y-110561523D01*
X152201571Y-110513904D01*
X152296810Y-110466285D01*
X152534905Y-110466285D01*
X152630143Y-110513904D01*
X152677762Y-110561523D01*
X152725381Y-110656761D01*
X152725381Y-110942476D01*
X152677762Y-111037714D01*
X152630143Y-111085333D01*
X125166381Y-89574666D02*
X124690190Y-89908000D01*
X125166381Y-90146095D02*
X124166381Y-90146095D01*
X124166381Y-89765142D01*
X124214000Y-89669904D01*
X124261619Y-89622285D01*
X124356857Y-89574666D01*
X124499714Y-89574666D01*
X124594952Y-89622285D01*
X124642571Y-89669904D01*
X124690190Y-89765142D01*
X124690190Y-90146095D01*
X124499714Y-88717523D02*
X125166381Y-88717523D01*
X124118762Y-88955619D02*
X124833048Y-89193714D01*
X124833048Y-88574666D01*
M02*
